G04 #@! TF.GenerationSoftware,KiCad,Pcbnew,(5.1.0)-1*
G04 #@! TF.CreationDate,2019-06-11T15:23:59-04:00*
G04 #@! TF.ProjectId,top and bottom case,746f7020-616e-4642-9062-6f74746f6d20,rev?*
G04 #@! TF.SameCoordinates,PX528a7e4PY5879c7c*
G04 #@! TF.FileFunction,Soldermask,Top*
G04 #@! TF.FilePolarity,Negative*
%FSLAX46Y46*%
G04 Gerber Fmt 4.6, Leading zero omitted, Abs format (unit mm)*
G04 Created by KiCad (PCBNEW (5.1.0)-1) date 2019-06-11 15:23:59*
%MOMM*%
%LPD*%
G04 APERTURE LIST*
%ADD10C,0.800000*%
%ADD11C,6.400000*%
G04 APERTURE END LIST*
D10*
X64443556Y29022556D03*
X62746500Y29725500D03*
X61049444Y29022556D03*
X60346500Y27325500D03*
X61049444Y25628444D03*
X62746500Y24925500D03*
X64443556Y25628444D03*
X65146500Y27325500D03*
D11*
X62746500Y27325500D03*
X27677500Y27325500D03*
D10*
X30077500Y27325500D03*
X29374556Y25628444D03*
X27677500Y24925500D03*
X25980444Y25628444D03*
X25277500Y27325500D03*
X25980444Y29022556D03*
X27677500Y29725500D03*
X29374556Y29022556D03*
X29374556Y-23977444D03*
X27677500Y-23274500D03*
X25980444Y-23977444D03*
X25277500Y-25674500D03*
X25980444Y-27371556D03*
X27677500Y-28074500D03*
X29374556Y-27371556D03*
X30077500Y-25674500D03*
D11*
X27677500Y-25674500D03*
X62746500Y-25674500D03*
D10*
X65146500Y-25674500D03*
X64443556Y-27371556D03*
X62746500Y-28074500D03*
X61049444Y-27371556D03*
X60346500Y-25674500D03*
X61049444Y-23977444D03*
X62746500Y-23274500D03*
X64443556Y-23977444D03*
D11*
X-16391500Y-25674500D03*
D10*
X-13991500Y-25674500D03*
X-14694444Y-27371556D03*
X-16391500Y-28074500D03*
X-18088556Y-27371556D03*
X-18791500Y-25674500D03*
X-18088556Y-23977444D03*
X-16391500Y-23274500D03*
X-14694444Y-23977444D03*
X-14694444Y29022556D03*
X-16391500Y29725500D03*
X-18088556Y29022556D03*
X-18791500Y27325500D03*
X-18088556Y25628444D03*
X-16391500Y24925500D03*
X-14694444Y25628444D03*
X-13991500Y27325500D03*
D11*
X-16391500Y27325500D03*
X18677500Y27325500D03*
D10*
X21077500Y27325500D03*
X20374556Y25628444D03*
X18677500Y24925500D03*
X16980444Y25628444D03*
X16277500Y27325500D03*
X16980444Y29022556D03*
X18677500Y29725500D03*
X20374556Y29022556D03*
X20374556Y-23977444D03*
X18677500Y-23274500D03*
X16980444Y-23977444D03*
X16277500Y-25674500D03*
X16980444Y-27371556D03*
X18677500Y-28074500D03*
X20374556Y-27371556D03*
X21077500Y-25674500D03*
D11*
X18677500Y-25674500D03*
M02*
