M48
; DRILL file {KiCad (5.1.0)-1} date 6/11/2019 3:24:03 PM
; FORMAT={-:-/ absolute / inch / decimal}
; #@! TF.CreationDate,2019-06-11T15:24:03-04:00
; #@! TF.GenerationSoftware,Kicad,Pcbnew,(5.1.0)-1
FMAT,2
INCH
T1C0.0197
T2C0.1260
%
G90
G05
T1
X0.9952Y-1.0108
X1.0229Y-0.944
X1.0229Y-1.0776
X1.0897Y-0.9163
X1.0897Y-1.1053
X1.1565Y-0.944
X1.1565Y-1.0776
X1.1842Y-1.0108
X-0.7398Y1.0758
X-0.7121Y1.1426
X-0.7121Y1.009
X-0.6453Y1.1703
X-0.6453Y0.9813
X-0.5785Y1.1426
X-0.5785Y1.009
X-0.5508Y1.0758
X0.6408Y-1.0108
X0.6685Y-0.944
X0.6685Y-1.0776
X0.7353Y-0.9163
X0.7353Y-1.1053
X0.8021Y-0.944
X0.8021Y-1.0776
X0.8298Y-1.0108
X2.3758Y-1.0108
X2.4035Y-0.944
X2.4035Y-1.0776
X2.4703Y-0.9163
X2.4703Y-1.1053
X2.5371Y-0.944
X2.5371Y-1.0776
X2.5648Y-1.0108
X0.6408Y1.0758
X0.6685Y1.1426
X0.6685Y1.009
X0.7353Y1.1703
X0.7353Y0.9813
X0.8021Y1.1426
X0.8021Y1.009
X0.8298Y1.0758
X2.3758Y1.0758
X2.4035Y1.1426
X2.4035Y1.009
X2.4703Y1.1703
X2.4703Y0.9813
X2.5371Y1.1426
X2.5371Y1.009
X2.5648Y1.0758
X0.9952Y1.0758
X1.0229Y1.1426
X1.0229Y1.009
X1.0897Y1.1703
X1.0897Y0.9813
X1.1565Y1.1426
X1.1565Y1.009
X1.1842Y1.0758
X-0.7398Y-1.0108
X-0.7121Y-0.944
X-0.7121Y-1.0776
X-0.6453Y-0.9163
X-0.6453Y-1.1053
X-0.5785Y-0.944
X-0.5785Y-1.0776
X-0.5508Y-1.0108
T2
X2.4703Y-1.0108
X0.7353Y1.0758
X2.4703Y1.0758
X1.0897Y1.0758
X-0.6453Y-1.0108
X1.0897Y-1.0108
X-0.6453Y1.0758
X0.7353Y-1.0108
T0
M30
