M48
; DRILL file {KiCad (5.1.0)-1} date 6/17/2019 2:55:06 PM
; FORMAT={-:-/ absolute / inch / decimal}
; #@! TF.CreationDate,2019-06-17T14:55:06-04:00
; #@! TF.GenerationSoftware,Kicad,Pcbnew,(5.1.0)-1
FMAT,2
INCH
T1C0.0157
T2C0.0197
T3C0.0236
T4C0.0260
T5C0.0315
T6C0.0335
T7C0.0340
T8C0.0354
T9C0.0669
T10C0.0760
T11C0.1024
T12C0.1260
T13C0.0800
%
G90
G05
T1
X-0.1825Y-0.9375
X0.0325Y-1.0525
X0.0875Y0.1175
X0.1225Y0.4325
X0.1325Y-0.4225
X0.1325Y-0.4925
X0.185Y0.1675
X0.1975Y-0.2775
X0.2225Y-0.0275
X0.2325Y-0.3725
X0.24Y-0.2625
X0.265Y0.0325
X0.2725Y-0.2025
X0.2948Y0.3132
X0.3025Y0.3625
X0.3259Y-0.0604
X0.3525Y-0.0275
X0.3925Y0.3275
X0.3925Y0.0325
X0.3925Y0.0325
X0.49Y0.15
T2
X0.6408Y1.0758
X0.6685Y1.1426
X0.6685Y1.009
X0.7353Y1.1703
X0.7353Y0.9813
X0.8021Y1.1426
X0.8021Y1.009
X0.8298Y1.0758
X-0.7398Y-1.0108
X-0.7121Y-0.944
X-0.7121Y-1.0776
X-0.6453Y-0.9163
X-0.6453Y-1.1053
X-0.5785Y-0.944
X-0.5785Y-1.0776
X-0.5508Y-1.0108
X-0.7398Y1.0758
X-0.7121Y1.1426
X-0.7121Y1.009
X-0.6453Y1.1703
X-0.6453Y0.9813
X-0.5785Y1.1426
X-0.5785Y1.009
X-0.5508Y1.0758
X0.6408Y-1.0108
X0.6685Y-0.944
X0.6685Y-1.0776
X0.7353Y-0.9163
X0.7353Y-1.1053
X0.8021Y-0.944
X0.8021Y-1.0776
X0.8298Y-1.0108
T4
X-0.6175Y-0.2925
X-0.5675Y-0.2425
X-0.5675Y-0.3425
X-0.4675Y-0.2425
X-0.4675Y-0.3425
X-0.4175Y-0.2925
T5
X-0.2325Y-0.8135
X-0.2325Y-1.1135
X-0.1325Y-0.8135
X-0.1325Y-1.1135
T6
X0.2341Y1.0899
X0.4309Y1.0899
T7
X-0.5925Y0.4075
X-0.5925Y0.3325
X-0.5925Y0.2575
X-0.5925Y0.1825
X-0.5925Y0.1075
X-0.5925Y0.0325
X-0.5925Y-0.0425
X-0.5925Y-0.1175
X-0.5175Y0.4075
X-0.5175Y0.3325
X-0.5175Y0.2575
X-0.5175Y0.1825
X-0.5175Y0.1075
X-0.5175Y0.0325
X-0.5175Y-0.0425
X-0.5175Y-0.1175
X-0.4425Y0.4075
X-0.4425Y0.3325
X-0.4425Y0.2575
X-0.4425Y0.1825
X-0.4425Y0.1075
X-0.4425Y0.0325
X-0.4425Y-0.0425
X-0.4425Y-0.1175
T8
X0.1811Y-1.0195
X0.1811Y-1.1494
X0.2795Y-1.0195
X0.2795Y-1.1494
X0.3779Y-1.0195
X0.3779Y-1.1494
T9
X0.6372Y0.6231
X0.6372Y0.0325
X0.6372Y-0.5581
T10
X-0.5925Y0.6375
X-0.5925Y-0.5725
T11
X0.6372Y0.2328
X0.6372Y-0.1678
X0.8191Y0.0325
X0.6372Y-0.3577
X0.6372Y-0.7584
X0.8191Y-0.5581
X0.6372Y0.8234
X0.6372Y0.4227
X0.8191Y0.6231
T12
X0.7353Y-1.0108
X0.7353Y1.0758
X-0.6453Y-1.0108
X-0.6453Y1.0758
T13
X-0.7225Y0.4075
X-0.7225Y-0.3425
T3
G00X0.1947Y1.1824
M15
G01X0.1947Y1.21
M16
G05
G00X0.4703Y1.21
M15
G01X0.4703Y1.1824
M16
G05
T0
M30
