G04 #@! TF.GenerationSoftware,KiCad,Pcbnew,(5.1.0)-1*
G04 #@! TF.CreationDate,2019-06-17T14:55:03-04:00*
G04 #@! TF.ProjectId,comp2dvi2,636f6d70-3264-4766-9932-2e6b69636164,rev?*
G04 #@! TF.SameCoordinates,PX528a7e4PY5879c7c*
G04 #@! TF.FileFunction,Paste,Top*
G04 #@! TF.FilePolarity,Positive*
%FSLAX46Y46*%
G04 Gerber Fmt 4.6, Leading zero omitted, Abs format (unit mm)*
G04 Created by KiCad (PCBNEW (5.1.0)-1) date 2019-06-17 14:55:03*
%MOMM*%
%LPD*%
G04 APERTURE LIST*
%ADD10R,0.450000X1.450000*%
%ADD11R,1.500000X1.900000*%
%ADD12R,0.400000X1.350000*%
%ADD13C,0.100000*%
%ADD14C,0.950000*%
%ADD15C,1.600000*%
%ADD16C,2.500000*%
G04 APERTURE END LIST*
D10*
X11307000Y2759500D03*
X10657000Y2759500D03*
X10007000Y2759500D03*
X9357000Y2759500D03*
X8707000Y2759500D03*
X8057000Y2759500D03*
X7407000Y2759500D03*
X6757000Y2759500D03*
X6107000Y2759500D03*
X5457000Y2759500D03*
X5457000Y-3140500D03*
X6107000Y-3140500D03*
X6757000Y-3140500D03*
X7407000Y-3140500D03*
X8057000Y-3140500D03*
X8707000Y-3140500D03*
X9357000Y-3140500D03*
X10007000Y-3140500D03*
X10657000Y-3140500D03*
X11307000Y-3140500D03*
D11*
X9445500Y30384000D03*
D12*
X8445500Y27684000D03*
X7795500Y27684000D03*
X7145500Y27684000D03*
X9745500Y27684000D03*
X9095500Y27684000D03*
D11*
X7445500Y30384000D03*
D13*
G36*
X2098879Y-13559644D02*
G01*
X2121934Y-13563063D01*
X2144543Y-13568727D01*
X2166487Y-13576579D01*
X2187557Y-13586544D01*
X2207548Y-13598526D01*
X2226268Y-13612410D01*
X2243538Y-13628062D01*
X2259190Y-13645332D01*
X2273074Y-13664052D01*
X2285056Y-13684043D01*
X2295021Y-13705113D01*
X2302873Y-13727057D01*
X2308537Y-13749666D01*
X2311956Y-13772721D01*
X2313100Y-13796000D01*
X2313100Y-14271000D01*
X2311956Y-14294279D01*
X2308537Y-14317334D01*
X2302873Y-14339943D01*
X2295021Y-14361887D01*
X2285056Y-14382957D01*
X2273074Y-14402948D01*
X2259190Y-14421668D01*
X2243538Y-14438938D01*
X2226268Y-14454590D01*
X2207548Y-14468474D01*
X2187557Y-14480456D01*
X2166487Y-14490421D01*
X2144543Y-14498273D01*
X2121934Y-14503937D01*
X2098879Y-14507356D01*
X2075600Y-14508500D01*
X1500600Y-14508500D01*
X1477321Y-14507356D01*
X1454266Y-14503937D01*
X1431657Y-14498273D01*
X1409713Y-14490421D01*
X1388643Y-14480456D01*
X1368652Y-14468474D01*
X1349932Y-14454590D01*
X1332662Y-14438938D01*
X1317010Y-14421668D01*
X1303126Y-14402948D01*
X1291144Y-14382957D01*
X1281179Y-14361887D01*
X1273327Y-14339943D01*
X1267663Y-14317334D01*
X1264244Y-14294279D01*
X1263100Y-14271000D01*
X1263100Y-13796000D01*
X1264244Y-13772721D01*
X1267663Y-13749666D01*
X1273327Y-13727057D01*
X1281179Y-13705113D01*
X1291144Y-13684043D01*
X1303126Y-13664052D01*
X1317010Y-13645332D01*
X1332662Y-13628062D01*
X1349932Y-13612410D01*
X1368652Y-13598526D01*
X1388643Y-13586544D01*
X1409713Y-13576579D01*
X1431657Y-13568727D01*
X1454266Y-13563063D01*
X1477321Y-13559644D01*
X1500600Y-13558500D01*
X2075600Y-13558500D01*
X2098879Y-13559644D01*
X2098879Y-13559644D01*
G37*
D14*
X1788100Y-14033500D03*
D13*
G36*
X348879Y-13559644D02*
G01*
X371934Y-13563063D01*
X394543Y-13568727D01*
X416487Y-13576579D01*
X437557Y-13586544D01*
X457548Y-13598526D01*
X476268Y-13612410D01*
X493538Y-13628062D01*
X509190Y-13645332D01*
X523074Y-13664052D01*
X535056Y-13684043D01*
X545021Y-13705113D01*
X552873Y-13727057D01*
X558537Y-13749666D01*
X561956Y-13772721D01*
X563100Y-13796000D01*
X563100Y-14271000D01*
X561956Y-14294279D01*
X558537Y-14317334D01*
X552873Y-14339943D01*
X545021Y-14361887D01*
X535056Y-14382957D01*
X523074Y-14402948D01*
X509190Y-14421668D01*
X493538Y-14438938D01*
X476268Y-14454590D01*
X457548Y-14468474D01*
X437557Y-14480456D01*
X416487Y-14490421D01*
X394543Y-14498273D01*
X371934Y-14503937D01*
X348879Y-14507356D01*
X325600Y-14508500D01*
X-249400Y-14508500D01*
X-272679Y-14507356D01*
X-295734Y-14503937D01*
X-318343Y-14498273D01*
X-340287Y-14490421D01*
X-361357Y-14480456D01*
X-381348Y-14468474D01*
X-400068Y-14454590D01*
X-417338Y-14438938D01*
X-432990Y-14421668D01*
X-446874Y-14402948D01*
X-458856Y-14382957D01*
X-468821Y-14361887D01*
X-476673Y-14339943D01*
X-482337Y-14317334D01*
X-485756Y-14294279D01*
X-486900Y-14271000D01*
X-486900Y-13796000D01*
X-485756Y-13772721D01*
X-482337Y-13749666D01*
X-476673Y-13727057D01*
X-468821Y-13705113D01*
X-458856Y-13684043D01*
X-446874Y-13664052D01*
X-432990Y-13645332D01*
X-417338Y-13628062D01*
X-400068Y-13612410D01*
X-381348Y-13598526D01*
X-361357Y-13586544D01*
X-340287Y-13576579D01*
X-318343Y-13568727D01*
X-295734Y-13563063D01*
X-272679Y-13559644D01*
X-249400Y-13558500D01*
X325600Y-13558500D01*
X348879Y-13559644D01*
X348879Y-13559644D01*
G37*
D14*
X38100Y-14033500D03*
D13*
G36*
X2088779Y-11972144D02*
G01*
X2111834Y-11975563D01*
X2134443Y-11981227D01*
X2156387Y-11989079D01*
X2177457Y-11999044D01*
X2197448Y-12011026D01*
X2216168Y-12024910D01*
X2233438Y-12040562D01*
X2249090Y-12057832D01*
X2262974Y-12076552D01*
X2274956Y-12096543D01*
X2284921Y-12117613D01*
X2292773Y-12139557D01*
X2298437Y-12162166D01*
X2301856Y-12185221D01*
X2303000Y-12208500D01*
X2303000Y-12683500D01*
X2301856Y-12706779D01*
X2298437Y-12729834D01*
X2292773Y-12752443D01*
X2284921Y-12774387D01*
X2274956Y-12795457D01*
X2262974Y-12815448D01*
X2249090Y-12834168D01*
X2233438Y-12851438D01*
X2216168Y-12867090D01*
X2197448Y-12880974D01*
X2177457Y-12892956D01*
X2156387Y-12902921D01*
X2134443Y-12910773D01*
X2111834Y-12916437D01*
X2088779Y-12919856D01*
X2065500Y-12921000D01*
X1490500Y-12921000D01*
X1467221Y-12919856D01*
X1444166Y-12916437D01*
X1421557Y-12910773D01*
X1399613Y-12902921D01*
X1378543Y-12892956D01*
X1358552Y-12880974D01*
X1339832Y-12867090D01*
X1322562Y-12851438D01*
X1306910Y-12834168D01*
X1293026Y-12815448D01*
X1281044Y-12795457D01*
X1271079Y-12774387D01*
X1263227Y-12752443D01*
X1257563Y-12729834D01*
X1254144Y-12706779D01*
X1253000Y-12683500D01*
X1253000Y-12208500D01*
X1254144Y-12185221D01*
X1257563Y-12162166D01*
X1263227Y-12139557D01*
X1271079Y-12117613D01*
X1281044Y-12096543D01*
X1293026Y-12076552D01*
X1306910Y-12057832D01*
X1322562Y-12040562D01*
X1339832Y-12024910D01*
X1358552Y-12011026D01*
X1378543Y-11999044D01*
X1399613Y-11989079D01*
X1421557Y-11981227D01*
X1444166Y-11975563D01*
X1467221Y-11972144D01*
X1490500Y-11971000D01*
X2065500Y-11971000D01*
X2088779Y-11972144D01*
X2088779Y-11972144D01*
G37*
D14*
X1778000Y-12446000D03*
D13*
G36*
X338779Y-11972144D02*
G01*
X361834Y-11975563D01*
X384443Y-11981227D01*
X406387Y-11989079D01*
X427457Y-11999044D01*
X447448Y-12011026D01*
X466168Y-12024910D01*
X483438Y-12040562D01*
X499090Y-12057832D01*
X512974Y-12076552D01*
X524956Y-12096543D01*
X534921Y-12117613D01*
X542773Y-12139557D01*
X548437Y-12162166D01*
X551856Y-12185221D01*
X553000Y-12208500D01*
X553000Y-12683500D01*
X551856Y-12706779D01*
X548437Y-12729834D01*
X542773Y-12752443D01*
X534921Y-12774387D01*
X524956Y-12795457D01*
X512974Y-12815448D01*
X499090Y-12834168D01*
X483438Y-12851438D01*
X466168Y-12867090D01*
X447448Y-12880974D01*
X427457Y-12892956D01*
X406387Y-12902921D01*
X384443Y-12910773D01*
X361834Y-12916437D01*
X338779Y-12919856D01*
X315500Y-12921000D01*
X-259500Y-12921000D01*
X-282779Y-12919856D01*
X-305834Y-12916437D01*
X-328443Y-12910773D01*
X-350387Y-12902921D01*
X-371457Y-12892956D01*
X-391448Y-12880974D01*
X-410168Y-12867090D01*
X-427438Y-12851438D01*
X-443090Y-12834168D01*
X-456974Y-12815448D01*
X-468956Y-12795457D01*
X-478921Y-12774387D01*
X-486773Y-12752443D01*
X-492437Y-12729834D01*
X-495856Y-12706779D01*
X-497000Y-12683500D01*
X-497000Y-12208500D01*
X-495856Y-12185221D01*
X-492437Y-12162166D01*
X-486773Y-12139557D01*
X-478921Y-12117613D01*
X-468956Y-12096543D01*
X-456974Y-12076552D01*
X-443090Y-12057832D01*
X-427438Y-12040562D01*
X-410168Y-12024910D01*
X-391448Y-12011026D01*
X-371457Y-11999044D01*
X-350387Y-11989079D01*
X-328443Y-11981227D01*
X-305834Y-11975563D01*
X-282779Y-11972144D01*
X-259500Y-11971000D01*
X315500Y-11971000D01*
X338779Y-11972144D01*
X338779Y-11972144D01*
G37*
D14*
X28000Y-12446000D03*
D13*
G36*
X2088779Y-10321144D02*
G01*
X2111834Y-10324563D01*
X2134443Y-10330227D01*
X2156387Y-10338079D01*
X2177457Y-10348044D01*
X2197448Y-10360026D01*
X2216168Y-10373910D01*
X2233438Y-10389562D01*
X2249090Y-10406832D01*
X2262974Y-10425552D01*
X2274956Y-10445543D01*
X2284921Y-10466613D01*
X2292773Y-10488557D01*
X2298437Y-10511166D01*
X2301856Y-10534221D01*
X2303000Y-10557500D01*
X2303000Y-11032500D01*
X2301856Y-11055779D01*
X2298437Y-11078834D01*
X2292773Y-11101443D01*
X2284921Y-11123387D01*
X2274956Y-11144457D01*
X2262974Y-11164448D01*
X2249090Y-11183168D01*
X2233438Y-11200438D01*
X2216168Y-11216090D01*
X2197448Y-11229974D01*
X2177457Y-11241956D01*
X2156387Y-11251921D01*
X2134443Y-11259773D01*
X2111834Y-11265437D01*
X2088779Y-11268856D01*
X2065500Y-11270000D01*
X1490500Y-11270000D01*
X1467221Y-11268856D01*
X1444166Y-11265437D01*
X1421557Y-11259773D01*
X1399613Y-11251921D01*
X1378543Y-11241956D01*
X1358552Y-11229974D01*
X1339832Y-11216090D01*
X1322562Y-11200438D01*
X1306910Y-11183168D01*
X1293026Y-11164448D01*
X1281044Y-11144457D01*
X1271079Y-11123387D01*
X1263227Y-11101443D01*
X1257563Y-11078834D01*
X1254144Y-11055779D01*
X1253000Y-11032500D01*
X1253000Y-10557500D01*
X1254144Y-10534221D01*
X1257563Y-10511166D01*
X1263227Y-10488557D01*
X1271079Y-10466613D01*
X1281044Y-10445543D01*
X1293026Y-10425552D01*
X1306910Y-10406832D01*
X1322562Y-10389562D01*
X1339832Y-10373910D01*
X1358552Y-10360026D01*
X1378543Y-10348044D01*
X1399613Y-10338079D01*
X1421557Y-10330227D01*
X1444166Y-10324563D01*
X1467221Y-10321144D01*
X1490500Y-10320000D01*
X2065500Y-10320000D01*
X2088779Y-10321144D01*
X2088779Y-10321144D01*
G37*
D14*
X1778000Y-10795000D03*
D13*
G36*
X338779Y-10321144D02*
G01*
X361834Y-10324563D01*
X384443Y-10330227D01*
X406387Y-10338079D01*
X427457Y-10348044D01*
X447448Y-10360026D01*
X466168Y-10373910D01*
X483438Y-10389562D01*
X499090Y-10406832D01*
X512974Y-10425552D01*
X524956Y-10445543D01*
X534921Y-10466613D01*
X542773Y-10488557D01*
X548437Y-10511166D01*
X551856Y-10534221D01*
X553000Y-10557500D01*
X553000Y-11032500D01*
X551856Y-11055779D01*
X548437Y-11078834D01*
X542773Y-11101443D01*
X534921Y-11123387D01*
X524956Y-11144457D01*
X512974Y-11164448D01*
X499090Y-11183168D01*
X483438Y-11200438D01*
X466168Y-11216090D01*
X447448Y-11229974D01*
X427457Y-11241956D01*
X406387Y-11251921D01*
X384443Y-11259773D01*
X361834Y-11265437D01*
X338779Y-11268856D01*
X315500Y-11270000D01*
X-259500Y-11270000D01*
X-282779Y-11268856D01*
X-305834Y-11265437D01*
X-328443Y-11259773D01*
X-350387Y-11251921D01*
X-371457Y-11241956D01*
X-391448Y-11229974D01*
X-410168Y-11216090D01*
X-427438Y-11200438D01*
X-443090Y-11183168D01*
X-456974Y-11164448D01*
X-468956Y-11144457D01*
X-478921Y-11123387D01*
X-486773Y-11101443D01*
X-492437Y-11078834D01*
X-495856Y-11055779D01*
X-497000Y-11032500D01*
X-497000Y-10557500D01*
X-495856Y-10534221D01*
X-492437Y-10511166D01*
X-486773Y-10488557D01*
X-478921Y-10466613D01*
X-468956Y-10445543D01*
X-456974Y-10425552D01*
X-443090Y-10406832D01*
X-427438Y-10389562D01*
X-410168Y-10373910D01*
X-391448Y-10360026D01*
X-371457Y-10348044D01*
X-350387Y-10338079D01*
X-328443Y-10330227D01*
X-305834Y-10324563D01*
X-282779Y-10321144D01*
X-259500Y-10320000D01*
X315500Y-10320000D01*
X338779Y-10321144D01*
X338779Y-10321144D01*
G37*
D14*
X28000Y-10795000D03*
D13*
G36*
X4692279Y11459356D02*
G01*
X4715334Y11455937D01*
X4737943Y11450273D01*
X4759887Y11442421D01*
X4780957Y11432456D01*
X4800948Y11420474D01*
X4819668Y11406590D01*
X4836938Y11390938D01*
X4852590Y11373668D01*
X4866474Y11354948D01*
X4878456Y11334957D01*
X4888421Y11313887D01*
X4896273Y11291943D01*
X4901937Y11269334D01*
X4905356Y11246279D01*
X4906500Y11223000D01*
X4906500Y10748000D01*
X4905356Y10724721D01*
X4901937Y10701666D01*
X4896273Y10679057D01*
X4888421Y10657113D01*
X4878456Y10636043D01*
X4866474Y10616052D01*
X4852590Y10597332D01*
X4836938Y10580062D01*
X4819668Y10564410D01*
X4800948Y10550526D01*
X4780957Y10538544D01*
X4759887Y10528579D01*
X4737943Y10520727D01*
X4715334Y10515063D01*
X4692279Y10511644D01*
X4669000Y10510500D01*
X4094000Y10510500D01*
X4070721Y10511644D01*
X4047666Y10515063D01*
X4025057Y10520727D01*
X4003113Y10528579D01*
X3982043Y10538544D01*
X3962052Y10550526D01*
X3943332Y10564410D01*
X3926062Y10580062D01*
X3910410Y10597332D01*
X3896526Y10616052D01*
X3884544Y10636043D01*
X3874579Y10657113D01*
X3866727Y10679057D01*
X3861063Y10701666D01*
X3857644Y10724721D01*
X3856500Y10748000D01*
X3856500Y11223000D01*
X3857644Y11246279D01*
X3861063Y11269334D01*
X3866727Y11291943D01*
X3874579Y11313887D01*
X3884544Y11334957D01*
X3896526Y11354948D01*
X3910410Y11373668D01*
X3926062Y11390938D01*
X3943332Y11406590D01*
X3962052Y11420474D01*
X3982043Y11432456D01*
X4003113Y11442421D01*
X4025057Y11450273D01*
X4047666Y11455937D01*
X4070721Y11459356D01*
X4094000Y11460500D01*
X4669000Y11460500D01*
X4692279Y11459356D01*
X4692279Y11459356D01*
G37*
D14*
X4381500Y10985500D03*
D13*
G36*
X6442279Y11459356D02*
G01*
X6465334Y11455937D01*
X6487943Y11450273D01*
X6509887Y11442421D01*
X6530957Y11432456D01*
X6550948Y11420474D01*
X6569668Y11406590D01*
X6586938Y11390938D01*
X6602590Y11373668D01*
X6616474Y11354948D01*
X6628456Y11334957D01*
X6638421Y11313887D01*
X6646273Y11291943D01*
X6651937Y11269334D01*
X6655356Y11246279D01*
X6656500Y11223000D01*
X6656500Y10748000D01*
X6655356Y10724721D01*
X6651937Y10701666D01*
X6646273Y10679057D01*
X6638421Y10657113D01*
X6628456Y10636043D01*
X6616474Y10616052D01*
X6602590Y10597332D01*
X6586938Y10580062D01*
X6569668Y10564410D01*
X6550948Y10550526D01*
X6530957Y10538544D01*
X6509887Y10528579D01*
X6487943Y10520727D01*
X6465334Y10515063D01*
X6442279Y10511644D01*
X6419000Y10510500D01*
X5844000Y10510500D01*
X5820721Y10511644D01*
X5797666Y10515063D01*
X5775057Y10520727D01*
X5753113Y10528579D01*
X5732043Y10538544D01*
X5712052Y10550526D01*
X5693332Y10564410D01*
X5676062Y10580062D01*
X5660410Y10597332D01*
X5646526Y10616052D01*
X5634544Y10636043D01*
X5624579Y10657113D01*
X5616727Y10679057D01*
X5611063Y10701666D01*
X5607644Y10724721D01*
X5606500Y10748000D01*
X5606500Y11223000D01*
X5607644Y11246279D01*
X5611063Y11269334D01*
X5616727Y11291943D01*
X5624579Y11313887D01*
X5634544Y11334957D01*
X5646526Y11354948D01*
X5660410Y11373668D01*
X5676062Y11390938D01*
X5693332Y11406590D01*
X5712052Y11420474D01*
X5732043Y11432456D01*
X5753113Y11442421D01*
X5775057Y11450273D01*
X5797666Y11455937D01*
X5820721Y11459356D01*
X5844000Y11460500D01*
X6419000Y11460500D01*
X6442279Y11459356D01*
X6442279Y11459356D01*
G37*
D14*
X6131500Y10985500D03*
D13*
G36*
X4197779Y1363356D02*
G01*
X4220834Y1359937D01*
X4243443Y1354273D01*
X4265387Y1346421D01*
X4286457Y1336456D01*
X4306448Y1324474D01*
X4325168Y1310590D01*
X4342438Y1294938D01*
X4358090Y1277668D01*
X4371974Y1258948D01*
X4383956Y1238957D01*
X4393921Y1217887D01*
X4401773Y1195943D01*
X4407437Y1173334D01*
X4410856Y1150279D01*
X4412000Y1127000D01*
X4412000Y552000D01*
X4410856Y528721D01*
X4407437Y505666D01*
X4401773Y483057D01*
X4393921Y461113D01*
X4383956Y440043D01*
X4371974Y420052D01*
X4358090Y401332D01*
X4342438Y384062D01*
X4325168Y368410D01*
X4306448Y354526D01*
X4286457Y342544D01*
X4265387Y332579D01*
X4243443Y324727D01*
X4220834Y319063D01*
X4197779Y315644D01*
X4174500Y314500D01*
X3699500Y314500D01*
X3676221Y315644D01*
X3653166Y319063D01*
X3630557Y324727D01*
X3608613Y332579D01*
X3587543Y342544D01*
X3567552Y354526D01*
X3548832Y368410D01*
X3531562Y384062D01*
X3515910Y401332D01*
X3502026Y420052D01*
X3490044Y440043D01*
X3480079Y461113D01*
X3472227Y483057D01*
X3466563Y505666D01*
X3463144Y528721D01*
X3462000Y552000D01*
X3462000Y1127000D01*
X3463144Y1150279D01*
X3466563Y1173334D01*
X3472227Y1195943D01*
X3480079Y1217887D01*
X3490044Y1238957D01*
X3502026Y1258948D01*
X3515910Y1277668D01*
X3531562Y1294938D01*
X3548832Y1310590D01*
X3567552Y1324474D01*
X3587543Y1336456D01*
X3608613Y1346421D01*
X3630557Y1354273D01*
X3653166Y1359937D01*
X3676221Y1363356D01*
X3699500Y1364500D01*
X4174500Y1364500D01*
X4197779Y1363356D01*
X4197779Y1363356D01*
G37*
D14*
X3937000Y839500D03*
D13*
G36*
X4197779Y3113356D02*
G01*
X4220834Y3109937D01*
X4243443Y3104273D01*
X4265387Y3096421D01*
X4286457Y3086456D01*
X4306448Y3074474D01*
X4325168Y3060590D01*
X4342438Y3044938D01*
X4358090Y3027668D01*
X4371974Y3008948D01*
X4383956Y2988957D01*
X4393921Y2967887D01*
X4401773Y2945943D01*
X4407437Y2923334D01*
X4410856Y2900279D01*
X4412000Y2877000D01*
X4412000Y2302000D01*
X4410856Y2278721D01*
X4407437Y2255666D01*
X4401773Y2233057D01*
X4393921Y2211113D01*
X4383956Y2190043D01*
X4371974Y2170052D01*
X4358090Y2151332D01*
X4342438Y2134062D01*
X4325168Y2118410D01*
X4306448Y2104526D01*
X4286457Y2092544D01*
X4265387Y2082579D01*
X4243443Y2074727D01*
X4220834Y2069063D01*
X4197779Y2065644D01*
X4174500Y2064500D01*
X3699500Y2064500D01*
X3676221Y2065644D01*
X3653166Y2069063D01*
X3630557Y2074727D01*
X3608613Y2082579D01*
X3587543Y2092544D01*
X3567552Y2104526D01*
X3548832Y2118410D01*
X3531562Y2134062D01*
X3515910Y2151332D01*
X3502026Y2170052D01*
X3490044Y2190043D01*
X3480079Y2211113D01*
X3472227Y2233057D01*
X3466563Y2255666D01*
X3463144Y2278721D01*
X3462000Y2302000D01*
X3462000Y2877000D01*
X3463144Y2900279D01*
X3466563Y2923334D01*
X3472227Y2945943D01*
X3480079Y2967887D01*
X3490044Y2988957D01*
X3502026Y3008948D01*
X3515910Y3027668D01*
X3531562Y3044938D01*
X3548832Y3060590D01*
X3567552Y3074474D01*
X3587543Y3086456D01*
X3608613Y3096421D01*
X3630557Y3104273D01*
X3653166Y3109937D01*
X3676221Y3113356D01*
X3699500Y3114500D01*
X4174500Y3114500D01*
X4197779Y3113356D01*
X4197779Y3113356D01*
G37*
D14*
X3937000Y2589500D03*
D13*
G36*
X11881279Y5730856D02*
G01*
X11904334Y5727437D01*
X11926943Y5721773D01*
X11948887Y5713921D01*
X11969957Y5703956D01*
X11989948Y5691974D01*
X12008668Y5678090D01*
X12025938Y5662438D01*
X12041590Y5645168D01*
X12055474Y5626448D01*
X12067456Y5606457D01*
X12077421Y5585387D01*
X12085273Y5563443D01*
X12090937Y5540834D01*
X12094356Y5517779D01*
X12095500Y5494500D01*
X12095500Y4919500D01*
X12094356Y4896221D01*
X12090937Y4873166D01*
X12085273Y4850557D01*
X12077421Y4828613D01*
X12067456Y4807543D01*
X12055474Y4787552D01*
X12041590Y4768832D01*
X12025938Y4751562D01*
X12008668Y4735910D01*
X11989948Y4722026D01*
X11969957Y4710044D01*
X11948887Y4700079D01*
X11926943Y4692227D01*
X11904334Y4686563D01*
X11881279Y4683144D01*
X11858000Y4682000D01*
X11383000Y4682000D01*
X11359721Y4683144D01*
X11336666Y4686563D01*
X11314057Y4692227D01*
X11292113Y4700079D01*
X11271043Y4710044D01*
X11251052Y4722026D01*
X11232332Y4735910D01*
X11215062Y4751562D01*
X11199410Y4768832D01*
X11185526Y4787552D01*
X11173544Y4807543D01*
X11163579Y4828613D01*
X11155727Y4850557D01*
X11150063Y4873166D01*
X11146644Y4896221D01*
X11145500Y4919500D01*
X11145500Y5494500D01*
X11146644Y5517779D01*
X11150063Y5540834D01*
X11155727Y5563443D01*
X11163579Y5585387D01*
X11173544Y5606457D01*
X11185526Y5626448D01*
X11199410Y5645168D01*
X11215062Y5662438D01*
X11232332Y5678090D01*
X11251052Y5691974D01*
X11271043Y5703956D01*
X11292113Y5713921D01*
X11314057Y5721773D01*
X11336666Y5727437D01*
X11359721Y5730856D01*
X11383000Y5732000D01*
X11858000Y5732000D01*
X11881279Y5730856D01*
X11881279Y5730856D01*
G37*
D14*
X11620500Y5207000D03*
D13*
G36*
X11881279Y7480856D02*
G01*
X11904334Y7477437D01*
X11926943Y7471773D01*
X11948887Y7463921D01*
X11969957Y7453956D01*
X11989948Y7441974D01*
X12008668Y7428090D01*
X12025938Y7412438D01*
X12041590Y7395168D01*
X12055474Y7376448D01*
X12067456Y7356457D01*
X12077421Y7335387D01*
X12085273Y7313443D01*
X12090937Y7290834D01*
X12094356Y7267779D01*
X12095500Y7244500D01*
X12095500Y6669500D01*
X12094356Y6646221D01*
X12090937Y6623166D01*
X12085273Y6600557D01*
X12077421Y6578613D01*
X12067456Y6557543D01*
X12055474Y6537552D01*
X12041590Y6518832D01*
X12025938Y6501562D01*
X12008668Y6485910D01*
X11989948Y6472026D01*
X11969957Y6460044D01*
X11948887Y6450079D01*
X11926943Y6442227D01*
X11904334Y6436563D01*
X11881279Y6433144D01*
X11858000Y6432000D01*
X11383000Y6432000D01*
X11359721Y6433144D01*
X11336666Y6436563D01*
X11314057Y6442227D01*
X11292113Y6450079D01*
X11271043Y6460044D01*
X11251052Y6472026D01*
X11232332Y6485910D01*
X11215062Y6501562D01*
X11199410Y6518832D01*
X11185526Y6537552D01*
X11173544Y6557543D01*
X11163579Y6578613D01*
X11155727Y6600557D01*
X11150063Y6623166D01*
X11146644Y6646221D01*
X11145500Y6669500D01*
X11145500Y7244500D01*
X11146644Y7267779D01*
X11150063Y7290834D01*
X11155727Y7313443D01*
X11163579Y7335387D01*
X11173544Y7356457D01*
X11185526Y7376448D01*
X11199410Y7395168D01*
X11215062Y7412438D01*
X11232332Y7428090D01*
X11251052Y7441974D01*
X11271043Y7453956D01*
X11292113Y7463921D01*
X11314057Y7471773D01*
X11336666Y7477437D01*
X11359721Y7480856D01*
X11383000Y7482000D01*
X11858000Y7482000D01*
X11881279Y7480856D01*
X11881279Y7480856D01*
G37*
D14*
X11620500Y6957000D03*
D13*
G36*
X10293779Y7480856D02*
G01*
X10316834Y7477437D01*
X10339443Y7471773D01*
X10361387Y7463921D01*
X10382457Y7453956D01*
X10402448Y7441974D01*
X10421168Y7428090D01*
X10438438Y7412438D01*
X10454090Y7395168D01*
X10467974Y7376448D01*
X10479956Y7356457D01*
X10489921Y7335387D01*
X10497773Y7313443D01*
X10503437Y7290834D01*
X10506856Y7267779D01*
X10508000Y7244500D01*
X10508000Y6669500D01*
X10506856Y6646221D01*
X10503437Y6623166D01*
X10497773Y6600557D01*
X10489921Y6578613D01*
X10479956Y6557543D01*
X10467974Y6537552D01*
X10454090Y6518832D01*
X10438438Y6501562D01*
X10421168Y6485910D01*
X10402448Y6472026D01*
X10382457Y6460044D01*
X10361387Y6450079D01*
X10339443Y6442227D01*
X10316834Y6436563D01*
X10293779Y6433144D01*
X10270500Y6432000D01*
X9795500Y6432000D01*
X9772221Y6433144D01*
X9749166Y6436563D01*
X9726557Y6442227D01*
X9704613Y6450079D01*
X9683543Y6460044D01*
X9663552Y6472026D01*
X9644832Y6485910D01*
X9627562Y6501562D01*
X9611910Y6518832D01*
X9598026Y6537552D01*
X9586044Y6557543D01*
X9576079Y6578613D01*
X9568227Y6600557D01*
X9562563Y6623166D01*
X9559144Y6646221D01*
X9558000Y6669500D01*
X9558000Y7244500D01*
X9559144Y7267779D01*
X9562563Y7290834D01*
X9568227Y7313443D01*
X9576079Y7335387D01*
X9586044Y7356457D01*
X9598026Y7376448D01*
X9611910Y7395168D01*
X9627562Y7412438D01*
X9644832Y7428090D01*
X9663552Y7441974D01*
X9683543Y7453956D01*
X9704613Y7463921D01*
X9726557Y7471773D01*
X9749166Y7477437D01*
X9772221Y7480856D01*
X9795500Y7482000D01*
X10270500Y7482000D01*
X10293779Y7480856D01*
X10293779Y7480856D01*
G37*
D14*
X10033000Y6957000D03*
D13*
G36*
X10293779Y5730856D02*
G01*
X10316834Y5727437D01*
X10339443Y5721773D01*
X10361387Y5713921D01*
X10382457Y5703956D01*
X10402448Y5691974D01*
X10421168Y5678090D01*
X10438438Y5662438D01*
X10454090Y5645168D01*
X10467974Y5626448D01*
X10479956Y5606457D01*
X10489921Y5585387D01*
X10497773Y5563443D01*
X10503437Y5540834D01*
X10506856Y5517779D01*
X10508000Y5494500D01*
X10508000Y4919500D01*
X10506856Y4896221D01*
X10503437Y4873166D01*
X10497773Y4850557D01*
X10489921Y4828613D01*
X10479956Y4807543D01*
X10467974Y4787552D01*
X10454090Y4768832D01*
X10438438Y4751562D01*
X10421168Y4735910D01*
X10402448Y4722026D01*
X10382457Y4710044D01*
X10361387Y4700079D01*
X10339443Y4692227D01*
X10316834Y4686563D01*
X10293779Y4683144D01*
X10270500Y4682000D01*
X9795500Y4682000D01*
X9772221Y4683144D01*
X9749166Y4686563D01*
X9726557Y4692227D01*
X9704613Y4700079D01*
X9683543Y4710044D01*
X9663552Y4722026D01*
X9644832Y4735910D01*
X9627562Y4751562D01*
X9611910Y4768832D01*
X9598026Y4787552D01*
X9586044Y4807543D01*
X9576079Y4828613D01*
X9568227Y4850557D01*
X9562563Y4873166D01*
X9559144Y4896221D01*
X9558000Y4919500D01*
X9558000Y5494500D01*
X9559144Y5517779D01*
X9562563Y5540834D01*
X9568227Y5563443D01*
X9576079Y5585387D01*
X9586044Y5606457D01*
X9598026Y5626448D01*
X9611910Y5645168D01*
X9627562Y5662438D01*
X9644832Y5678090D01*
X9663552Y5691974D01*
X9683543Y5703956D01*
X9704613Y5713921D01*
X9726557Y5721773D01*
X9749166Y5727437D01*
X9772221Y5730856D01*
X9795500Y5732000D01*
X10270500Y5732000D01*
X10293779Y5730856D01*
X10293779Y5730856D01*
G37*
D14*
X10033000Y5207000D03*
D13*
G36*
X8706279Y5730856D02*
G01*
X8729334Y5727437D01*
X8751943Y5721773D01*
X8773887Y5713921D01*
X8794957Y5703956D01*
X8814948Y5691974D01*
X8833668Y5678090D01*
X8850938Y5662438D01*
X8866590Y5645168D01*
X8880474Y5626448D01*
X8892456Y5606457D01*
X8902421Y5585387D01*
X8910273Y5563443D01*
X8915937Y5540834D01*
X8919356Y5517779D01*
X8920500Y5494500D01*
X8920500Y4919500D01*
X8919356Y4896221D01*
X8915937Y4873166D01*
X8910273Y4850557D01*
X8902421Y4828613D01*
X8892456Y4807543D01*
X8880474Y4787552D01*
X8866590Y4768832D01*
X8850938Y4751562D01*
X8833668Y4735910D01*
X8814948Y4722026D01*
X8794957Y4710044D01*
X8773887Y4700079D01*
X8751943Y4692227D01*
X8729334Y4686563D01*
X8706279Y4683144D01*
X8683000Y4682000D01*
X8208000Y4682000D01*
X8184721Y4683144D01*
X8161666Y4686563D01*
X8139057Y4692227D01*
X8117113Y4700079D01*
X8096043Y4710044D01*
X8076052Y4722026D01*
X8057332Y4735910D01*
X8040062Y4751562D01*
X8024410Y4768832D01*
X8010526Y4787552D01*
X7998544Y4807543D01*
X7988579Y4828613D01*
X7980727Y4850557D01*
X7975063Y4873166D01*
X7971644Y4896221D01*
X7970500Y4919500D01*
X7970500Y5494500D01*
X7971644Y5517779D01*
X7975063Y5540834D01*
X7980727Y5563443D01*
X7988579Y5585387D01*
X7998544Y5606457D01*
X8010526Y5626448D01*
X8024410Y5645168D01*
X8040062Y5662438D01*
X8057332Y5678090D01*
X8076052Y5691974D01*
X8096043Y5703956D01*
X8117113Y5713921D01*
X8139057Y5721773D01*
X8161666Y5727437D01*
X8184721Y5730856D01*
X8208000Y5732000D01*
X8683000Y5732000D01*
X8706279Y5730856D01*
X8706279Y5730856D01*
G37*
D14*
X8445500Y5207000D03*
D13*
G36*
X8706279Y7480856D02*
G01*
X8729334Y7477437D01*
X8751943Y7471773D01*
X8773887Y7463921D01*
X8794957Y7453956D01*
X8814948Y7441974D01*
X8833668Y7428090D01*
X8850938Y7412438D01*
X8866590Y7395168D01*
X8880474Y7376448D01*
X8892456Y7356457D01*
X8902421Y7335387D01*
X8910273Y7313443D01*
X8915937Y7290834D01*
X8919356Y7267779D01*
X8920500Y7244500D01*
X8920500Y6669500D01*
X8919356Y6646221D01*
X8915937Y6623166D01*
X8910273Y6600557D01*
X8902421Y6578613D01*
X8892456Y6557543D01*
X8880474Y6537552D01*
X8866590Y6518832D01*
X8850938Y6501562D01*
X8833668Y6485910D01*
X8814948Y6472026D01*
X8794957Y6460044D01*
X8773887Y6450079D01*
X8751943Y6442227D01*
X8729334Y6436563D01*
X8706279Y6433144D01*
X8683000Y6432000D01*
X8208000Y6432000D01*
X8184721Y6433144D01*
X8161666Y6436563D01*
X8139057Y6442227D01*
X8117113Y6450079D01*
X8096043Y6460044D01*
X8076052Y6472026D01*
X8057332Y6485910D01*
X8040062Y6501562D01*
X8024410Y6518832D01*
X8010526Y6537552D01*
X7998544Y6557543D01*
X7988579Y6578613D01*
X7980727Y6600557D01*
X7975063Y6623166D01*
X7971644Y6646221D01*
X7970500Y6669500D01*
X7970500Y7244500D01*
X7971644Y7267779D01*
X7975063Y7290834D01*
X7980727Y7313443D01*
X7988579Y7335387D01*
X7998544Y7356457D01*
X8010526Y7376448D01*
X8024410Y7395168D01*
X8040062Y7412438D01*
X8057332Y7428090D01*
X8076052Y7441974D01*
X8096043Y7453956D01*
X8117113Y7463921D01*
X8139057Y7471773D01*
X8161666Y7477437D01*
X8184721Y7480856D01*
X8208000Y7482000D01*
X8683000Y7482000D01*
X8706279Y7480856D01*
X8706279Y7480856D01*
G37*
D14*
X8445500Y6957000D03*
D13*
G36*
X7593004Y19658296D02*
G01*
X7617273Y19654696D01*
X7641071Y19648735D01*
X7664171Y19640470D01*
X7686349Y19629980D01*
X7707393Y19617367D01*
X7727098Y19602753D01*
X7745277Y19586277D01*
X7761753Y19568098D01*
X7776367Y19548393D01*
X7788980Y19527349D01*
X7799470Y19505171D01*
X7807735Y19482071D01*
X7813696Y19458273D01*
X7817296Y19434004D01*
X7818500Y19409500D01*
X7818500Y18309500D01*
X7817296Y18284996D01*
X7813696Y18260727D01*
X7807735Y18236929D01*
X7799470Y18213829D01*
X7788980Y18191651D01*
X7776367Y18170607D01*
X7761753Y18150902D01*
X7745277Y18132723D01*
X7727098Y18116247D01*
X7707393Y18101633D01*
X7686349Y18089020D01*
X7664171Y18078530D01*
X7641071Y18070265D01*
X7617273Y18064304D01*
X7593004Y18060704D01*
X7568500Y18059500D01*
X5468500Y18059500D01*
X5443996Y18060704D01*
X5419727Y18064304D01*
X5395929Y18070265D01*
X5372829Y18078530D01*
X5350651Y18089020D01*
X5329607Y18101633D01*
X5309902Y18116247D01*
X5291723Y18132723D01*
X5275247Y18150902D01*
X5260633Y18170607D01*
X5248020Y18191651D01*
X5237530Y18213829D01*
X5229265Y18236929D01*
X5223304Y18260727D01*
X5219704Y18284996D01*
X5218500Y18309500D01*
X5218500Y19409500D01*
X5219704Y19434004D01*
X5223304Y19458273D01*
X5229265Y19482071D01*
X5237530Y19505171D01*
X5248020Y19527349D01*
X5260633Y19548393D01*
X5275247Y19568098D01*
X5291723Y19586277D01*
X5309902Y19602753D01*
X5329607Y19617367D01*
X5350651Y19629980D01*
X5372829Y19640470D01*
X5395929Y19648735D01*
X5419727Y19654696D01*
X5443996Y19658296D01*
X5468500Y19659500D01*
X7568500Y19659500D01*
X7593004Y19658296D01*
X7593004Y19658296D01*
G37*
D15*
X6518500Y18859500D03*
D13*
G36*
X11193004Y19658296D02*
G01*
X11217273Y19654696D01*
X11241071Y19648735D01*
X11264171Y19640470D01*
X11286349Y19629980D01*
X11307393Y19617367D01*
X11327098Y19602753D01*
X11345277Y19586277D01*
X11361753Y19568098D01*
X11376367Y19548393D01*
X11388980Y19527349D01*
X11399470Y19505171D01*
X11407735Y19482071D01*
X11413696Y19458273D01*
X11417296Y19434004D01*
X11418500Y19409500D01*
X11418500Y18309500D01*
X11417296Y18284996D01*
X11413696Y18260727D01*
X11407735Y18236929D01*
X11399470Y18213829D01*
X11388980Y18191651D01*
X11376367Y18170607D01*
X11361753Y18150902D01*
X11345277Y18132723D01*
X11327098Y18116247D01*
X11307393Y18101633D01*
X11286349Y18089020D01*
X11264171Y18078530D01*
X11241071Y18070265D01*
X11217273Y18064304D01*
X11193004Y18060704D01*
X11168500Y18059500D01*
X9068500Y18059500D01*
X9043996Y18060704D01*
X9019727Y18064304D01*
X8995929Y18070265D01*
X8972829Y18078530D01*
X8950651Y18089020D01*
X8929607Y18101633D01*
X8909902Y18116247D01*
X8891723Y18132723D01*
X8875247Y18150902D01*
X8860633Y18170607D01*
X8848020Y18191651D01*
X8837530Y18213829D01*
X8829265Y18236929D01*
X8823304Y18260727D01*
X8819704Y18284996D01*
X8818500Y18309500D01*
X8818500Y19409500D01*
X8819704Y19434004D01*
X8823304Y19458273D01*
X8829265Y19482071D01*
X8837530Y19505171D01*
X8848020Y19527349D01*
X8860633Y19548393D01*
X8875247Y19568098D01*
X8891723Y19586277D01*
X8909902Y19602753D01*
X8929607Y19617367D01*
X8950651Y19629980D01*
X8972829Y19640470D01*
X8995929Y19648735D01*
X9019727Y19654696D01*
X9043996Y19658296D01*
X9068500Y19659500D01*
X11168500Y19659500D01*
X11193004Y19658296D01*
X11193004Y19658296D01*
G37*
D15*
X10118500Y18859500D03*
D13*
G36*
X13024279Y904856D02*
G01*
X13047334Y901437D01*
X13069943Y895773D01*
X13091887Y887921D01*
X13112957Y877956D01*
X13132948Y865974D01*
X13151668Y852090D01*
X13168938Y836438D01*
X13184590Y819168D01*
X13198474Y800448D01*
X13210456Y780457D01*
X13220421Y759387D01*
X13228273Y737443D01*
X13233937Y714834D01*
X13237356Y691779D01*
X13238500Y668500D01*
X13238500Y93500D01*
X13237356Y70221D01*
X13233937Y47166D01*
X13228273Y24557D01*
X13220421Y2613D01*
X13210456Y-18457D01*
X13198474Y-38448D01*
X13184590Y-57168D01*
X13168938Y-74438D01*
X13151668Y-90090D01*
X13132948Y-103974D01*
X13112957Y-115956D01*
X13091887Y-125921D01*
X13069943Y-133773D01*
X13047334Y-139437D01*
X13024279Y-142856D01*
X13001000Y-144000D01*
X12526000Y-144000D01*
X12502721Y-142856D01*
X12479666Y-139437D01*
X12457057Y-133773D01*
X12435113Y-125921D01*
X12414043Y-115956D01*
X12394052Y-103974D01*
X12375332Y-90090D01*
X12358062Y-74438D01*
X12342410Y-57168D01*
X12328526Y-38448D01*
X12316544Y-18457D01*
X12306579Y2613D01*
X12298727Y24557D01*
X12293063Y47166D01*
X12289644Y70221D01*
X12288500Y93500D01*
X12288500Y668500D01*
X12289644Y691779D01*
X12293063Y714834D01*
X12298727Y737443D01*
X12306579Y759387D01*
X12316544Y780457D01*
X12328526Y800448D01*
X12342410Y819168D01*
X12358062Y836438D01*
X12375332Y852090D01*
X12394052Y865974D01*
X12414043Y877956D01*
X12435113Y887921D01*
X12457057Y895773D01*
X12479666Y901437D01*
X12502721Y904856D01*
X12526000Y906000D01*
X13001000Y906000D01*
X13024279Y904856D01*
X13024279Y904856D01*
G37*
D14*
X12763500Y381000D03*
D13*
G36*
X13024279Y2654856D02*
G01*
X13047334Y2651437D01*
X13069943Y2645773D01*
X13091887Y2637921D01*
X13112957Y2627956D01*
X13132948Y2615974D01*
X13151668Y2602090D01*
X13168938Y2586438D01*
X13184590Y2569168D01*
X13198474Y2550448D01*
X13210456Y2530457D01*
X13220421Y2509387D01*
X13228273Y2487443D01*
X13233937Y2464834D01*
X13237356Y2441779D01*
X13238500Y2418500D01*
X13238500Y1843500D01*
X13237356Y1820221D01*
X13233937Y1797166D01*
X13228273Y1774557D01*
X13220421Y1752613D01*
X13210456Y1731543D01*
X13198474Y1711552D01*
X13184590Y1692832D01*
X13168938Y1675562D01*
X13151668Y1659910D01*
X13132948Y1646026D01*
X13112957Y1634044D01*
X13091887Y1624079D01*
X13069943Y1616227D01*
X13047334Y1610563D01*
X13024279Y1607144D01*
X13001000Y1606000D01*
X12526000Y1606000D01*
X12502721Y1607144D01*
X12479666Y1610563D01*
X12457057Y1616227D01*
X12435113Y1624079D01*
X12414043Y1634044D01*
X12394052Y1646026D01*
X12375332Y1659910D01*
X12358062Y1675562D01*
X12342410Y1692832D01*
X12328526Y1711552D01*
X12316544Y1731543D01*
X12306579Y1752613D01*
X12298727Y1774557D01*
X12293063Y1797166D01*
X12289644Y1820221D01*
X12288500Y1843500D01*
X12288500Y2418500D01*
X12289644Y2441779D01*
X12293063Y2464834D01*
X12298727Y2487443D01*
X12306579Y2509387D01*
X12316544Y2530457D01*
X12328526Y2550448D01*
X12342410Y2569168D01*
X12358062Y2586438D01*
X12375332Y2602090D01*
X12394052Y2615974D01*
X12414043Y2627956D01*
X12435113Y2637921D01*
X12457057Y2645773D01*
X12479666Y2651437D01*
X12502721Y2654856D01*
X12526000Y2656000D01*
X13001000Y2656000D01*
X13024279Y2654856D01*
X13024279Y2654856D01*
G37*
D14*
X12763500Y2131000D03*
D13*
G36*
X13024279Y-2524144D02*
G01*
X13047334Y-2527563D01*
X13069943Y-2533227D01*
X13091887Y-2541079D01*
X13112957Y-2551044D01*
X13132948Y-2563026D01*
X13151668Y-2576910D01*
X13168938Y-2592562D01*
X13184590Y-2609832D01*
X13198474Y-2628552D01*
X13210456Y-2648543D01*
X13220421Y-2669613D01*
X13228273Y-2691557D01*
X13233937Y-2714166D01*
X13237356Y-2737221D01*
X13238500Y-2760500D01*
X13238500Y-3335500D01*
X13237356Y-3358779D01*
X13233937Y-3381834D01*
X13228273Y-3404443D01*
X13220421Y-3426387D01*
X13210456Y-3447457D01*
X13198474Y-3467448D01*
X13184590Y-3486168D01*
X13168938Y-3503438D01*
X13151668Y-3519090D01*
X13132948Y-3532974D01*
X13112957Y-3544956D01*
X13091887Y-3554921D01*
X13069943Y-3562773D01*
X13047334Y-3568437D01*
X13024279Y-3571856D01*
X13001000Y-3573000D01*
X12526000Y-3573000D01*
X12502721Y-3571856D01*
X12479666Y-3568437D01*
X12457057Y-3562773D01*
X12435113Y-3554921D01*
X12414043Y-3544956D01*
X12394052Y-3532974D01*
X12375332Y-3519090D01*
X12358062Y-3503438D01*
X12342410Y-3486168D01*
X12328526Y-3467448D01*
X12316544Y-3447457D01*
X12306579Y-3426387D01*
X12298727Y-3404443D01*
X12293063Y-3381834D01*
X12289644Y-3358779D01*
X12288500Y-3335500D01*
X12288500Y-2760500D01*
X12289644Y-2737221D01*
X12293063Y-2714166D01*
X12298727Y-2691557D01*
X12306579Y-2669613D01*
X12316544Y-2648543D01*
X12328526Y-2628552D01*
X12342410Y-2609832D01*
X12358062Y-2592562D01*
X12375332Y-2576910D01*
X12394052Y-2563026D01*
X12414043Y-2551044D01*
X12435113Y-2541079D01*
X12457057Y-2533227D01*
X12479666Y-2527563D01*
X12502721Y-2524144D01*
X12526000Y-2523000D01*
X13001000Y-2523000D01*
X13024279Y-2524144D01*
X13024279Y-2524144D01*
G37*
D14*
X12763500Y-3048000D03*
D13*
G36*
X13024279Y-774144D02*
G01*
X13047334Y-777563D01*
X13069943Y-783227D01*
X13091887Y-791079D01*
X13112957Y-801044D01*
X13132948Y-813026D01*
X13151668Y-826910D01*
X13168938Y-842562D01*
X13184590Y-859832D01*
X13198474Y-878552D01*
X13210456Y-898543D01*
X13220421Y-919613D01*
X13228273Y-941557D01*
X13233937Y-964166D01*
X13237356Y-987221D01*
X13238500Y-1010500D01*
X13238500Y-1585500D01*
X13237356Y-1608779D01*
X13233937Y-1631834D01*
X13228273Y-1654443D01*
X13220421Y-1676387D01*
X13210456Y-1697457D01*
X13198474Y-1717448D01*
X13184590Y-1736168D01*
X13168938Y-1753438D01*
X13151668Y-1769090D01*
X13132948Y-1782974D01*
X13112957Y-1794956D01*
X13091887Y-1804921D01*
X13069943Y-1812773D01*
X13047334Y-1818437D01*
X13024279Y-1821856D01*
X13001000Y-1823000D01*
X12526000Y-1823000D01*
X12502721Y-1821856D01*
X12479666Y-1818437D01*
X12457057Y-1812773D01*
X12435113Y-1804921D01*
X12414043Y-1794956D01*
X12394052Y-1782974D01*
X12375332Y-1769090D01*
X12358062Y-1753438D01*
X12342410Y-1736168D01*
X12328526Y-1717448D01*
X12316544Y-1697457D01*
X12306579Y-1676387D01*
X12298727Y-1654443D01*
X12293063Y-1631834D01*
X12289644Y-1608779D01*
X12288500Y-1585500D01*
X12288500Y-1010500D01*
X12289644Y-987221D01*
X12293063Y-964166D01*
X12298727Y-941557D01*
X12306579Y-919613D01*
X12316544Y-898543D01*
X12328526Y-878552D01*
X12342410Y-859832D01*
X12358062Y-842562D01*
X12375332Y-826910D01*
X12394052Y-813026D01*
X12414043Y-801044D01*
X12435113Y-791079D01*
X12457057Y-783227D01*
X12479666Y-777563D01*
X12502721Y-774144D01*
X12526000Y-773000D01*
X13001000Y-773000D01*
X13024279Y-774144D01*
X13024279Y-774144D01*
G37*
D14*
X12763500Y-1298000D03*
D13*
G36*
X2853504Y7852796D02*
G01*
X2877773Y7849196D01*
X2901571Y7843235D01*
X2924671Y7834970D01*
X2946849Y7824480D01*
X2967893Y7811867D01*
X2987598Y7797253D01*
X3005777Y7780777D01*
X3022253Y7762598D01*
X3036867Y7742893D01*
X3049480Y7721849D01*
X3059970Y7699671D01*
X3068235Y7676571D01*
X3074196Y7652773D01*
X3077796Y7628504D01*
X3079000Y7604000D01*
X3079000Y5604000D01*
X3077796Y5579496D01*
X3074196Y5555227D01*
X3068235Y5531429D01*
X3059970Y5508329D01*
X3049480Y5486151D01*
X3036867Y5465107D01*
X3022253Y5445402D01*
X3005777Y5427223D01*
X2987598Y5410747D01*
X2967893Y5396133D01*
X2946849Y5383520D01*
X2924671Y5373030D01*
X2901571Y5364765D01*
X2877773Y5358804D01*
X2853504Y5355204D01*
X2829000Y5354000D01*
X-671000Y5354000D01*
X-695504Y5355204D01*
X-719773Y5358804D01*
X-743571Y5364765D01*
X-766671Y5373030D01*
X-788849Y5383520D01*
X-809893Y5396133D01*
X-829598Y5410747D01*
X-847777Y5427223D01*
X-864253Y5445402D01*
X-878867Y5465107D01*
X-891480Y5486151D01*
X-901970Y5508329D01*
X-910235Y5531429D01*
X-916196Y5555227D01*
X-919796Y5579496D01*
X-921000Y5604000D01*
X-921000Y7604000D01*
X-919796Y7628504D01*
X-916196Y7652773D01*
X-910235Y7676571D01*
X-901970Y7699671D01*
X-891480Y7721849D01*
X-878867Y7742893D01*
X-864253Y7762598D01*
X-847777Y7780777D01*
X-829598Y7797253D01*
X-809893Y7811867D01*
X-788849Y7824480D01*
X-766671Y7834970D01*
X-743571Y7843235D01*
X-719773Y7849196D01*
X-695504Y7852796D01*
X-671000Y7854000D01*
X2829000Y7854000D01*
X2853504Y7852796D01*
X2853504Y7852796D01*
G37*
D16*
X1079000Y6604000D03*
D13*
G36*
X-5146496Y7852796D02*
G01*
X-5122227Y7849196D01*
X-5098429Y7843235D01*
X-5075329Y7834970D01*
X-5053151Y7824480D01*
X-5032107Y7811867D01*
X-5012402Y7797253D01*
X-4994223Y7780777D01*
X-4977747Y7762598D01*
X-4963133Y7742893D01*
X-4950520Y7721849D01*
X-4940030Y7699671D01*
X-4931765Y7676571D01*
X-4925804Y7652773D01*
X-4922204Y7628504D01*
X-4921000Y7604000D01*
X-4921000Y5604000D01*
X-4922204Y5579496D01*
X-4925804Y5555227D01*
X-4931765Y5531429D01*
X-4940030Y5508329D01*
X-4950520Y5486151D01*
X-4963133Y5465107D01*
X-4977747Y5445402D01*
X-4994223Y5427223D01*
X-5012402Y5410747D01*
X-5032107Y5396133D01*
X-5053151Y5383520D01*
X-5075329Y5373030D01*
X-5098429Y5364765D01*
X-5122227Y5358804D01*
X-5146496Y5355204D01*
X-5171000Y5354000D01*
X-8671000Y5354000D01*
X-8695504Y5355204D01*
X-8719773Y5358804D01*
X-8743571Y5364765D01*
X-8766671Y5373030D01*
X-8788849Y5383520D01*
X-8809893Y5396133D01*
X-8829598Y5410747D01*
X-8847777Y5427223D01*
X-8864253Y5445402D01*
X-8878867Y5465107D01*
X-8891480Y5486151D01*
X-8901970Y5508329D01*
X-8910235Y5531429D01*
X-8916196Y5555227D01*
X-8919796Y5579496D01*
X-8921000Y5604000D01*
X-8921000Y7604000D01*
X-8919796Y7628504D01*
X-8916196Y7652773D01*
X-8910235Y7676571D01*
X-8901970Y7699671D01*
X-8891480Y7721849D01*
X-8878867Y7742893D01*
X-8864253Y7762598D01*
X-8847777Y7780777D01*
X-8829598Y7797253D01*
X-8809893Y7811867D01*
X-8788849Y7824480D01*
X-8766671Y7834970D01*
X-8743571Y7843235D01*
X-8719773Y7849196D01*
X-8695504Y7852796D01*
X-8671000Y7854000D01*
X-5171000Y7854000D01*
X-5146496Y7852796D01*
X-5146496Y7852796D01*
G37*
D16*
X-6921000Y6604000D03*
D13*
G36*
X-5146496Y-3132704D02*
G01*
X-5122227Y-3136304D01*
X-5098429Y-3142265D01*
X-5075329Y-3150530D01*
X-5053151Y-3161020D01*
X-5032107Y-3173633D01*
X-5012402Y-3188247D01*
X-4994223Y-3204723D01*
X-4977747Y-3222902D01*
X-4963133Y-3242607D01*
X-4950520Y-3263651D01*
X-4940030Y-3285829D01*
X-4931765Y-3308929D01*
X-4925804Y-3332727D01*
X-4922204Y-3356996D01*
X-4921000Y-3381500D01*
X-4921000Y-5381500D01*
X-4922204Y-5406004D01*
X-4925804Y-5430273D01*
X-4931765Y-5454071D01*
X-4940030Y-5477171D01*
X-4950520Y-5499349D01*
X-4963133Y-5520393D01*
X-4977747Y-5540098D01*
X-4994223Y-5558277D01*
X-5012402Y-5574753D01*
X-5032107Y-5589367D01*
X-5053151Y-5601980D01*
X-5075329Y-5612470D01*
X-5098429Y-5620735D01*
X-5122227Y-5626696D01*
X-5146496Y-5630296D01*
X-5171000Y-5631500D01*
X-8671000Y-5631500D01*
X-8695504Y-5630296D01*
X-8719773Y-5626696D01*
X-8743571Y-5620735D01*
X-8766671Y-5612470D01*
X-8788849Y-5601980D01*
X-8809893Y-5589367D01*
X-8829598Y-5574753D01*
X-8847777Y-5558277D01*
X-8864253Y-5540098D01*
X-8878867Y-5520393D01*
X-8891480Y-5499349D01*
X-8901970Y-5477171D01*
X-8910235Y-5454071D01*
X-8916196Y-5430273D01*
X-8919796Y-5406004D01*
X-8921000Y-5381500D01*
X-8921000Y-3381500D01*
X-8919796Y-3356996D01*
X-8916196Y-3332727D01*
X-8910235Y-3308929D01*
X-8901970Y-3285829D01*
X-8891480Y-3263651D01*
X-8878867Y-3242607D01*
X-8864253Y-3222902D01*
X-8847777Y-3204723D01*
X-8829598Y-3188247D01*
X-8809893Y-3173633D01*
X-8788849Y-3161020D01*
X-8766671Y-3150530D01*
X-8743571Y-3142265D01*
X-8719773Y-3136304D01*
X-8695504Y-3132704D01*
X-8671000Y-3131500D01*
X-5171000Y-3131500D01*
X-5146496Y-3132704D01*
X-5146496Y-3132704D01*
G37*
D16*
X-6921000Y-4381500D03*
D13*
G36*
X2853504Y-3132704D02*
G01*
X2877773Y-3136304D01*
X2901571Y-3142265D01*
X2924671Y-3150530D01*
X2946849Y-3161020D01*
X2967893Y-3173633D01*
X2987598Y-3188247D01*
X3005777Y-3204723D01*
X3022253Y-3222902D01*
X3036867Y-3242607D01*
X3049480Y-3263651D01*
X3059970Y-3285829D01*
X3068235Y-3308929D01*
X3074196Y-3332727D01*
X3077796Y-3356996D01*
X3079000Y-3381500D01*
X3079000Y-5381500D01*
X3077796Y-5406004D01*
X3074196Y-5430273D01*
X3068235Y-5454071D01*
X3059970Y-5477171D01*
X3049480Y-5499349D01*
X3036867Y-5520393D01*
X3022253Y-5540098D01*
X3005777Y-5558277D01*
X2987598Y-5574753D01*
X2967893Y-5589367D01*
X2946849Y-5601980D01*
X2924671Y-5612470D01*
X2901571Y-5620735D01*
X2877773Y-5626696D01*
X2853504Y-5630296D01*
X2829000Y-5631500D01*
X-671000Y-5631500D01*
X-695504Y-5630296D01*
X-719773Y-5626696D01*
X-743571Y-5620735D01*
X-766671Y-5612470D01*
X-788849Y-5601980D01*
X-809893Y-5589367D01*
X-829598Y-5574753D01*
X-847777Y-5558277D01*
X-864253Y-5540098D01*
X-878867Y-5520393D01*
X-891480Y-5499349D01*
X-901970Y-5477171D01*
X-910235Y-5454071D01*
X-916196Y-5430273D01*
X-919796Y-5406004D01*
X-921000Y-5381500D01*
X-921000Y-3381500D01*
X-919796Y-3356996D01*
X-916196Y-3332727D01*
X-910235Y-3308929D01*
X-901970Y-3285829D01*
X-891480Y-3263651D01*
X-878867Y-3242607D01*
X-864253Y-3222902D01*
X-847777Y-3204723D01*
X-829598Y-3188247D01*
X-809893Y-3173633D01*
X-788849Y-3161020D01*
X-766671Y-3150530D01*
X-743571Y-3142265D01*
X-719773Y-3136304D01*
X-695504Y-3132704D01*
X-671000Y-3131500D01*
X2829000Y-3131500D01*
X2853504Y-3132704D01*
X2853504Y-3132704D01*
G37*
D16*
X1079000Y-4381500D03*
D13*
G36*
X2853504Y18838296D02*
G01*
X2877773Y18834696D01*
X2901571Y18828735D01*
X2924671Y18820470D01*
X2946849Y18809980D01*
X2967893Y18797367D01*
X2987598Y18782753D01*
X3005777Y18766277D01*
X3022253Y18748098D01*
X3036867Y18728393D01*
X3049480Y18707349D01*
X3059970Y18685171D01*
X3068235Y18662071D01*
X3074196Y18638273D01*
X3077796Y18614004D01*
X3079000Y18589500D01*
X3079000Y16589500D01*
X3077796Y16564996D01*
X3074196Y16540727D01*
X3068235Y16516929D01*
X3059970Y16493829D01*
X3049480Y16471651D01*
X3036867Y16450607D01*
X3022253Y16430902D01*
X3005777Y16412723D01*
X2987598Y16396247D01*
X2967893Y16381633D01*
X2946849Y16369020D01*
X2924671Y16358530D01*
X2901571Y16350265D01*
X2877773Y16344304D01*
X2853504Y16340704D01*
X2829000Y16339500D01*
X-671000Y16339500D01*
X-695504Y16340704D01*
X-719773Y16344304D01*
X-743571Y16350265D01*
X-766671Y16358530D01*
X-788849Y16369020D01*
X-809893Y16381633D01*
X-829598Y16396247D01*
X-847777Y16412723D01*
X-864253Y16430902D01*
X-878867Y16450607D01*
X-891480Y16471651D01*
X-901970Y16493829D01*
X-910235Y16516929D01*
X-916196Y16540727D01*
X-919796Y16564996D01*
X-921000Y16589500D01*
X-921000Y18589500D01*
X-919796Y18614004D01*
X-916196Y18638273D01*
X-910235Y18662071D01*
X-901970Y18685171D01*
X-891480Y18707349D01*
X-878867Y18728393D01*
X-864253Y18748098D01*
X-847777Y18766277D01*
X-829598Y18782753D01*
X-809893Y18797367D01*
X-788849Y18809980D01*
X-766671Y18820470D01*
X-743571Y18828735D01*
X-719773Y18834696D01*
X-695504Y18838296D01*
X-671000Y18839500D01*
X2829000Y18839500D01*
X2853504Y18838296D01*
X2853504Y18838296D01*
G37*
D16*
X1079000Y17589500D03*
D13*
G36*
X-5146496Y18838296D02*
G01*
X-5122227Y18834696D01*
X-5098429Y18828735D01*
X-5075329Y18820470D01*
X-5053151Y18809980D01*
X-5032107Y18797367D01*
X-5012402Y18782753D01*
X-4994223Y18766277D01*
X-4977747Y18748098D01*
X-4963133Y18728393D01*
X-4950520Y18707349D01*
X-4940030Y18685171D01*
X-4931765Y18662071D01*
X-4925804Y18638273D01*
X-4922204Y18614004D01*
X-4921000Y18589500D01*
X-4921000Y16589500D01*
X-4922204Y16564996D01*
X-4925804Y16540727D01*
X-4931765Y16516929D01*
X-4940030Y16493829D01*
X-4950520Y16471651D01*
X-4963133Y16450607D01*
X-4977747Y16430902D01*
X-4994223Y16412723D01*
X-5012402Y16396247D01*
X-5032107Y16381633D01*
X-5053151Y16369020D01*
X-5075329Y16358530D01*
X-5098429Y16350265D01*
X-5122227Y16344304D01*
X-5146496Y16340704D01*
X-5171000Y16339500D01*
X-8671000Y16339500D01*
X-8695504Y16340704D01*
X-8719773Y16344304D01*
X-8743571Y16350265D01*
X-8766671Y16358530D01*
X-8788849Y16369020D01*
X-8809893Y16381633D01*
X-8829598Y16396247D01*
X-8847777Y16412723D01*
X-8864253Y16430902D01*
X-8878867Y16450607D01*
X-8891480Y16471651D01*
X-8901970Y16493829D01*
X-8910235Y16516929D01*
X-8916196Y16540727D01*
X-8919796Y16564996D01*
X-8921000Y16589500D01*
X-8921000Y18589500D01*
X-8919796Y18614004D01*
X-8916196Y18638273D01*
X-8910235Y18662071D01*
X-8901970Y18685171D01*
X-8891480Y18707349D01*
X-8878867Y18728393D01*
X-8864253Y18748098D01*
X-8847777Y18766277D01*
X-8829598Y18782753D01*
X-8809893Y18797367D01*
X-8788849Y18809980D01*
X-8766671Y18820470D01*
X-8743571Y18828735D01*
X-8719773Y18834696D01*
X-8695504Y18838296D01*
X-8671000Y18839500D01*
X-5171000Y18839500D01*
X-5146496Y18838296D01*
X-5146496Y18838296D01*
G37*
D16*
X-6921000Y17589500D03*
D13*
G36*
X8276279Y24667356D02*
G01*
X8299334Y24663937D01*
X8321943Y24658273D01*
X8343887Y24650421D01*
X8364957Y24640456D01*
X8384948Y24628474D01*
X8403668Y24614590D01*
X8420938Y24598938D01*
X8436590Y24581668D01*
X8450474Y24562948D01*
X8462456Y24542957D01*
X8472421Y24521887D01*
X8480273Y24499943D01*
X8485937Y24477334D01*
X8489356Y24454279D01*
X8490500Y24431000D01*
X8490500Y23956000D01*
X8489356Y23932721D01*
X8485937Y23909666D01*
X8480273Y23887057D01*
X8472421Y23865113D01*
X8462456Y23844043D01*
X8450474Y23824052D01*
X8436590Y23805332D01*
X8420938Y23788062D01*
X8403668Y23772410D01*
X8384948Y23758526D01*
X8364957Y23746544D01*
X8343887Y23736579D01*
X8321943Y23728727D01*
X8299334Y23723063D01*
X8276279Y23719644D01*
X8253000Y23718500D01*
X7678000Y23718500D01*
X7654721Y23719644D01*
X7631666Y23723063D01*
X7609057Y23728727D01*
X7587113Y23736579D01*
X7566043Y23746544D01*
X7546052Y23758526D01*
X7527332Y23772410D01*
X7510062Y23788062D01*
X7494410Y23805332D01*
X7480526Y23824052D01*
X7468544Y23844043D01*
X7458579Y23865113D01*
X7450727Y23887057D01*
X7445063Y23909666D01*
X7441644Y23932721D01*
X7440500Y23956000D01*
X7440500Y24431000D01*
X7441644Y24454279D01*
X7445063Y24477334D01*
X7450727Y24499943D01*
X7458579Y24521887D01*
X7468544Y24542957D01*
X7480526Y24562948D01*
X7494410Y24581668D01*
X7510062Y24598938D01*
X7527332Y24614590D01*
X7546052Y24628474D01*
X7566043Y24640456D01*
X7587113Y24650421D01*
X7609057Y24658273D01*
X7631666Y24663937D01*
X7654721Y24667356D01*
X7678000Y24668500D01*
X8253000Y24668500D01*
X8276279Y24667356D01*
X8276279Y24667356D01*
G37*
D14*
X7965500Y24193500D03*
D13*
G36*
X10026279Y24667356D02*
G01*
X10049334Y24663937D01*
X10071943Y24658273D01*
X10093887Y24650421D01*
X10114957Y24640456D01*
X10134948Y24628474D01*
X10153668Y24614590D01*
X10170938Y24598938D01*
X10186590Y24581668D01*
X10200474Y24562948D01*
X10212456Y24542957D01*
X10222421Y24521887D01*
X10230273Y24499943D01*
X10235937Y24477334D01*
X10239356Y24454279D01*
X10240500Y24431000D01*
X10240500Y23956000D01*
X10239356Y23932721D01*
X10235937Y23909666D01*
X10230273Y23887057D01*
X10222421Y23865113D01*
X10212456Y23844043D01*
X10200474Y23824052D01*
X10186590Y23805332D01*
X10170938Y23788062D01*
X10153668Y23772410D01*
X10134948Y23758526D01*
X10114957Y23746544D01*
X10093887Y23736579D01*
X10071943Y23728727D01*
X10049334Y23723063D01*
X10026279Y23719644D01*
X10003000Y23718500D01*
X9428000Y23718500D01*
X9404721Y23719644D01*
X9381666Y23723063D01*
X9359057Y23728727D01*
X9337113Y23736579D01*
X9316043Y23746544D01*
X9296052Y23758526D01*
X9277332Y23772410D01*
X9260062Y23788062D01*
X9244410Y23805332D01*
X9230526Y23824052D01*
X9218544Y23844043D01*
X9208579Y23865113D01*
X9200727Y23887057D01*
X9195063Y23909666D01*
X9191644Y23932721D01*
X9190500Y23956000D01*
X9190500Y24431000D01*
X9191644Y24454279D01*
X9195063Y24477334D01*
X9200727Y24499943D01*
X9208579Y24521887D01*
X9218544Y24542957D01*
X9230526Y24562948D01*
X9244410Y24581668D01*
X9260062Y24598938D01*
X9277332Y24614590D01*
X9296052Y24628474D01*
X9316043Y24640456D01*
X9337113Y24650421D01*
X9359057Y24658273D01*
X9381666Y24663937D01*
X9404721Y24667356D01*
X9428000Y24668500D01*
X10003000Y24668500D01*
X10026279Y24667356D01*
X10026279Y24667356D01*
G37*
D14*
X9715500Y24193500D03*
D13*
G36*
X12452779Y13795356D02*
G01*
X12475834Y13791937D01*
X12498443Y13786273D01*
X12520387Y13778421D01*
X12541457Y13768456D01*
X12561448Y13756474D01*
X12580168Y13742590D01*
X12597438Y13726938D01*
X12613090Y13709668D01*
X12626974Y13690948D01*
X12638956Y13670957D01*
X12648921Y13649887D01*
X12656773Y13627943D01*
X12662437Y13605334D01*
X12665856Y13582279D01*
X12667000Y13559000D01*
X12667000Y12984000D01*
X12665856Y12960721D01*
X12662437Y12937666D01*
X12656773Y12915057D01*
X12648921Y12893113D01*
X12638956Y12872043D01*
X12626974Y12852052D01*
X12613090Y12833332D01*
X12597438Y12816062D01*
X12580168Y12800410D01*
X12561448Y12786526D01*
X12541457Y12774544D01*
X12520387Y12764579D01*
X12498443Y12756727D01*
X12475834Y12751063D01*
X12452779Y12747644D01*
X12429500Y12746500D01*
X11954500Y12746500D01*
X11931221Y12747644D01*
X11908166Y12751063D01*
X11885557Y12756727D01*
X11863613Y12764579D01*
X11842543Y12774544D01*
X11822552Y12786526D01*
X11803832Y12800410D01*
X11786562Y12816062D01*
X11770910Y12833332D01*
X11757026Y12852052D01*
X11745044Y12872043D01*
X11735079Y12893113D01*
X11727227Y12915057D01*
X11721563Y12937666D01*
X11718144Y12960721D01*
X11717000Y12984000D01*
X11717000Y13559000D01*
X11718144Y13582279D01*
X11721563Y13605334D01*
X11727227Y13627943D01*
X11735079Y13649887D01*
X11745044Y13670957D01*
X11757026Y13690948D01*
X11770910Y13709668D01*
X11786562Y13726938D01*
X11803832Y13742590D01*
X11822552Y13756474D01*
X11842543Y13768456D01*
X11863613Y13778421D01*
X11885557Y13786273D01*
X11908166Y13791937D01*
X11931221Y13795356D01*
X11954500Y13796500D01*
X12429500Y13796500D01*
X12452779Y13795356D01*
X12452779Y13795356D01*
G37*
D14*
X12192000Y13271500D03*
D13*
G36*
X12452779Y15545356D02*
G01*
X12475834Y15541937D01*
X12498443Y15536273D01*
X12520387Y15528421D01*
X12541457Y15518456D01*
X12561448Y15506474D01*
X12580168Y15492590D01*
X12597438Y15476938D01*
X12613090Y15459668D01*
X12626974Y15440948D01*
X12638956Y15420957D01*
X12648921Y15399887D01*
X12656773Y15377943D01*
X12662437Y15355334D01*
X12665856Y15332279D01*
X12667000Y15309000D01*
X12667000Y14734000D01*
X12665856Y14710721D01*
X12662437Y14687666D01*
X12656773Y14665057D01*
X12648921Y14643113D01*
X12638956Y14622043D01*
X12626974Y14602052D01*
X12613090Y14583332D01*
X12597438Y14566062D01*
X12580168Y14550410D01*
X12561448Y14536526D01*
X12541457Y14524544D01*
X12520387Y14514579D01*
X12498443Y14506727D01*
X12475834Y14501063D01*
X12452779Y14497644D01*
X12429500Y14496500D01*
X11954500Y14496500D01*
X11931221Y14497644D01*
X11908166Y14501063D01*
X11885557Y14506727D01*
X11863613Y14514579D01*
X11842543Y14524544D01*
X11822552Y14536526D01*
X11803832Y14550410D01*
X11786562Y14566062D01*
X11770910Y14583332D01*
X11757026Y14602052D01*
X11745044Y14622043D01*
X11735079Y14643113D01*
X11727227Y14665057D01*
X11721563Y14687666D01*
X11718144Y14710721D01*
X11717000Y14734000D01*
X11717000Y15309000D01*
X11718144Y15332279D01*
X11721563Y15355334D01*
X11727227Y15377943D01*
X11735079Y15399887D01*
X11745044Y15420957D01*
X11757026Y15440948D01*
X11770910Y15459668D01*
X11786562Y15476938D01*
X11803832Y15492590D01*
X11822552Y15506474D01*
X11842543Y15518456D01*
X11863613Y15528421D01*
X11885557Y15536273D01*
X11908166Y15541937D01*
X11931221Y15545356D01*
X11954500Y15546500D01*
X12429500Y15546500D01*
X12452779Y15545356D01*
X12452779Y15545356D01*
G37*
D14*
X12192000Y15021500D03*
D13*
G36*
X11197279Y-14067644D02*
G01*
X11220334Y-14071063D01*
X11242943Y-14076727D01*
X11264887Y-14084579D01*
X11285957Y-14094544D01*
X11305948Y-14106526D01*
X11324668Y-14120410D01*
X11341938Y-14136062D01*
X11357590Y-14153332D01*
X11371474Y-14172052D01*
X11383456Y-14192043D01*
X11393421Y-14213113D01*
X11401273Y-14235057D01*
X11406937Y-14257666D01*
X11410356Y-14280721D01*
X11411500Y-14304000D01*
X11411500Y-14779000D01*
X11410356Y-14802279D01*
X11406937Y-14825334D01*
X11401273Y-14847943D01*
X11393421Y-14869887D01*
X11383456Y-14890957D01*
X11371474Y-14910948D01*
X11357590Y-14929668D01*
X11341938Y-14946938D01*
X11324668Y-14962590D01*
X11305948Y-14976474D01*
X11285957Y-14988456D01*
X11264887Y-14998421D01*
X11242943Y-15006273D01*
X11220334Y-15011937D01*
X11197279Y-15015356D01*
X11174000Y-15016500D01*
X10599000Y-15016500D01*
X10575721Y-15015356D01*
X10552666Y-15011937D01*
X10530057Y-15006273D01*
X10508113Y-14998421D01*
X10487043Y-14988456D01*
X10467052Y-14976474D01*
X10448332Y-14962590D01*
X10431062Y-14946938D01*
X10415410Y-14929668D01*
X10401526Y-14910948D01*
X10389544Y-14890957D01*
X10379579Y-14869887D01*
X10371727Y-14847943D01*
X10366063Y-14825334D01*
X10362644Y-14802279D01*
X10361500Y-14779000D01*
X10361500Y-14304000D01*
X10362644Y-14280721D01*
X10366063Y-14257666D01*
X10371727Y-14235057D01*
X10379579Y-14213113D01*
X10389544Y-14192043D01*
X10401526Y-14172052D01*
X10415410Y-14153332D01*
X10431062Y-14136062D01*
X10448332Y-14120410D01*
X10467052Y-14106526D01*
X10487043Y-14094544D01*
X10508113Y-14084579D01*
X10530057Y-14076727D01*
X10552666Y-14071063D01*
X10575721Y-14067644D01*
X10599000Y-14066500D01*
X11174000Y-14066500D01*
X11197279Y-14067644D01*
X11197279Y-14067644D01*
G37*
D14*
X10886500Y-14541500D03*
D13*
G36*
X12947279Y-14067644D02*
G01*
X12970334Y-14071063D01*
X12992943Y-14076727D01*
X13014887Y-14084579D01*
X13035957Y-14094544D01*
X13055948Y-14106526D01*
X13074668Y-14120410D01*
X13091938Y-14136062D01*
X13107590Y-14153332D01*
X13121474Y-14172052D01*
X13133456Y-14192043D01*
X13143421Y-14213113D01*
X13151273Y-14235057D01*
X13156937Y-14257666D01*
X13160356Y-14280721D01*
X13161500Y-14304000D01*
X13161500Y-14779000D01*
X13160356Y-14802279D01*
X13156937Y-14825334D01*
X13151273Y-14847943D01*
X13143421Y-14869887D01*
X13133456Y-14890957D01*
X13121474Y-14910948D01*
X13107590Y-14929668D01*
X13091938Y-14946938D01*
X13074668Y-14962590D01*
X13055948Y-14976474D01*
X13035957Y-14988456D01*
X13014887Y-14998421D01*
X12992943Y-15006273D01*
X12970334Y-15011937D01*
X12947279Y-15015356D01*
X12924000Y-15016500D01*
X12349000Y-15016500D01*
X12325721Y-15015356D01*
X12302666Y-15011937D01*
X12280057Y-15006273D01*
X12258113Y-14998421D01*
X12237043Y-14988456D01*
X12217052Y-14976474D01*
X12198332Y-14962590D01*
X12181062Y-14946938D01*
X12165410Y-14929668D01*
X12151526Y-14910948D01*
X12139544Y-14890957D01*
X12129579Y-14869887D01*
X12121727Y-14847943D01*
X12116063Y-14825334D01*
X12112644Y-14802279D01*
X12111500Y-14779000D01*
X12111500Y-14304000D01*
X12112644Y-14280721D01*
X12116063Y-14257666D01*
X12121727Y-14235057D01*
X12129579Y-14213113D01*
X12139544Y-14192043D01*
X12151526Y-14172052D01*
X12165410Y-14153332D01*
X12181062Y-14136062D01*
X12198332Y-14120410D01*
X12217052Y-14106526D01*
X12237043Y-14094544D01*
X12258113Y-14084579D01*
X12280057Y-14076727D01*
X12302666Y-14071063D01*
X12325721Y-14067644D01*
X12349000Y-14066500D01*
X12924000Y-14066500D01*
X12947279Y-14067644D01*
X12947279Y-14067644D01*
G37*
D14*
X12636500Y-14541500D03*
D13*
G36*
X13468779Y5730856D02*
G01*
X13491834Y5727437D01*
X13514443Y5721773D01*
X13536387Y5713921D01*
X13557457Y5703956D01*
X13577448Y5691974D01*
X13596168Y5678090D01*
X13613438Y5662438D01*
X13629090Y5645168D01*
X13642974Y5626448D01*
X13654956Y5606457D01*
X13664921Y5585387D01*
X13672773Y5563443D01*
X13678437Y5540834D01*
X13681856Y5517779D01*
X13683000Y5494500D01*
X13683000Y4919500D01*
X13681856Y4896221D01*
X13678437Y4873166D01*
X13672773Y4850557D01*
X13664921Y4828613D01*
X13654956Y4807543D01*
X13642974Y4787552D01*
X13629090Y4768832D01*
X13613438Y4751562D01*
X13596168Y4735910D01*
X13577448Y4722026D01*
X13557457Y4710044D01*
X13536387Y4700079D01*
X13514443Y4692227D01*
X13491834Y4686563D01*
X13468779Y4683144D01*
X13445500Y4682000D01*
X12970500Y4682000D01*
X12947221Y4683144D01*
X12924166Y4686563D01*
X12901557Y4692227D01*
X12879613Y4700079D01*
X12858543Y4710044D01*
X12838552Y4722026D01*
X12819832Y4735910D01*
X12802562Y4751562D01*
X12786910Y4768832D01*
X12773026Y4787552D01*
X12761044Y4807543D01*
X12751079Y4828613D01*
X12743227Y4850557D01*
X12737563Y4873166D01*
X12734144Y4896221D01*
X12733000Y4919500D01*
X12733000Y5494500D01*
X12734144Y5517779D01*
X12737563Y5540834D01*
X12743227Y5563443D01*
X12751079Y5585387D01*
X12761044Y5606457D01*
X12773026Y5626448D01*
X12786910Y5645168D01*
X12802562Y5662438D01*
X12819832Y5678090D01*
X12838552Y5691974D01*
X12858543Y5703956D01*
X12879613Y5713921D01*
X12901557Y5721773D01*
X12924166Y5727437D01*
X12947221Y5730856D01*
X12970500Y5732000D01*
X13445500Y5732000D01*
X13468779Y5730856D01*
X13468779Y5730856D01*
G37*
D14*
X13208000Y5207000D03*
D13*
G36*
X13468779Y7480856D02*
G01*
X13491834Y7477437D01*
X13514443Y7471773D01*
X13536387Y7463921D01*
X13557457Y7453956D01*
X13577448Y7441974D01*
X13596168Y7428090D01*
X13613438Y7412438D01*
X13629090Y7395168D01*
X13642974Y7376448D01*
X13654956Y7356457D01*
X13664921Y7335387D01*
X13672773Y7313443D01*
X13678437Y7290834D01*
X13681856Y7267779D01*
X13683000Y7244500D01*
X13683000Y6669500D01*
X13681856Y6646221D01*
X13678437Y6623166D01*
X13672773Y6600557D01*
X13664921Y6578613D01*
X13654956Y6557543D01*
X13642974Y6537552D01*
X13629090Y6518832D01*
X13613438Y6501562D01*
X13596168Y6485910D01*
X13577448Y6472026D01*
X13557457Y6460044D01*
X13536387Y6450079D01*
X13514443Y6442227D01*
X13491834Y6436563D01*
X13468779Y6433144D01*
X13445500Y6432000D01*
X12970500Y6432000D01*
X12947221Y6433144D01*
X12924166Y6436563D01*
X12901557Y6442227D01*
X12879613Y6450079D01*
X12858543Y6460044D01*
X12838552Y6472026D01*
X12819832Y6485910D01*
X12802562Y6501562D01*
X12786910Y6518832D01*
X12773026Y6537552D01*
X12761044Y6557543D01*
X12751079Y6578613D01*
X12743227Y6600557D01*
X12737563Y6623166D01*
X12734144Y6646221D01*
X12733000Y6669500D01*
X12733000Y7244500D01*
X12734144Y7267779D01*
X12737563Y7290834D01*
X12743227Y7313443D01*
X12751079Y7335387D01*
X12761044Y7356457D01*
X12773026Y7376448D01*
X12786910Y7395168D01*
X12802562Y7412438D01*
X12819832Y7428090D01*
X12838552Y7441974D01*
X12858543Y7453956D01*
X12879613Y7463921D01*
X12901557Y7471773D01*
X12924166Y7477437D01*
X12947221Y7480856D01*
X12970500Y7482000D01*
X13445500Y7482000D01*
X13468779Y7480856D01*
X13468779Y7480856D01*
G37*
D14*
X13208000Y6957000D03*
D13*
G36*
X4720279Y9490856D02*
G01*
X4743334Y9487437D01*
X4765943Y9481773D01*
X4787887Y9473921D01*
X4808957Y9463956D01*
X4828948Y9451974D01*
X4847668Y9438090D01*
X4864938Y9422438D01*
X4880590Y9405168D01*
X4894474Y9386448D01*
X4906456Y9366457D01*
X4916421Y9345387D01*
X4924273Y9323443D01*
X4929937Y9300834D01*
X4933356Y9277779D01*
X4934500Y9254500D01*
X4934500Y8779500D01*
X4933356Y8756221D01*
X4929937Y8733166D01*
X4924273Y8710557D01*
X4916421Y8688613D01*
X4906456Y8667543D01*
X4894474Y8647552D01*
X4880590Y8628832D01*
X4864938Y8611562D01*
X4847668Y8595910D01*
X4828948Y8582026D01*
X4808957Y8570044D01*
X4787887Y8560079D01*
X4765943Y8552227D01*
X4743334Y8546563D01*
X4720279Y8543144D01*
X4697000Y8542000D01*
X4122000Y8542000D01*
X4098721Y8543144D01*
X4075666Y8546563D01*
X4053057Y8552227D01*
X4031113Y8560079D01*
X4010043Y8570044D01*
X3990052Y8582026D01*
X3971332Y8595910D01*
X3954062Y8611562D01*
X3938410Y8628832D01*
X3924526Y8647552D01*
X3912544Y8667543D01*
X3902579Y8688613D01*
X3894727Y8710557D01*
X3889063Y8733166D01*
X3885644Y8756221D01*
X3884500Y8779500D01*
X3884500Y9254500D01*
X3885644Y9277779D01*
X3889063Y9300834D01*
X3894727Y9323443D01*
X3902579Y9345387D01*
X3912544Y9366457D01*
X3924526Y9386448D01*
X3938410Y9405168D01*
X3954062Y9422438D01*
X3971332Y9438090D01*
X3990052Y9451974D01*
X4010043Y9463956D01*
X4031113Y9473921D01*
X4053057Y9481773D01*
X4075666Y9487437D01*
X4098721Y9490856D01*
X4122000Y9492000D01*
X4697000Y9492000D01*
X4720279Y9490856D01*
X4720279Y9490856D01*
G37*
D14*
X4409500Y9017000D03*
D13*
G36*
X6470279Y9490856D02*
G01*
X6493334Y9487437D01*
X6515943Y9481773D01*
X6537887Y9473921D01*
X6558957Y9463956D01*
X6578948Y9451974D01*
X6597668Y9438090D01*
X6614938Y9422438D01*
X6630590Y9405168D01*
X6644474Y9386448D01*
X6656456Y9366457D01*
X6666421Y9345387D01*
X6674273Y9323443D01*
X6679937Y9300834D01*
X6683356Y9277779D01*
X6684500Y9254500D01*
X6684500Y8779500D01*
X6683356Y8756221D01*
X6679937Y8733166D01*
X6674273Y8710557D01*
X6666421Y8688613D01*
X6656456Y8667543D01*
X6644474Y8647552D01*
X6630590Y8628832D01*
X6614938Y8611562D01*
X6597668Y8595910D01*
X6578948Y8582026D01*
X6558957Y8570044D01*
X6537887Y8560079D01*
X6515943Y8552227D01*
X6493334Y8546563D01*
X6470279Y8543144D01*
X6447000Y8542000D01*
X5872000Y8542000D01*
X5848721Y8543144D01*
X5825666Y8546563D01*
X5803057Y8552227D01*
X5781113Y8560079D01*
X5760043Y8570044D01*
X5740052Y8582026D01*
X5721332Y8595910D01*
X5704062Y8611562D01*
X5688410Y8628832D01*
X5674526Y8647552D01*
X5662544Y8667543D01*
X5652579Y8688613D01*
X5644727Y8710557D01*
X5639063Y8733166D01*
X5635644Y8756221D01*
X5634500Y8779500D01*
X5634500Y9254500D01*
X5635644Y9277779D01*
X5639063Y9300834D01*
X5644727Y9323443D01*
X5652579Y9345387D01*
X5662544Y9366457D01*
X5674526Y9386448D01*
X5688410Y9405168D01*
X5704062Y9422438D01*
X5721332Y9438090D01*
X5740052Y9451974D01*
X5760043Y9463956D01*
X5781113Y9473921D01*
X5803057Y9481773D01*
X5825666Y9487437D01*
X5848721Y9490856D01*
X5872000Y9492000D01*
X6447000Y9492000D01*
X6470279Y9490856D01*
X6470279Y9490856D01*
G37*
D14*
X6159500Y9017000D03*
D13*
G36*
X6569279Y7649356D02*
G01*
X6592334Y7645937D01*
X6614943Y7640273D01*
X6636887Y7632421D01*
X6657957Y7622456D01*
X6677948Y7610474D01*
X6696668Y7596590D01*
X6713938Y7580938D01*
X6729590Y7563668D01*
X6743474Y7544948D01*
X6755456Y7524957D01*
X6765421Y7503887D01*
X6773273Y7481943D01*
X6778937Y7459334D01*
X6782356Y7436279D01*
X6783500Y7413000D01*
X6783500Y6938000D01*
X6782356Y6914721D01*
X6778937Y6891666D01*
X6773273Y6869057D01*
X6765421Y6847113D01*
X6755456Y6826043D01*
X6743474Y6806052D01*
X6729590Y6787332D01*
X6713938Y6770062D01*
X6696668Y6754410D01*
X6677948Y6740526D01*
X6657957Y6728544D01*
X6636887Y6718579D01*
X6614943Y6710727D01*
X6592334Y6705063D01*
X6569279Y6701644D01*
X6546000Y6700500D01*
X5971000Y6700500D01*
X5947721Y6701644D01*
X5924666Y6705063D01*
X5902057Y6710727D01*
X5880113Y6718579D01*
X5859043Y6728544D01*
X5839052Y6740526D01*
X5820332Y6754410D01*
X5803062Y6770062D01*
X5787410Y6787332D01*
X5773526Y6806052D01*
X5761544Y6826043D01*
X5751579Y6847113D01*
X5743727Y6869057D01*
X5738063Y6891666D01*
X5734644Y6914721D01*
X5733500Y6938000D01*
X5733500Y7413000D01*
X5734644Y7436279D01*
X5738063Y7459334D01*
X5743727Y7481943D01*
X5751579Y7503887D01*
X5761544Y7524957D01*
X5773526Y7544948D01*
X5787410Y7563668D01*
X5803062Y7580938D01*
X5820332Y7596590D01*
X5839052Y7610474D01*
X5859043Y7622456D01*
X5880113Y7632421D01*
X5902057Y7640273D01*
X5924666Y7645937D01*
X5947721Y7649356D01*
X5971000Y7650500D01*
X6546000Y7650500D01*
X6569279Y7649356D01*
X6569279Y7649356D01*
G37*
D14*
X6258500Y7175500D03*
D13*
G36*
X4819279Y7649356D02*
G01*
X4842334Y7645937D01*
X4864943Y7640273D01*
X4886887Y7632421D01*
X4907957Y7622456D01*
X4927948Y7610474D01*
X4946668Y7596590D01*
X4963938Y7580938D01*
X4979590Y7563668D01*
X4993474Y7544948D01*
X5005456Y7524957D01*
X5015421Y7503887D01*
X5023273Y7481943D01*
X5028937Y7459334D01*
X5032356Y7436279D01*
X5033500Y7413000D01*
X5033500Y6938000D01*
X5032356Y6914721D01*
X5028937Y6891666D01*
X5023273Y6869057D01*
X5015421Y6847113D01*
X5005456Y6826043D01*
X4993474Y6806052D01*
X4979590Y6787332D01*
X4963938Y6770062D01*
X4946668Y6754410D01*
X4927948Y6740526D01*
X4907957Y6728544D01*
X4886887Y6718579D01*
X4864943Y6710727D01*
X4842334Y6705063D01*
X4819279Y6701644D01*
X4796000Y6700500D01*
X4221000Y6700500D01*
X4197721Y6701644D01*
X4174666Y6705063D01*
X4152057Y6710727D01*
X4130113Y6718579D01*
X4109043Y6728544D01*
X4089052Y6740526D01*
X4070332Y6754410D01*
X4053062Y6770062D01*
X4037410Y6787332D01*
X4023526Y6806052D01*
X4011544Y6826043D01*
X4001579Y6847113D01*
X3993727Y6869057D01*
X3988063Y6891666D01*
X3984644Y6914721D01*
X3983500Y6938000D01*
X3983500Y7413000D01*
X3984644Y7436279D01*
X3988063Y7459334D01*
X3993727Y7481943D01*
X4001579Y7503887D01*
X4011544Y7524957D01*
X4023526Y7544948D01*
X4037410Y7563668D01*
X4053062Y7580938D01*
X4070332Y7596590D01*
X4089052Y7610474D01*
X4109043Y7622456D01*
X4130113Y7632421D01*
X4152057Y7640273D01*
X4174666Y7645937D01*
X4197721Y7649356D01*
X4221000Y7650500D01*
X4796000Y7650500D01*
X4819279Y7649356D01*
X4819279Y7649356D01*
G37*
D14*
X4508500Y7175500D03*
D13*
G36*
X6597279Y6061856D02*
G01*
X6620334Y6058437D01*
X6642943Y6052773D01*
X6664887Y6044921D01*
X6685957Y6034956D01*
X6705948Y6022974D01*
X6724668Y6009090D01*
X6741938Y5993438D01*
X6757590Y5976168D01*
X6771474Y5957448D01*
X6783456Y5937457D01*
X6793421Y5916387D01*
X6801273Y5894443D01*
X6806937Y5871834D01*
X6810356Y5848779D01*
X6811500Y5825500D01*
X6811500Y5350500D01*
X6810356Y5327221D01*
X6806937Y5304166D01*
X6801273Y5281557D01*
X6793421Y5259613D01*
X6783456Y5238543D01*
X6771474Y5218552D01*
X6757590Y5199832D01*
X6741938Y5182562D01*
X6724668Y5166910D01*
X6705948Y5153026D01*
X6685957Y5141044D01*
X6664887Y5131079D01*
X6642943Y5123227D01*
X6620334Y5117563D01*
X6597279Y5114144D01*
X6574000Y5113000D01*
X5999000Y5113000D01*
X5975721Y5114144D01*
X5952666Y5117563D01*
X5930057Y5123227D01*
X5908113Y5131079D01*
X5887043Y5141044D01*
X5867052Y5153026D01*
X5848332Y5166910D01*
X5831062Y5182562D01*
X5815410Y5199832D01*
X5801526Y5218552D01*
X5789544Y5238543D01*
X5779579Y5259613D01*
X5771727Y5281557D01*
X5766063Y5304166D01*
X5762644Y5327221D01*
X5761500Y5350500D01*
X5761500Y5825500D01*
X5762644Y5848779D01*
X5766063Y5871834D01*
X5771727Y5894443D01*
X5779579Y5916387D01*
X5789544Y5937457D01*
X5801526Y5957448D01*
X5815410Y5976168D01*
X5831062Y5993438D01*
X5848332Y6009090D01*
X5867052Y6022974D01*
X5887043Y6034956D01*
X5908113Y6044921D01*
X5930057Y6052773D01*
X5952666Y6058437D01*
X5975721Y6061856D01*
X5999000Y6063000D01*
X6574000Y6063000D01*
X6597279Y6061856D01*
X6597279Y6061856D01*
G37*
D14*
X6286500Y5588000D03*
D13*
G36*
X4847279Y6061856D02*
G01*
X4870334Y6058437D01*
X4892943Y6052773D01*
X4914887Y6044921D01*
X4935957Y6034956D01*
X4955948Y6022974D01*
X4974668Y6009090D01*
X4991938Y5993438D01*
X5007590Y5976168D01*
X5021474Y5957448D01*
X5033456Y5937457D01*
X5043421Y5916387D01*
X5051273Y5894443D01*
X5056937Y5871834D01*
X5060356Y5848779D01*
X5061500Y5825500D01*
X5061500Y5350500D01*
X5060356Y5327221D01*
X5056937Y5304166D01*
X5051273Y5281557D01*
X5043421Y5259613D01*
X5033456Y5238543D01*
X5021474Y5218552D01*
X5007590Y5199832D01*
X4991938Y5182562D01*
X4974668Y5166910D01*
X4955948Y5153026D01*
X4935957Y5141044D01*
X4914887Y5131079D01*
X4892943Y5123227D01*
X4870334Y5117563D01*
X4847279Y5114144D01*
X4824000Y5113000D01*
X4249000Y5113000D01*
X4225721Y5114144D01*
X4202666Y5117563D01*
X4180057Y5123227D01*
X4158113Y5131079D01*
X4137043Y5141044D01*
X4117052Y5153026D01*
X4098332Y5166910D01*
X4081062Y5182562D01*
X4065410Y5199832D01*
X4051526Y5218552D01*
X4039544Y5238543D01*
X4029579Y5259613D01*
X4021727Y5281557D01*
X4016063Y5304166D01*
X4012644Y5327221D01*
X4011500Y5350500D01*
X4011500Y5825500D01*
X4012644Y5848779D01*
X4016063Y5871834D01*
X4021727Y5894443D01*
X4029579Y5916387D01*
X4039544Y5937457D01*
X4051526Y5957448D01*
X4065410Y5976168D01*
X4081062Y5993438D01*
X4098332Y6009090D01*
X4117052Y6022974D01*
X4137043Y6034956D01*
X4158113Y6044921D01*
X4180057Y6052773D01*
X4202666Y6058437D01*
X4225721Y6061856D01*
X4249000Y6063000D01*
X4824000Y6063000D01*
X4847279Y6061856D01*
X4847279Y6061856D01*
G37*
D14*
X4536500Y5588000D03*
D13*
G36*
X4197779Y-2016144D02*
G01*
X4220834Y-2019563D01*
X4243443Y-2025227D01*
X4265387Y-2033079D01*
X4286457Y-2043044D01*
X4306448Y-2055026D01*
X4325168Y-2068910D01*
X4342438Y-2084562D01*
X4358090Y-2101832D01*
X4371974Y-2120552D01*
X4383956Y-2140543D01*
X4393921Y-2161613D01*
X4401773Y-2183557D01*
X4407437Y-2206166D01*
X4410856Y-2229221D01*
X4412000Y-2252500D01*
X4412000Y-2827500D01*
X4410856Y-2850779D01*
X4407437Y-2873834D01*
X4401773Y-2896443D01*
X4393921Y-2918387D01*
X4383956Y-2939457D01*
X4371974Y-2959448D01*
X4358090Y-2978168D01*
X4342438Y-2995438D01*
X4325168Y-3011090D01*
X4306448Y-3024974D01*
X4286457Y-3036956D01*
X4265387Y-3046921D01*
X4243443Y-3054773D01*
X4220834Y-3060437D01*
X4197779Y-3063856D01*
X4174500Y-3065000D01*
X3699500Y-3065000D01*
X3676221Y-3063856D01*
X3653166Y-3060437D01*
X3630557Y-3054773D01*
X3608613Y-3046921D01*
X3587543Y-3036956D01*
X3567552Y-3024974D01*
X3548832Y-3011090D01*
X3531562Y-2995438D01*
X3515910Y-2978168D01*
X3502026Y-2959448D01*
X3490044Y-2939457D01*
X3480079Y-2918387D01*
X3472227Y-2896443D01*
X3466563Y-2873834D01*
X3463144Y-2850779D01*
X3462000Y-2827500D01*
X3462000Y-2252500D01*
X3463144Y-2229221D01*
X3466563Y-2206166D01*
X3472227Y-2183557D01*
X3480079Y-2161613D01*
X3490044Y-2140543D01*
X3502026Y-2120552D01*
X3515910Y-2101832D01*
X3531562Y-2084562D01*
X3548832Y-2068910D01*
X3567552Y-2055026D01*
X3587543Y-2043044D01*
X3608613Y-2033079D01*
X3630557Y-2025227D01*
X3653166Y-2019563D01*
X3676221Y-2016144D01*
X3699500Y-2015000D01*
X4174500Y-2015000D01*
X4197779Y-2016144D01*
X4197779Y-2016144D01*
G37*
D14*
X3937000Y-2540000D03*
D13*
G36*
X4197779Y-266144D02*
G01*
X4220834Y-269563D01*
X4243443Y-275227D01*
X4265387Y-283079D01*
X4286457Y-293044D01*
X4306448Y-305026D01*
X4325168Y-318910D01*
X4342438Y-334562D01*
X4358090Y-351832D01*
X4371974Y-370552D01*
X4383956Y-390543D01*
X4393921Y-411613D01*
X4401773Y-433557D01*
X4407437Y-456166D01*
X4410856Y-479221D01*
X4412000Y-502500D01*
X4412000Y-1077500D01*
X4410856Y-1100779D01*
X4407437Y-1123834D01*
X4401773Y-1146443D01*
X4393921Y-1168387D01*
X4383956Y-1189457D01*
X4371974Y-1209448D01*
X4358090Y-1228168D01*
X4342438Y-1245438D01*
X4325168Y-1261090D01*
X4306448Y-1274974D01*
X4286457Y-1286956D01*
X4265387Y-1296921D01*
X4243443Y-1304773D01*
X4220834Y-1310437D01*
X4197779Y-1313856D01*
X4174500Y-1315000D01*
X3699500Y-1315000D01*
X3676221Y-1313856D01*
X3653166Y-1310437D01*
X3630557Y-1304773D01*
X3608613Y-1296921D01*
X3587543Y-1286956D01*
X3567552Y-1274974D01*
X3548832Y-1261090D01*
X3531562Y-1245438D01*
X3515910Y-1228168D01*
X3502026Y-1209448D01*
X3490044Y-1189457D01*
X3480079Y-1168387D01*
X3472227Y-1146443D01*
X3466563Y-1123834D01*
X3463144Y-1100779D01*
X3462000Y-1077500D01*
X3462000Y-502500D01*
X3463144Y-479221D01*
X3466563Y-456166D01*
X3472227Y-433557D01*
X3480079Y-411613D01*
X3490044Y-390543D01*
X3502026Y-370552D01*
X3515910Y-351832D01*
X3531562Y-334562D01*
X3548832Y-318910D01*
X3567552Y-305026D01*
X3587543Y-293044D01*
X3608613Y-283079D01*
X3630557Y-275227D01*
X3653166Y-269563D01*
X3676221Y-266144D01*
X3699500Y-265000D01*
X4174500Y-265000D01*
X4197779Y-266144D01*
X4197779Y-266144D01*
G37*
D14*
X3937000Y-790000D03*
M02*
