G04 #@! TF.GenerationSoftware,KiCad,Pcbnew,(5.1.0)-1*
G04 #@! TF.CreationDate,2019-05-24T23:27:09-04:00*
G04 #@! TF.ProjectId,comp2dvi2,636f6d70-3264-4766-9932-2e6b69636164,rev?*
G04 #@! TF.SameCoordinates,PX528a7e4PY5879c7c*
G04 #@! TF.FileFunction,Soldermask,Bot*
G04 #@! TF.FilePolarity,Negative*
%FSLAX46Y46*%
G04 Gerber Fmt 4.6, Leading zero omitted, Abs format (unit mm)*
G04 Created by KiCad (PCBNEW (5.1.0)-1) date 2019-05-24 23:27:09*
%MOMM*%
%LPD*%
G04 APERTURE LIST*
%ADD10C,6.400000*%
%ADD11C,0.800000*%
%ADD12O,1.600000X1.600000*%
%ADD13R,1.600000X1.600000*%
%ADD14O,1.200000X1.900000*%
%ADD15C,1.450000*%
%ADD16C,1.611200*%
%ADD17C,2.753200*%
%ADD18C,3.819200*%
%ADD19C,1.600200*%
%ADD20C,1.473200*%
%ADD21C,2.032000*%
%ADD22C,3.098800*%
G04 APERTURE END LIST*
D10*
X-16391500Y-25674500D03*
D11*
X-13991500Y-25674500D03*
X-14694444Y-27371556D03*
X-16391500Y-28074500D03*
X-18088556Y-27371556D03*
X-18791500Y-25674500D03*
X-18088556Y-23977444D03*
X-16391500Y-23274500D03*
X-14694444Y-23977444D03*
X-14694444Y29022556D03*
X-16391500Y29725500D03*
X-18088556Y29022556D03*
X-18791500Y27325500D03*
X-18088556Y25628444D03*
X-16391500Y24925500D03*
X-14694444Y25628444D03*
X-13991500Y27325500D03*
D10*
X-16391500Y27325500D03*
X18677500Y27325500D03*
D11*
X21077500Y27325500D03*
X20374556Y25628444D03*
X18677500Y24925500D03*
X16980444Y25628444D03*
X16277500Y27325500D03*
X16980444Y29022556D03*
X18677500Y29725500D03*
X20374556Y29022556D03*
X20374556Y-23977444D03*
X18677500Y-23274500D03*
X16980444Y-23977444D03*
X16277500Y-25674500D03*
X16980444Y-27371556D03*
X18677500Y-28074500D03*
X20374556Y-27371556D03*
X21077500Y-25674500D03*
D10*
X18677500Y-25674500D03*
D12*
X-5905500Y-20662900D03*
X-3365500Y-28282900D03*
X-3365500Y-20662900D03*
D13*
X-5905500Y-28282900D03*
D14*
X4945500Y30384000D03*
X11945500Y30384000D03*
D15*
X5945500Y27684000D03*
X10945500Y27684000D03*
D16*
X4599300Y-25895500D03*
X7099300Y-25895500D03*
X9599300Y-25895500D03*
X9599300Y-29195500D03*
X7099300Y-29195500D03*
X4599300Y-29195500D03*
D17*
X16184500Y-14174500D03*
D18*
X16184500Y-19262500D03*
X16184500Y-9086500D03*
X20804500Y-14174500D03*
X20804500Y825500D03*
X16184500Y5913500D03*
X16184500Y-4262500D03*
D17*
X16184500Y825500D03*
X16184500Y15825500D03*
D18*
X16184500Y10737500D03*
X16184500Y20913500D03*
X20804500Y15825500D03*
D19*
X-11239500Y10350500D03*
X-11239500Y8445500D03*
X-11239500Y6540500D03*
X-11239500Y4635500D03*
X-11239500Y2730500D03*
X-11239500Y825500D03*
X-11239500Y-1079500D03*
X-11239500Y-2984500D03*
X-13144500Y10350500D03*
X-13144500Y8445500D03*
X-13144500Y6540500D03*
X-13144500Y4635500D03*
X-13144500Y2730500D03*
X-13144500Y825500D03*
X-13144500Y-1079500D03*
X-13144500Y-2984500D03*
X-15049500Y10350500D03*
X-15049500Y8445500D03*
X-15049500Y6540500D03*
X-15049500Y4635500D03*
X-15049500Y2730500D03*
X-15049500Y825500D03*
X-15049500Y-1079500D03*
X-15049500Y-2984500D03*
D20*
X-11874500Y-6159500D03*
X-11874500Y-8699500D03*
X-14414500Y-6159500D03*
X-14414500Y-8699500D03*
X-15684500Y-7429500D03*
X-10604500Y-7429500D03*
D21*
X-18351500Y10350500D03*
X-18351500Y-8699500D03*
D22*
X-15049500Y16192500D03*
X-15049500Y-14541500D03*
M02*
