G04 #@! TF.GenerationSoftware,KiCad,Pcbnew,(5.1.0)-1*
G04 #@! TF.CreationDate,2019-06-17T14:55:03-04:00*
G04 #@! TF.ProjectId,comp2dvi2,636f6d70-3264-4766-9932-2e6b69636164,rev?*
G04 #@! TF.SameCoordinates,PX528a7e4PY5879c7c*
G04 #@! TF.FileFunction,Legend,Bot*
G04 #@! TF.FilePolarity,Positive*
%FSLAX46Y46*%
G04 Gerber Fmt 4.6, Leading zero omitted, Abs format (unit mm)*
G04 Created by KiCad (PCBNEW (5.1.0)-1) date 2019-06-17 14:55:03*
%MOMM*%
%LPD*%
G04 APERTURE LIST*
%ADD10C,0.150000*%
G04 APERTURE END LIST*
D10*
X-6278120Y15913334D02*
X-6278120Y16389524D01*
X-7278120Y16389524D01*
X-6278120Y15580000D02*
X-6944786Y15580000D01*
X-7278120Y15580000D02*
X-7230500Y15627620D01*
X-7182881Y15580000D01*
X-7230500Y15532381D01*
X-7278120Y15580000D01*
X-7182881Y15580000D01*
X-6325739Y14675239D02*
X-6278120Y14770477D01*
X-6278120Y14960953D01*
X-6325739Y15056191D01*
X-6373358Y15103810D01*
X-6468596Y15151429D01*
X-6754310Y15151429D01*
X-6849548Y15103810D01*
X-6897167Y15056191D01*
X-6944786Y14960953D01*
X-6944786Y14770477D01*
X-6897167Y14675239D01*
X-6325739Y13865715D02*
X-6278120Y13960953D01*
X-6278120Y14151429D01*
X-6325739Y14246667D01*
X-6420977Y14294286D01*
X-6801929Y14294286D01*
X-6897167Y14246667D01*
X-6944786Y14151429D01*
X-6944786Y13960953D01*
X-6897167Y13865715D01*
X-6801929Y13818096D01*
X-6706691Y13818096D01*
X-6611453Y14294286D01*
X-6944786Y13389524D02*
X-6278120Y13389524D01*
X-6849548Y13389524D02*
X-6897167Y13341905D01*
X-6944786Y13246667D01*
X-6944786Y13103810D01*
X-6897167Y13008572D01*
X-6801929Y12960953D01*
X-6278120Y12960953D01*
X-6325739Y12532381D02*
X-6278120Y12437143D01*
X-6278120Y12246667D01*
X-6325739Y12151429D01*
X-6420977Y12103810D01*
X-6468596Y12103810D01*
X-6563834Y12151429D01*
X-6611453Y12246667D01*
X-6611453Y12389524D01*
X-6659072Y12484762D01*
X-6754310Y12532381D01*
X-6801929Y12532381D01*
X-6897167Y12484762D01*
X-6944786Y12389524D01*
X-6944786Y12246667D01*
X-6897167Y12151429D01*
X-6325739Y11294286D02*
X-6278120Y11389524D01*
X-6278120Y11580000D01*
X-6325739Y11675239D01*
X-6420977Y11722858D01*
X-6801929Y11722858D01*
X-6897167Y11675239D01*
X-6944786Y11580000D01*
X-6944786Y11389524D01*
X-6897167Y11294286D01*
X-6801929Y11246667D01*
X-6706691Y11246667D01*
X-6611453Y11722858D01*
X-6278120Y10389524D02*
X-7278120Y10389524D01*
X-6325739Y10389524D02*
X-6278120Y10484762D01*
X-6278120Y10675239D01*
X-6325739Y10770477D01*
X-6373358Y10818096D01*
X-6468596Y10865715D01*
X-6754310Y10865715D01*
X-6849548Y10818096D01*
X-6897167Y10770477D01*
X-6944786Y10675239D01*
X-6944786Y10484762D01*
X-6897167Y10389524D01*
X-7278120Y9151429D02*
X-6468596Y9151429D01*
X-6373358Y9103810D01*
X-6325739Y9056191D01*
X-6278120Y8960953D01*
X-6278120Y8770477D01*
X-6325739Y8675239D01*
X-6373358Y8627620D01*
X-6468596Y8580000D01*
X-7278120Y8580000D01*
X-6944786Y8103810D02*
X-6278120Y8103810D01*
X-6849548Y8103810D02*
X-6897167Y8056191D01*
X-6944786Y7960953D01*
X-6944786Y7818096D01*
X-6897167Y7722858D01*
X-6801929Y7675239D01*
X-6278120Y7675239D01*
X-6278120Y6770477D02*
X-7278120Y6770477D01*
X-6325739Y6770477D02*
X-6278120Y6865715D01*
X-6278120Y7056191D01*
X-6325739Y7151429D01*
X-6373358Y7199048D01*
X-6468596Y7246667D01*
X-6754310Y7246667D01*
X-6849548Y7199048D01*
X-6897167Y7151429D01*
X-6944786Y7056191D01*
X-6944786Y6865715D01*
X-6897167Y6770477D01*
X-6325739Y5913334D02*
X-6278120Y6008572D01*
X-6278120Y6199048D01*
X-6325739Y6294286D01*
X-6420977Y6341905D01*
X-6801929Y6341905D01*
X-6897167Y6294286D01*
X-6944786Y6199048D01*
X-6944786Y6008572D01*
X-6897167Y5913334D01*
X-6801929Y5865715D01*
X-6706691Y5865715D01*
X-6611453Y6341905D01*
X-6278120Y5437143D02*
X-6944786Y5437143D01*
X-6754310Y5437143D02*
X-6849548Y5389524D01*
X-6897167Y5341905D01*
X-6944786Y5246667D01*
X-6944786Y5151429D01*
X-6373358Y3484762D02*
X-6325739Y3532381D01*
X-6278120Y3675239D01*
X-6278120Y3770477D01*
X-6325739Y3913334D01*
X-6420977Y4008572D01*
X-6516215Y4056191D01*
X-6706691Y4103810D01*
X-6849548Y4103810D01*
X-7040024Y4056191D01*
X-7135262Y4008572D01*
X-7230500Y3913334D01*
X-7278120Y3770477D01*
X-7278120Y3675239D01*
X-7230500Y3532381D01*
X-7182881Y3484762D01*
X-6801929Y3056191D02*
X-6801929Y2722858D01*
X-6278120Y2580000D02*
X-6278120Y3056191D01*
X-7278120Y3056191D01*
X-7278120Y2580000D01*
X-6278120Y1580000D02*
X-6754310Y1913334D01*
X-6278120Y2151429D02*
X-7278120Y2151429D01*
X-7278120Y1770477D01*
X-7230500Y1675239D01*
X-7182881Y1627620D01*
X-7087643Y1580000D01*
X-6944786Y1580000D01*
X-6849548Y1627620D01*
X-6801929Y1675239D01*
X-6754310Y1770477D01*
X-6754310Y2151429D01*
X-6278120Y1151429D02*
X-7278120Y1151429D01*
X-6278120Y580000D01*
X-7278120Y580000D01*
X-7278120Y-848571D02*
X-7278120Y-1039047D01*
X-7230500Y-1134285D01*
X-7135262Y-1229523D01*
X-6944786Y-1277142D01*
X-6611453Y-1277142D01*
X-6420977Y-1229523D01*
X-6325739Y-1134285D01*
X-6278120Y-1039047D01*
X-6278120Y-848571D01*
X-6325739Y-753333D01*
X-6420977Y-658095D01*
X-6611453Y-610476D01*
X-6944786Y-610476D01*
X-7135262Y-658095D01*
X-7230500Y-753333D01*
X-7278120Y-848571D01*
X-6278120Y-1705714D02*
X-7278120Y-1705714D01*
X-6801929Y-1705714D02*
X-6801929Y-2277142D01*
X-6278120Y-2277142D02*
X-7278120Y-2277142D01*
X-6278120Y-3229523D02*
X-6278120Y-2753333D01*
X-7278120Y-2753333D01*
X-6278120Y-4848571D02*
X-6278120Y-4277142D01*
X-6278120Y-4562857D02*
X-7278120Y-4562857D01*
X-7135262Y-4467619D01*
X-7040024Y-4372380D01*
X-6992405Y-4277142D01*
X-6373358Y-5277142D02*
X-6325739Y-5324761D01*
X-6278120Y-5277142D01*
X-6325739Y-5229523D01*
X-6373358Y-5277142D01*
X-6278120Y-5277142D01*
X-7182881Y-5705714D02*
X-7230500Y-5753333D01*
X-7278120Y-5848571D01*
X-7278120Y-6086666D01*
X-7230500Y-6181904D01*
X-7182881Y-6229523D01*
X-7087643Y-6277142D01*
X-6992405Y-6277142D01*
X-6849548Y-6229523D01*
X-6278120Y-5658095D01*
X-6278120Y-6277142D01*
X-5294786Y17508572D02*
X-4628120Y17318096D01*
X-5104310Y17127620D01*
X-4628120Y16937143D01*
X-5294786Y16746667D01*
X-5294786Y16460953D02*
X-4628120Y16270477D01*
X-5104310Y16080000D01*
X-4628120Y15889524D01*
X-5294786Y15699048D01*
X-5294786Y15413334D02*
X-4628120Y15222858D01*
X-5104310Y15032381D01*
X-4628120Y14841905D01*
X-5294786Y14651429D01*
X-4723358Y14270477D02*
X-4675739Y14222858D01*
X-4628120Y14270477D01*
X-4675739Y14318096D01*
X-4723358Y14270477D01*
X-4628120Y14270477D01*
X-4628120Y13794286D02*
X-5294786Y13794286D01*
X-5104310Y13794286D02*
X-5199548Y13746667D01*
X-5247167Y13699048D01*
X-5294786Y13603810D01*
X-5294786Y13508572D01*
X-4675739Y12794286D02*
X-4628120Y12889524D01*
X-4628120Y13080000D01*
X-4675739Y13175239D01*
X-4770977Y13222858D01*
X-5151929Y13222858D01*
X-5247167Y13175239D01*
X-5294786Y13080000D01*
X-5294786Y12889524D01*
X-5247167Y12794286D01*
X-5151929Y12746667D01*
X-5056691Y12746667D01*
X-4961453Y13222858D01*
X-5294786Y12460953D02*
X-5294786Y12080000D01*
X-5628120Y12318096D02*
X-4770977Y12318096D01*
X-4675739Y12270477D01*
X-4628120Y12175239D01*
X-4628120Y12080000D01*
X-4628120Y11746667D02*
X-5294786Y11746667D01*
X-5104310Y11746667D02*
X-5199548Y11699048D01*
X-5247167Y11651429D01*
X-5294786Y11556191D01*
X-5294786Y11460953D01*
X-4628120Y10984762D02*
X-4675739Y11080000D01*
X-4723358Y11127620D01*
X-4818596Y11175239D01*
X-5104310Y11175239D01*
X-5199548Y11127620D01*
X-5247167Y11080000D01*
X-5294786Y10984762D01*
X-5294786Y10841905D01*
X-5247167Y10746667D01*
X-5199548Y10699048D01*
X-5104310Y10651429D01*
X-4818596Y10651429D01*
X-4723358Y10699048D01*
X-4675739Y10746667D01*
X-4628120Y10841905D01*
X-4628120Y10984762D01*
X-4628120Y10222858D02*
X-5294786Y10222858D01*
X-5104310Y10222858D02*
X-5199548Y10175239D01*
X-5247167Y10127620D01*
X-5294786Y10032381D01*
X-5294786Y9937143D01*
X-5294786Y9175239D02*
X-4485262Y9175239D01*
X-4390024Y9222858D01*
X-4342405Y9270477D01*
X-4294786Y9365715D01*
X-4294786Y9508572D01*
X-4342405Y9603810D01*
X-4675739Y9175239D02*
X-4628120Y9270477D01*
X-4628120Y9460953D01*
X-4675739Y9556191D01*
X-4723358Y9603810D01*
X-4818596Y9651429D01*
X-5104310Y9651429D01*
X-5199548Y9603810D01*
X-5247167Y9556191D01*
X-5294786Y9460953D01*
X-5294786Y9270477D01*
X-5247167Y9175239D01*
X-4628120Y8699048D02*
X-5628120Y8699048D01*
X-5247167Y8699048D02*
X-5294786Y8603810D01*
X-5294786Y8413334D01*
X-5247167Y8318096D01*
X-5199548Y8270477D01*
X-5104310Y8222858D01*
X-4818596Y8222858D01*
X-4723358Y8270477D01*
X-4675739Y8318096D01*
X-4628120Y8413334D01*
X-4628120Y8603810D01*
X-4675739Y8699048D01*
X-4723358Y7794286D02*
X-4675739Y7746667D01*
X-4628120Y7794286D01*
X-4675739Y7841905D01*
X-4723358Y7794286D01*
X-4628120Y7794286D01*
X-4675739Y6889524D02*
X-4628120Y6984762D01*
X-4628120Y7175239D01*
X-4675739Y7270477D01*
X-4723358Y7318096D01*
X-4818596Y7365715D01*
X-5104310Y7365715D01*
X-5199548Y7318096D01*
X-5247167Y7270477D01*
X-5294786Y7175239D01*
X-5294786Y6984762D01*
X-5247167Y6889524D01*
X-4628120Y6318096D02*
X-4675739Y6413334D01*
X-4723358Y6460953D01*
X-4818596Y6508572D01*
X-5104310Y6508572D01*
X-5199548Y6460953D01*
X-5247167Y6413334D01*
X-5294786Y6318096D01*
X-5294786Y6175239D01*
X-5247167Y6080000D01*
X-5199548Y6032381D01*
X-5104310Y5984762D01*
X-4818596Y5984762D01*
X-4723358Y6032381D01*
X-4675739Y6080000D01*
X-4628120Y6175239D01*
X-4628120Y6318096D01*
X-4628120Y5556191D02*
X-5294786Y5556191D01*
X-5199548Y5556191D02*
X-5247167Y5508572D01*
X-5294786Y5413334D01*
X-5294786Y5270477D01*
X-5247167Y5175239D01*
X-5151929Y5127620D01*
X-4628120Y5127620D01*
X-5151929Y5127620D02*
X-5247167Y5080000D01*
X-5294786Y4984762D01*
X-5294786Y4841905D01*
X-5247167Y4746667D01*
X-5151929Y4699048D01*
X-4628120Y4699048D01*
X-5675739Y3508572D02*
X-4390024Y4365715D01*
X-4675739Y2746667D02*
X-4628120Y2841905D01*
X-4628120Y3032381D01*
X-4675739Y3127620D01*
X-4723358Y3175239D01*
X-4818596Y3222858D01*
X-5104310Y3222858D01*
X-5199548Y3175239D01*
X-5247167Y3127620D01*
X-5294786Y3032381D01*
X-5294786Y2841905D01*
X-5247167Y2746667D01*
X-4628120Y2175239D02*
X-4675739Y2270477D01*
X-4723358Y2318096D01*
X-4818596Y2365715D01*
X-5104310Y2365715D01*
X-5199548Y2318096D01*
X-5247167Y2270477D01*
X-5294786Y2175239D01*
X-5294786Y2032381D01*
X-5247167Y1937143D01*
X-5199548Y1889524D01*
X-5104310Y1841905D01*
X-4818596Y1841905D01*
X-4723358Y1889524D01*
X-4675739Y1937143D01*
X-4628120Y2032381D01*
X-4628120Y2175239D01*
X-4628120Y1413334D02*
X-5294786Y1413334D01*
X-5199548Y1413334D02*
X-5247167Y1365715D01*
X-5294786Y1270477D01*
X-5294786Y1127620D01*
X-5247167Y1032381D01*
X-5151929Y984762D01*
X-4628120Y984762D01*
X-5151929Y984762D02*
X-5247167Y937143D01*
X-5294786Y841905D01*
X-5294786Y699048D01*
X-5247167Y603810D01*
X-5151929Y556191D01*
X-4628120Y556191D01*
X-5294786Y80000D02*
X-4294786Y80000D01*
X-5247167Y80000D02*
X-5294786Y-15238D01*
X-5294786Y-205714D01*
X-5247167Y-300952D01*
X-5199548Y-348571D01*
X-5104310Y-396190D01*
X-4818596Y-396190D01*
X-4723358Y-348571D01*
X-4675739Y-300952D01*
X-4628120Y-205714D01*
X-4628120Y-15238D01*
X-4675739Y80000D01*
X-5532881Y-777142D02*
X-5580500Y-824761D01*
X-5628120Y-920000D01*
X-5628120Y-1158095D01*
X-5580500Y-1253333D01*
X-5532881Y-1300952D01*
X-5437643Y-1348571D01*
X-5342405Y-1348571D01*
X-5199548Y-1300952D01*
X-4628120Y-729523D01*
X-4628120Y-1348571D01*
X-4628120Y-2205714D02*
X-5628120Y-2205714D01*
X-4675739Y-2205714D02*
X-4628120Y-2110476D01*
X-4628120Y-1920000D01*
X-4675739Y-1824761D01*
X-4723358Y-1777142D01*
X-4818596Y-1729523D01*
X-5104310Y-1729523D01*
X-5199548Y-1777142D01*
X-5247167Y-1824761D01*
X-5294786Y-1920000D01*
X-5294786Y-2110476D01*
X-5247167Y-2205714D01*
X-5294786Y-2586666D02*
X-4628120Y-2824761D01*
X-5294786Y-3062857D01*
X-4628120Y-3443809D02*
X-5294786Y-3443809D01*
X-5628120Y-3443809D02*
X-5580500Y-3396190D01*
X-5532881Y-3443809D01*
X-5580500Y-3491428D01*
X-5628120Y-3443809D01*
X-5532881Y-3443809D01*
X-4723358Y-3920000D02*
X-4675739Y-3967619D01*
X-4628120Y-3920000D01*
X-4675739Y-3872380D01*
X-4723358Y-3920000D01*
X-4628120Y-3920000D01*
X-4628120Y-4396190D02*
X-5628120Y-4396190D01*
X-4628120Y-4824761D02*
X-5151929Y-4824761D01*
X-5247167Y-4777142D01*
X-5294786Y-4681904D01*
X-5294786Y-4539047D01*
X-5247167Y-4443809D01*
X-5199548Y-4396190D01*
X-5294786Y-5158095D02*
X-5294786Y-5539047D01*
X-5628120Y-5300952D02*
X-4770977Y-5300952D01*
X-4675739Y-5348571D01*
X-4628120Y-5443809D01*
X-4628120Y-5539047D01*
X-4628120Y-5872380D02*
X-5294786Y-5872380D01*
X-5199548Y-5872380D02*
X-5247167Y-5920000D01*
X-5294786Y-6015238D01*
X-5294786Y-6158095D01*
X-5247167Y-6253333D01*
X-5151929Y-6300952D01*
X-4628120Y-6300952D01*
X-5151929Y-6300952D02*
X-5247167Y-6348571D01*
X-5294786Y-6443809D01*
X-5294786Y-6586666D01*
X-5247167Y-6681904D01*
X-5151929Y-6729523D01*
X-4628120Y-6729523D01*
X-4628120Y-7348571D02*
X-4675739Y-7253333D01*
X-4770977Y-7205714D01*
X-5628120Y-7205714D01*
M02*
