G04 #@! TF.GenerationSoftware,KiCad,Pcbnew,(5.1.0)-1*
G04 #@! TF.CreationDate,2019-06-26T15:09:51-04:00*
G04 #@! TF.ProjectId,comp2dvi2,636f6d70-3264-4766-9932-2e6b69636164,rev?*
G04 #@! TF.SameCoordinates,PX528a7e4PY5879c7c*
G04 #@! TF.FileFunction,Legend,Top*
G04 #@! TF.FilePolarity,Positive*
%FSLAX46Y46*%
G04 Gerber Fmt 4.6, Leading zero omitted, Abs format (unit mm)*
G04 Created by KiCad (PCBNEW (5.1.0)-1) date 2019-06-26 15:09:51*
%MOMM*%
%LPD*%
G04 APERTURE LIST*
%ADD10C,0.150000*%
%ADD11C,0.010000*%
%ADD12C,0.120000*%
%ADD13C,0.127000*%
%ADD14C,0.152400*%
%ADD15C,0.609600*%
%ADD16C,0.050800*%
%ADD17C,0.254000*%
%ADD18C,0.077216*%
%ADD19C,0.125000*%
G04 APERTURE END LIST*
D10*
X7302500Y7810500D02*
X6921500Y7302500D01*
X7302500Y9969500D02*
X7302500Y7810500D01*
X7683500Y10350500D02*
X7302500Y9969500D01*
X4635500Y-23177500D02*
X4635500Y-15557500D01*
X-156572Y-15996071D02*
X-489905Y-15996071D01*
X-489905Y-16519880D02*
X-489905Y-15519880D01*
X-13715Y-15519880D01*
X891047Y-16519880D02*
X319619Y-16519880D01*
X605333Y-16519880D02*
X605333Y-15519880D01*
X510095Y-15662738D01*
X414857Y-15757976D01*
X319619Y-15805595D01*
X2414857Y-15996071D02*
X2081523Y-15996071D01*
X2081523Y-16519880D02*
X2081523Y-15519880D01*
X2557714Y-15519880D01*
X2891047Y-15615119D02*
X2938666Y-15567500D01*
X3033904Y-15519880D01*
X3272000Y-15519880D01*
X3367238Y-15567500D01*
X3414857Y-15615119D01*
X3462476Y-15710357D01*
X3462476Y-15805595D01*
X3414857Y-15948452D01*
X2843428Y-16519880D01*
X3462476Y-16519880D01*
X6748190Y-16519880D02*
X6414857Y-16043690D01*
X6176761Y-16519880D02*
X6176761Y-15519880D01*
X6557714Y-15519880D01*
X6652952Y-15567500D01*
X6700571Y-15615119D01*
X6748190Y-15710357D01*
X6748190Y-15853214D01*
X6700571Y-15948452D01*
X6652952Y-15996071D01*
X6557714Y-16043690D01*
X6176761Y-16043690D01*
X7557714Y-16472261D02*
X7462476Y-16519880D01*
X7272000Y-16519880D01*
X7176761Y-16472261D01*
X7129142Y-16377023D01*
X7129142Y-15996071D01*
X7176761Y-15900833D01*
X7272000Y-15853214D01*
X7462476Y-15853214D01*
X7557714Y-15900833D01*
X7605333Y-15996071D01*
X7605333Y-16091309D01*
X7129142Y-16186547D01*
X7986285Y-16472261D02*
X8081523Y-16519880D01*
X8272000Y-16519880D01*
X8367238Y-16472261D01*
X8414857Y-16377023D01*
X8414857Y-16329404D01*
X8367238Y-16234166D01*
X8272000Y-16186547D01*
X8129142Y-16186547D01*
X8033904Y-16138928D01*
X7986285Y-16043690D01*
X7986285Y-15996071D01*
X8033904Y-15900833D01*
X8129142Y-15853214D01*
X8272000Y-15853214D01*
X8367238Y-15900833D01*
X8986285Y-16519880D02*
X8891047Y-16472261D01*
X8843428Y-16424642D01*
X8795809Y-16329404D01*
X8795809Y-16043690D01*
X8843428Y-15948452D01*
X8891047Y-15900833D01*
X8986285Y-15853214D01*
X9129142Y-15853214D01*
X9224380Y-15900833D01*
X9272000Y-15948452D01*
X9319619Y-16043690D01*
X9319619Y-16329404D01*
X9272000Y-16424642D01*
X9224380Y-16472261D01*
X9129142Y-16519880D01*
X8986285Y-16519880D01*
X9891047Y-16519880D02*
X9795809Y-16472261D01*
X9748190Y-16377023D01*
X9748190Y-15519880D01*
X10700571Y-15853214D02*
X10700571Y-16519880D01*
X10272000Y-15853214D02*
X10272000Y-16377023D01*
X10319619Y-16472261D01*
X10414857Y-16519880D01*
X10557714Y-16519880D01*
X10652952Y-16472261D01*
X10700571Y-16424642D01*
X11033904Y-15853214D02*
X11414857Y-15853214D01*
X11176761Y-15519880D02*
X11176761Y-16377023D01*
X11224380Y-16472261D01*
X11319619Y-16519880D01*
X11414857Y-16519880D01*
X11748190Y-16519880D02*
X11748190Y-15853214D01*
X11748190Y-15519880D02*
X11700571Y-15567500D01*
X11748190Y-15615119D01*
X11795809Y-15567500D01*
X11748190Y-15519880D01*
X11748190Y-15615119D01*
X12367238Y-16519880D02*
X12272000Y-16472261D01*
X12224380Y-16424642D01*
X12176761Y-16329404D01*
X12176761Y-16043690D01*
X12224380Y-15948452D01*
X12272000Y-15900833D01*
X12367238Y-15853214D01*
X12510095Y-15853214D01*
X12605333Y-15900833D01*
X12652952Y-15948452D01*
X12700571Y-16043690D01*
X12700571Y-16329404D01*
X12652952Y-16424642D01*
X12605333Y-16472261D01*
X12510095Y-16519880D01*
X12367238Y-16519880D01*
X13129142Y-15853214D02*
X13129142Y-16519880D01*
X13129142Y-15948452D02*
X13176761Y-15900833D01*
X13272000Y-15853214D01*
X13414857Y-15853214D01*
X13510095Y-15900833D01*
X13557714Y-15996071D01*
X13557714Y-16519880D01*
X-108953Y-18169880D02*
X-108953Y-17407976D01*
X-299429Y-17598452D02*
X-108953Y-17407976D01*
X81523Y-17598452D01*
X2652952Y-18169880D02*
X2652952Y-17407976D01*
X2462476Y-17598452D02*
X2652952Y-17407976D01*
X2843428Y-17598452D01*
X5748190Y-17265119D02*
X5795809Y-17217500D01*
X5891047Y-17169880D01*
X6129142Y-17169880D01*
X6224380Y-17217500D01*
X6272000Y-17265119D01*
X6319619Y-17360357D01*
X6319619Y-17455595D01*
X6272000Y-17598452D01*
X5700571Y-18169880D01*
X6319619Y-18169880D01*
X7176761Y-17503214D02*
X7176761Y-18169880D01*
X6938666Y-17122261D02*
X6700571Y-17836547D01*
X7319619Y-17836547D01*
X7891047Y-17169880D02*
X7986285Y-17169880D01*
X8081523Y-17217500D01*
X8129142Y-17265119D01*
X8176761Y-17360357D01*
X8224380Y-17550833D01*
X8224380Y-17788928D01*
X8176761Y-17979404D01*
X8129142Y-18074642D01*
X8081523Y-18122261D01*
X7986285Y-18169880D01*
X7891047Y-18169880D01*
X7795809Y-18122261D01*
X7748190Y-18074642D01*
X7700571Y-17979404D01*
X7652952Y-17788928D01*
X7652952Y-17550833D01*
X7700571Y-17360357D01*
X7748190Y-17265119D01*
X7795809Y-17217500D01*
X7891047Y-17169880D01*
X8652952Y-17503214D02*
X8652952Y-18503214D01*
X8652952Y-17550833D02*
X8748190Y-17503214D01*
X8938666Y-17503214D01*
X9033904Y-17550833D01*
X9081523Y-17598452D01*
X9129142Y-17693690D01*
X9129142Y-17979404D01*
X9081523Y-18074642D01*
X9033904Y-18122261D01*
X8938666Y-18169880D01*
X8748190Y-18169880D01*
X8652952Y-18122261D01*
X10272000Y-17122261D02*
X9414857Y-18407976D01*
X11033904Y-17503214D02*
X11033904Y-18169880D01*
X10795809Y-17122261D02*
X10557714Y-17836547D01*
X11176761Y-17836547D01*
X11700571Y-17598452D02*
X11605333Y-17550833D01*
X11557714Y-17503214D01*
X11510095Y-17407976D01*
X11510095Y-17360357D01*
X11557714Y-17265119D01*
X11605333Y-17217500D01*
X11700571Y-17169880D01*
X11891047Y-17169880D01*
X11986285Y-17217500D01*
X12033904Y-17265119D01*
X12081523Y-17360357D01*
X12081523Y-17407976D01*
X12033904Y-17503214D01*
X11986285Y-17550833D01*
X11891047Y-17598452D01*
X11700571Y-17598452D01*
X11605333Y-17646071D01*
X11557714Y-17693690D01*
X11510095Y-17788928D01*
X11510095Y-17979404D01*
X11557714Y-18074642D01*
X11605333Y-18122261D01*
X11700571Y-18169880D01*
X11891047Y-18169880D01*
X11986285Y-18122261D01*
X12033904Y-18074642D01*
X12081523Y-17979404D01*
X12081523Y-17788928D01*
X12033904Y-17693690D01*
X11986285Y-17646071D01*
X11891047Y-17598452D01*
X12700571Y-17169880D02*
X12795809Y-17169880D01*
X12891047Y-17217500D01*
X12938666Y-17265119D01*
X12986285Y-17360357D01*
X13033904Y-17550833D01*
X13033904Y-17788928D01*
X12986285Y-17979404D01*
X12938666Y-18074642D01*
X12891047Y-18122261D01*
X12795809Y-18169880D01*
X12700571Y-18169880D01*
X12605333Y-18122261D01*
X12557714Y-18074642D01*
X12510095Y-17979404D01*
X12462476Y-17788928D01*
X12462476Y-17550833D01*
X12510095Y-17360357D01*
X12557714Y-17265119D01*
X12605333Y-17217500D01*
X12700571Y-17169880D01*
X13462476Y-18169880D02*
X13462476Y-17503214D01*
X13462476Y-17169880D02*
X13414857Y-17217500D01*
X13462476Y-17265119D01*
X13510095Y-17217500D01*
X13462476Y-17169880D01*
X13462476Y-17265119D01*
X-108953Y-19819880D02*
X-108953Y-19057976D01*
X-299429Y-19248452D02*
X-108953Y-19057976D01*
X81523Y-19248452D01*
X2652952Y-19057976D02*
X2652952Y-19819880D01*
X2843428Y-19629404D02*
X2652952Y-19819880D01*
X2462476Y-19629404D01*
X6224380Y-19153214D02*
X6224380Y-19819880D01*
X5986285Y-18772261D02*
X5748190Y-19486547D01*
X6367238Y-19486547D01*
X6891047Y-19248452D02*
X6795809Y-19200833D01*
X6748190Y-19153214D01*
X6700571Y-19057976D01*
X6700571Y-19010357D01*
X6748190Y-18915119D01*
X6795809Y-18867500D01*
X6891047Y-18819880D01*
X7081523Y-18819880D01*
X7176761Y-18867500D01*
X7224380Y-18915119D01*
X7272000Y-19010357D01*
X7272000Y-19057976D01*
X7224380Y-19153214D01*
X7176761Y-19200833D01*
X7081523Y-19248452D01*
X6891047Y-19248452D01*
X6795809Y-19296071D01*
X6748190Y-19343690D01*
X6700571Y-19438928D01*
X6700571Y-19629404D01*
X6748190Y-19724642D01*
X6795809Y-19772261D01*
X6891047Y-19819880D01*
X7081523Y-19819880D01*
X7176761Y-19772261D01*
X7224380Y-19724642D01*
X7272000Y-19629404D01*
X7272000Y-19438928D01*
X7224380Y-19343690D01*
X7176761Y-19296071D01*
X7081523Y-19248452D01*
X7891047Y-18819880D02*
X7986285Y-18819880D01*
X8081523Y-18867500D01*
X8129142Y-18915119D01*
X8176761Y-19010357D01*
X8224380Y-19200833D01*
X8224380Y-19438928D01*
X8176761Y-19629404D01*
X8129142Y-19724642D01*
X8081523Y-19772261D01*
X7986285Y-19819880D01*
X7891047Y-19819880D01*
X7795809Y-19772261D01*
X7748190Y-19724642D01*
X7700571Y-19629404D01*
X7652952Y-19438928D01*
X7652952Y-19200833D01*
X7700571Y-19010357D01*
X7748190Y-18915119D01*
X7795809Y-18867500D01*
X7891047Y-18819880D01*
X8652952Y-19153214D02*
X8652952Y-20153214D01*
X8652952Y-19200833D02*
X8748190Y-19153214D01*
X8938666Y-19153214D01*
X9033904Y-19200833D01*
X9081523Y-19248452D01*
X9129142Y-19343690D01*
X9129142Y-19629404D01*
X9081523Y-19724642D01*
X9033904Y-19772261D01*
X8938666Y-19819880D01*
X8748190Y-19819880D01*
X8652952Y-19772261D01*
X-108953Y-20707976D02*
X-108953Y-21469880D01*
X81523Y-21279404D02*
X-108953Y-21469880D01*
X-299429Y-21279404D01*
X2652952Y-21469880D02*
X2652952Y-20707976D01*
X2462476Y-20898452D02*
X2652952Y-20707976D01*
X2843428Y-20898452D01*
X5700571Y-20469880D02*
X6367238Y-20469880D01*
X5938666Y-21469880D01*
X6700571Y-20565119D02*
X6748190Y-20517500D01*
X6843428Y-20469880D01*
X7081523Y-20469880D01*
X7176761Y-20517500D01*
X7224380Y-20565119D01*
X7272000Y-20660357D01*
X7272000Y-20755595D01*
X7224380Y-20898452D01*
X6652952Y-21469880D01*
X7272000Y-21469880D01*
X7891047Y-20469880D02*
X7986285Y-20469880D01*
X8081523Y-20517500D01*
X8129142Y-20565119D01*
X8176761Y-20660357D01*
X8224380Y-20850833D01*
X8224380Y-21088928D01*
X8176761Y-21279404D01*
X8129142Y-21374642D01*
X8081523Y-21422261D01*
X7986285Y-21469880D01*
X7891047Y-21469880D01*
X7795809Y-21422261D01*
X7748190Y-21374642D01*
X7700571Y-21279404D01*
X7652952Y-21088928D01*
X7652952Y-20850833D01*
X7700571Y-20660357D01*
X7748190Y-20565119D01*
X7795809Y-20517500D01*
X7891047Y-20469880D01*
X8652952Y-20803214D02*
X8652952Y-21803214D01*
X8652952Y-20850833D02*
X8748190Y-20803214D01*
X8938666Y-20803214D01*
X9033904Y-20850833D01*
X9081523Y-20898452D01*
X9129142Y-20993690D01*
X9129142Y-21279404D01*
X9081523Y-21374642D01*
X9033904Y-21422261D01*
X8938666Y-21469880D01*
X8748190Y-21469880D01*
X8652952Y-21422261D01*
X10272000Y-20422261D02*
X9414857Y-21707976D01*
X11129142Y-21469880D02*
X10557714Y-21469880D01*
X10843428Y-21469880D02*
X10843428Y-20469880D01*
X10748190Y-20612738D01*
X10652952Y-20707976D01*
X10557714Y-20755595D01*
X11748190Y-20469880D02*
X11843428Y-20469880D01*
X11938666Y-20517500D01*
X11986285Y-20565119D01*
X12033904Y-20660357D01*
X12081523Y-20850833D01*
X12081523Y-21088928D01*
X12033904Y-21279404D01*
X11986285Y-21374642D01*
X11938666Y-21422261D01*
X11843428Y-21469880D01*
X11748190Y-21469880D01*
X11652952Y-21422261D01*
X11605333Y-21374642D01*
X11557714Y-21279404D01*
X11510095Y-21088928D01*
X11510095Y-20850833D01*
X11557714Y-20660357D01*
X11605333Y-20565119D01*
X11652952Y-20517500D01*
X11748190Y-20469880D01*
X12652952Y-20898452D02*
X12557714Y-20850833D01*
X12510095Y-20803214D01*
X12462476Y-20707976D01*
X12462476Y-20660357D01*
X12510095Y-20565119D01*
X12557714Y-20517500D01*
X12652952Y-20469880D01*
X12843428Y-20469880D01*
X12938666Y-20517500D01*
X12986285Y-20565119D01*
X13033904Y-20660357D01*
X13033904Y-20707976D01*
X12986285Y-20803214D01*
X12938666Y-20850833D01*
X12843428Y-20898452D01*
X12652952Y-20898452D01*
X12557714Y-20946071D01*
X12510095Y-20993690D01*
X12462476Y-21088928D01*
X12462476Y-21279404D01*
X12510095Y-21374642D01*
X12557714Y-21422261D01*
X12652952Y-21469880D01*
X12843428Y-21469880D01*
X12938666Y-21422261D01*
X12986285Y-21374642D01*
X13033904Y-21279404D01*
X13033904Y-21088928D01*
X12986285Y-20993690D01*
X12938666Y-20946071D01*
X12843428Y-20898452D01*
X13652952Y-20469880D02*
X13748190Y-20469880D01*
X13843428Y-20517500D01*
X13891047Y-20565119D01*
X13938666Y-20660357D01*
X13986285Y-20850833D01*
X13986285Y-21088928D01*
X13938666Y-21279404D01*
X13891047Y-21374642D01*
X13843428Y-21422261D01*
X13748190Y-21469880D01*
X13652952Y-21469880D01*
X13557714Y-21422261D01*
X13510095Y-21374642D01*
X13462476Y-21279404D01*
X13414857Y-21088928D01*
X13414857Y-20850833D01*
X13462476Y-20660357D01*
X13510095Y-20565119D01*
X13557714Y-20517500D01*
X13652952Y-20469880D01*
X14414857Y-21469880D02*
X14414857Y-20803214D01*
X14414857Y-20469880D02*
X14367238Y-20517500D01*
X14414857Y-20565119D01*
X14462476Y-20517500D01*
X14414857Y-20469880D01*
X14414857Y-20565119D01*
X-108953Y-22357976D02*
X-108953Y-23119880D01*
X81523Y-22929404D02*
X-108953Y-23119880D01*
X-299429Y-22929404D01*
X2652952Y-22357976D02*
X2652952Y-23119880D01*
X2843428Y-22929404D02*
X2652952Y-23119880D01*
X2462476Y-22929404D01*
X6319619Y-23119880D02*
X5748190Y-23119880D01*
X6033904Y-23119880D02*
X6033904Y-22119880D01*
X5938666Y-22262738D01*
X5843428Y-22357976D01*
X5748190Y-22405595D01*
X6938666Y-22119880D02*
X7033904Y-22119880D01*
X7129142Y-22167500D01*
X7176761Y-22215119D01*
X7224380Y-22310357D01*
X7272000Y-22500833D01*
X7272000Y-22738928D01*
X7224380Y-22929404D01*
X7176761Y-23024642D01*
X7129142Y-23072261D01*
X7033904Y-23119880D01*
X6938666Y-23119880D01*
X6843428Y-23072261D01*
X6795809Y-23024642D01*
X6748190Y-22929404D01*
X6700571Y-22738928D01*
X6700571Y-22500833D01*
X6748190Y-22310357D01*
X6795809Y-22215119D01*
X6843428Y-22167500D01*
X6938666Y-22119880D01*
X7843428Y-22548452D02*
X7748190Y-22500833D01*
X7700571Y-22453214D01*
X7652952Y-22357976D01*
X7652952Y-22310357D01*
X7700571Y-22215119D01*
X7748190Y-22167500D01*
X7843428Y-22119880D01*
X8033904Y-22119880D01*
X8129142Y-22167500D01*
X8176761Y-22215119D01*
X8224380Y-22310357D01*
X8224380Y-22357976D01*
X8176761Y-22453214D01*
X8129142Y-22500833D01*
X8033904Y-22548452D01*
X7843428Y-22548452D01*
X7748190Y-22596071D01*
X7700571Y-22643690D01*
X7652952Y-22738928D01*
X7652952Y-22929404D01*
X7700571Y-23024642D01*
X7748190Y-23072261D01*
X7843428Y-23119880D01*
X8033904Y-23119880D01*
X8129142Y-23072261D01*
X8176761Y-23024642D01*
X8224380Y-22929404D01*
X8224380Y-22738928D01*
X8176761Y-22643690D01*
X8129142Y-22596071D01*
X8033904Y-22548452D01*
X8843428Y-22119880D02*
X8938666Y-22119880D01*
X9033904Y-22167500D01*
X9081523Y-22215119D01*
X9129142Y-22310357D01*
X9176761Y-22500833D01*
X9176761Y-22738928D01*
X9129142Y-22929404D01*
X9081523Y-23024642D01*
X9033904Y-23072261D01*
X8938666Y-23119880D01*
X8843428Y-23119880D01*
X8748190Y-23072261D01*
X8700571Y-23024642D01*
X8652952Y-22929404D01*
X8605333Y-22738928D01*
X8605333Y-22500833D01*
X8652952Y-22310357D01*
X8700571Y-22215119D01*
X8748190Y-22167500D01*
X8843428Y-22119880D01*
X9605333Y-22453214D02*
X9605333Y-23453214D01*
X9605333Y-22500833D02*
X9700571Y-22453214D01*
X9891047Y-22453214D01*
X9986285Y-22500833D01*
X10033904Y-22548452D01*
X10081523Y-22643690D01*
X10081523Y-22929404D01*
X10033904Y-23024642D01*
X9986285Y-23072261D01*
X9891047Y-23119880D01*
X9700571Y-23119880D01*
X9605333Y-23072261D01*
X-3571834Y-17899071D02*
X-3905167Y-17899071D01*
X-3905167Y-18422880D02*
X-3905167Y-17422880D01*
X-3428977Y-17422880D01*
X-3095643Y-17518119D02*
X-3048024Y-17470500D01*
X-2952786Y-17422880D01*
X-2714691Y-17422880D01*
X-2619453Y-17470500D01*
X-2571834Y-17518119D01*
X-2524215Y-17613357D01*
X-2524215Y-17708595D01*
X-2571834Y-17851452D01*
X-3143262Y-18422880D01*
X-2524215Y-18422880D01*
X-6238834Y-17899071D02*
X-6572167Y-17899071D01*
X-6572167Y-18422880D02*
X-6572167Y-17422880D01*
X-6095977Y-17422880D01*
X-5191215Y-18422880D02*
X-5762643Y-18422880D01*
X-5476929Y-18422880D02*
X-5476929Y-17422880D01*
X-5572167Y-17565738D01*
X-5667405Y-17660976D01*
X-5762643Y-17708595D01*
X12446119Y-27836880D02*
X12636595Y-27836880D01*
X12731833Y-27884500D01*
X12827071Y-27979738D01*
X12874690Y-28170214D01*
X12874690Y-28503547D01*
X12827071Y-28694023D01*
X12731833Y-28789261D01*
X12636595Y-28836880D01*
X12446119Y-28836880D01*
X12350880Y-28789261D01*
X12255642Y-28694023D01*
X12208023Y-28503547D01*
X12208023Y-28170214D01*
X12255642Y-27979738D01*
X12350880Y-27884500D01*
X12446119Y-27836880D01*
X13636595Y-28313071D02*
X13303261Y-28313071D01*
X13303261Y-28836880D02*
X13303261Y-27836880D01*
X13779452Y-27836880D01*
X14493738Y-28313071D02*
X14160404Y-28313071D01*
X14160404Y-28836880D02*
X14160404Y-27836880D01*
X14636595Y-27836880D01*
X333452Y-27836880D02*
X523928Y-27836880D01*
X619166Y-27884500D01*
X714404Y-27979738D01*
X762023Y-28170214D01*
X762023Y-28503547D01*
X714404Y-28694023D01*
X619166Y-28789261D01*
X523928Y-28836880D01*
X333452Y-28836880D01*
X238214Y-28789261D01*
X142976Y-28694023D01*
X95357Y-28503547D01*
X95357Y-28170214D01*
X142976Y-27979738D01*
X238214Y-27884500D01*
X333452Y-27836880D01*
X1190595Y-28836880D02*
X1190595Y-27836880D01*
X1762023Y-28836880D01*
X1762023Y-27836880D01*
X5540547Y-24249071D02*
X5207214Y-24249071D01*
X5207214Y-24772880D02*
X5207214Y-23772880D01*
X5683404Y-23772880D01*
X6064357Y-24772880D02*
X6064357Y-24106214D01*
X6064357Y-23772880D02*
X6016738Y-23820500D01*
X6064357Y-23868119D01*
X6111976Y-23820500D01*
X6064357Y-23772880D01*
X6064357Y-23868119D01*
X6683404Y-24772880D02*
X6588166Y-24725261D01*
X6540547Y-24630023D01*
X6540547Y-23772880D01*
X6921500Y-24106214D02*
X7302452Y-24106214D01*
X7064357Y-23772880D02*
X7064357Y-24630023D01*
X7111976Y-24725261D01*
X7207214Y-24772880D01*
X7302452Y-24772880D01*
X8016738Y-24725261D02*
X7921500Y-24772880D01*
X7731023Y-24772880D01*
X7635785Y-24725261D01*
X7588166Y-24630023D01*
X7588166Y-24249071D01*
X7635785Y-24153833D01*
X7731023Y-24106214D01*
X7921500Y-24106214D01*
X8016738Y-24153833D01*
X8064357Y-24249071D01*
X8064357Y-24344309D01*
X7588166Y-24439547D01*
X8492928Y-24772880D02*
X8492928Y-24106214D01*
X8492928Y-24296690D02*
X8540547Y-24201452D01*
X8588166Y-24153833D01*
X8683404Y-24106214D01*
X8778642Y-24106214D01*
X18427785Y11795239D02*
X18427785Y13795239D01*
X18884928Y13795239D01*
X18999214Y13700000D01*
X19056357Y13604762D01*
X19113500Y13414286D01*
X19113500Y13128572D01*
X19056357Y12938096D01*
X18999214Y12842858D01*
X18884928Y12747620D01*
X18427785Y12747620D01*
X19627785Y11795239D02*
X19627785Y13128572D01*
X19627785Y12747620D02*
X19684928Y12938096D01*
X19742071Y13033334D01*
X19856357Y13128572D01*
X19970642Y13128572D01*
X18319857Y-3190761D02*
X18319857Y-1190761D01*
X18777000Y-1190761D01*
X18891285Y-1286000D01*
X18948428Y-1381238D01*
X19005571Y-1571714D01*
X19005571Y-1857428D01*
X18948428Y-2047904D01*
X18891285Y-2143142D01*
X18777000Y-2238380D01*
X18319857Y-2238380D01*
X19519857Y-3190761D02*
X19519857Y-1190761D01*
X19519857Y-1952666D02*
X19634142Y-1857428D01*
X19862714Y-1857428D01*
X19977000Y-1952666D01*
X20034142Y-2047904D01*
X20091285Y-2238380D01*
X20091285Y-2809809D01*
X20034142Y-3000285D01*
X19977000Y-3095523D01*
X19862714Y-3190761D01*
X19634142Y-3190761D01*
X19519857Y-3095523D01*
X19050000Y-17605380D02*
X19050000Y-18557761D01*
X18383333Y-16557761D02*
X19050000Y-17605380D01*
X19716666Y-16557761D01*
X-9062477Y28217358D02*
X-9110096Y28169739D01*
X-9252953Y28122120D01*
X-9348191Y28122120D01*
X-9491048Y28169739D01*
X-9586286Y28264977D01*
X-9633905Y28360215D01*
X-9681524Y28550691D01*
X-9681524Y28693548D01*
X-9633905Y28884024D01*
X-9586286Y28979262D01*
X-9491048Y29074500D01*
X-9348191Y29122120D01*
X-9252953Y29122120D01*
X-9110096Y29074500D01*
X-9062477Y29026881D01*
X-8491048Y28122120D02*
X-8586286Y28169739D01*
X-8633905Y28217358D01*
X-8681524Y28312596D01*
X-8681524Y28598310D01*
X-8633905Y28693548D01*
X-8586286Y28741167D01*
X-8491048Y28788786D01*
X-8348191Y28788786D01*
X-8252953Y28741167D01*
X-8205334Y28693548D01*
X-8157715Y28598310D01*
X-8157715Y28312596D01*
X-8205334Y28217358D01*
X-8252953Y28169739D01*
X-8348191Y28122120D01*
X-8491048Y28122120D01*
X-7729143Y28122120D02*
X-7729143Y28788786D01*
X-7729143Y28693548D02*
X-7681524Y28741167D01*
X-7586286Y28788786D01*
X-7443429Y28788786D01*
X-7348191Y28741167D01*
X-7300572Y28645929D01*
X-7300572Y28122120D01*
X-7300572Y28645929D02*
X-7252953Y28741167D01*
X-7157715Y28788786D01*
X-7014858Y28788786D01*
X-6919620Y28741167D01*
X-6872000Y28645929D01*
X-6872000Y28122120D01*
X-6395810Y28788786D02*
X-6395810Y27788786D01*
X-6395810Y28741167D02*
X-6300572Y28788786D01*
X-6110096Y28788786D01*
X-6014858Y28741167D01*
X-5967239Y28693548D01*
X-5919620Y28598310D01*
X-5919620Y28312596D01*
X-5967239Y28217358D01*
X-6014858Y28169739D01*
X-6110096Y28122120D01*
X-6300572Y28122120D01*
X-6395810Y28169739D01*
X-5538667Y29026881D02*
X-5491048Y29074500D01*
X-5395810Y29122120D01*
X-5157715Y29122120D01*
X-5062477Y29074500D01*
X-5014858Y29026881D01*
X-4967239Y28931643D01*
X-4967239Y28836405D01*
X-5014858Y28693548D01*
X-5586286Y28122120D01*
X-4967239Y28122120D01*
X-4538667Y28122120D02*
X-4538667Y29122120D01*
X-4300572Y29122120D01*
X-4157715Y29074500D01*
X-4062477Y28979262D01*
X-4014858Y28884024D01*
X-3967239Y28693548D01*
X-3967239Y28550691D01*
X-4014858Y28360215D01*
X-4062477Y28264977D01*
X-4157715Y28169739D01*
X-4300572Y28122120D01*
X-4538667Y28122120D01*
X-3681524Y29122120D02*
X-3348191Y28122120D01*
X-3014858Y29122120D01*
X-2681524Y28122120D02*
X-2681524Y29122120D01*
X-1491048Y29026881D02*
X-1443429Y29074500D01*
X-1348191Y29122120D01*
X-1110096Y29122120D01*
X-1014858Y29074500D01*
X-967239Y29026881D01*
X-919620Y28931643D01*
X-919620Y28836405D01*
X-967239Y28693548D01*
X-1538667Y28122120D01*
X-919620Y28122120D01*
X-491048Y28217358D02*
X-443429Y28169739D01*
X-491048Y28122120D01*
X-538667Y28169739D01*
X-491048Y28217358D01*
X-491048Y28122120D01*
X508952Y28122120D02*
X-62477Y28122120D01*
X223238Y28122120D02*
X223238Y29122120D01*
X128000Y28979262D01*
X32761Y28884024D01*
X-62477Y28836405D01*
X-9062477Y26472120D02*
X-9395810Y26948310D01*
X-9633905Y26472120D02*
X-9633905Y27472120D01*
X-9252953Y27472120D01*
X-9157715Y27424500D01*
X-9110096Y27376881D01*
X-9062477Y27281643D01*
X-9062477Y27138786D01*
X-9110096Y27043548D01*
X-9157715Y26995929D01*
X-9252953Y26948310D01*
X-9633905Y26948310D01*
X-8252953Y26519739D02*
X-8348191Y26472120D01*
X-8538667Y26472120D01*
X-8633905Y26519739D01*
X-8681524Y26614977D01*
X-8681524Y26995929D01*
X-8633905Y27091167D01*
X-8538667Y27138786D01*
X-8348191Y27138786D01*
X-8252953Y27091167D01*
X-8205334Y26995929D01*
X-8205334Y26900691D01*
X-8681524Y26805453D01*
X-7919620Y27138786D02*
X-7538667Y27138786D01*
X-7776762Y27472120D02*
X-7776762Y26614977D01*
X-7729143Y26519739D01*
X-7633905Y26472120D01*
X-7538667Y26472120D01*
X-7205334Y26472120D02*
X-7205334Y27138786D01*
X-7205334Y26948310D02*
X-7157715Y27043548D01*
X-7110096Y27091167D01*
X-7014858Y27138786D01*
X-6919620Y27138786D01*
X-6443429Y26472120D02*
X-6538667Y26519739D01*
X-6586286Y26567358D01*
X-6633905Y26662596D01*
X-6633905Y26948310D01*
X-6586286Y27043548D01*
X-6538667Y27091167D01*
X-6443429Y27138786D01*
X-6300572Y27138786D01*
X-6205334Y27091167D01*
X-6157715Y27043548D01*
X-6110096Y26948310D01*
X-6110096Y26662596D01*
X-6157715Y26567358D01*
X-6205334Y26519739D01*
X-6300572Y26472120D01*
X-6443429Y26472120D01*
X-5110096Y26472120D02*
X-5443429Y26948310D01*
X-5681524Y26472120D02*
X-5681524Y27472120D01*
X-5300572Y27472120D01*
X-5205334Y27424500D01*
X-5157715Y27376881D01*
X-5110096Y27281643D01*
X-5110096Y27138786D01*
X-5157715Y27043548D01*
X-5205334Y26995929D01*
X-5300572Y26948310D01*
X-5681524Y26948310D01*
X-4157715Y27424500D02*
X-4252953Y27472120D01*
X-4395810Y27472120D01*
X-4538667Y27424500D01*
X-4633905Y27329262D01*
X-4681524Y27234024D01*
X-4729143Y27043548D01*
X-4729143Y26900691D01*
X-4681524Y26710215D01*
X-4633905Y26614977D01*
X-4538667Y26519739D01*
X-4395810Y26472120D01*
X-4300572Y26472120D01*
X-4157715Y26519739D01*
X-4110096Y26567358D01*
X-4110096Y26900691D01*
X-4300572Y26900691D01*
X-3348191Y26995929D02*
X-3205334Y26948310D01*
X-3157715Y26900691D01*
X-3110096Y26805453D01*
X-3110096Y26662596D01*
X-3157715Y26567358D01*
X-3205334Y26519739D01*
X-3300572Y26472120D01*
X-3681524Y26472120D01*
X-3681524Y27472120D01*
X-3348191Y27472120D01*
X-3252953Y27424500D01*
X-3205334Y27376881D01*
X-3157715Y27281643D01*
X-3157715Y27186405D01*
X-3205334Y27091167D01*
X-3252953Y27043548D01*
X-3348191Y26995929D01*
X-3681524Y26995929D01*
X-2681524Y26567358D02*
X-2633905Y26519739D01*
X-2681524Y26472120D01*
X-2729143Y26519739D01*
X-2681524Y26567358D01*
X-2681524Y26472120D01*
X-1776762Y26519739D02*
X-1872000Y26472120D01*
X-2062477Y26472120D01*
X-2157715Y26519739D01*
X-2205334Y26567358D01*
X-2252953Y26662596D01*
X-2252953Y26948310D01*
X-2205334Y27043548D01*
X-2157715Y27091167D01*
X-2062477Y27138786D01*
X-1872000Y27138786D01*
X-1776762Y27091167D01*
X-1205334Y26472120D02*
X-1300572Y26519739D01*
X-1348191Y26567358D01*
X-1395810Y26662596D01*
X-1395810Y26948310D01*
X-1348191Y27043548D01*
X-1300572Y27091167D01*
X-1205334Y27138786D01*
X-1062477Y27138786D01*
X-967239Y27091167D01*
X-919620Y27043548D01*
X-872000Y26948310D01*
X-872000Y26662596D01*
X-919620Y26567358D01*
X-967239Y26519739D01*
X-1062477Y26472120D01*
X-1205334Y26472120D01*
X-443429Y26472120D02*
X-443429Y27138786D01*
X-443429Y27043548D02*
X-395810Y27091167D01*
X-300572Y27138786D01*
X-157715Y27138786D01*
X-62477Y27091167D01*
X-14858Y26995929D01*
X-14858Y26472120D01*
X-14858Y26995929D02*
X32761Y27091167D01*
X128000Y27138786D01*
X270857Y27138786D01*
X366095Y27091167D01*
X413714Y26995929D01*
X413714Y26472120D01*
D11*
G36*
X9438410Y-5433848D02*
G01*
X9516954Y-5434278D01*
X9573798Y-5435442D01*
X9612605Y-5437707D01*
X9637038Y-5441440D01*
X9650762Y-5447006D01*
X9657440Y-5454773D01*
X9660736Y-5465105D01*
X9661056Y-5466443D01*
X9666062Y-5490579D01*
X9675329Y-5538201D01*
X9687892Y-5604241D01*
X9702787Y-5683628D01*
X9719051Y-5771296D01*
X9719619Y-5774375D01*
X9735910Y-5860289D01*
X9751152Y-5936196D01*
X9764361Y-5997545D01*
X9774554Y-6039782D01*
X9780748Y-6058355D01*
X9781043Y-6058684D01*
X9799288Y-6067753D01*
X9836905Y-6082867D01*
X9885771Y-6100762D01*
X9886043Y-6100858D01*
X9947593Y-6123993D01*
X10020157Y-6153465D01*
X10088557Y-6183097D01*
X10091794Y-6184562D01*
X10203202Y-6235126D01*
X10449899Y-6066660D01*
X10525577Y-6015303D01*
X10594131Y-5969389D01*
X10651588Y-5931530D01*
X10693976Y-5904337D01*
X10717325Y-5890421D01*
X10719542Y-5889389D01*
X10736510Y-5893984D01*
X10768201Y-5916155D01*
X10815852Y-5956947D01*
X10880698Y-6017405D01*
X10946897Y-6081727D01*
X11010714Y-6145112D01*
X11067829Y-6202951D01*
X11114805Y-6251675D01*
X11148203Y-6287710D01*
X11164585Y-6307484D01*
X11165194Y-6308502D01*
X11167005Y-6322072D01*
X11160183Y-6344233D01*
X11143040Y-6377978D01*
X11113893Y-6426300D01*
X11071055Y-6492192D01*
X11013948Y-6577017D01*
X10963266Y-6651677D01*
X10917961Y-6718640D01*
X10880650Y-6774016D01*
X10853952Y-6813920D01*
X10840485Y-6834462D01*
X10839637Y-6835856D01*
X10841281Y-6855538D01*
X10853745Y-6893793D01*
X10874548Y-6943389D01*
X10881962Y-6959228D01*
X10914314Y-7029790D01*
X10948828Y-7109853D01*
X10976865Y-7179129D01*
X10997068Y-7230545D01*
X11013115Y-7269619D01*
X11022388Y-7290041D01*
X11023541Y-7291614D01*
X11040596Y-7294221D01*
X11080798Y-7301363D01*
X11138802Y-7312023D01*
X11209263Y-7325185D01*
X11286835Y-7339833D01*
X11366172Y-7354949D01*
X11441931Y-7369518D01*
X11508764Y-7382522D01*
X11561328Y-7392945D01*
X11594276Y-7399770D01*
X11602357Y-7401699D01*
X11610705Y-7406462D01*
X11617006Y-7417218D01*
X11621545Y-7437598D01*
X11624604Y-7471234D01*
X11626467Y-7521755D01*
X11627418Y-7592792D01*
X11627740Y-7687976D01*
X11627757Y-7726992D01*
X11627757Y-8044299D01*
X11551557Y-8059339D01*
X11509163Y-8067495D01*
X11445900Y-8079399D01*
X11369462Y-8093616D01*
X11287543Y-8108710D01*
X11264900Y-8112855D01*
X11189306Y-8127553D01*
X11123453Y-8142005D01*
X11072866Y-8154875D01*
X11043074Y-8164822D01*
X11038112Y-8167787D01*
X11025926Y-8188783D01*
X11008453Y-8229467D01*
X10989077Y-8281822D01*
X10985234Y-8293100D01*
X10959839Y-8363023D01*
X10928317Y-8441918D01*
X10897469Y-8512766D01*
X10897317Y-8513095D01*
X10845947Y-8624233D01*
X11014899Y-8872753D01*
X11183852Y-9121272D01*
X10966929Y-9338558D01*
X10901319Y-9403226D01*
X10841479Y-9460233D01*
X10790767Y-9506533D01*
X10752546Y-9539084D01*
X10730175Y-9554843D01*
X10726966Y-9555843D01*
X10708126Y-9547969D01*
X10669680Y-9526078D01*
X10615830Y-9492767D01*
X10550776Y-9450631D01*
X10480440Y-9403443D01*
X10409055Y-9355310D01*
X10345408Y-9313428D01*
X10293541Y-9280371D01*
X10257495Y-9258718D01*
X10241367Y-9251043D01*
X10221689Y-9257537D01*
X10184375Y-9274650D01*
X10137121Y-9298826D01*
X10132112Y-9301513D01*
X10068477Y-9333427D01*
X10024841Y-9349079D01*
X9997702Y-9349245D01*
X9983557Y-9334704D01*
X9983475Y-9334500D01*
X9976405Y-9317279D01*
X9959542Y-9276399D01*
X9934195Y-9215025D01*
X9901671Y-9136319D01*
X9863278Y-9043447D01*
X9820322Y-8939572D01*
X9778722Y-8839002D01*
X9733004Y-8728016D01*
X9691026Y-8625203D01*
X9654048Y-8533715D01*
X9623327Y-8456701D01*
X9600122Y-8397315D01*
X9585690Y-8358709D01*
X9581243Y-8344300D01*
X9592396Y-8327772D01*
X9621569Y-8301430D01*
X9660471Y-8272387D01*
X9771257Y-8180539D01*
X9857851Y-8075259D01*
X9919216Y-7958766D01*
X9954315Y-7833276D01*
X9962108Y-7701007D01*
X9956443Y-7639957D01*
X9925578Y-7513295D01*
X9872420Y-7401441D01*
X9800267Y-7305501D01*
X9712417Y-7226576D01*
X9612165Y-7165770D01*
X9502810Y-7124187D01*
X9387647Y-7102928D01*
X9269975Y-7103099D01*
X9153090Y-7125801D01*
X9040289Y-7172138D01*
X8934869Y-7243213D01*
X8890868Y-7283411D01*
X8806479Y-7386629D01*
X8747722Y-7499425D01*
X8714204Y-7618510D01*
X8705535Y-7740595D01*
X8721323Y-7862393D01*
X8761178Y-7980616D01*
X8824707Y-8091975D01*
X8911521Y-8193184D01*
X9008529Y-8272387D01*
X9048937Y-8302662D01*
X9077482Y-8328719D01*
X9087757Y-8344325D01*
X9082377Y-8361343D01*
X9067075Y-8402000D01*
X9043112Y-8463142D01*
X9011744Y-8541619D01*
X8974232Y-8634280D01*
X8931833Y-8737972D01*
X8890163Y-8839026D01*
X8844190Y-8950107D01*
X8801607Y-9053041D01*
X8763721Y-9144665D01*
X8731840Y-9221816D01*
X8707271Y-9281331D01*
X8691320Y-9320044D01*
X8685410Y-9334500D01*
X8671448Y-9349185D01*
X8644440Y-9349142D01*
X8600913Y-9333599D01*
X8537390Y-9301784D01*
X8536888Y-9301513D01*
X8489060Y-9276823D01*
X8450397Y-9258838D01*
X8428595Y-9251114D01*
X8427633Y-9251043D01*
X8411221Y-9258878D01*
X8374987Y-9280665D01*
X8322974Y-9313828D01*
X8259225Y-9355791D01*
X8188560Y-9403443D01*
X8116616Y-9451691D01*
X8051774Y-9493651D01*
X7998235Y-9526727D01*
X7960197Y-9548321D01*
X7942033Y-9555843D01*
X7925308Y-9545957D01*
X7891680Y-9518326D01*
X7844510Y-9475995D01*
X7787158Y-9422005D01*
X7722984Y-9359399D01*
X7701997Y-9338483D01*
X7484999Y-9121123D01*
X7650168Y-8878720D01*
X7700364Y-8804281D01*
X7744419Y-8737472D01*
X7779862Y-8682165D01*
X7804219Y-8642229D01*
X7815022Y-8621536D01*
X7815338Y-8620063D01*
X7809643Y-8600558D01*
X7794326Y-8561322D01*
X7772037Y-8508930D01*
X7756393Y-8473855D01*
X7727141Y-8406701D01*
X7699594Y-8338858D01*
X7678237Y-8281534D01*
X7672435Y-8264072D01*
X7655952Y-8217438D01*
X7639840Y-8181405D01*
X7630990Y-8167787D01*
X7611460Y-8159452D01*
X7568834Y-8147637D01*
X7508645Y-8133681D01*
X7436422Y-8118922D01*
X7404100Y-8112855D01*
X7322022Y-8097773D01*
X7243295Y-8083169D01*
X7175609Y-8070480D01*
X7126660Y-8061142D01*
X7117443Y-8059339D01*
X7041243Y-8044299D01*
X7041243Y-7726992D01*
X7041414Y-7622654D01*
X7042116Y-7543713D01*
X7043634Y-7486538D01*
X7046249Y-7447499D01*
X7050246Y-7422965D01*
X7055909Y-7409305D01*
X7063520Y-7402889D01*
X7066643Y-7401699D01*
X7085478Y-7397480D01*
X7127088Y-7389062D01*
X7186130Y-7377461D01*
X7257257Y-7363695D01*
X7335125Y-7348780D01*
X7414387Y-7333732D01*
X7489698Y-7319569D01*
X7555713Y-7307306D01*
X7607087Y-7297961D01*
X7638475Y-7292550D01*
X7645459Y-7291614D01*
X7651785Y-7279096D01*
X7665790Y-7245746D01*
X7684855Y-7197877D01*
X7692134Y-7179129D01*
X7721496Y-7106695D01*
X7756071Y-7026670D01*
X7787037Y-6959228D01*
X7809823Y-6907659D01*
X7824982Y-6865285D01*
X7830042Y-6839334D01*
X7829236Y-6835856D01*
X7818541Y-6819436D01*
X7794120Y-6782917D01*
X7758595Y-6730187D01*
X7714587Y-6665135D01*
X7664717Y-6591651D01*
X7654856Y-6577145D01*
X7596992Y-6491204D01*
X7554456Y-6425761D01*
X7525554Y-6377804D01*
X7508590Y-6344320D01*
X7501867Y-6322295D01*
X7503690Y-6308717D01*
X7503736Y-6308631D01*
X7518086Y-6290797D01*
X7549823Y-6256317D01*
X7595510Y-6208768D01*
X7651704Y-6151722D01*
X7714968Y-6088755D01*
X7722102Y-6081727D01*
X7801830Y-6004520D01*
X7863357Y-5947830D01*
X7907921Y-5910610D01*
X7936757Y-5891815D01*
X7949458Y-5889389D01*
X7967994Y-5899971D01*
X8006461Y-5924416D01*
X8060886Y-5960112D01*
X8127298Y-6004447D01*
X8201725Y-6054811D01*
X8219101Y-6066660D01*
X8465797Y-6235126D01*
X8577206Y-6184562D01*
X8644957Y-6155095D01*
X8717683Y-6125459D01*
X8780203Y-6101830D01*
X8782957Y-6100858D01*
X8831860Y-6082957D01*
X8869557Y-6067820D01*
X8887925Y-6058710D01*
X8887956Y-6058684D01*
X8893785Y-6042217D01*
X8903692Y-6001719D01*
X8916695Y-5941742D01*
X8931809Y-5866840D01*
X8948052Y-5781564D01*
X8949381Y-5774375D01*
X8965675Y-5686514D01*
X8980633Y-5606760D01*
X8993291Y-5540181D01*
X9002686Y-5491847D01*
X9007854Y-5466825D01*
X9007944Y-5466443D01*
X9011089Y-5455799D01*
X9017204Y-5447762D01*
X9029953Y-5441967D01*
X9053000Y-5438047D01*
X9090009Y-5435635D01*
X9144644Y-5434365D01*
X9220567Y-5433871D01*
X9321444Y-5433786D01*
X9334500Y-5433786D01*
X9438410Y-5433848D01*
X9438410Y-5433848D01*
G37*
X9438410Y-5433848D02*
X9516954Y-5434278D01*
X9573798Y-5435442D01*
X9612605Y-5437707D01*
X9637038Y-5441440D01*
X9650762Y-5447006D01*
X9657440Y-5454773D01*
X9660736Y-5465105D01*
X9661056Y-5466443D01*
X9666062Y-5490579D01*
X9675329Y-5538201D01*
X9687892Y-5604241D01*
X9702787Y-5683628D01*
X9719051Y-5771296D01*
X9719619Y-5774375D01*
X9735910Y-5860289D01*
X9751152Y-5936196D01*
X9764361Y-5997545D01*
X9774554Y-6039782D01*
X9780748Y-6058355D01*
X9781043Y-6058684D01*
X9799288Y-6067753D01*
X9836905Y-6082867D01*
X9885771Y-6100762D01*
X9886043Y-6100858D01*
X9947593Y-6123993D01*
X10020157Y-6153465D01*
X10088557Y-6183097D01*
X10091794Y-6184562D01*
X10203202Y-6235126D01*
X10449899Y-6066660D01*
X10525577Y-6015303D01*
X10594131Y-5969389D01*
X10651588Y-5931530D01*
X10693976Y-5904337D01*
X10717325Y-5890421D01*
X10719542Y-5889389D01*
X10736510Y-5893984D01*
X10768201Y-5916155D01*
X10815852Y-5956947D01*
X10880698Y-6017405D01*
X10946897Y-6081727D01*
X11010714Y-6145112D01*
X11067829Y-6202951D01*
X11114805Y-6251675D01*
X11148203Y-6287710D01*
X11164585Y-6307484D01*
X11165194Y-6308502D01*
X11167005Y-6322072D01*
X11160183Y-6344233D01*
X11143040Y-6377978D01*
X11113893Y-6426300D01*
X11071055Y-6492192D01*
X11013948Y-6577017D01*
X10963266Y-6651677D01*
X10917961Y-6718640D01*
X10880650Y-6774016D01*
X10853952Y-6813920D01*
X10840485Y-6834462D01*
X10839637Y-6835856D01*
X10841281Y-6855538D01*
X10853745Y-6893793D01*
X10874548Y-6943389D01*
X10881962Y-6959228D01*
X10914314Y-7029790D01*
X10948828Y-7109853D01*
X10976865Y-7179129D01*
X10997068Y-7230545D01*
X11013115Y-7269619D01*
X11022388Y-7290041D01*
X11023541Y-7291614D01*
X11040596Y-7294221D01*
X11080798Y-7301363D01*
X11138802Y-7312023D01*
X11209263Y-7325185D01*
X11286835Y-7339833D01*
X11366172Y-7354949D01*
X11441931Y-7369518D01*
X11508764Y-7382522D01*
X11561328Y-7392945D01*
X11594276Y-7399770D01*
X11602357Y-7401699D01*
X11610705Y-7406462D01*
X11617006Y-7417218D01*
X11621545Y-7437598D01*
X11624604Y-7471234D01*
X11626467Y-7521755D01*
X11627418Y-7592792D01*
X11627740Y-7687976D01*
X11627757Y-7726992D01*
X11627757Y-8044299D01*
X11551557Y-8059339D01*
X11509163Y-8067495D01*
X11445900Y-8079399D01*
X11369462Y-8093616D01*
X11287543Y-8108710D01*
X11264900Y-8112855D01*
X11189306Y-8127553D01*
X11123453Y-8142005D01*
X11072866Y-8154875D01*
X11043074Y-8164822D01*
X11038112Y-8167787D01*
X11025926Y-8188783D01*
X11008453Y-8229467D01*
X10989077Y-8281822D01*
X10985234Y-8293100D01*
X10959839Y-8363023D01*
X10928317Y-8441918D01*
X10897469Y-8512766D01*
X10897317Y-8513095D01*
X10845947Y-8624233D01*
X11014899Y-8872753D01*
X11183852Y-9121272D01*
X10966929Y-9338558D01*
X10901319Y-9403226D01*
X10841479Y-9460233D01*
X10790767Y-9506533D01*
X10752546Y-9539084D01*
X10730175Y-9554843D01*
X10726966Y-9555843D01*
X10708126Y-9547969D01*
X10669680Y-9526078D01*
X10615830Y-9492767D01*
X10550776Y-9450631D01*
X10480440Y-9403443D01*
X10409055Y-9355310D01*
X10345408Y-9313428D01*
X10293541Y-9280371D01*
X10257495Y-9258718D01*
X10241367Y-9251043D01*
X10221689Y-9257537D01*
X10184375Y-9274650D01*
X10137121Y-9298826D01*
X10132112Y-9301513D01*
X10068477Y-9333427D01*
X10024841Y-9349079D01*
X9997702Y-9349245D01*
X9983557Y-9334704D01*
X9983475Y-9334500D01*
X9976405Y-9317279D01*
X9959542Y-9276399D01*
X9934195Y-9215025D01*
X9901671Y-9136319D01*
X9863278Y-9043447D01*
X9820322Y-8939572D01*
X9778722Y-8839002D01*
X9733004Y-8728016D01*
X9691026Y-8625203D01*
X9654048Y-8533715D01*
X9623327Y-8456701D01*
X9600122Y-8397315D01*
X9585690Y-8358709D01*
X9581243Y-8344300D01*
X9592396Y-8327772D01*
X9621569Y-8301430D01*
X9660471Y-8272387D01*
X9771257Y-8180539D01*
X9857851Y-8075259D01*
X9919216Y-7958766D01*
X9954315Y-7833276D01*
X9962108Y-7701007D01*
X9956443Y-7639957D01*
X9925578Y-7513295D01*
X9872420Y-7401441D01*
X9800267Y-7305501D01*
X9712417Y-7226576D01*
X9612165Y-7165770D01*
X9502810Y-7124187D01*
X9387647Y-7102928D01*
X9269975Y-7103099D01*
X9153090Y-7125801D01*
X9040289Y-7172138D01*
X8934869Y-7243213D01*
X8890868Y-7283411D01*
X8806479Y-7386629D01*
X8747722Y-7499425D01*
X8714204Y-7618510D01*
X8705535Y-7740595D01*
X8721323Y-7862393D01*
X8761178Y-7980616D01*
X8824707Y-8091975D01*
X8911521Y-8193184D01*
X9008529Y-8272387D01*
X9048937Y-8302662D01*
X9077482Y-8328719D01*
X9087757Y-8344325D01*
X9082377Y-8361343D01*
X9067075Y-8402000D01*
X9043112Y-8463142D01*
X9011744Y-8541619D01*
X8974232Y-8634280D01*
X8931833Y-8737972D01*
X8890163Y-8839026D01*
X8844190Y-8950107D01*
X8801607Y-9053041D01*
X8763721Y-9144665D01*
X8731840Y-9221816D01*
X8707271Y-9281331D01*
X8691320Y-9320044D01*
X8685410Y-9334500D01*
X8671448Y-9349185D01*
X8644440Y-9349142D01*
X8600913Y-9333599D01*
X8537390Y-9301784D01*
X8536888Y-9301513D01*
X8489060Y-9276823D01*
X8450397Y-9258838D01*
X8428595Y-9251114D01*
X8427633Y-9251043D01*
X8411221Y-9258878D01*
X8374987Y-9280665D01*
X8322974Y-9313828D01*
X8259225Y-9355791D01*
X8188560Y-9403443D01*
X8116616Y-9451691D01*
X8051774Y-9493651D01*
X7998235Y-9526727D01*
X7960197Y-9548321D01*
X7942033Y-9555843D01*
X7925308Y-9545957D01*
X7891680Y-9518326D01*
X7844510Y-9475995D01*
X7787158Y-9422005D01*
X7722984Y-9359399D01*
X7701997Y-9338483D01*
X7484999Y-9121123D01*
X7650168Y-8878720D01*
X7700364Y-8804281D01*
X7744419Y-8737472D01*
X7779862Y-8682165D01*
X7804219Y-8642229D01*
X7815022Y-8621536D01*
X7815338Y-8620063D01*
X7809643Y-8600558D01*
X7794326Y-8561322D01*
X7772037Y-8508930D01*
X7756393Y-8473855D01*
X7727141Y-8406701D01*
X7699594Y-8338858D01*
X7678237Y-8281534D01*
X7672435Y-8264072D01*
X7655952Y-8217438D01*
X7639840Y-8181405D01*
X7630990Y-8167787D01*
X7611460Y-8159452D01*
X7568834Y-8147637D01*
X7508645Y-8133681D01*
X7436422Y-8118922D01*
X7404100Y-8112855D01*
X7322022Y-8097773D01*
X7243295Y-8083169D01*
X7175609Y-8070480D01*
X7126660Y-8061142D01*
X7117443Y-8059339D01*
X7041243Y-8044299D01*
X7041243Y-7726992D01*
X7041414Y-7622654D01*
X7042116Y-7543713D01*
X7043634Y-7486538D01*
X7046249Y-7447499D01*
X7050246Y-7422965D01*
X7055909Y-7409305D01*
X7063520Y-7402889D01*
X7066643Y-7401699D01*
X7085478Y-7397480D01*
X7127088Y-7389062D01*
X7186130Y-7377461D01*
X7257257Y-7363695D01*
X7335125Y-7348780D01*
X7414387Y-7333732D01*
X7489698Y-7319569D01*
X7555713Y-7307306D01*
X7607087Y-7297961D01*
X7638475Y-7292550D01*
X7645459Y-7291614D01*
X7651785Y-7279096D01*
X7665790Y-7245746D01*
X7684855Y-7197877D01*
X7692134Y-7179129D01*
X7721496Y-7106695D01*
X7756071Y-7026670D01*
X7787037Y-6959228D01*
X7809823Y-6907659D01*
X7824982Y-6865285D01*
X7830042Y-6839334D01*
X7829236Y-6835856D01*
X7818541Y-6819436D01*
X7794120Y-6782917D01*
X7758595Y-6730187D01*
X7714587Y-6665135D01*
X7664717Y-6591651D01*
X7654856Y-6577145D01*
X7596992Y-6491204D01*
X7554456Y-6425761D01*
X7525554Y-6377804D01*
X7508590Y-6344320D01*
X7501867Y-6322295D01*
X7503690Y-6308717D01*
X7503736Y-6308631D01*
X7518086Y-6290797D01*
X7549823Y-6256317D01*
X7595510Y-6208768D01*
X7651704Y-6151722D01*
X7714968Y-6088755D01*
X7722102Y-6081727D01*
X7801830Y-6004520D01*
X7863357Y-5947830D01*
X7907921Y-5910610D01*
X7936757Y-5891815D01*
X7949458Y-5889389D01*
X7967994Y-5899971D01*
X8006461Y-5924416D01*
X8060886Y-5960112D01*
X8127298Y-6004447D01*
X8201725Y-6054811D01*
X8219101Y-6066660D01*
X8465797Y-6235126D01*
X8577206Y-6184562D01*
X8644957Y-6155095D01*
X8717683Y-6125459D01*
X8780203Y-6101830D01*
X8782957Y-6100858D01*
X8831860Y-6082957D01*
X8869557Y-6067820D01*
X8887925Y-6058710D01*
X8887956Y-6058684D01*
X8893785Y-6042217D01*
X8903692Y-6001719D01*
X8916695Y-5941742D01*
X8931809Y-5866840D01*
X8948052Y-5781564D01*
X8949381Y-5774375D01*
X8965675Y-5686514D01*
X8980633Y-5606760D01*
X8993291Y-5540181D01*
X9002686Y-5491847D01*
X9007854Y-5466825D01*
X9007944Y-5466443D01*
X9011089Y-5455799D01*
X9017204Y-5447762D01*
X9029953Y-5441967D01*
X9053000Y-5438047D01*
X9090009Y-5435635D01*
X9144644Y-5434365D01*
X9220567Y-5433871D01*
X9321444Y-5433786D01*
X9334500Y-5433786D01*
X9438410Y-5433848D01*
G36*
X12488095Y-10158466D02*
G01*
X12545521Y-10195997D01*
X12573219Y-10229596D01*
X12595162Y-10290564D01*
X12596905Y-10338808D01*
X12592957Y-10403316D01*
X12444186Y-10468434D01*
X12371849Y-10501702D01*
X12324584Y-10528464D01*
X12300007Y-10551644D01*
X12295737Y-10574167D01*
X12309389Y-10598955D01*
X12324443Y-10615386D01*
X12368246Y-10641735D01*
X12415889Y-10643581D01*
X12459645Y-10623046D01*
X12491789Y-10582252D01*
X12497538Y-10567847D01*
X12525076Y-10522856D01*
X12556758Y-10503682D01*
X12600214Y-10487279D01*
X12600214Y-10549466D01*
X12596372Y-10591783D01*
X12581323Y-10627469D01*
X12549780Y-10668443D01*
X12545092Y-10673767D01*
X12510006Y-10710220D01*
X12479847Y-10729783D01*
X12442115Y-10738783D01*
X12410835Y-10741730D01*
X12354885Y-10742465D01*
X12315055Y-10733160D01*
X12290208Y-10719346D01*
X12251156Y-10688967D01*
X12224125Y-10656113D01*
X12207017Y-10614794D01*
X12197738Y-10559021D01*
X12194193Y-10482805D01*
X12193910Y-10444122D01*
X12194872Y-10397747D01*
X12282507Y-10397747D01*
X12283523Y-10422626D01*
X12286056Y-10426700D01*
X12302774Y-10421165D01*
X12338749Y-10406517D01*
X12386831Y-10385690D01*
X12396886Y-10381214D01*
X12457652Y-10350314D01*
X12491132Y-10323157D01*
X12498490Y-10297720D01*
X12480891Y-10271981D01*
X12466356Y-10260609D01*
X12413910Y-10237864D01*
X12364822Y-10241622D01*
X12323727Y-10269384D01*
X12295258Y-10318652D01*
X12286131Y-10357757D01*
X12282507Y-10397747D01*
X12194872Y-10397747D01*
X12195785Y-10353749D01*
X12202696Y-10286884D01*
X12216384Y-10238195D01*
X12238596Y-10202349D01*
X12271074Y-10174013D01*
X12285233Y-10164855D01*
X12349553Y-10141007D01*
X12419973Y-10139506D01*
X12488095Y-10158466D01*
X12488095Y-10158466D01*
G37*
X12488095Y-10158466D02*
X12545521Y-10195997D01*
X12573219Y-10229596D01*
X12595162Y-10290564D01*
X12596905Y-10338808D01*
X12592957Y-10403316D01*
X12444186Y-10468434D01*
X12371849Y-10501702D01*
X12324584Y-10528464D01*
X12300007Y-10551644D01*
X12295737Y-10574167D01*
X12309389Y-10598955D01*
X12324443Y-10615386D01*
X12368246Y-10641735D01*
X12415889Y-10643581D01*
X12459645Y-10623046D01*
X12491789Y-10582252D01*
X12497538Y-10567847D01*
X12525076Y-10522856D01*
X12556758Y-10503682D01*
X12600214Y-10487279D01*
X12600214Y-10549466D01*
X12596372Y-10591783D01*
X12581323Y-10627469D01*
X12549780Y-10668443D01*
X12545092Y-10673767D01*
X12510006Y-10710220D01*
X12479847Y-10729783D01*
X12442115Y-10738783D01*
X12410835Y-10741730D01*
X12354885Y-10742465D01*
X12315055Y-10733160D01*
X12290208Y-10719346D01*
X12251156Y-10688967D01*
X12224125Y-10656113D01*
X12207017Y-10614794D01*
X12197738Y-10559021D01*
X12194193Y-10482805D01*
X12193910Y-10444122D01*
X12194872Y-10397747D01*
X12282507Y-10397747D01*
X12283523Y-10422626D01*
X12286056Y-10426700D01*
X12302774Y-10421165D01*
X12338749Y-10406517D01*
X12386831Y-10385690D01*
X12396886Y-10381214D01*
X12457652Y-10350314D01*
X12491132Y-10323157D01*
X12498490Y-10297720D01*
X12480891Y-10271981D01*
X12466356Y-10260609D01*
X12413910Y-10237864D01*
X12364822Y-10241622D01*
X12323727Y-10269384D01*
X12295258Y-10318652D01*
X12286131Y-10357757D01*
X12282507Y-10397747D01*
X12194872Y-10397747D01*
X12195785Y-10353749D01*
X12202696Y-10286884D01*
X12216384Y-10238195D01*
X12238596Y-10202349D01*
X12271074Y-10174013D01*
X12285233Y-10164855D01*
X12349553Y-10141007D01*
X12419973Y-10139506D01*
X12488095Y-10158466D01*
G36*
X11987100Y-10150252D02*
G01*
X12004448Y-10157834D01*
X12045856Y-10190628D01*
X12081265Y-10238047D01*
X12103164Y-10288651D01*
X12106729Y-10313598D01*
X12094779Y-10348427D01*
X12068567Y-10366857D01*
X12040464Y-10378016D01*
X12027595Y-10380072D01*
X12021329Y-10365149D01*
X12008956Y-10332675D01*
X12003528Y-10318002D01*
X11973090Y-10267244D01*
X11929020Y-10241927D01*
X11872510Y-10242706D01*
X11868325Y-10243703D01*
X11838155Y-10258007D01*
X11815976Y-10285893D01*
X11800827Y-10330787D01*
X11791750Y-10396115D01*
X11787786Y-10485304D01*
X11787414Y-10532761D01*
X11787230Y-10607571D01*
X11786022Y-10658569D01*
X11782809Y-10690971D01*
X11776609Y-10709995D01*
X11766440Y-10720856D01*
X11751319Y-10728772D01*
X11750446Y-10729170D01*
X11721328Y-10741481D01*
X11706903Y-10746014D01*
X11704686Y-10732309D01*
X11702789Y-10694425D01*
X11701347Y-10637215D01*
X11700498Y-10565527D01*
X11700329Y-10513065D01*
X11701192Y-10411547D01*
X11704570Y-10334532D01*
X11711642Y-10277523D01*
X11723588Y-10236026D01*
X11741590Y-10205543D01*
X11766827Y-10181580D01*
X11791747Y-10164855D01*
X11851671Y-10142597D01*
X11921411Y-10137576D01*
X11987100Y-10150252D01*
X11987100Y-10150252D01*
G37*
X11987100Y-10150252D02*
X12004448Y-10157834D01*
X12045856Y-10190628D01*
X12081265Y-10238047D01*
X12103164Y-10288651D01*
X12106729Y-10313598D01*
X12094779Y-10348427D01*
X12068567Y-10366857D01*
X12040464Y-10378016D01*
X12027595Y-10380072D01*
X12021329Y-10365149D01*
X12008956Y-10332675D01*
X12003528Y-10318002D01*
X11973090Y-10267244D01*
X11929020Y-10241927D01*
X11872510Y-10242706D01*
X11868325Y-10243703D01*
X11838155Y-10258007D01*
X11815976Y-10285893D01*
X11800827Y-10330787D01*
X11791750Y-10396115D01*
X11787786Y-10485304D01*
X11787414Y-10532761D01*
X11787230Y-10607571D01*
X11786022Y-10658569D01*
X11782809Y-10690971D01*
X11776609Y-10709995D01*
X11766440Y-10720856D01*
X11751319Y-10728772D01*
X11750446Y-10729170D01*
X11721328Y-10741481D01*
X11706903Y-10746014D01*
X11704686Y-10732309D01*
X11702789Y-10694425D01*
X11701347Y-10637215D01*
X11700498Y-10565527D01*
X11700329Y-10513065D01*
X11701192Y-10411547D01*
X11704570Y-10334532D01*
X11711642Y-10277523D01*
X11723588Y-10236026D01*
X11741590Y-10205543D01*
X11766827Y-10181580D01*
X11791747Y-10164855D01*
X11851671Y-10142597D01*
X11921411Y-10137576D01*
X11987100Y-10150252D01*
G36*
X11479376Y-10147835D02*
G01*
X11521167Y-10166844D01*
X11553969Y-10189878D01*
X11578003Y-10215633D01*
X11594597Y-10248858D01*
X11605077Y-10294300D01*
X11610771Y-10356707D01*
X11613007Y-10440827D01*
X11613243Y-10496221D01*
X11613243Y-10712326D01*
X11576274Y-10729170D01*
X11547156Y-10741481D01*
X11532731Y-10746014D01*
X11529972Y-10732525D01*
X11527782Y-10696153D01*
X11526442Y-10643042D01*
X11526157Y-10600872D01*
X11524934Y-10539947D01*
X11521636Y-10491615D01*
X11516821Y-10462018D01*
X11512996Y-10455729D01*
X11487283Y-10462152D01*
X11446918Y-10478625D01*
X11400179Y-10500958D01*
X11355345Y-10524957D01*
X11320693Y-10546430D01*
X11304502Y-10561185D01*
X11304438Y-10561345D01*
X11305830Y-10588652D01*
X11318318Y-10614719D01*
X11340243Y-10635892D01*
X11372243Y-10642974D01*
X11399592Y-10642149D01*
X11438326Y-10641542D01*
X11458658Y-10650616D01*
X11470869Y-10674592D01*
X11472409Y-10679113D01*
X11477703Y-10713306D01*
X11463547Y-10734068D01*
X11426648Y-10743962D01*
X11386789Y-10745792D01*
X11315062Y-10732227D01*
X11277932Y-10712855D01*
X11232076Y-10667345D01*
X11207756Y-10611483D01*
X11205573Y-10552457D01*
X11226129Y-10497453D01*
X11257049Y-10462986D01*
X11287920Y-10443689D01*
X11336442Y-10419259D01*
X11392985Y-10394485D01*
X11402410Y-10390699D01*
X11464519Y-10363291D01*
X11500322Y-10339134D01*
X11511837Y-10315119D01*
X11501080Y-10288135D01*
X11482614Y-10267043D01*
X11438969Y-10241072D01*
X11390946Y-10239124D01*
X11346906Y-10259137D01*
X11315209Y-10299051D01*
X11311049Y-10309348D01*
X11286827Y-10347224D01*
X11251465Y-10375342D01*
X11206843Y-10398417D01*
X11206843Y-10332985D01*
X11209469Y-10293006D01*
X11220730Y-10261497D01*
X11245699Y-10227878D01*
X11269669Y-10201984D01*
X11306941Y-10165317D01*
X11335901Y-10145621D01*
X11367005Y-10137720D01*
X11402213Y-10136414D01*
X11479376Y-10147835D01*
X11479376Y-10147835D01*
G37*
X11479376Y-10147835D02*
X11521167Y-10166844D01*
X11553969Y-10189878D01*
X11578003Y-10215633D01*
X11594597Y-10248858D01*
X11605077Y-10294300D01*
X11610771Y-10356707D01*
X11613007Y-10440827D01*
X11613243Y-10496221D01*
X11613243Y-10712326D01*
X11576274Y-10729170D01*
X11547156Y-10741481D01*
X11532731Y-10746014D01*
X11529972Y-10732525D01*
X11527782Y-10696153D01*
X11526442Y-10643042D01*
X11526157Y-10600872D01*
X11524934Y-10539947D01*
X11521636Y-10491615D01*
X11516821Y-10462018D01*
X11512996Y-10455729D01*
X11487283Y-10462152D01*
X11446918Y-10478625D01*
X11400179Y-10500958D01*
X11355345Y-10524957D01*
X11320693Y-10546430D01*
X11304502Y-10561185D01*
X11304438Y-10561345D01*
X11305830Y-10588652D01*
X11318318Y-10614719D01*
X11340243Y-10635892D01*
X11372243Y-10642974D01*
X11399592Y-10642149D01*
X11438326Y-10641542D01*
X11458658Y-10650616D01*
X11470869Y-10674592D01*
X11472409Y-10679113D01*
X11477703Y-10713306D01*
X11463547Y-10734068D01*
X11426648Y-10743962D01*
X11386789Y-10745792D01*
X11315062Y-10732227D01*
X11277932Y-10712855D01*
X11232076Y-10667345D01*
X11207756Y-10611483D01*
X11205573Y-10552457D01*
X11226129Y-10497453D01*
X11257049Y-10462986D01*
X11287920Y-10443689D01*
X11336442Y-10419259D01*
X11392985Y-10394485D01*
X11402410Y-10390699D01*
X11464519Y-10363291D01*
X11500322Y-10339134D01*
X11511837Y-10315119D01*
X11501080Y-10288135D01*
X11482614Y-10267043D01*
X11438969Y-10241072D01*
X11390946Y-10239124D01*
X11346906Y-10259137D01*
X11315209Y-10299051D01*
X11311049Y-10309348D01*
X11286827Y-10347224D01*
X11251465Y-10375342D01*
X11206843Y-10398417D01*
X11206843Y-10332985D01*
X11209469Y-10293006D01*
X11220730Y-10261497D01*
X11245699Y-10227878D01*
X11269669Y-10201984D01*
X11306941Y-10165317D01*
X11335901Y-10145621D01*
X11367005Y-10137720D01*
X11402213Y-10136414D01*
X11479376Y-10147835D01*
G36*
X11114333Y-10150163D02*
G01*
X11116548Y-10188350D01*
X11118284Y-10246386D01*
X11119399Y-10319680D01*
X11119757Y-10396555D01*
X11119757Y-10656696D01*
X11073826Y-10702627D01*
X11042175Y-10730929D01*
X11014390Y-10742393D01*
X10976415Y-10741668D01*
X10961340Y-10739821D01*
X10914226Y-10734448D01*
X10875256Y-10731369D01*
X10865757Y-10731085D01*
X10833733Y-10732945D01*
X10787932Y-10737614D01*
X10770174Y-10739821D01*
X10726557Y-10743235D01*
X10697245Y-10735820D01*
X10668180Y-10712927D01*
X10657688Y-10702627D01*
X10611757Y-10656696D01*
X10611757Y-10170102D01*
X10648726Y-10153258D01*
X10680559Y-10140782D01*
X10699183Y-10136414D01*
X10703958Y-10150218D01*
X10708421Y-10188786D01*
X10712275Y-10247856D01*
X10715222Y-10323163D01*
X10716643Y-10386786D01*
X10720614Y-10637157D01*
X10755259Y-10642056D01*
X10786768Y-10638631D01*
X10802208Y-10627541D01*
X10806523Y-10606808D01*
X10810208Y-10562645D01*
X10812969Y-10500646D01*
X10814512Y-10426409D01*
X10814735Y-10388206D01*
X10814957Y-10168283D01*
X10860666Y-10152349D01*
X10893018Y-10141515D01*
X10910615Y-10136462D01*
X10911123Y-10136414D01*
X10912888Y-10150148D01*
X10914829Y-10188230D01*
X10916782Y-10245982D01*
X10918584Y-10318727D01*
X10919843Y-10386786D01*
X10923814Y-10637157D01*
X11010900Y-10637157D01*
X11014896Y-10408740D01*
X11018892Y-10180322D01*
X11061347Y-10158368D01*
X11092692Y-10143293D01*
X11111244Y-10136451D01*
X11111779Y-10136414D01*
X11114333Y-10150163D01*
X11114333Y-10150163D01*
G37*
X11114333Y-10150163D02*
X11116548Y-10188350D01*
X11118284Y-10246386D01*
X11119399Y-10319680D01*
X11119757Y-10396555D01*
X11119757Y-10656696D01*
X11073826Y-10702627D01*
X11042175Y-10730929D01*
X11014390Y-10742393D01*
X10976415Y-10741668D01*
X10961340Y-10739821D01*
X10914226Y-10734448D01*
X10875256Y-10731369D01*
X10865757Y-10731085D01*
X10833733Y-10732945D01*
X10787932Y-10737614D01*
X10770174Y-10739821D01*
X10726557Y-10743235D01*
X10697245Y-10735820D01*
X10668180Y-10712927D01*
X10657688Y-10702627D01*
X10611757Y-10656696D01*
X10611757Y-10170102D01*
X10648726Y-10153258D01*
X10680559Y-10140782D01*
X10699183Y-10136414D01*
X10703958Y-10150218D01*
X10708421Y-10188786D01*
X10712275Y-10247856D01*
X10715222Y-10323163D01*
X10716643Y-10386786D01*
X10720614Y-10637157D01*
X10755259Y-10642056D01*
X10786768Y-10638631D01*
X10802208Y-10627541D01*
X10806523Y-10606808D01*
X10810208Y-10562645D01*
X10812969Y-10500646D01*
X10814512Y-10426409D01*
X10814735Y-10388206D01*
X10814957Y-10168283D01*
X10860666Y-10152349D01*
X10893018Y-10141515D01*
X10910615Y-10136462D01*
X10911123Y-10136414D01*
X10912888Y-10150148D01*
X10914829Y-10188230D01*
X10916782Y-10245982D01*
X10918584Y-10318727D01*
X10919843Y-10386786D01*
X10923814Y-10637157D01*
X11010900Y-10637157D01*
X11014896Y-10408740D01*
X11018892Y-10180322D01*
X11061347Y-10158368D01*
X11092692Y-10143293D01*
X11111244Y-10136451D01*
X11111779Y-10136414D01*
X11114333Y-10150163D01*
G36*
X10524617Y-10256858D02*
G01*
X10524433Y-10365337D01*
X10523719Y-10448787D01*
X10522175Y-10511204D01*
X10519501Y-10556585D01*
X10515394Y-10588929D01*
X10509555Y-10612233D01*
X10501682Y-10630495D01*
X10495721Y-10640918D01*
X10446355Y-10697445D01*
X10383764Y-10732877D01*
X10314513Y-10745590D01*
X10245168Y-10733963D01*
X10203875Y-10713068D01*
X10160525Y-10676922D01*
X10130981Y-10632776D01*
X10113155Y-10574962D01*
X10104963Y-10497813D01*
X10103802Y-10441214D01*
X10103958Y-10437147D01*
X10205357Y-10437147D01*
X10205976Y-10502050D01*
X10208814Y-10545014D01*
X10215340Y-10573122D01*
X10227023Y-10593453D01*
X10240983Y-10608788D01*
X10287865Y-10638390D01*
X10338201Y-10640919D01*
X10385776Y-10616205D01*
X10389479Y-10612856D01*
X10405283Y-10595435D01*
X10415193Y-10574709D01*
X10420558Y-10543862D01*
X10422728Y-10496077D01*
X10423071Y-10443248D01*
X10422327Y-10376881D01*
X10419248Y-10332606D01*
X10412561Y-10303509D01*
X10400996Y-10282673D01*
X10391513Y-10271607D01*
X10347460Y-10243698D01*
X10296724Y-10240343D01*
X10248296Y-10261659D01*
X10238950Y-10269573D01*
X10223040Y-10287147D01*
X10213110Y-10308087D01*
X10207778Y-10339282D01*
X10205663Y-10387622D01*
X10205357Y-10437147D01*
X10103958Y-10437147D01*
X10107310Y-10350068D01*
X10119226Y-10281586D01*
X10141635Y-10230100D01*
X10176624Y-10189943D01*
X10203875Y-10169361D01*
X10253407Y-10147125D01*
X10310816Y-10136804D01*
X10364182Y-10139567D01*
X10394043Y-10150712D01*
X10405761Y-10153883D01*
X10413537Y-10142057D01*
X10418965Y-10110366D01*
X10423071Y-10062093D01*
X10427567Y-10008329D01*
X10433813Y-9975982D01*
X10445176Y-9957485D01*
X10465028Y-9945270D01*
X10477500Y-9939862D01*
X10524671Y-9920101D01*
X10524617Y-10256858D01*
X10524617Y-10256858D01*
G37*
X10524617Y-10256858D02*
X10524433Y-10365337D01*
X10523719Y-10448787D01*
X10522175Y-10511204D01*
X10519501Y-10556585D01*
X10515394Y-10588929D01*
X10509555Y-10612233D01*
X10501682Y-10630495D01*
X10495721Y-10640918D01*
X10446355Y-10697445D01*
X10383764Y-10732877D01*
X10314513Y-10745590D01*
X10245168Y-10733963D01*
X10203875Y-10713068D01*
X10160525Y-10676922D01*
X10130981Y-10632776D01*
X10113155Y-10574962D01*
X10104963Y-10497813D01*
X10103802Y-10441214D01*
X10103958Y-10437147D01*
X10205357Y-10437147D01*
X10205976Y-10502050D01*
X10208814Y-10545014D01*
X10215340Y-10573122D01*
X10227023Y-10593453D01*
X10240983Y-10608788D01*
X10287865Y-10638390D01*
X10338201Y-10640919D01*
X10385776Y-10616205D01*
X10389479Y-10612856D01*
X10405283Y-10595435D01*
X10415193Y-10574709D01*
X10420558Y-10543862D01*
X10422728Y-10496077D01*
X10423071Y-10443248D01*
X10422327Y-10376881D01*
X10419248Y-10332606D01*
X10412561Y-10303509D01*
X10400996Y-10282673D01*
X10391513Y-10271607D01*
X10347460Y-10243698D01*
X10296724Y-10240343D01*
X10248296Y-10261659D01*
X10238950Y-10269573D01*
X10223040Y-10287147D01*
X10213110Y-10308087D01*
X10207778Y-10339282D01*
X10205663Y-10387622D01*
X10205357Y-10437147D01*
X10103958Y-10437147D01*
X10107310Y-10350068D01*
X10119226Y-10281586D01*
X10141635Y-10230100D01*
X10176624Y-10189943D01*
X10203875Y-10169361D01*
X10253407Y-10147125D01*
X10310816Y-10136804D01*
X10364182Y-10139567D01*
X10394043Y-10150712D01*
X10405761Y-10153883D01*
X10413537Y-10142057D01*
X10418965Y-10110366D01*
X10423071Y-10062093D01*
X10427567Y-10008329D01*
X10433813Y-9975982D01*
X10445176Y-9957485D01*
X10465028Y-9945270D01*
X10477500Y-9939862D01*
X10524671Y-9920101D01*
X10524617Y-10256858D01*
G36*
X9864426Y-10141255D02*
G01*
X9930358Y-10165584D01*
X9983773Y-10208617D01*
X10004664Y-10238909D01*
X10027439Y-10294494D01*
X10026966Y-10334686D01*
X10003062Y-10361717D01*
X9994217Y-10366313D01*
X9956030Y-10380644D01*
X9936528Y-10376972D01*
X9929922Y-10352907D01*
X9929586Y-10339614D01*
X9917492Y-10290710D01*
X9885971Y-10256499D01*
X9842159Y-10239976D01*
X9793195Y-10244134D01*
X9753394Y-10265727D01*
X9739950Y-10278044D01*
X9730421Y-10292987D01*
X9723985Y-10315575D01*
X9719817Y-10350828D01*
X9717097Y-10403766D01*
X9715002Y-10479407D01*
X9714460Y-10503357D01*
X9712481Y-10585290D01*
X9710231Y-10642955D01*
X9706857Y-10681108D01*
X9701506Y-10704504D01*
X9693324Y-10717898D01*
X9681459Y-10726045D01*
X9673862Y-10729644D01*
X9641602Y-10741952D01*
X9622611Y-10746014D01*
X9616336Y-10732448D01*
X9612506Y-10691434D01*
X9611100Y-10622499D01*
X9612098Y-10525169D01*
X9612408Y-10510157D01*
X9614601Y-10421359D01*
X9617193Y-10356519D01*
X9620882Y-10310567D01*
X9626364Y-10278435D01*
X9634335Y-10255053D01*
X9645493Y-10235352D01*
X9651330Y-10226910D01*
X9684796Y-10189557D01*
X9722227Y-10160503D01*
X9726809Y-10157967D01*
X9793926Y-10137943D01*
X9864426Y-10141255D01*
X9864426Y-10141255D01*
G37*
X9864426Y-10141255D02*
X9930358Y-10165584D01*
X9983773Y-10208617D01*
X10004664Y-10238909D01*
X10027439Y-10294494D01*
X10026966Y-10334686D01*
X10003062Y-10361717D01*
X9994217Y-10366313D01*
X9956030Y-10380644D01*
X9936528Y-10376972D01*
X9929922Y-10352907D01*
X9929586Y-10339614D01*
X9917492Y-10290710D01*
X9885971Y-10256499D01*
X9842159Y-10239976D01*
X9793195Y-10244134D01*
X9753394Y-10265727D01*
X9739950Y-10278044D01*
X9730421Y-10292987D01*
X9723985Y-10315575D01*
X9719817Y-10350828D01*
X9717097Y-10403766D01*
X9715002Y-10479407D01*
X9714460Y-10503357D01*
X9712481Y-10585290D01*
X9710231Y-10642955D01*
X9706857Y-10681108D01*
X9701506Y-10704504D01*
X9693324Y-10717898D01*
X9681459Y-10726045D01*
X9673862Y-10729644D01*
X9641602Y-10741952D01*
X9622611Y-10746014D01*
X9616336Y-10732448D01*
X9612506Y-10691434D01*
X9611100Y-10622499D01*
X9612098Y-10525169D01*
X9612408Y-10510157D01*
X9614601Y-10421359D01*
X9617193Y-10356519D01*
X9620882Y-10310567D01*
X9626364Y-10278435D01*
X9634335Y-10255053D01*
X9645493Y-10235352D01*
X9651330Y-10226910D01*
X9684796Y-10189557D01*
X9722227Y-10160503D01*
X9726809Y-10157967D01*
X9793926Y-10137943D01*
X9864426Y-10141255D01*
G36*
X9374244Y-10142468D02*
G01*
X9431116Y-10163587D01*
X9431767Y-10163993D01*
X9466940Y-10189880D01*
X9492907Y-10220133D01*
X9511170Y-10259558D01*
X9523232Y-10312962D01*
X9530596Y-10385151D01*
X9534764Y-10480932D01*
X9535129Y-10494578D01*
X9540376Y-10700342D01*
X9496216Y-10723178D01*
X9464263Y-10738610D01*
X9444970Y-10745923D01*
X9444078Y-10746014D01*
X9440739Y-10732522D01*
X9438087Y-10696126D01*
X9436456Y-10642952D01*
X9436100Y-10599893D01*
X9436092Y-10530141D01*
X9432903Y-10486337D01*
X9421788Y-10465444D01*
X9398001Y-10464425D01*
X9356796Y-10480241D01*
X9294586Y-10509315D01*
X9248841Y-10533463D01*
X9225313Y-10554413D01*
X9218396Y-10577247D01*
X9218386Y-10578377D01*
X9229799Y-10617712D01*
X9263592Y-10638962D01*
X9315309Y-10642039D01*
X9352561Y-10641506D01*
X9372203Y-10652235D01*
X9384452Y-10678005D01*
X9391502Y-10710837D01*
X9381342Y-10729466D01*
X9377517Y-10732132D01*
X9341501Y-10742840D01*
X9291066Y-10744356D01*
X9239126Y-10737259D01*
X9202322Y-10724288D01*
X9151438Y-10681085D01*
X9122514Y-10620946D01*
X9116786Y-10573962D01*
X9121157Y-10531582D01*
X9136975Y-10496988D01*
X9168297Y-10466263D01*
X9219178Y-10435490D01*
X9293676Y-10400752D01*
X9298214Y-10398788D01*
X9365321Y-10367787D01*
X9406732Y-10342362D01*
X9424481Y-10319514D01*
X9420607Y-10296245D01*
X9397143Y-10269556D01*
X9390127Y-10263414D01*
X9343130Y-10239600D01*
X9294433Y-10240603D01*
X9252022Y-10263951D01*
X9223884Y-10307175D01*
X9221269Y-10315660D01*
X9195808Y-10356808D01*
X9163501Y-10376628D01*
X9116786Y-10396270D01*
X9116786Y-10345450D01*
X9130996Y-10271582D01*
X9173175Y-10203827D01*
X9195124Y-10181161D01*
X9245017Y-10152069D01*
X9308467Y-10138900D01*
X9374244Y-10142468D01*
X9374244Y-10142468D01*
G37*
X9374244Y-10142468D02*
X9431116Y-10163587D01*
X9431767Y-10163993D01*
X9466940Y-10189880D01*
X9492907Y-10220133D01*
X9511170Y-10259558D01*
X9523232Y-10312962D01*
X9530596Y-10385151D01*
X9534764Y-10480932D01*
X9535129Y-10494578D01*
X9540376Y-10700342D01*
X9496216Y-10723178D01*
X9464263Y-10738610D01*
X9444970Y-10745923D01*
X9444078Y-10746014D01*
X9440739Y-10732522D01*
X9438087Y-10696126D01*
X9436456Y-10642952D01*
X9436100Y-10599893D01*
X9436092Y-10530141D01*
X9432903Y-10486337D01*
X9421788Y-10465444D01*
X9398001Y-10464425D01*
X9356796Y-10480241D01*
X9294586Y-10509315D01*
X9248841Y-10533463D01*
X9225313Y-10554413D01*
X9218396Y-10577247D01*
X9218386Y-10578377D01*
X9229799Y-10617712D01*
X9263592Y-10638962D01*
X9315309Y-10642039D01*
X9352561Y-10641506D01*
X9372203Y-10652235D01*
X9384452Y-10678005D01*
X9391502Y-10710837D01*
X9381342Y-10729466D01*
X9377517Y-10732132D01*
X9341501Y-10742840D01*
X9291066Y-10744356D01*
X9239126Y-10737259D01*
X9202322Y-10724288D01*
X9151438Y-10681085D01*
X9122514Y-10620946D01*
X9116786Y-10573962D01*
X9121157Y-10531582D01*
X9136975Y-10496988D01*
X9168297Y-10466263D01*
X9219178Y-10435490D01*
X9293676Y-10400752D01*
X9298214Y-10398788D01*
X9365321Y-10367787D01*
X9406732Y-10342362D01*
X9424481Y-10319514D01*
X9420607Y-10296245D01*
X9397143Y-10269556D01*
X9390127Y-10263414D01*
X9343130Y-10239600D01*
X9294433Y-10240603D01*
X9252022Y-10263951D01*
X9223884Y-10307175D01*
X9221269Y-10315660D01*
X9195808Y-10356808D01*
X9163501Y-10376628D01*
X9116786Y-10396270D01*
X9116786Y-10345450D01*
X9130996Y-10271582D01*
X9173175Y-10203827D01*
X9195124Y-10181161D01*
X9245017Y-10152069D01*
X9308467Y-10138900D01*
X9374244Y-10142468D01*
G36*
X8710386Y-10042789D02*
G01*
X8714639Y-10102113D01*
X8719525Y-10137072D01*
X8726295Y-10152320D01*
X8736202Y-10152515D01*
X8739414Y-10150695D01*
X8782144Y-10137515D01*
X8837727Y-10138285D01*
X8894237Y-10151833D01*
X8929582Y-10169361D01*
X8965821Y-10197361D01*
X8992313Y-10229049D01*
X9010499Y-10269313D01*
X9021822Y-10323043D01*
X9027722Y-10395126D01*
X9029643Y-10490451D01*
X9029677Y-10508737D01*
X9029700Y-10714146D01*
X8983991Y-10730080D01*
X8951527Y-10740920D01*
X8933715Y-10745968D01*
X8933191Y-10746014D01*
X8931437Y-10732328D01*
X8929944Y-10694576D01*
X8928826Y-10637724D01*
X8928197Y-10566734D01*
X8928100Y-10523573D01*
X8927898Y-10438473D01*
X8926858Y-10377481D01*
X8924331Y-10335677D01*
X8919664Y-10308142D01*
X8912207Y-10289956D01*
X8901311Y-10276198D01*
X8894507Y-10269573D01*
X8847772Y-10242875D01*
X8796772Y-10240875D01*
X8750501Y-10263455D01*
X8741944Y-10271607D01*
X8729393Y-10286936D01*
X8720688Y-10305118D01*
X8715131Y-10331409D01*
X8712026Y-10371062D01*
X8710676Y-10429332D01*
X8710386Y-10509673D01*
X8710386Y-10714146D01*
X8664677Y-10730080D01*
X8632213Y-10740920D01*
X8614401Y-10745968D01*
X8613877Y-10746014D01*
X8612537Y-10732123D01*
X8611328Y-10692939D01*
X8610301Y-10632200D01*
X8609502Y-10553641D01*
X8608981Y-10460998D01*
X8608786Y-10358009D01*
X8608786Y-9960842D01*
X8655957Y-9940944D01*
X8703129Y-9921047D01*
X8710386Y-10042789D01*
X8710386Y-10042789D01*
G37*
X8710386Y-10042789D02*
X8714639Y-10102113D01*
X8719525Y-10137072D01*
X8726295Y-10152320D01*
X8736202Y-10152515D01*
X8739414Y-10150695D01*
X8782144Y-10137515D01*
X8837727Y-10138285D01*
X8894237Y-10151833D01*
X8929582Y-10169361D01*
X8965821Y-10197361D01*
X8992313Y-10229049D01*
X9010499Y-10269313D01*
X9021822Y-10323043D01*
X9027722Y-10395126D01*
X9029643Y-10490451D01*
X9029677Y-10508737D01*
X9029700Y-10714146D01*
X8983991Y-10730080D01*
X8951527Y-10740920D01*
X8933715Y-10745968D01*
X8933191Y-10746014D01*
X8931437Y-10732328D01*
X8929944Y-10694576D01*
X8928826Y-10637724D01*
X8928197Y-10566734D01*
X8928100Y-10523573D01*
X8927898Y-10438473D01*
X8926858Y-10377481D01*
X8924331Y-10335677D01*
X8919664Y-10308142D01*
X8912207Y-10289956D01*
X8901311Y-10276198D01*
X8894507Y-10269573D01*
X8847772Y-10242875D01*
X8796772Y-10240875D01*
X8750501Y-10263455D01*
X8741944Y-10271607D01*
X8729393Y-10286936D01*
X8720688Y-10305118D01*
X8715131Y-10331409D01*
X8712026Y-10371062D01*
X8710676Y-10429332D01*
X8710386Y-10509673D01*
X8710386Y-10714146D01*
X8664677Y-10730080D01*
X8632213Y-10740920D01*
X8614401Y-10745968D01*
X8613877Y-10746014D01*
X8612537Y-10732123D01*
X8611328Y-10692939D01*
X8610301Y-10632200D01*
X8609502Y-10553641D01*
X8608981Y-10460998D01*
X8608786Y-10358009D01*
X8608786Y-9960842D01*
X8655957Y-9940944D01*
X8703129Y-9921047D01*
X8710386Y-10042789D01*
G36*
X7502803Y-10122739D02*
G01*
X7560027Y-10161235D01*
X7604249Y-10216835D01*
X7630667Y-10287586D01*
X7636010Y-10339662D01*
X7635403Y-10361393D01*
X7630322Y-10378031D01*
X7616355Y-10392937D01*
X7589089Y-10409473D01*
X7544112Y-10430998D01*
X7477011Y-10460874D01*
X7476671Y-10461024D01*
X7414907Y-10489313D01*
X7364259Y-10514433D01*
X7329904Y-10533679D01*
X7317018Y-10544348D01*
X7317014Y-10544434D01*
X7328372Y-10567666D01*
X7354931Y-10593274D01*
X7385423Y-10611721D01*
X7400870Y-10615386D01*
X7443015Y-10602712D01*
X7479308Y-10570971D01*
X7497017Y-10536072D01*
X7514052Y-10510345D01*
X7547422Y-10481046D01*
X7586649Y-10455735D01*
X7621256Y-10441971D01*
X7628493Y-10441214D01*
X7636639Y-10453660D01*
X7637130Y-10485472D01*
X7631143Y-10528366D01*
X7619857Y-10574058D01*
X7604450Y-10614261D01*
X7603671Y-10615822D01*
X7557304Y-10680562D01*
X7497211Y-10724597D01*
X7428965Y-10746211D01*
X7358138Y-10743685D01*
X7290304Y-10715304D01*
X7287288Y-10713308D01*
X7233927Y-10664948D01*
X7198840Y-10601852D01*
X7179422Y-10518887D01*
X7176816Y-10495578D01*
X7172201Y-10385555D01*
X7177733Y-10334248D01*
X7317014Y-10334248D01*
X7318824Y-10366253D01*
X7328722Y-10375593D01*
X7353398Y-10368605D01*
X7392295Y-10352087D01*
X7435775Y-10331381D01*
X7436856Y-10330833D01*
X7473709Y-10311449D01*
X7488500Y-10298513D01*
X7484853Y-10284951D01*
X7469495Y-10267132D01*
X7430423Y-10241345D01*
X7388346Y-10239450D01*
X7350603Y-10258217D01*
X7324534Y-10294415D01*
X7317014Y-10334248D01*
X7177733Y-10334248D01*
X7181694Y-10297527D01*
X7206050Y-10227712D01*
X7239956Y-10178802D01*
X7301153Y-10129378D01*
X7368563Y-10104859D01*
X7437380Y-10103297D01*
X7502803Y-10122739D01*
X7502803Y-10122739D01*
G37*
X7502803Y-10122739D02*
X7560027Y-10161235D01*
X7604249Y-10216835D01*
X7630667Y-10287586D01*
X7636010Y-10339662D01*
X7635403Y-10361393D01*
X7630322Y-10378031D01*
X7616355Y-10392937D01*
X7589089Y-10409473D01*
X7544112Y-10430998D01*
X7477011Y-10460874D01*
X7476671Y-10461024D01*
X7414907Y-10489313D01*
X7364259Y-10514433D01*
X7329904Y-10533679D01*
X7317018Y-10544348D01*
X7317014Y-10544434D01*
X7328372Y-10567666D01*
X7354931Y-10593274D01*
X7385423Y-10611721D01*
X7400870Y-10615386D01*
X7443015Y-10602712D01*
X7479308Y-10570971D01*
X7497017Y-10536072D01*
X7514052Y-10510345D01*
X7547422Y-10481046D01*
X7586649Y-10455735D01*
X7621256Y-10441971D01*
X7628493Y-10441214D01*
X7636639Y-10453660D01*
X7637130Y-10485472D01*
X7631143Y-10528366D01*
X7619857Y-10574058D01*
X7604450Y-10614261D01*
X7603671Y-10615822D01*
X7557304Y-10680562D01*
X7497211Y-10724597D01*
X7428965Y-10746211D01*
X7358138Y-10743685D01*
X7290304Y-10715304D01*
X7287288Y-10713308D01*
X7233927Y-10664948D01*
X7198840Y-10601852D01*
X7179422Y-10518887D01*
X7176816Y-10495578D01*
X7172201Y-10385555D01*
X7177733Y-10334248D01*
X7317014Y-10334248D01*
X7318824Y-10366253D01*
X7328722Y-10375593D01*
X7353398Y-10368605D01*
X7392295Y-10352087D01*
X7435775Y-10331381D01*
X7436856Y-10330833D01*
X7473709Y-10311449D01*
X7488500Y-10298513D01*
X7484853Y-10284951D01*
X7469495Y-10267132D01*
X7430423Y-10241345D01*
X7388346Y-10239450D01*
X7350603Y-10258217D01*
X7324534Y-10294415D01*
X7317014Y-10334248D01*
X7177733Y-10334248D01*
X7181694Y-10297527D01*
X7206050Y-10227712D01*
X7239956Y-10178802D01*
X7301153Y-10129378D01*
X7368563Y-10104859D01*
X7437380Y-10103297D01*
X7502803Y-10122739D01*
G36*
X6375615Y-10113462D02*
G01*
X6443645Y-10149233D01*
X6493851Y-10206801D01*
X6511685Y-10243812D01*
X6525563Y-10299382D01*
X6532667Y-10369596D01*
X6533340Y-10446227D01*
X6527927Y-10521052D01*
X6516770Y-10585842D01*
X6500214Y-10632373D01*
X6495126Y-10640387D01*
X6434855Y-10700207D01*
X6363269Y-10736035D01*
X6285592Y-10746520D01*
X6207048Y-10730310D01*
X6185189Y-10720592D01*
X6142622Y-10690643D01*
X6105263Y-10650933D01*
X6101732Y-10645897D01*
X6087381Y-10621624D01*
X6077894Y-10595678D01*
X6072290Y-10561522D01*
X6069586Y-10512619D01*
X6068799Y-10442435D01*
X6068786Y-10426700D01*
X6068822Y-10421692D01*
X6213929Y-10421692D01*
X6214773Y-10487930D01*
X6218096Y-10531886D01*
X6225083Y-10560279D01*
X6236916Y-10579825D01*
X6242957Y-10586357D01*
X6277686Y-10611180D01*
X6311403Y-10610048D01*
X6345495Y-10588516D01*
X6365829Y-10565529D01*
X6377871Y-10531978D01*
X6384634Y-10479069D01*
X6385098Y-10472899D01*
X6386252Y-10377013D01*
X6374188Y-10305799D01*
X6349070Y-10259694D01*
X6311060Y-10239135D01*
X6297492Y-10238014D01*
X6261864Y-10243652D01*
X6237494Y-10263186D01*
X6222593Y-10300542D01*
X6215375Y-10359650D01*
X6213929Y-10421692D01*
X6068822Y-10421692D01*
X6069326Y-10351913D01*
X6071596Y-10299659D01*
X6076568Y-10263449D01*
X6085213Y-10236799D01*
X6098505Y-10213222D01*
X6101443Y-10208838D01*
X6150813Y-10149749D01*
X6204609Y-10115447D01*
X6270102Y-10101831D01*
X6292342Y-10101165D01*
X6375615Y-10113462D01*
X6375615Y-10113462D01*
G37*
X6375615Y-10113462D02*
X6443645Y-10149233D01*
X6493851Y-10206801D01*
X6511685Y-10243812D01*
X6525563Y-10299382D01*
X6532667Y-10369596D01*
X6533340Y-10446227D01*
X6527927Y-10521052D01*
X6516770Y-10585842D01*
X6500214Y-10632373D01*
X6495126Y-10640387D01*
X6434855Y-10700207D01*
X6363269Y-10736035D01*
X6285592Y-10746520D01*
X6207048Y-10730310D01*
X6185189Y-10720592D01*
X6142622Y-10690643D01*
X6105263Y-10650933D01*
X6101732Y-10645897D01*
X6087381Y-10621624D01*
X6077894Y-10595678D01*
X6072290Y-10561522D01*
X6069586Y-10512619D01*
X6068799Y-10442435D01*
X6068786Y-10426700D01*
X6068822Y-10421692D01*
X6213929Y-10421692D01*
X6214773Y-10487930D01*
X6218096Y-10531886D01*
X6225083Y-10560279D01*
X6236916Y-10579825D01*
X6242957Y-10586357D01*
X6277686Y-10611180D01*
X6311403Y-10610048D01*
X6345495Y-10588516D01*
X6365829Y-10565529D01*
X6377871Y-10531978D01*
X6384634Y-10479069D01*
X6385098Y-10472899D01*
X6386252Y-10377013D01*
X6374188Y-10305799D01*
X6349070Y-10259694D01*
X6311060Y-10239135D01*
X6297492Y-10238014D01*
X6261864Y-10243652D01*
X6237494Y-10263186D01*
X6222593Y-10300542D01*
X6215375Y-10359650D01*
X6213929Y-10421692D01*
X6068822Y-10421692D01*
X6069326Y-10351913D01*
X6071596Y-10299659D01*
X6076568Y-10263449D01*
X6085213Y-10236799D01*
X6098505Y-10213222D01*
X6101443Y-10208838D01*
X6150813Y-10149749D01*
X6204609Y-10115447D01*
X6270102Y-10101831D01*
X6292342Y-10101165D01*
X6375615Y-10113462D01*
G36*
X8050593Y-10119280D02*
G01*
X8097172Y-10146223D01*
X8129557Y-10172966D01*
X8153242Y-10200984D01*
X8169559Y-10235248D01*
X8179839Y-10280727D01*
X8185414Y-10342392D01*
X8187616Y-10425211D01*
X8187871Y-10484746D01*
X8187871Y-10703891D01*
X8126186Y-10731544D01*
X8064500Y-10759197D01*
X8057243Y-10519170D01*
X8054244Y-10429528D01*
X8051098Y-10364462D01*
X8047201Y-10319526D01*
X8041947Y-10290270D01*
X8034731Y-10272248D01*
X8024950Y-10261011D01*
X8021812Y-10258579D01*
X7974261Y-10239583D01*
X7926197Y-10247100D01*
X7897586Y-10267043D01*
X7885947Y-10281175D01*
X7877891Y-10299720D01*
X7872771Y-10327834D01*
X7869941Y-10370673D01*
X7868756Y-10433395D01*
X7868557Y-10498761D01*
X7868518Y-10580768D01*
X7867114Y-10638816D01*
X7862414Y-10677965D01*
X7852487Y-10703280D01*
X7835403Y-10719823D01*
X7809232Y-10732656D01*
X7774275Y-10745991D01*
X7736096Y-10760507D01*
X7740641Y-10502889D01*
X7742471Y-10410019D01*
X7744612Y-10341389D01*
X7747681Y-10292211D01*
X7752294Y-10257698D01*
X7759068Y-10233062D01*
X7768619Y-10213516D01*
X7780134Y-10196270D01*
X7835690Y-10141180D01*
X7903480Y-10109322D01*
X7977213Y-10101691D01*
X8050593Y-10119280D01*
X8050593Y-10119280D01*
G37*
X8050593Y-10119280D02*
X8097172Y-10146223D01*
X8129557Y-10172966D01*
X8153242Y-10200984D01*
X8169559Y-10235248D01*
X8179839Y-10280727D01*
X8185414Y-10342392D01*
X8187616Y-10425211D01*
X8187871Y-10484746D01*
X8187871Y-10703891D01*
X8126186Y-10731544D01*
X8064500Y-10759197D01*
X8057243Y-10519170D01*
X8054244Y-10429528D01*
X8051098Y-10364462D01*
X8047201Y-10319526D01*
X8041947Y-10290270D01*
X8034731Y-10272248D01*
X8024950Y-10261011D01*
X8021812Y-10258579D01*
X7974261Y-10239583D01*
X7926197Y-10247100D01*
X7897586Y-10267043D01*
X7885947Y-10281175D01*
X7877891Y-10299720D01*
X7872771Y-10327834D01*
X7869941Y-10370673D01*
X7868756Y-10433395D01*
X7868557Y-10498761D01*
X7868518Y-10580768D01*
X7867114Y-10638816D01*
X7862414Y-10677965D01*
X7852487Y-10703280D01*
X7835403Y-10719823D01*
X7809232Y-10732656D01*
X7774275Y-10745991D01*
X7736096Y-10760507D01*
X7740641Y-10502889D01*
X7742471Y-10410019D01*
X7744612Y-10341389D01*
X7747681Y-10292211D01*
X7752294Y-10257698D01*
X7759068Y-10233062D01*
X7768619Y-10213516D01*
X7780134Y-10196270D01*
X7835690Y-10141180D01*
X7903480Y-10109322D01*
X7977213Y-10101691D01*
X8050593Y-10119280D01*
G36*
X6934244Y-10111418D02*
G01*
X6989701Y-10139068D01*
X7038648Y-10189980D01*
X7052129Y-10208838D01*
X7066814Y-10233515D01*
X7076342Y-10260316D01*
X7081793Y-10296087D01*
X7084247Y-10347669D01*
X7084786Y-10415767D01*
X7082352Y-10509088D01*
X7073894Y-10579157D01*
X7057674Y-10631431D01*
X7031954Y-10671369D01*
X6994997Y-10704429D01*
X6992282Y-10706386D01*
X6955860Y-10726408D01*
X6912002Y-10736315D01*
X6856224Y-10738757D01*
X6765548Y-10738757D01*
X6765510Y-10826783D01*
X6764666Y-10875808D01*
X6759524Y-10904565D01*
X6746087Y-10921811D01*
X6720358Y-10936308D01*
X6714179Y-10939269D01*
X6685264Y-10953148D01*
X6662876Y-10961914D01*
X6646229Y-10962671D01*
X6634536Y-10952523D01*
X6627010Y-10928573D01*
X6622866Y-10887926D01*
X6621315Y-10827686D01*
X6621571Y-10744955D01*
X6622849Y-10636839D01*
X6623248Y-10604500D01*
X6624685Y-10493024D01*
X6625972Y-10420103D01*
X6765471Y-10420103D01*
X6766255Y-10481999D01*
X6769740Y-10522497D01*
X6777624Y-10549208D01*
X6791605Y-10569744D01*
X6801097Y-10579760D01*
X6839904Y-10609067D01*
X6874263Y-10611452D01*
X6909716Y-10587250D01*
X6910614Y-10586357D01*
X6925039Y-10567653D01*
X6933813Y-10542232D01*
X6938239Y-10503084D01*
X6939618Y-10443197D01*
X6939643Y-10429930D01*
X6936312Y-10347401D01*
X6925469Y-10290191D01*
X6905840Y-10255266D01*
X6876150Y-10239594D01*
X6858991Y-10238014D01*
X6818266Y-10245426D01*
X6790332Y-10269830D01*
X6773517Y-10314480D01*
X6766150Y-10382630D01*
X6765471Y-10420103D01*
X6625972Y-10420103D01*
X6626208Y-10406745D01*
X6628177Y-10341833D01*
X6630950Y-10294458D01*
X6634888Y-10260790D01*
X6640349Y-10236998D01*
X6647692Y-10219253D01*
X6657277Y-10203724D01*
X6661387Y-10197881D01*
X6715905Y-10142685D01*
X6784836Y-10111390D01*
X6864572Y-10102665D01*
X6934244Y-10111418D01*
X6934244Y-10111418D01*
G37*
X6934244Y-10111418D02*
X6989701Y-10139068D01*
X7038648Y-10189980D01*
X7052129Y-10208838D01*
X7066814Y-10233515D01*
X7076342Y-10260316D01*
X7081793Y-10296087D01*
X7084247Y-10347669D01*
X7084786Y-10415767D01*
X7082352Y-10509088D01*
X7073894Y-10579157D01*
X7057674Y-10631431D01*
X7031954Y-10671369D01*
X6994997Y-10704429D01*
X6992282Y-10706386D01*
X6955860Y-10726408D01*
X6912002Y-10736315D01*
X6856224Y-10738757D01*
X6765548Y-10738757D01*
X6765510Y-10826783D01*
X6764666Y-10875808D01*
X6759524Y-10904565D01*
X6746087Y-10921811D01*
X6720358Y-10936308D01*
X6714179Y-10939269D01*
X6685264Y-10953148D01*
X6662876Y-10961914D01*
X6646229Y-10962671D01*
X6634536Y-10952523D01*
X6627010Y-10928573D01*
X6622866Y-10887926D01*
X6621315Y-10827686D01*
X6621571Y-10744955D01*
X6622849Y-10636839D01*
X6623248Y-10604500D01*
X6624685Y-10493024D01*
X6625972Y-10420103D01*
X6765471Y-10420103D01*
X6766255Y-10481999D01*
X6769740Y-10522497D01*
X6777624Y-10549208D01*
X6791605Y-10569744D01*
X6801097Y-10579760D01*
X6839904Y-10609067D01*
X6874263Y-10611452D01*
X6909716Y-10587250D01*
X6910614Y-10586357D01*
X6925039Y-10567653D01*
X6933813Y-10542232D01*
X6938239Y-10503084D01*
X6939618Y-10443197D01*
X6939643Y-10429930D01*
X6936312Y-10347401D01*
X6925469Y-10290191D01*
X6905840Y-10255266D01*
X6876150Y-10239594D01*
X6858991Y-10238014D01*
X6818266Y-10245426D01*
X6790332Y-10269830D01*
X6773517Y-10314480D01*
X6766150Y-10382630D01*
X6765471Y-10420103D01*
X6625972Y-10420103D01*
X6626208Y-10406745D01*
X6628177Y-10341833D01*
X6630950Y-10294458D01*
X6634888Y-10260790D01*
X6640349Y-10236998D01*
X6647692Y-10219253D01*
X6657277Y-10203724D01*
X6661387Y-10197881D01*
X6715905Y-10142685D01*
X6784836Y-10111390D01*
X6864572Y-10102665D01*
X6934244Y-10111418D01*
D10*
X4932000Y2034500D02*
X4932000Y-2415500D01*
X11832000Y3559500D02*
X11832000Y-2415500D01*
D12*
X11577609Y1460500D02*
G75*
G03X11577609Y1460500I-401609J0D01*
G01*
X11459981Y1460500D02*
G75*
G03X11459981Y1460500I-283981J0D01*
G01*
X11355605Y1460500D02*
G75*
G03X11355605Y1460500I-179605J0D01*
G01*
X11303000Y1460500D02*
G75*
G03X11303000Y1460500I-127000J0D01*
G01*
X11521477Y1460500D02*
G75*
G03X11521477Y1460500I-345477J0D01*
G01*
X11394499Y1460500D02*
G75*
G03X11394499Y1460500I-218499J0D01*
G01*
X11247842Y1460500D02*
G75*
G03X11247842Y1460500I-71842J0D01*
G01*
X11201400Y1460500D02*
G75*
G03X11201400Y1460500I-25400J0D01*
G01*
X11180123Y1460500D02*
G75*
G03X11180123Y1460500I-4123J0D01*
G01*
X-4175500Y-29932900D02*
X-2555500Y-29932900D01*
X-4175500Y-31792900D02*
X-2555500Y-31792900D01*
X-2555500Y-31792900D02*
X-2555500Y-29932900D01*
X-4175500Y-31792900D02*
X-4175500Y-29932900D01*
X-6715500Y-29932900D02*
X-5095500Y-29932900D01*
X-6715500Y-31792900D02*
X-5095500Y-31792900D01*
X-5095500Y-31792900D02*
X-5095500Y-29932900D01*
X-6715500Y-31792900D02*
X-6715500Y-29932900D01*
X-8255500Y-30172900D02*
X-6872500Y-30172900D01*
X-8255500Y-30172900D02*
X-8255500Y-28789900D01*
X-8015500Y-19012900D02*
X-1255500Y-19012900D01*
X-8015500Y-29932900D02*
X-1255500Y-29932900D01*
X-1255500Y-29932900D02*
X-1255500Y-19012900D01*
X-8015500Y-29932900D02*
X-8015500Y-19012900D01*
X10145500Y26834000D02*
X10145500Y27284000D01*
X10145500Y26834000D02*
X9695500Y26834000D01*
X4545500Y27384000D02*
X4995500Y27384000D01*
X4545500Y29234000D02*
X4545500Y27384000D01*
X12345500Y31784000D02*
X12345500Y31534000D01*
X4545500Y31784000D02*
X4545500Y31534000D01*
X12345500Y29234000D02*
X12345500Y27384000D01*
X12345500Y27384000D02*
X11895500Y27384000D01*
D13*
X6599300Y-30895500D02*
X6599300Y-29195500D01*
X5099300Y-30895500D02*
X6599300Y-30895500D01*
X5099300Y-29195500D02*
X5099300Y-30895500D01*
X2599300Y-29195500D02*
X2599300Y-25895500D01*
X5099300Y-29195500D02*
X2599300Y-29195500D01*
X6599300Y-29195500D02*
X5099300Y-29195500D01*
X11599300Y-29195500D02*
X6599300Y-29195500D01*
X11599300Y-25895500D02*
X11599300Y-29195500D01*
X2599300Y-25895500D02*
X11599300Y-25895500D01*
D12*
X741833Y-14543500D02*
X1084367Y-14543500D01*
X741833Y-13523500D02*
X1084367Y-13523500D01*
X731733Y-12956000D02*
X1074267Y-12956000D01*
X731733Y-11936000D02*
X1074267Y-11936000D01*
X731733Y-11305000D02*
X1074267Y-11305000D01*
X731733Y-10285000D02*
X1074267Y-10285000D01*
D14*
X20804500Y-16460500D02*
X20804500Y-19000500D01*
D15*
X15097500Y-9086500D02*
X20542500Y-9086500D01*
D14*
X13684500Y-12777500D02*
X19153500Y-12777500D01*
X13684500Y-15571500D02*
X19153500Y-15571500D01*
D15*
X20542500Y-19262500D02*
G75*
G03X20804500Y-19000500I0J262000D01*
G01*
X20542500Y-19262500D02*
X15097500Y-19262500D01*
X20804500Y-9348500D02*
G75*
G03X20542500Y-9086500I-262000J0D01*
G01*
D14*
X20804500Y-9348500D02*
X20804500Y-11888500D01*
X21566500Y-9983500D02*
G75*
G02X21058500Y-9475500I0J508000D01*
G01*
X29035500Y-10491500D02*
G75*
G03X28527500Y-9983500I-508000J0D01*
G01*
X28527500Y-18365500D02*
G75*
G03X29035500Y-17857500I0J508000D01*
G01*
X21058500Y-18873500D02*
G75*
G02X21566500Y-18365500I508000J0D01*
G01*
X21566500Y-9983500D02*
X28527500Y-9983500D01*
X28527500Y-18365500D02*
X21566500Y-18365500D01*
X29035500Y-10491500D02*
X29035500Y-11126500D01*
X21566500Y-18365500D02*
X21566500Y-16333500D01*
X21566500Y-12015500D02*
X21566500Y-9983500D01*
X28527500Y-10364500D02*
X28527500Y-17984500D01*
X22201500Y-10618500D02*
X27892500Y-10618500D01*
X22201500Y-11126500D02*
X26241500Y-11126500D01*
X22201500Y-11634500D02*
X24598500Y-11634500D01*
X22201500Y-17730500D02*
X27892500Y-17730500D01*
X22201500Y-17222500D02*
X26241500Y-17222500D01*
X22201500Y-16714500D02*
X24598500Y-16714500D01*
X29035500Y-11126500D02*
X29162500Y-11126500D01*
X29035500Y-11126500D02*
X29035500Y-17222500D01*
X29162500Y-11126500D02*
X29162500Y-17222500D01*
X29162500Y-17222500D02*
X29035500Y-17222500D01*
X29035500Y-17222500D02*
X29035500Y-17857500D01*
D12*
X5427767Y11495500D02*
X5085233Y11495500D01*
X5427767Y10475500D02*
X5085233Y10475500D01*
X3427000Y1543233D02*
X3427000Y1885767D01*
X4447000Y1543233D02*
X4447000Y1885767D01*
X11110500Y5910733D02*
X11110500Y6253267D01*
X12130500Y5910733D02*
X12130500Y6253267D01*
X10543000Y5910733D02*
X10543000Y6253267D01*
X9523000Y5910733D02*
X9523000Y6253267D01*
X7935500Y5910733D02*
X7935500Y6253267D01*
X8955500Y5910733D02*
X8955500Y6253267D01*
X10578500Y16599500D02*
X10578500Y17799500D01*
X10578500Y21119500D02*
X10578500Y19919500D01*
X7122937Y21119500D02*
X10578500Y21119500D01*
X7122937Y16599500D02*
X10578500Y16599500D01*
X6058500Y17663937D02*
X6058500Y17799500D01*
X6058500Y20055063D02*
X6058500Y19919500D01*
X6058500Y20055063D02*
X7122937Y21119500D01*
X6058500Y17663937D02*
X7122937Y16599500D01*
X5318500Y20419500D02*
X5818500Y20419500D01*
X5568500Y20669500D02*
X5568500Y20169500D01*
X12253500Y1427267D02*
X12253500Y1084733D01*
X13273500Y1427267D02*
X13273500Y1084733D01*
X12253500Y-2344267D02*
X12253500Y-2001733D01*
X13273500Y-2344267D02*
X13273500Y-2001733D01*
X-8181000Y11864000D02*
X-8181000Y8114000D01*
X-8181000Y1344000D02*
X-8181000Y5094000D01*
X1274563Y1344000D02*
X-8181000Y1344000D01*
X1274563Y11864000D02*
X-8181000Y11864000D01*
X2339000Y10799563D02*
X2339000Y8114000D01*
X2339000Y2408437D02*
X2339000Y5094000D01*
X2339000Y2408437D02*
X1274563Y1344000D01*
X2339000Y10799563D02*
X1274563Y11864000D01*
X3829000Y3844000D02*
X2579000Y3844000D01*
X3204000Y3219000D02*
X3204000Y4469000D01*
X3204000Y-7766500D02*
X3204000Y-6516500D01*
X3829000Y-7141500D02*
X2579000Y-7141500D01*
X2339000Y-185937D02*
X1274563Y878500D01*
X2339000Y-8577063D02*
X1274563Y-9641500D01*
X2339000Y-8577063D02*
X2339000Y-5891500D01*
X2339000Y-185937D02*
X2339000Y-2871500D01*
X1274563Y878500D02*
X-8181000Y878500D01*
X1274563Y-9641500D02*
X-8181000Y-9641500D01*
X-8181000Y-9641500D02*
X-8181000Y-5891500D01*
X-8181000Y878500D02*
X-8181000Y-2871500D01*
X-8181000Y22849500D02*
X-8181000Y19099500D01*
X-8181000Y12329500D02*
X-8181000Y16079500D01*
X1274563Y12329500D02*
X-8181000Y12329500D01*
X1274563Y22849500D02*
X-8181000Y22849500D01*
X2339000Y21785063D02*
X2339000Y19099500D01*
X2339000Y13393937D02*
X2339000Y16079500D01*
X2339000Y13393937D02*
X1274563Y12329500D01*
X2339000Y21785063D02*
X1274563Y22849500D01*
X3829000Y14829500D02*
X2579000Y14829500D01*
X3204000Y14204500D02*
X3204000Y15454500D01*
X8669233Y24703500D02*
X9011767Y24703500D01*
X8669233Y23683500D02*
X9011767Y23683500D01*
D14*
X29035500Y-2222500D02*
X29035500Y-2857500D01*
X29162500Y-2222500D02*
X29035500Y-2222500D01*
X29162500Y3873500D02*
X29162500Y-2222500D01*
X29035500Y3873500D02*
X29035500Y-2222500D01*
X29035500Y3873500D02*
X29162500Y3873500D01*
X22201500Y-1714500D02*
X24598500Y-1714500D01*
X22201500Y-2222500D02*
X26241500Y-2222500D01*
X22201500Y-2730500D02*
X27892500Y-2730500D01*
X22201500Y3365500D02*
X24598500Y3365500D01*
X22201500Y3873500D02*
X26241500Y3873500D01*
X22201500Y4381500D02*
X27892500Y4381500D01*
X28527500Y4635500D02*
X28527500Y-2984500D01*
X21566500Y2984500D02*
X21566500Y5016500D01*
X21566500Y-3365500D02*
X21566500Y-1333500D01*
X29035500Y4508500D02*
X29035500Y3873500D01*
X28527500Y-3365500D02*
X21566500Y-3365500D01*
X21566500Y5016500D02*
X28527500Y5016500D01*
X21058500Y-3873500D02*
G75*
G02X21566500Y-3365500I508000J0D01*
G01*
X28527500Y-3365500D02*
G75*
G03X29035500Y-2857500I0J508000D01*
G01*
X29035500Y4508500D02*
G75*
G03X28527500Y5016500I-508000J0D01*
G01*
X21566500Y5016500D02*
G75*
G02X21058500Y5524500I0J508000D01*
G01*
X20804500Y5651500D02*
X20804500Y3111500D01*
D15*
X20804500Y5651500D02*
G75*
G03X20542500Y5913500I-262000J0D01*
G01*
X20542500Y-4262500D02*
X15097500Y-4262500D01*
X20542500Y-4262500D02*
G75*
G03X20804500Y-4000500I0J262000D01*
G01*
D14*
X13684500Y-571500D02*
X19153500Y-571500D01*
X13684500Y2222500D02*
X19153500Y2222500D01*
D15*
X15097500Y5913500D02*
X20542500Y5913500D01*
D14*
X20804500Y-1460500D02*
X20804500Y-4000500D01*
X20804500Y13539500D02*
X20804500Y10999500D01*
D15*
X15097500Y20913500D02*
X20542500Y20913500D01*
D14*
X13684500Y17222500D02*
X19153500Y17222500D01*
X13684500Y14428500D02*
X19153500Y14428500D01*
D15*
X20542500Y10737500D02*
G75*
G03X20804500Y10999500I0J262000D01*
G01*
X20542500Y10737500D02*
X15097500Y10737500D01*
X20804500Y20651500D02*
G75*
G03X20542500Y20913500I-262000J0D01*
G01*
D14*
X20804500Y20651500D02*
X20804500Y18111500D01*
X21566500Y20016500D02*
G75*
G02X21058500Y20524500I0J508000D01*
G01*
X29035500Y19508500D02*
G75*
G03X28527500Y20016500I-508000J0D01*
G01*
X28527500Y11634500D02*
G75*
G03X29035500Y12142500I0J508000D01*
G01*
X21058500Y11126500D02*
G75*
G02X21566500Y11634500I508000J0D01*
G01*
X21566500Y20016500D02*
X28527500Y20016500D01*
X28527500Y11634500D02*
X21566500Y11634500D01*
X29035500Y19508500D02*
X29035500Y18873500D01*
X21566500Y11634500D02*
X21566500Y13666500D01*
X21566500Y17984500D02*
X21566500Y20016500D01*
X28527500Y19635500D02*
X28527500Y12015500D01*
X22201500Y19381500D02*
X27892500Y19381500D01*
X22201500Y18873500D02*
X26241500Y18873500D01*
X22201500Y18365500D02*
X24598500Y18365500D01*
X22201500Y12269500D02*
X27892500Y12269500D01*
X22201500Y12777500D02*
X26241500Y12777500D01*
X22201500Y13285500D02*
X24598500Y13285500D01*
X29035500Y18873500D02*
X29162500Y18873500D01*
X29035500Y18873500D02*
X29035500Y12777500D01*
X29162500Y18873500D02*
X29162500Y12777500D01*
X29162500Y12777500D02*
X29035500Y12777500D01*
X29035500Y12777500D02*
X29035500Y12142500D01*
D16*
X-20281900Y19113500D02*
X-20281900Y-17462500D01*
D17*
X-9461500Y18478500D02*
G75*
G03X-10096500Y19113500I-635000J0D01*
G01*
X-10096500Y19113500D02*
X-20281900Y19113500D01*
X-20281900Y19113500D02*
X-20764500Y19113500D01*
X-20764500Y19113500D02*
X-20764500Y-17462500D01*
X-20764500Y-17462500D02*
X-20281900Y-17462500D01*
X-20281900Y-17462500D02*
X-10096500Y-17462500D01*
X-10096500Y-17462500D02*
G75*
G03X-9461500Y-16827500I0J635000D01*
G01*
X-9461500Y-16827500D02*
X-9461500Y18478500D01*
X-20891500Y11239500D02*
X-27241500Y11239500D01*
X-27876500Y10604500D02*
X-27876500Y-8953500D01*
X-27241500Y-9588500D02*
X-20891500Y-9588500D01*
X-27876500Y10604500D02*
G75*
G02X-27241500Y11239500I635000J0D01*
G01*
X-27241500Y-9588500D02*
G75*
G02X-27876500Y-8953500I0J635000D01*
G01*
D12*
X11682000Y13975233D02*
X11682000Y14317767D01*
X12702000Y13975233D02*
X12702000Y14317767D01*
X11590233Y-14031500D02*
X11932767Y-14031500D01*
X11590233Y-15051500D02*
X11932767Y-15051500D01*
X12698000Y6253267D02*
X12698000Y5910733D01*
X13718000Y6253267D02*
X13718000Y5910733D01*
X5113233Y9527000D02*
X5455767Y9527000D01*
X5113233Y8507000D02*
X5455767Y8507000D01*
X5212233Y6665500D02*
X5554767Y6665500D01*
X5212233Y7685500D02*
X5554767Y7685500D01*
X5240233Y5078000D02*
X5582767Y5078000D01*
X5240233Y6098000D02*
X5582767Y6098000D01*
X3427000Y-1493733D02*
X3427000Y-1836267D01*
X4447000Y-1493733D02*
X4447000Y-1836267D01*
D10*
X7643880Y-888904D02*
X8453404Y-888904D01*
X8548642Y-841285D01*
X8596261Y-793666D01*
X8643880Y-698428D01*
X8643880Y-507952D01*
X8596261Y-412714D01*
X8548642Y-365095D01*
X8453404Y-317476D01*
X7643880Y-317476D01*
X8643880Y682524D02*
X8643880Y111096D01*
X8643880Y396810D02*
X7643880Y396810D01*
X7786738Y301572D01*
X7881976Y206334D01*
X7929595Y111096D01*
X-5841834Y-24306161D02*
X-5698977Y-24353780D01*
X-5460881Y-24353780D01*
X-5365643Y-24306161D01*
X-5318024Y-24258542D01*
X-5270405Y-24163304D01*
X-5270405Y-24068066D01*
X-5318024Y-23972828D01*
X-5365643Y-23925209D01*
X-5460881Y-23877590D01*
X-5651358Y-23829971D01*
X-5746596Y-23782352D01*
X-5794215Y-23734733D01*
X-5841834Y-23639495D01*
X-5841834Y-23544257D01*
X-5794215Y-23449019D01*
X-5746596Y-23401400D01*
X-5651358Y-23353780D01*
X-5413262Y-23353780D01*
X-5270405Y-23401400D01*
X-4937072Y-23353780D02*
X-4698977Y-24353780D01*
X-4508500Y-23639495D01*
X-4318024Y-24353780D01*
X-4079929Y-23353780D01*
X-3175167Y-24353780D02*
X-3746596Y-24353780D01*
X-3460881Y-24353780D02*
X-3460881Y-23353780D01*
X-3556120Y-23496638D01*
X-3651358Y-23591876D01*
X-3746596Y-23639495D01*
X8112166Y26581620D02*
X8112166Y25867334D01*
X8064547Y25724477D01*
X7969309Y25629239D01*
X7826452Y25581620D01*
X7731214Y25581620D01*
X9016928Y26248286D02*
X9016928Y25581620D01*
X8778833Y26629239D02*
X8540738Y25914953D01*
X9159785Y25914953D01*
X5278966Y-28136547D02*
X5460395Y-28197023D01*
X5762776Y-28197023D01*
X5883728Y-28136547D01*
X5944204Y-28076071D01*
X6004680Y-27955119D01*
X6004680Y-27834166D01*
X5944204Y-27713214D01*
X5883728Y-27652738D01*
X5762776Y-27592261D01*
X5520871Y-27531785D01*
X5399919Y-27471309D01*
X5339442Y-27410833D01*
X5278966Y-27289880D01*
X5278966Y-27168928D01*
X5339442Y-27047976D01*
X5399919Y-26987500D01*
X5520871Y-26927023D01*
X5823252Y-26927023D01*
X6004680Y-26987500D01*
X6428014Y-26927023D02*
X6730395Y-28197023D01*
X6972300Y-27289880D01*
X7214204Y-28197023D01*
X7516585Y-26927023D01*
X7939919Y-27047976D02*
X8000395Y-26987500D01*
X8121347Y-26927023D01*
X8423728Y-26927023D01*
X8544680Y-26987500D01*
X8605157Y-27047976D01*
X8665633Y-27168928D01*
X8665633Y-27289880D01*
X8605157Y-27471309D01*
X7879442Y-28197023D01*
X8665633Y-28197023D01*
D18*
X3562042Y-14432038D02*
X3240309Y-13972419D01*
X3010499Y-14432038D02*
X3010499Y-13466838D01*
X3378195Y-13466838D01*
X3470118Y-13512800D01*
X3516080Y-13558761D01*
X3562042Y-13650685D01*
X3562042Y-13788571D01*
X3516080Y-13880495D01*
X3470118Y-13926457D01*
X3378195Y-13972419D01*
X3010499Y-13972419D01*
X4481280Y-14432038D02*
X3929738Y-14432038D01*
X4205509Y-14432038D02*
X4205509Y-13466838D01*
X4113585Y-13604723D01*
X4021661Y-13696647D01*
X3929738Y-13742609D01*
X4848976Y-13558761D02*
X4894938Y-13512800D01*
X4986861Y-13466838D01*
X5216671Y-13466838D01*
X5308595Y-13512800D01*
X5354557Y-13558761D01*
X5400518Y-13650685D01*
X5400518Y-13742609D01*
X5354557Y-13880495D01*
X4803014Y-14432038D01*
X5400518Y-14432038D01*
X3625542Y-12781038D02*
X3303809Y-12321419D01*
X3073999Y-12781038D02*
X3073999Y-11815838D01*
X3441695Y-11815838D01*
X3533618Y-11861800D01*
X3579580Y-11907761D01*
X3625542Y-11999685D01*
X3625542Y-12137571D01*
X3579580Y-12229495D01*
X3533618Y-12275457D01*
X3441695Y-12321419D01*
X3073999Y-12321419D01*
X4544780Y-12781038D02*
X3993238Y-12781038D01*
X4269009Y-12781038D02*
X4269009Y-11815838D01*
X4177085Y-11953723D01*
X4085161Y-12045647D01*
X3993238Y-12091609D01*
X5464018Y-12781038D02*
X4912476Y-12781038D01*
X5188247Y-12781038D02*
X5188247Y-11815838D01*
X5096323Y-11953723D01*
X5004399Y-12045647D01*
X4912476Y-12091609D01*
X3625542Y-11320538D02*
X3303809Y-10860919D01*
X3073999Y-11320538D02*
X3073999Y-10355338D01*
X3441695Y-10355338D01*
X3533618Y-10401300D01*
X3579580Y-10447261D01*
X3625542Y-10539185D01*
X3625542Y-10677071D01*
X3579580Y-10768995D01*
X3533618Y-10814957D01*
X3441695Y-10860919D01*
X3073999Y-10860919D01*
X4544780Y-11320538D02*
X3993238Y-11320538D01*
X4269009Y-11320538D02*
X4269009Y-10355338D01*
X4177085Y-10493223D01*
X4085161Y-10585147D01*
X3993238Y-10631109D01*
X5142285Y-10355338D02*
X5234209Y-10355338D01*
X5326133Y-10401300D01*
X5372095Y-10447261D01*
X5418057Y-10539185D01*
X5464018Y-10723033D01*
X5464018Y-10952842D01*
X5418057Y-11136690D01*
X5372095Y-11228614D01*
X5326133Y-11274576D01*
X5234209Y-11320538D01*
X5142285Y-11320538D01*
X5050361Y-11274576D01*
X5004399Y-11228614D01*
X4958438Y-11136690D01*
X4912476Y-10952842D01*
X4912476Y-10723033D01*
X4958438Y-10539185D01*
X5004399Y-10447261D01*
X5050361Y-10401300D01*
X5142285Y-10355338D01*
D13*
X18621526Y-10547047D02*
X18621526Y-11408833D01*
X18564073Y-11581190D01*
X18449169Y-11696095D01*
X18276811Y-11753547D01*
X18161907Y-11753547D01*
X19828026Y-11753547D02*
X19138597Y-11753547D01*
X19483311Y-11753547D02*
X19483311Y-10547047D01*
X19368407Y-10719404D01*
X19253502Y-10834309D01*
X19138597Y-10891761D01*
D10*
X5103833Y11930120D02*
X4770500Y12406310D01*
X4532404Y11930120D02*
X4532404Y12930120D01*
X4913357Y12930120D01*
X5008595Y12882500D01*
X5056214Y12834881D01*
X5103833Y12739643D01*
X5103833Y12596786D01*
X5056214Y12501548D01*
X5008595Y12453929D01*
X4913357Y12406310D01*
X4532404Y12406310D01*
X5580023Y11930120D02*
X5770500Y11930120D01*
X5865738Y11977739D01*
X5913357Y12025358D01*
X6008595Y12168215D01*
X6056214Y12358691D01*
X6056214Y12739643D01*
X6008595Y12834881D01*
X5960976Y12882500D01*
X5865738Y12930120D01*
X5675261Y12930120D01*
X5580023Y12882500D01*
X5532404Y12834881D01*
X5484785Y12739643D01*
X5484785Y12501548D01*
X5532404Y12406310D01*
X5580023Y12358691D01*
X5675261Y12311072D01*
X5865738Y12311072D01*
X5960976Y12358691D01*
X6008595Y12406310D01*
X6056214Y12501548D01*
X3055880Y990334D02*
X2579690Y657000D01*
X3055880Y418905D02*
X2055880Y418905D01*
X2055880Y799858D01*
X2103500Y895096D01*
X2151119Y942715D01*
X2246357Y990334D01*
X2389214Y990334D01*
X2484452Y942715D01*
X2532071Y895096D01*
X2579690Y799858D01*
X2579690Y418905D01*
X2055880Y1323667D02*
X2055880Y1990334D01*
X3055880Y1561762D01*
D19*
X11914142Y8532834D02*
X11961761Y8485215D01*
X12009380Y8342358D01*
X12009380Y8247120D01*
X11961761Y8104262D01*
X11866523Y8009024D01*
X11771285Y7961405D01*
X11580809Y7913786D01*
X11437952Y7913786D01*
X11247476Y7961405D01*
X11152238Y8009024D01*
X11057000Y8104262D01*
X11009380Y8247120D01*
X11009380Y8342358D01*
X11057000Y8485215D01*
X11104619Y8532834D01*
X12009380Y9485215D02*
X12009380Y8913786D01*
X12009380Y9199500D02*
X11009380Y9199500D01*
X11152238Y9104262D01*
X11247476Y9009024D01*
X11295095Y8913786D01*
X10390142Y8532834D02*
X10437761Y8485215D01*
X10485380Y8342358D01*
X10485380Y8247120D01*
X10437761Y8104262D01*
X10342523Y8009024D01*
X10247285Y7961405D01*
X10056809Y7913786D01*
X9913952Y7913786D01*
X9723476Y7961405D01*
X9628238Y8009024D01*
X9533000Y8104262D01*
X9485380Y8247120D01*
X9485380Y8342358D01*
X9533000Y8485215D01*
X9580619Y8532834D01*
X9580619Y8913786D02*
X9533000Y8961405D01*
X9485380Y9056643D01*
X9485380Y9294739D01*
X9533000Y9389977D01*
X9580619Y9437596D01*
X9675857Y9485215D01*
X9771095Y9485215D01*
X9913952Y9437596D01*
X10485380Y8866167D01*
X10485380Y9485215D01*
X8802642Y8532834D02*
X8850261Y8485215D01*
X8897880Y8342358D01*
X8897880Y8247120D01*
X8850261Y8104262D01*
X8755023Y8009024D01*
X8659785Y7961405D01*
X8469309Y7913786D01*
X8326452Y7913786D01*
X8135976Y7961405D01*
X8040738Y8009024D01*
X7945500Y8104262D01*
X7897880Y8247120D01*
X7897880Y8342358D01*
X7945500Y8485215D01*
X7993119Y8532834D01*
X7897880Y8866167D02*
X7897880Y9485215D01*
X8278833Y9151881D01*
X8278833Y9294739D01*
X8326452Y9389977D01*
X8374071Y9437596D01*
X8469309Y9485215D01*
X8707404Y9485215D01*
X8802642Y9437596D01*
X8850261Y9389977D01*
X8897880Y9294739D01*
X8897880Y9009024D01*
X8850261Y8913786D01*
X8802642Y8866167D01*
D10*
X8002833Y20026358D02*
X7955214Y19978739D01*
X7812357Y19931120D01*
X7717119Y19931120D01*
X7574261Y19978739D01*
X7479023Y20073977D01*
X7431404Y20169215D01*
X7383785Y20359691D01*
X7383785Y20502548D01*
X7431404Y20693024D01*
X7479023Y20788262D01*
X7574261Y20883500D01*
X7717119Y20931120D01*
X7812357Y20931120D01*
X7955214Y20883500D01*
X8002833Y20835881D01*
X8859976Y20597786D02*
X8859976Y19931120D01*
X8621880Y20978739D02*
X8383785Y20264453D01*
X9002833Y20264453D01*
X14454142Y-2262166D02*
X14501761Y-2309785D01*
X14549380Y-2452642D01*
X14549380Y-2547880D01*
X14501761Y-2690738D01*
X14406523Y-2785976D01*
X14311285Y-2833595D01*
X14120809Y-2881214D01*
X13977952Y-2881214D01*
X13787476Y-2833595D01*
X13692238Y-2785976D01*
X13597000Y-2690738D01*
X13549380Y-2547880D01*
X13549380Y-2452642D01*
X13597000Y-2309785D01*
X13644619Y-2262166D01*
X13549380Y-1357404D02*
X13549380Y-1833595D01*
X14025571Y-1881214D01*
X13977952Y-1833595D01*
X13930333Y-1738357D01*
X13930333Y-1500261D01*
X13977952Y-1405023D01*
X14025571Y-1357404D01*
X14120809Y-1309785D01*
X14358904Y-1309785D01*
X14454142Y-1357404D01*
X14501761Y-1405023D01*
X14549380Y-1500261D01*
X14549380Y-1738357D01*
X14501761Y-1833595D01*
X14454142Y-1881214D01*
X14454142Y849334D02*
X14501761Y801715D01*
X14549380Y658858D01*
X14549380Y563620D01*
X14501761Y420762D01*
X14406523Y325524D01*
X14311285Y277905D01*
X14120809Y230286D01*
X13977952Y230286D01*
X13787476Y277905D01*
X13692238Y325524D01*
X13597000Y420762D01*
X13549380Y563620D01*
X13549380Y658858D01*
X13597000Y801715D01*
X13644619Y849334D01*
X13549380Y1706477D02*
X13549380Y1516000D01*
X13597000Y1420762D01*
X13644619Y1373143D01*
X13787476Y1277905D01*
X13977952Y1230286D01*
X14358904Y1230286D01*
X14454142Y1277905D01*
X14501761Y1325524D01*
X14549380Y1420762D01*
X14549380Y1611239D01*
X14501761Y1706477D01*
X14454142Y1754096D01*
X14358904Y1801715D01*
X14120809Y1801715D01*
X14025571Y1754096D01*
X13977952Y1706477D01*
X13930333Y1611239D01*
X13930333Y1420762D01*
X13977952Y1325524D01*
X14025571Y1277905D01*
X14120809Y1230286D01*
X-3087667Y6246858D02*
X-3135286Y6199239D01*
X-3278143Y6151620D01*
X-3373381Y6151620D01*
X-3516239Y6199239D01*
X-3611477Y6294477D01*
X-3659096Y6389715D01*
X-3706715Y6580191D01*
X-3706715Y6723048D01*
X-3659096Y6913524D01*
X-3611477Y7008762D01*
X-3516239Y7104000D01*
X-3373381Y7151620D01*
X-3278143Y7151620D01*
X-3135286Y7104000D01*
X-3087667Y7056381D01*
X-2754334Y7151620D02*
X-2087667Y7151620D01*
X-2516239Y6151620D01*
X-3087667Y-4738642D02*
X-3135286Y-4786261D01*
X-3278143Y-4833880D01*
X-3373381Y-4833880D01*
X-3516239Y-4786261D01*
X-3611477Y-4691023D01*
X-3659096Y-4595785D01*
X-3706715Y-4405309D01*
X-3706715Y-4262452D01*
X-3659096Y-4071976D01*
X-3611477Y-3976738D01*
X-3516239Y-3881500D01*
X-3373381Y-3833880D01*
X-3278143Y-3833880D01*
X-3135286Y-3881500D01*
X-3087667Y-3929119D01*
X-2516239Y-4262452D02*
X-2611477Y-4214833D01*
X-2659096Y-4167214D01*
X-2706715Y-4071976D01*
X-2706715Y-4024357D01*
X-2659096Y-3929119D01*
X-2611477Y-3881500D01*
X-2516239Y-3833880D01*
X-2325762Y-3833880D01*
X-2230524Y-3881500D01*
X-2182905Y-3929119D01*
X-2135286Y-4024357D01*
X-2135286Y-4071976D01*
X-2182905Y-4167214D01*
X-2230524Y-4214833D01*
X-2325762Y-4262452D01*
X-2516239Y-4262452D01*
X-2611477Y-4310071D01*
X-2659096Y-4357690D01*
X-2706715Y-4452928D01*
X-2706715Y-4643404D01*
X-2659096Y-4738642D01*
X-2611477Y-4786261D01*
X-2516239Y-4833880D01*
X-2325762Y-4833880D01*
X-2230524Y-4786261D01*
X-2182905Y-4738642D01*
X-2135286Y-4643404D01*
X-2135286Y-4452928D01*
X-2182905Y-4357690D01*
X-2230524Y-4310071D01*
X-2325762Y-4262452D01*
X-3087667Y17232358D02*
X-3135286Y17184739D01*
X-3278143Y17137120D01*
X-3373381Y17137120D01*
X-3516239Y17184739D01*
X-3611477Y17279977D01*
X-3659096Y17375215D01*
X-3706715Y17565691D01*
X-3706715Y17708548D01*
X-3659096Y17899024D01*
X-3611477Y17994262D01*
X-3516239Y18089500D01*
X-3373381Y18137120D01*
X-3278143Y18137120D01*
X-3135286Y18089500D01*
X-3087667Y18041881D01*
X-2611477Y17137120D02*
X-2421000Y17137120D01*
X-2325762Y17184739D01*
X-2278143Y17232358D01*
X-2182905Y17375215D01*
X-2135286Y17565691D01*
X-2135286Y17946643D01*
X-2182905Y18041881D01*
X-2230524Y18089500D01*
X-2325762Y18137120D01*
X-2516239Y18137120D01*
X-2611477Y18089500D01*
X-2659096Y18041881D01*
X-2706715Y17946643D01*
X-2706715Y17708548D01*
X-2659096Y17613310D01*
X-2611477Y17565691D01*
X-2516239Y17518072D01*
X-2325762Y17518072D01*
X-2230524Y17565691D01*
X-2182905Y17613310D01*
X-2135286Y17708548D01*
X5116166Y24344929D02*
X4782833Y24344929D01*
X4782833Y23821120D02*
X4782833Y24821120D01*
X5259023Y24821120D01*
X5973309Y24344929D02*
X6116166Y24297310D01*
X6163785Y24249691D01*
X6211404Y24154453D01*
X6211404Y24011596D01*
X6163785Y23916358D01*
X6116166Y23868739D01*
X6020928Y23821120D01*
X5639976Y23821120D01*
X5639976Y24821120D01*
X5973309Y24821120D01*
X6068547Y24773500D01*
X6116166Y24725881D01*
X6163785Y24630643D01*
X6163785Y24535405D01*
X6116166Y24440167D01*
X6068547Y24392548D01*
X5973309Y24344929D01*
X5639976Y24344929D01*
X7163785Y23821120D02*
X6592357Y23821120D01*
X6878071Y23821120D02*
X6878071Y24821120D01*
X6782833Y24678262D01*
X6687595Y24583024D01*
X6592357Y24535405D01*
D13*
X18558026Y4311953D02*
X18558026Y3450167D01*
X18500573Y3277810D01*
X18385669Y3162905D01*
X18213311Y3105453D01*
X18098407Y3105453D01*
X19075097Y4197048D02*
X19132550Y4254500D01*
X19247454Y4311953D01*
X19534716Y4311953D01*
X19649621Y4254500D01*
X19707073Y4197048D01*
X19764526Y4082143D01*
X19764526Y3967239D01*
X19707073Y3794881D01*
X19017645Y3105453D01*
X19764526Y3105453D01*
X18685026Y19424953D02*
X18685026Y18563167D01*
X18627573Y18390810D01*
X18512669Y18275905D01*
X18340311Y18218453D01*
X18225407Y18218453D01*
X19144645Y19424953D02*
X19891526Y19424953D01*
X19489359Y18965334D01*
X19661716Y18965334D01*
X19776621Y18907881D01*
X19834073Y18850429D01*
X19891526Y18735524D01*
X19891526Y18448262D01*
X19834073Y18333358D01*
X19776621Y18275905D01*
X19661716Y18218453D01*
X19317002Y18218453D01*
X19202097Y18275905D01*
X19144645Y18333358D01*
D18*
X-18270462Y-373738D02*
X-17581034Y-373738D01*
X-17443148Y-419699D01*
X-17351224Y-511623D01*
X-17305262Y-649509D01*
X-17305262Y-741433D01*
X-18270462Y545501D02*
X-18270462Y85882D01*
X-17810843Y39920D01*
X-17856805Y85882D01*
X-17902767Y177805D01*
X-17902767Y407615D01*
X-17856805Y499539D01*
X-17810843Y545501D01*
X-17718920Y591462D01*
X-17489110Y591462D01*
X-17397186Y545501D01*
X-17351224Y499539D01*
X-17305262Y407615D01*
X-17305262Y177805D01*
X-17351224Y85882D01*
X-17397186Y39920D01*
D10*
X14104880Y12850834D02*
X13628690Y12517500D01*
X14104880Y12279405D02*
X13104880Y12279405D01*
X13104880Y12660358D01*
X13152500Y12755596D01*
X13200119Y12803215D01*
X13295357Y12850834D01*
X13438214Y12850834D01*
X13533452Y12803215D01*
X13581071Y12755596D01*
X13628690Y12660358D01*
X13628690Y12279405D01*
X14104880Y13803215D02*
X14104880Y13231786D01*
X14104880Y13517500D02*
X13104880Y13517500D01*
X13247738Y13422262D01*
X13342976Y13327024D01*
X13390595Y13231786D01*
X11580833Y-13596880D02*
X11247500Y-13120690D01*
X11009404Y-13596880D02*
X11009404Y-12596880D01*
X11390357Y-12596880D01*
X11485595Y-12644500D01*
X11533214Y-12692119D01*
X11580833Y-12787357D01*
X11580833Y-12930214D01*
X11533214Y-13025452D01*
X11485595Y-13073071D01*
X11390357Y-13120690D01*
X11009404Y-13120690D01*
X11961785Y-12692119D02*
X12009404Y-12644500D01*
X12104642Y-12596880D01*
X12342738Y-12596880D01*
X12437976Y-12644500D01*
X12485595Y-12692119D01*
X12533214Y-12787357D01*
X12533214Y-12882595D01*
X12485595Y-13025452D01*
X11914166Y-13596880D01*
X12533214Y-13596880D01*
X13723880Y8532834D02*
X13247690Y8199500D01*
X13723880Y7961405D02*
X12723880Y7961405D01*
X12723880Y8342358D01*
X12771500Y8437596D01*
X12819119Y8485215D01*
X12914357Y8532834D01*
X13057214Y8532834D01*
X13152452Y8485215D01*
X13200071Y8437596D01*
X13247690Y8342358D01*
X13247690Y7961405D01*
X12723880Y8866167D02*
X12723880Y9485215D01*
X13104833Y9151881D01*
X13104833Y9294739D01*
X13152452Y9389977D01*
X13200071Y9437596D01*
X13295309Y9485215D01*
X13533404Y9485215D01*
X13628642Y9437596D01*
X13676261Y9389977D01*
X13723880Y9294739D01*
X13723880Y9009024D01*
X13676261Y8913786D01*
X13628642Y8866167D01*
D19*
X3563880Y8913834D02*
X3087690Y8580500D01*
X3563880Y8342405D02*
X2563880Y8342405D01*
X2563880Y8723358D01*
X2611500Y8818596D01*
X2659119Y8866215D01*
X2754357Y8913834D01*
X2897214Y8913834D01*
X2992452Y8866215D01*
X3040071Y8818596D01*
X3087690Y8723358D01*
X3087690Y8342405D01*
X2897214Y9770977D02*
X3563880Y9770977D01*
X2516261Y9532881D02*
X3230547Y9294786D01*
X3230547Y9913834D01*
X8405833Y9898120D02*
X8072500Y10374310D01*
X7834404Y9898120D02*
X7834404Y10898120D01*
X8215357Y10898120D01*
X8310595Y10850500D01*
X8358214Y10802881D01*
X8405833Y10707643D01*
X8405833Y10564786D01*
X8358214Y10469548D01*
X8310595Y10421929D01*
X8215357Y10374310D01*
X7834404Y10374310D01*
X9310595Y10898120D02*
X8834404Y10898120D01*
X8786785Y10421929D01*
X8834404Y10469548D01*
X8929642Y10517167D01*
X9167738Y10517167D01*
X9262976Y10469548D01*
X9310595Y10421929D01*
X9358214Y10326691D01*
X9358214Y10088596D01*
X9310595Y9993358D01*
X9262976Y9945739D01*
X9167738Y9898120D01*
X8929642Y9898120D01*
X8834404Y9945739D01*
X8786785Y9993358D01*
D10*
X5264166Y3956096D02*
X4997500Y4337048D01*
X4807023Y3956096D02*
X4807023Y4756096D01*
X5111785Y4756096D01*
X5187976Y4718000D01*
X5226071Y4679905D01*
X5264166Y4603715D01*
X5264166Y4489429D01*
X5226071Y4413239D01*
X5187976Y4375143D01*
X5111785Y4337048D01*
X4807023Y4337048D01*
X5949880Y4756096D02*
X5797500Y4756096D01*
X5721309Y4718000D01*
X5683214Y4679905D01*
X5607023Y4565620D01*
X5568928Y4413239D01*
X5568928Y4108477D01*
X5607023Y4032286D01*
X5645119Y3994191D01*
X5721309Y3956096D01*
X5873690Y3956096D01*
X5949880Y3994191D01*
X5987976Y4032286D01*
X6026071Y4108477D01*
X6026071Y4298953D01*
X5987976Y4375143D01*
X5949880Y4413239D01*
X5873690Y4451334D01*
X5721309Y4451334D01*
X5645119Y4413239D01*
X5607023Y4375143D01*
X5568928Y4298953D01*
X4579880Y-4449166D02*
X4103690Y-4782500D01*
X4579880Y-5020595D02*
X3579880Y-5020595D01*
X3579880Y-4639642D01*
X3627500Y-4544404D01*
X3675119Y-4496785D01*
X3770357Y-4449166D01*
X3913214Y-4449166D01*
X4008452Y-4496785D01*
X4056071Y-4544404D01*
X4103690Y-4639642D01*
X4103690Y-5020595D01*
X4008452Y-3877738D02*
X3960833Y-3972976D01*
X3913214Y-4020595D01*
X3817976Y-4068214D01*
X3770357Y-4068214D01*
X3675119Y-4020595D01*
X3627500Y-3972976D01*
X3579880Y-3877738D01*
X3579880Y-3687261D01*
X3627500Y-3592023D01*
X3675119Y-3544404D01*
X3770357Y-3496785D01*
X3817976Y-3496785D01*
X3913214Y-3544404D01*
X3960833Y-3592023D01*
X4008452Y-3687261D01*
X4008452Y-3877738D01*
X4056071Y-3972976D01*
X4103690Y-4020595D01*
X4198928Y-4068214D01*
X4389404Y-4068214D01*
X4484642Y-4020595D01*
X4532261Y-3972976D01*
X4579880Y-3877738D01*
X4579880Y-3687261D01*
X4532261Y-3592023D01*
X4484642Y-3544404D01*
X4389404Y-3496785D01*
X4198928Y-3496785D01*
X4103690Y-3544404D01*
X4056071Y-3592023D01*
X4008452Y-3687261D01*
M02*
