G04 #@! TF.GenerationSoftware,KiCad,Pcbnew,(5.1.0)-1*
G04 #@! TF.CreationDate,2019-06-17T14:55:02-04:00*
G04 #@! TF.ProjectId,comp2dvi2,636f6d70-3264-4766-9932-2e6b69636164,rev?*
G04 #@! TF.SameCoordinates,PX528a7e4PY5879c7c*
G04 #@! TF.FileFunction,Copper,L2,Bot*
G04 #@! TF.FilePolarity,Positive*
%FSLAX46Y46*%
G04 Gerber Fmt 4.6, Leading zero omitted, Abs format (unit mm)*
G04 Created by KiCad (PCBNEW (5.1.0)-1) date 2019-06-17 14:55:02*
%MOMM*%
%LPD*%
G04 APERTURE LIST*
%ADD10C,6.400000*%
%ADD11C,0.800000*%
%ADD12O,1.600000X1.600000*%
%ADD13R,1.600000X1.600000*%
%ADD14O,1.200000X1.900000*%
%ADD15C,1.450000*%
%ADD16C,1.408000*%
%ADD17C,2.550000*%
%ADD18C,3.616000*%
%ADD19C,1.397000*%
%ADD20C,1.270000*%
%ADD21C,2.895600*%
%ADD22C,0.250000*%
%ADD23C,0.254000*%
G04 APERTURE END LIST*
D10*
X-16391500Y-25674500D03*
D11*
X-13991500Y-25674500D03*
X-14694444Y-27371556D03*
X-16391500Y-28074500D03*
X-18088556Y-27371556D03*
X-18791500Y-25674500D03*
X-18088556Y-23977444D03*
X-16391500Y-23274500D03*
X-14694444Y-23977444D03*
X-14694444Y29022556D03*
X-16391500Y29725500D03*
X-18088556Y29022556D03*
X-18791500Y27325500D03*
X-18088556Y25628444D03*
X-16391500Y24925500D03*
X-14694444Y25628444D03*
X-13991500Y27325500D03*
D10*
X-16391500Y27325500D03*
X18677500Y27325500D03*
D11*
X21077500Y27325500D03*
X20374556Y25628444D03*
X18677500Y24925500D03*
X16980444Y25628444D03*
X16277500Y27325500D03*
X16980444Y29022556D03*
X18677500Y29725500D03*
X20374556Y29022556D03*
X20374556Y-23977444D03*
X18677500Y-23274500D03*
X16980444Y-23977444D03*
X16277500Y-25674500D03*
X16980444Y-27371556D03*
X18677500Y-28074500D03*
X20374556Y-27371556D03*
X21077500Y-25674500D03*
D10*
X18677500Y-25674500D03*
D12*
X-5905500Y-20662900D03*
X-3365500Y-28282900D03*
X-3365500Y-20662900D03*
D13*
X-5905500Y-28282900D03*
D14*
X4945500Y30384000D03*
X11945500Y30384000D03*
D15*
X5945500Y27684000D03*
X10945500Y27684000D03*
D16*
X4599300Y-25895500D03*
X7099300Y-25895500D03*
X9599300Y-25895500D03*
X9599300Y-29195500D03*
X7099300Y-29195500D03*
X4599300Y-29195500D03*
D17*
X16184500Y-14174500D03*
D18*
X16184500Y-19262500D03*
X16184500Y-9086500D03*
X20804500Y-14174500D03*
X20804500Y825500D03*
X16184500Y5913500D03*
X16184500Y-4262500D03*
D17*
X16184500Y825500D03*
X16184500Y15825500D03*
D18*
X16184500Y10737500D03*
X16184500Y20913500D03*
X20804500Y15825500D03*
D19*
X-11239500Y10350500D03*
X-11239500Y8445500D03*
X-11239500Y6540500D03*
X-11239500Y4635500D03*
X-11239500Y2730500D03*
X-11239500Y825500D03*
X-11239500Y-1079500D03*
X-11239500Y-2984500D03*
X-13144500Y10350500D03*
X-13144500Y8445500D03*
X-13144500Y6540500D03*
X-13144500Y4635500D03*
X-13144500Y2730500D03*
X-13144500Y825500D03*
X-13144500Y-1079500D03*
X-13144500Y-2984500D03*
X-15049500Y10350500D03*
X-15049500Y8445500D03*
X-15049500Y6540500D03*
X-15049500Y4635500D03*
X-15049500Y2730500D03*
X-15049500Y825500D03*
X-15049500Y-1079500D03*
X-15049500Y-2984500D03*
D20*
X-11874500Y-6159500D03*
X-11874500Y-8699500D03*
X-14414500Y-6159500D03*
X-14414500Y-8699500D03*
X-15684500Y-7429500D03*
X-10604500Y-7429500D03*
D21*
X-15049500Y16192500D03*
X-15049500Y-14541500D03*
D11*
X7683500Y9207500D03*
X12446000Y3810000D03*
X9969500Y8318500D03*
X6731000Y825500D03*
X7488426Y7955226D03*
X4699000Y4254500D03*
X8953500Y-698500D03*
X5651500Y-698500D03*
X2222500Y2984500D03*
X5905500Y-9461500D03*
X6921500Y-5143500D03*
X-4635500Y-23812500D03*
X825500Y-26733500D03*
X5016500Y-7048500D03*
X3365500Y-10731500D03*
X8277570Y-1534382D03*
X9969500Y825500D03*
X9969500Y825500D03*
X3365500Y-12509500D03*
X6096000Y-6667500D03*
X3111500Y10985500D03*
D22*
X10153502Y9207500D02*
X8249185Y9207500D01*
X12446000Y6915002D02*
X10153502Y9207500D01*
X8249185Y9207500D02*
X7683500Y9207500D01*
X12446000Y3810000D02*
X12446000Y6915002D01*
X11720999Y6567001D02*
X9969500Y8318500D01*
X16184500Y-14174500D02*
X11720999Y-9710999D01*
X11720999Y-9710999D02*
X11720999Y6567001D01*
X6731000Y825500D02*
X6731000Y7197800D01*
X6731000Y7197800D02*
X7088427Y7555227D01*
X7088427Y7555227D02*
X7488426Y7955226D01*
X9599300Y-28199894D02*
X9599300Y-25895500D01*
X9599300Y-29195500D02*
X9599300Y-28199894D01*
X-4774130Y-20662900D02*
X-3365500Y-20662900D01*
X-5905500Y-20662900D02*
X-4774130Y-20662900D01*
X8895301Y-25191501D02*
X9599300Y-25895500D01*
X8100500Y-24396700D02*
X8895301Y-25191501D01*
X1499670Y-24396700D02*
X8100500Y-24396700D01*
X-3365500Y-20662900D02*
X-2234130Y-20662900D01*
X-2234130Y-20662900D02*
X1499670Y-24396700D01*
X7181998Y-698500D02*
X8387815Y-698500D01*
X4699000Y4254500D02*
X4699000Y1784498D01*
X8387815Y-698500D02*
X8953500Y-698500D01*
X4699000Y1784498D02*
X7181998Y-698500D01*
X10985500Y3111500D02*
X9207500Y4889500D01*
X10858500Y-63500D02*
X10985500Y63500D01*
X10858500Y-952500D02*
X10858500Y-63500D01*
X10985500Y-317500D02*
X10985500Y63500D01*
X10985500Y63500D02*
X10985500Y3111500D01*
X16184500Y20913500D02*
X20488500Y20913500D01*
X20804500Y15825500D02*
X18238500Y15825500D01*
X18238500Y18859500D02*
X16184500Y20913500D01*
X18238500Y15825500D02*
X18238500Y18859500D01*
X20804500Y13268602D02*
X20764500Y13228602D01*
X20804500Y15825500D02*
X20804500Y13268602D01*
X20764500Y13228602D02*
X20764500Y11366500D01*
X20135500Y10737500D02*
X16184500Y10737500D01*
X20764500Y11366500D02*
X20135500Y10737500D01*
X16184500Y23470398D02*
X16184500Y20913500D01*
X16184500Y23759498D02*
X16184500Y23470398D01*
X18677500Y26252498D02*
X16184500Y23759498D01*
X18677500Y27325500D02*
X18677500Y26252498D01*
X19402501Y26600499D02*
X18677500Y27325500D01*
X16184500Y20913500D02*
X19402501Y24131501D01*
X19402501Y24131501D02*
X19402501Y26600499D01*
X17952499Y26600499D02*
X18677500Y27325500D01*
X13054305Y26600499D02*
X17952499Y26600499D01*
X11970804Y27684000D02*
X13054305Y26600499D01*
X10945500Y27684000D02*
X11970804Y27684000D01*
X18677500Y-24312398D02*
X18677500Y-25674500D01*
X16184500Y-21819398D02*
X18677500Y-24312398D01*
X16184500Y-19262500D02*
X16184500Y-21819398D01*
X20804500Y-14174500D02*
X20804500Y-20470500D01*
X20804500Y-20470500D02*
X21399500Y-21065500D01*
X21399500Y-21065500D02*
X21399500Y-21907500D01*
X18677500Y-24629500D02*
X18677500Y-25674500D01*
X21399500Y-21907500D02*
X18677500Y-24629500D01*
X-15049500Y-16588998D02*
X-15049500Y-14541500D01*
X-15430500Y-16969998D02*
X-15049500Y-16588998D01*
X-15430500Y-24713500D02*
X-15430500Y-16969998D01*
X-16391500Y-25674500D02*
X-15430500Y-24713500D01*
X2799815Y-10731500D02*
X3365500Y-10731500D01*
X-2298700Y-10731500D02*
X2799815Y-10731500D01*
X-7759700Y-16192500D02*
X-2298700Y-10731500D01*
X-7759700Y-25378700D02*
X-7759700Y-16192500D01*
X-5905500Y-28282900D02*
X-5905500Y-27232900D01*
X-5905500Y-27232900D02*
X-7759700Y-25378700D01*
X3365500Y-10731500D02*
X8277570Y-5819430D01*
X8277570Y-2100067D02*
X8277570Y-1534382D01*
X8277570Y-5819430D02*
X8277570Y-2100067D01*
X4635500Y-12509500D02*
X3365500Y-12509500D01*
X9969500Y825500D02*
X9969500Y-7175500D01*
X9969500Y-7175500D02*
X4635500Y-12509500D01*
X7099300Y-29195500D02*
X7099300Y-25895500D01*
X3111500Y-3683000D02*
X3111500Y10419815D01*
X3111500Y10419815D02*
X3111500Y10985500D01*
X6096000Y-6667500D02*
X3111500Y-3683000D01*
X4599300Y-29195500D02*
X4599300Y-25895500D01*
D23*
G36*
X3759007Y31099496D02*
G01*
X3710500Y30861000D01*
X3710500Y30511000D01*
X4818500Y30511000D01*
X4818500Y30531000D01*
X5072500Y30531000D01*
X5072500Y30511000D01*
X6180500Y30511000D01*
X6180500Y30861000D01*
X6131993Y31099496D01*
X6114802Y31140500D01*
X10776198Y31140500D01*
X10759007Y31099496D01*
X10710500Y30861000D01*
X10710500Y30511000D01*
X11818500Y30511000D01*
X11818500Y30531000D01*
X12072500Y30531000D01*
X12072500Y30511000D01*
X13180500Y30511000D01*
X13180500Y30861000D01*
X13131993Y31099496D01*
X13114802Y31140500D01*
X18284121Y31140500D01*
X17949562Y31109678D01*
X17225292Y30894952D01*
X16556830Y30543055D01*
X16516412Y30516048D01*
X16156224Y30026381D01*
X16341916Y29840689D01*
X16320670Y29826493D01*
X16176507Y29682330D01*
X16162311Y29661084D01*
X15976619Y29846776D01*
X15486952Y29486588D01*
X15126651Y28822618D01*
X14902806Y28101115D01*
X14824020Y27349805D01*
X14893322Y26597562D01*
X15108048Y25873292D01*
X15459945Y25204830D01*
X15486952Y25164412D01*
X15976619Y24804224D01*
X16162311Y24989916D01*
X16176507Y24968670D01*
X16320670Y24824507D01*
X16341916Y24810311D01*
X16156224Y24624619D01*
X16516412Y24134952D01*
X17180382Y23774651D01*
X17901885Y23550806D01*
X18653195Y23472020D01*
X19405438Y23541322D01*
X20129708Y23756048D01*
X20798170Y24107945D01*
X20838588Y24134952D01*
X21198776Y24624619D01*
X21013084Y24810311D01*
X21034330Y24824507D01*
X21178493Y24968670D01*
X21192689Y24989916D01*
X21378381Y24804224D01*
X21868048Y25164412D01*
X22228349Y25828382D01*
X22452194Y26549885D01*
X22492500Y26934247D01*
X22492500Y17608272D01*
X22450082Y17650690D01*
X22335778Y17536386D01*
X22142730Y17883481D01*
X21715524Y18105014D01*
X21253308Y18238945D01*
X20773845Y18280130D01*
X20295559Y18226984D01*
X19836832Y18081550D01*
X19466270Y17883481D01*
X19273221Y17536384D01*
X20804500Y16005105D01*
X20818643Y16019247D01*
X20998248Y15839642D01*
X20984105Y15825500D01*
X20998248Y15811357D01*
X20818643Y15631752D01*
X20804500Y15645895D01*
X19273221Y14114616D01*
X19466270Y13767519D01*
X19893476Y13545986D01*
X20355692Y13412055D01*
X20835155Y13370870D01*
X21313441Y13424016D01*
X21772168Y13569450D01*
X22142730Y13767519D01*
X22335778Y14114614D01*
X22450082Y14000310D01*
X22492500Y14042728D01*
X22492500Y2608272D01*
X22450082Y2650690D01*
X22335778Y2536386D01*
X22142730Y2883481D01*
X21715524Y3105014D01*
X21253308Y3238945D01*
X20773845Y3280130D01*
X20295559Y3226984D01*
X19836832Y3081550D01*
X19466270Y2883481D01*
X19273221Y2536384D01*
X20804500Y1005105D01*
X20818643Y1019247D01*
X20998248Y839642D01*
X20984105Y825500D01*
X20998248Y811357D01*
X20818643Y631752D01*
X20804500Y645895D01*
X19273221Y-885384D01*
X19466270Y-1232481D01*
X19893476Y-1454014D01*
X20355692Y-1587945D01*
X20835155Y-1629130D01*
X21313441Y-1575984D01*
X21772168Y-1430550D01*
X22142730Y-1232481D01*
X22335778Y-885386D01*
X22450082Y-999690D01*
X22492501Y-957271D01*
X22492501Y-12391729D01*
X22450082Y-12349310D01*
X22335778Y-12463614D01*
X22142730Y-12116519D01*
X21715524Y-11894986D01*
X21253308Y-11761055D01*
X20773845Y-11719870D01*
X20295559Y-11773016D01*
X19836832Y-11918450D01*
X19466270Y-12116519D01*
X19273221Y-12463616D01*
X20804500Y-13994895D01*
X20818643Y-13980753D01*
X20998248Y-14160358D01*
X20984105Y-14174500D01*
X20998248Y-14188643D01*
X20818643Y-14368248D01*
X20804500Y-14354105D01*
X19273221Y-15885384D01*
X19466270Y-16232481D01*
X19893476Y-16454014D01*
X20355692Y-16587945D01*
X20835155Y-16629130D01*
X21313441Y-16575984D01*
X21772168Y-16430550D01*
X22142730Y-16232481D01*
X22335778Y-15885386D01*
X22450082Y-15999690D01*
X22492501Y-15957271D01*
X22492501Y-25281132D01*
X22461678Y-24946562D01*
X22246952Y-24222292D01*
X21895055Y-23553830D01*
X21868048Y-23513412D01*
X21378381Y-23153224D01*
X21192689Y-23338916D01*
X21178493Y-23317670D01*
X21034330Y-23173507D01*
X21013084Y-23159311D01*
X21198776Y-22973619D01*
X20838588Y-22483952D01*
X20174618Y-22123651D01*
X19453115Y-21899806D01*
X18701805Y-21821020D01*
X17949562Y-21890322D01*
X17225292Y-22105048D01*
X16556830Y-22456945D01*
X16516412Y-22483952D01*
X16156224Y-22973619D01*
X16341916Y-23159311D01*
X16320670Y-23173507D01*
X16176507Y-23317670D01*
X16162311Y-23338916D01*
X15976619Y-23153224D01*
X15486952Y-23513412D01*
X15126651Y-24177382D01*
X14902806Y-24898885D01*
X14824020Y-25650195D01*
X14893322Y-26402438D01*
X15108048Y-27126708D01*
X15459945Y-27795170D01*
X15486952Y-27835588D01*
X15976619Y-28195776D01*
X16162311Y-28010084D01*
X16176507Y-28031330D01*
X16320670Y-28175493D01*
X16341916Y-28189689D01*
X16156224Y-28375381D01*
X16516412Y-28865048D01*
X17180382Y-29225349D01*
X17901885Y-29449194D01*
X18286246Y-29489500D01*
X10906052Y-29489500D01*
X10938300Y-29327380D01*
X10938300Y-29063620D01*
X10886843Y-28804928D01*
X10785907Y-28561246D01*
X10639369Y-28341937D01*
X10452863Y-28155431D01*
X10359300Y-28092914D01*
X10359300Y-26998086D01*
X10452863Y-26935569D01*
X10639369Y-26749063D01*
X10785907Y-26529754D01*
X10886843Y-26286072D01*
X10938300Y-26027380D01*
X10938300Y-25763620D01*
X10886843Y-25504928D01*
X10785907Y-25261246D01*
X10639369Y-25041937D01*
X10452863Y-24855431D01*
X10233554Y-24708893D01*
X9989872Y-24607957D01*
X9731180Y-24556500D01*
X9467420Y-24556500D01*
X9357055Y-24578453D01*
X8664303Y-23885702D01*
X8640501Y-23856699D01*
X8524776Y-23761726D01*
X8392747Y-23691154D01*
X8249486Y-23647697D01*
X8137833Y-23636700D01*
X8137822Y-23636700D01*
X8100500Y-23633024D01*
X8063178Y-23636700D01*
X1814472Y-23636700D01*
X-848844Y-20973384D01*
X14653221Y-20973384D01*
X14846270Y-21320481D01*
X15273476Y-21542014D01*
X15735692Y-21675945D01*
X16215155Y-21717130D01*
X16693441Y-21663984D01*
X17152168Y-21518550D01*
X17522730Y-21320481D01*
X17715779Y-20973384D01*
X16184500Y-19442105D01*
X14653221Y-20973384D01*
X-848844Y-20973384D01*
X-1670326Y-20151903D01*
X-1694129Y-20122899D01*
X-1809854Y-20027926D01*
X-1941883Y-19957354D01*
X-2085144Y-19913897D01*
X-2141698Y-19908327D01*
X-2166568Y-19861799D01*
X-2345892Y-19643292D01*
X-2564399Y-19463968D01*
X-2813692Y-19330718D01*
X-2937522Y-19293155D01*
X13729870Y-19293155D01*
X13783016Y-19771441D01*
X13928450Y-20230168D01*
X14126519Y-20600730D01*
X14473616Y-20793779D01*
X16004895Y-19262500D01*
X16364105Y-19262500D01*
X17895384Y-20793779D01*
X18242481Y-20600730D01*
X18464014Y-20173524D01*
X18597945Y-19711308D01*
X18639130Y-19231845D01*
X18585984Y-18753559D01*
X18440550Y-18294832D01*
X18242481Y-17924270D01*
X17895384Y-17731221D01*
X16364105Y-19262500D01*
X16004895Y-19262500D01*
X14473616Y-17731221D01*
X14126519Y-17924270D01*
X13904986Y-18351476D01*
X13771055Y-18813692D01*
X13729870Y-19293155D01*
X-2937522Y-19293155D01*
X-3084191Y-19248664D01*
X-3295008Y-19227900D01*
X-3435992Y-19227900D01*
X-3646809Y-19248664D01*
X-3917308Y-19330718D01*
X-4166601Y-19463968D01*
X-4385108Y-19643292D01*
X-4564432Y-19861799D01*
X-4586401Y-19902900D01*
X-4684599Y-19902900D01*
X-4706568Y-19861799D01*
X-4885892Y-19643292D01*
X-5104399Y-19463968D01*
X-5353692Y-19330718D01*
X-5624191Y-19248664D01*
X-5835008Y-19227900D01*
X-5975992Y-19227900D01*
X-6186809Y-19248664D01*
X-6457308Y-19330718D01*
X-6706601Y-19463968D01*
X-6925108Y-19643292D01*
X-6999700Y-19734183D01*
X-6999700Y-17551616D01*
X14653221Y-17551616D01*
X16184500Y-19082895D01*
X17715779Y-17551616D01*
X17522730Y-17204519D01*
X17095524Y-16982986D01*
X16633308Y-16849055D01*
X16153845Y-16807870D01*
X15675559Y-16861016D01*
X15216832Y-17006450D01*
X14846270Y-17204519D01*
X14653221Y-17551616D01*
X-6999700Y-17551616D01*
X-6999700Y-16507301D01*
X-1983898Y-11491500D01*
X2661789Y-11491500D01*
X2705726Y-11535437D01*
X2833032Y-11620500D01*
X2705726Y-11705563D01*
X2561563Y-11849726D01*
X2448295Y-12019244D01*
X2370274Y-12207602D01*
X2330500Y-12407561D01*
X2330500Y-12611439D01*
X2370274Y-12811398D01*
X2448295Y-12999756D01*
X2561563Y-13169274D01*
X2705726Y-13313437D01*
X2875244Y-13426705D01*
X3063602Y-13504726D01*
X3263561Y-13544500D01*
X3467439Y-13544500D01*
X3667398Y-13504726D01*
X3855756Y-13426705D01*
X4025274Y-13313437D01*
X4069211Y-13269500D01*
X4598178Y-13269500D01*
X4635500Y-13273176D01*
X4672822Y-13269500D01*
X4672833Y-13269500D01*
X4784486Y-13258503D01*
X4927747Y-13215046D01*
X5059776Y-13144474D01*
X5175501Y-13049501D01*
X5199304Y-13020497D01*
X10480503Y-7739299D01*
X10509501Y-7715501D01*
X10535832Y-7683417D01*
X10604474Y-7599777D01*
X10675046Y-7467747D01*
X10718503Y-7324486D01*
X10729500Y-7212833D01*
X10729500Y-7212824D01*
X10733176Y-7175501D01*
X10729500Y-7138178D01*
X10729500Y121789D01*
X10773437Y165726D01*
X10886705Y335244D01*
X10961000Y514606D01*
X10960999Y-9673677D01*
X10957323Y-9710999D01*
X10960999Y-9748321D01*
X10960999Y-9748331D01*
X10971996Y-9859984D01*
X11008983Y-9981915D01*
X11015453Y-10003245D01*
X11086025Y-10135275D01*
X11108448Y-10162597D01*
X11180998Y-10251000D01*
X11210002Y-10274803D01*
X14407847Y-13472649D01*
X14347900Y-13617373D01*
X14274500Y-13986381D01*
X14274500Y-14362619D01*
X14347900Y-14731627D01*
X14491880Y-15079224D01*
X14700906Y-15392054D01*
X14966946Y-15658094D01*
X15279776Y-15867120D01*
X15627373Y-16011100D01*
X15996381Y-16084500D01*
X16372619Y-16084500D01*
X16741627Y-16011100D01*
X17089224Y-15867120D01*
X17402054Y-15658094D01*
X17668094Y-15392054D01*
X17877120Y-15079224D01*
X18021100Y-14731627D01*
X18094500Y-14362619D01*
X18094500Y-14205155D01*
X18349870Y-14205155D01*
X18403016Y-14683441D01*
X18548450Y-15142168D01*
X18746519Y-15512730D01*
X19093616Y-15705779D01*
X20624895Y-14174500D01*
X19093616Y-12643221D01*
X18746519Y-12836270D01*
X18524986Y-13263476D01*
X18391055Y-13725692D01*
X18349870Y-14205155D01*
X18094500Y-14205155D01*
X18094500Y-13986381D01*
X18021100Y-13617373D01*
X17877120Y-13269776D01*
X17668094Y-12956946D01*
X17402054Y-12690906D01*
X17089224Y-12481880D01*
X16741627Y-12337900D01*
X16372619Y-12264500D01*
X15996381Y-12264500D01*
X15627373Y-12337900D01*
X15482649Y-12397847D01*
X13882186Y-10797384D01*
X14653221Y-10797384D01*
X14846270Y-11144481D01*
X15273476Y-11366014D01*
X15735692Y-11499945D01*
X16215155Y-11541130D01*
X16693441Y-11487984D01*
X17152168Y-11342550D01*
X17522730Y-11144481D01*
X17715779Y-10797384D01*
X16184500Y-9266105D01*
X14653221Y-10797384D01*
X13882186Y-10797384D01*
X12480999Y-9396198D01*
X12480999Y-9117155D01*
X13729870Y-9117155D01*
X13783016Y-9595441D01*
X13928450Y-10054168D01*
X14126519Y-10424730D01*
X14473616Y-10617779D01*
X16004895Y-9086500D01*
X16364105Y-9086500D01*
X17895384Y-10617779D01*
X18242481Y-10424730D01*
X18464014Y-9997524D01*
X18597945Y-9535308D01*
X18639130Y-9055845D01*
X18585984Y-8577559D01*
X18440550Y-8118832D01*
X18242481Y-7748270D01*
X17895384Y-7555221D01*
X16364105Y-9086500D01*
X16004895Y-9086500D01*
X14473616Y-7555221D01*
X14126519Y-7748270D01*
X13904986Y-8175476D01*
X13771055Y-8637692D01*
X13729870Y-9117155D01*
X12480999Y-9117155D01*
X12480999Y-5973384D01*
X14653221Y-5973384D01*
X14846270Y-6320481D01*
X15273476Y-6542014D01*
X15735692Y-6675945D01*
X15747819Y-6676987D01*
X15675559Y-6685016D01*
X15216832Y-6830450D01*
X14846270Y-7028519D01*
X14653221Y-7375616D01*
X16184500Y-8906895D01*
X17715779Y-7375616D01*
X17522730Y-7028519D01*
X17095524Y-6806986D01*
X16633308Y-6673055D01*
X16621181Y-6672013D01*
X16693441Y-6663984D01*
X17152168Y-6518550D01*
X17522730Y-6320481D01*
X17715779Y-5973384D01*
X16184500Y-4442105D01*
X14653221Y-5973384D01*
X12480999Y-5973384D01*
X12480999Y-4293155D01*
X13729870Y-4293155D01*
X13783016Y-4771441D01*
X13928450Y-5230168D01*
X14126519Y-5600730D01*
X14473616Y-5793779D01*
X16004895Y-4262500D01*
X16364105Y-4262500D01*
X17895384Y-5793779D01*
X18242481Y-5600730D01*
X18464014Y-5173524D01*
X18597945Y-4711308D01*
X18639130Y-4231845D01*
X18585984Y-3753559D01*
X18440550Y-3294832D01*
X18242481Y-2924270D01*
X17895384Y-2731221D01*
X16364105Y-4262500D01*
X16004895Y-4262500D01*
X14473616Y-2731221D01*
X14126519Y-2924270D01*
X13904986Y-3351476D01*
X13771055Y-3813692D01*
X13729870Y-4293155D01*
X12480999Y-4293155D01*
X12480999Y-2551616D01*
X14653221Y-2551616D01*
X16184500Y-4082895D01*
X17715779Y-2551616D01*
X17522730Y-2204519D01*
X17095524Y-1982986D01*
X16633308Y-1849055D01*
X16153845Y-1807870D01*
X15675559Y-1861016D01*
X15216832Y-2006450D01*
X14846270Y-2204519D01*
X14653221Y-2551616D01*
X12480999Y-2551616D01*
X12480999Y1013619D01*
X14274500Y1013619D01*
X14274500Y637381D01*
X14347900Y268373D01*
X14491880Y-79224D01*
X14700906Y-392054D01*
X14966946Y-658094D01*
X15279776Y-867120D01*
X15627373Y-1011100D01*
X15996381Y-1084500D01*
X16372619Y-1084500D01*
X16741627Y-1011100D01*
X17089224Y-867120D01*
X17402054Y-658094D01*
X17668094Y-392054D01*
X17877120Y-79224D01*
X18021100Y268373D01*
X18094500Y637381D01*
X18094500Y794845D01*
X18349870Y794845D01*
X18403016Y316559D01*
X18548450Y-142168D01*
X18746519Y-512730D01*
X19093616Y-705779D01*
X20624895Y825500D01*
X19093616Y2356779D01*
X18746519Y2163730D01*
X18524986Y1736524D01*
X18391055Y1274308D01*
X18349870Y794845D01*
X18094500Y794845D01*
X18094500Y1013619D01*
X18021100Y1382627D01*
X17877120Y1730224D01*
X17668094Y2043054D01*
X17402054Y2309094D01*
X17089224Y2518120D01*
X16741627Y2662100D01*
X16372619Y2735500D01*
X15996381Y2735500D01*
X15627373Y2662100D01*
X15279776Y2518120D01*
X14966946Y2309094D01*
X14700906Y2043054D01*
X14491880Y1730224D01*
X14347900Y1382627D01*
X14274500Y1013619D01*
X12480999Y1013619D01*
X12480999Y2775000D01*
X12547939Y2775000D01*
X12747898Y2814774D01*
X12936256Y2892795D01*
X13105774Y3006063D01*
X13249937Y3150226D01*
X13363205Y3319744D01*
X13441226Y3508102D01*
X13481000Y3708061D01*
X13481000Y3911939D01*
X13441226Y4111898D01*
X13403650Y4202616D01*
X14653221Y4202616D01*
X14846270Y3855519D01*
X15273476Y3633986D01*
X15735692Y3500055D01*
X16215155Y3458870D01*
X16693441Y3512016D01*
X17152168Y3657450D01*
X17522730Y3855519D01*
X17715779Y4202616D01*
X16184500Y5733895D01*
X14653221Y4202616D01*
X13403650Y4202616D01*
X13363205Y4300256D01*
X13249937Y4469774D01*
X13206000Y4513711D01*
X13206000Y5882845D01*
X13729870Y5882845D01*
X13783016Y5404559D01*
X13928450Y4945832D01*
X14126519Y4575270D01*
X14473616Y4382221D01*
X16004895Y5913500D01*
X16364105Y5913500D01*
X17895384Y4382221D01*
X18242481Y4575270D01*
X18464014Y5002476D01*
X18597945Y5464692D01*
X18639130Y5944155D01*
X18585984Y6422441D01*
X18440550Y6881168D01*
X18242481Y7251730D01*
X17895384Y7444779D01*
X16364105Y5913500D01*
X16004895Y5913500D01*
X14473616Y7444779D01*
X14126519Y7251730D01*
X13904986Y6824524D01*
X13771055Y6362308D01*
X13729870Y5882845D01*
X13206000Y5882845D01*
X13206000Y6877677D01*
X13209676Y6915002D01*
X13206000Y6952327D01*
X13206000Y6952335D01*
X13195003Y7063988D01*
X13151546Y7207249D01*
X13080974Y7339278D01*
X12986001Y7455003D01*
X12957003Y7478801D01*
X11409188Y9026616D01*
X14653221Y9026616D01*
X14846270Y8679519D01*
X15273476Y8457986D01*
X15735692Y8324055D01*
X15747819Y8323013D01*
X15675559Y8314984D01*
X15216832Y8169550D01*
X14846270Y7971481D01*
X14653221Y7624384D01*
X16184500Y6093105D01*
X17715779Y7624384D01*
X17522730Y7971481D01*
X17095524Y8193014D01*
X16633308Y8326945D01*
X16621181Y8327987D01*
X16693441Y8336016D01*
X17152168Y8481450D01*
X17522730Y8679519D01*
X17715779Y9026616D01*
X16184500Y10557895D01*
X14653221Y9026616D01*
X11409188Y9026616D01*
X10717306Y9718497D01*
X10693503Y9747501D01*
X10577778Y9842474D01*
X10445749Y9913046D01*
X10302488Y9956503D01*
X10190835Y9967500D01*
X10190824Y9967500D01*
X10153502Y9971176D01*
X10116180Y9967500D01*
X8387211Y9967500D01*
X8343274Y10011437D01*
X8173756Y10124705D01*
X7985398Y10202726D01*
X7785439Y10242500D01*
X7581561Y10242500D01*
X7381602Y10202726D01*
X7193244Y10124705D01*
X7023726Y10011437D01*
X6879563Y9867274D01*
X6766295Y9697756D01*
X6688274Y9509398D01*
X6648500Y9309439D01*
X6648500Y9105561D01*
X6688274Y8905602D01*
X6766295Y8717244D01*
X6774481Y8704992D01*
X6684489Y8615000D01*
X6571221Y8445482D01*
X6493200Y8257124D01*
X6453426Y8057165D01*
X6453426Y7995027D01*
X6219998Y7761599D01*
X6191000Y7737801D01*
X6167202Y7708803D01*
X6167201Y7708802D01*
X6096026Y7622076D01*
X6025454Y7490046D01*
X6011723Y7444779D01*
X5981998Y7346786D01*
X5979682Y7323274D01*
X5967324Y7197800D01*
X5971001Y7160468D01*
X5971000Y1587299D01*
X5459000Y2099299D01*
X5459000Y3550789D01*
X5502937Y3594726D01*
X5616205Y3764244D01*
X5694226Y3952602D01*
X5734000Y4152561D01*
X5734000Y4356439D01*
X5694226Y4556398D01*
X5616205Y4744756D01*
X5502937Y4914274D01*
X5358774Y5058437D01*
X5189256Y5171705D01*
X5000898Y5249726D01*
X4800939Y5289500D01*
X4597061Y5289500D01*
X4397102Y5249726D01*
X4208744Y5171705D01*
X4039226Y5058437D01*
X3895063Y4914274D01*
X3871500Y4879009D01*
X3871500Y10281789D01*
X3915437Y10325726D01*
X4028705Y10495244D01*
X4106726Y10683602D01*
X4111349Y10706845D01*
X13729870Y10706845D01*
X13783016Y10228559D01*
X13928450Y9769832D01*
X14126519Y9399270D01*
X14473616Y9206221D01*
X16004895Y10737500D01*
X16364105Y10737500D01*
X17895384Y9206221D01*
X18242481Y9399270D01*
X18464014Y9826476D01*
X18597945Y10288692D01*
X18639130Y10768155D01*
X18585984Y11246441D01*
X18440550Y11705168D01*
X18242481Y12075730D01*
X17895384Y12268779D01*
X16364105Y10737500D01*
X16004895Y10737500D01*
X14473616Y12268779D01*
X14126519Y12075730D01*
X13904986Y11648524D01*
X13771055Y11186308D01*
X13729870Y10706845D01*
X4111349Y10706845D01*
X4146500Y10883561D01*
X4146500Y11087439D01*
X4106726Y11287398D01*
X4028705Y11475756D01*
X3915437Y11645274D01*
X3771274Y11789437D01*
X3601756Y11902705D01*
X3413398Y11980726D01*
X3213439Y12020500D01*
X3009561Y12020500D01*
X2809602Y11980726D01*
X2621244Y11902705D01*
X2451726Y11789437D01*
X2307563Y11645274D01*
X2194295Y11475756D01*
X2116274Y11287398D01*
X2076500Y11087439D01*
X2076500Y10883561D01*
X2116274Y10683602D01*
X2194295Y10495244D01*
X2307563Y10325726D01*
X2351501Y10281788D01*
X2351500Y-3645678D01*
X2347824Y-3683000D01*
X2351500Y-3720322D01*
X2351500Y-3720332D01*
X2362497Y-3831985D01*
X2405954Y-3975246D01*
X2476526Y-4107276D01*
X2516371Y-4155826D01*
X2571499Y-4223001D01*
X2600503Y-4246804D01*
X5061000Y-6707303D01*
X5061000Y-6769439D01*
X5100774Y-6969398D01*
X5178795Y-7157756D01*
X5292063Y-7327274D01*
X5436226Y-7471437D01*
X5504885Y-7517313D01*
X3325699Y-9696500D01*
X3263561Y-9696500D01*
X3063602Y-9736274D01*
X2875244Y-9814295D01*
X2705726Y-9927563D01*
X2661789Y-9971500D01*
X-2261378Y-9971500D01*
X-2298701Y-9967824D01*
X-2336024Y-9971500D01*
X-2336033Y-9971500D01*
X-2447686Y-9982497D01*
X-2590947Y-10025954D01*
X-2722976Y-10096526D01*
X-2838701Y-10191499D01*
X-2862499Y-10220497D01*
X-8270702Y-15628701D01*
X-8299700Y-15652499D01*
X-8323498Y-15681497D01*
X-8323499Y-15681498D01*
X-8394674Y-15768224D01*
X-8465246Y-15900254D01*
X-8508702Y-16043515D01*
X-8523376Y-16192500D01*
X-8519699Y-16229832D01*
X-8519700Y-25341378D01*
X-8523376Y-25378700D01*
X-8519700Y-25416022D01*
X-8519700Y-25416032D01*
X-8508703Y-25527685D01*
X-8469244Y-25657765D01*
X-8465246Y-25670946D01*
X-8394674Y-25802976D01*
X-8389908Y-25808783D01*
X-8299701Y-25918701D01*
X-8270697Y-25942504D01*
X-7167864Y-27045337D01*
X-7236037Y-27128406D01*
X-7295002Y-27238720D01*
X-7331312Y-27358418D01*
X-7343572Y-27482900D01*
X-7343572Y-29082900D01*
X-7331312Y-29207382D01*
X-7295002Y-29327080D01*
X-7236037Y-29437394D01*
X-7193275Y-29489500D01*
X-15998121Y-29489500D01*
X-15663562Y-29458678D01*
X-14939292Y-29243952D01*
X-14270830Y-28892055D01*
X-14230412Y-28865048D01*
X-13870224Y-28375381D01*
X-14055916Y-28189689D01*
X-14034670Y-28175493D01*
X-13890507Y-28031330D01*
X-13876311Y-28010084D01*
X-13690619Y-28195776D01*
X-13200952Y-27835588D01*
X-12840651Y-27171618D01*
X-12616806Y-26450115D01*
X-12538020Y-25698805D01*
X-12607322Y-24946562D01*
X-12822048Y-24222292D01*
X-13173945Y-23553830D01*
X-13200952Y-23513412D01*
X-13690619Y-23153224D01*
X-13876311Y-23338916D01*
X-13890507Y-23317670D01*
X-14034670Y-23173507D01*
X-14055916Y-23159311D01*
X-13870224Y-22973619D01*
X-14230412Y-22483952D01*
X-14894382Y-22123651D01*
X-15615885Y-21899806D01*
X-16367195Y-21821020D01*
X-17119438Y-21890322D01*
X-17843708Y-22105048D01*
X-18512170Y-22456945D01*
X-18552588Y-22483952D01*
X-18912776Y-22973619D01*
X-18727084Y-23159311D01*
X-18748330Y-23173507D01*
X-18892493Y-23317670D01*
X-18906689Y-23338916D01*
X-19092381Y-23153224D01*
X-19582048Y-23513412D01*
X-19942349Y-24177382D01*
X-20166194Y-24898885D01*
X-20206500Y-25283246D01*
X-20206500Y-15995986D01*
X-16324381Y-15995986D01*
X-16174651Y-16306202D01*
X-15808755Y-16491800D01*
X-15413681Y-16602449D01*
X-15004613Y-16633897D01*
X-14597269Y-16584935D01*
X-14207304Y-16457445D01*
X-13924349Y-16306202D01*
X-13774619Y-15995986D01*
X-15049500Y-14721105D01*
X-16324381Y-15995986D01*
X-20206500Y-15995986D01*
X-20206500Y-14586387D01*
X-17141897Y-14586387D01*
X-17092935Y-14993731D01*
X-16965445Y-15383696D01*
X-16814202Y-15666651D01*
X-16503986Y-15816381D01*
X-15229105Y-14541500D01*
X-14869895Y-14541500D01*
X-13595014Y-15816381D01*
X-13284798Y-15666651D01*
X-13099200Y-15300755D01*
X-12988551Y-14905681D01*
X-12957103Y-14496613D01*
X-13006065Y-14089269D01*
X-13133555Y-13699304D01*
X-13284798Y-13416349D01*
X-13595014Y-13266619D01*
X-14869895Y-14541500D01*
X-15229105Y-14541500D01*
X-16503986Y-13266619D01*
X-16814202Y-13416349D01*
X-16999800Y-13782245D01*
X-17110449Y-14177319D01*
X-17141897Y-14586387D01*
X-20206500Y-14586387D01*
X-20206500Y-13087014D01*
X-16324381Y-13087014D01*
X-15049500Y-14361895D01*
X-13774619Y-13087014D01*
X-13924349Y-12776798D01*
X-14290245Y-12591200D01*
X-14685319Y-12480551D01*
X-15094387Y-12449103D01*
X-15501731Y-12498065D01*
X-15891696Y-12625555D01*
X-16174651Y-12776798D01*
X-16324381Y-13087014D01*
X-20206500Y-13087014D01*
X-20206500Y-8536891D01*
X-20002500Y-8536891D01*
X-20002500Y-8862109D01*
X-19939053Y-9181079D01*
X-19814597Y-9481542D01*
X-19633915Y-9751951D01*
X-19403951Y-9981915D01*
X-19133542Y-10162597D01*
X-18833079Y-10287053D01*
X-18514109Y-10350500D01*
X-18188891Y-10350500D01*
X-17869921Y-10287053D01*
X-17569458Y-10162597D01*
X-17299049Y-9981915D01*
X-17069085Y-9751951D01*
X-16888403Y-9481542D01*
X-16763947Y-9181079D01*
X-16700500Y-8862109D01*
X-16700500Y-8536891D01*
X-16763947Y-8217921D01*
X-16888403Y-7917458D01*
X-17069085Y-7647049D01*
X-17209585Y-7506549D01*
X-16958318Y-7506549D01*
X-16918810Y-7753578D01*
X-16831869Y-7988153D01*
X-16786446Y-8073131D01*
X-16559300Y-8124695D01*
X-15864105Y-7429500D01*
X-16559300Y-6734305D01*
X-16786446Y-6785869D01*
X-16890839Y-7013216D01*
X-16948873Y-7256559D01*
X-16958318Y-7506549D01*
X-17209585Y-7506549D01*
X-17299049Y-7417085D01*
X-17569458Y-7236403D01*
X-17869921Y-7111947D01*
X-18188891Y-7048500D01*
X-18514109Y-7048500D01*
X-18833079Y-7111947D01*
X-19133542Y-7236403D01*
X-19403951Y-7417085D01*
X-19633915Y-7647049D01*
X-19814597Y-7917458D01*
X-19939053Y-8217921D01*
X-20002500Y-8536891D01*
X-20206500Y-8536891D01*
X-20206500Y-6554700D01*
X-16379695Y-6554700D01*
X-15684500Y-7249895D01*
X-15670357Y-7235753D01*
X-15490752Y-7415358D01*
X-15504895Y-7429500D01*
X-15490752Y-7443643D01*
X-15670357Y-7623248D01*
X-15684500Y-7609105D01*
X-16379695Y-8304300D01*
X-16328131Y-8531446D01*
X-16100784Y-8635839D01*
X-15857441Y-8693873D01*
X-15684500Y-8700407D01*
X-15684500Y-8824584D01*
X-15635695Y-9069945D01*
X-15539959Y-9301071D01*
X-15400973Y-9509078D01*
X-15224078Y-9685973D01*
X-15016071Y-9824959D01*
X-14784945Y-9920695D01*
X-14539584Y-9969500D01*
X-14289416Y-9969500D01*
X-14044055Y-9920695D01*
X-13812929Y-9824959D01*
X-13604922Y-9685973D01*
X-13428027Y-9509078D01*
X-13289041Y-9301071D01*
X-13193305Y-9069945D01*
X-13144500Y-8824584D01*
X-13095695Y-9069945D01*
X-12999959Y-9301071D01*
X-12860973Y-9509078D01*
X-12684078Y-9685973D01*
X-12476071Y-9824959D01*
X-12244945Y-9920695D01*
X-11999584Y-9969500D01*
X-11749416Y-9969500D01*
X-11504055Y-9920695D01*
X-11272929Y-9824959D01*
X-11064922Y-9685973D01*
X-10888027Y-9509078D01*
X-10749041Y-9301071D01*
X-10653305Y-9069945D01*
X-10604500Y-8824584D01*
X-10604500Y-8699500D01*
X-10479416Y-8699500D01*
X-10234055Y-8650695D01*
X-10002929Y-8554959D01*
X-9794922Y-8415973D01*
X-9618027Y-8239078D01*
X-9479041Y-8031071D01*
X-9383305Y-7799945D01*
X-9334500Y-7554584D01*
X-9334500Y-7304416D01*
X-9383305Y-7059055D01*
X-9479041Y-6827929D01*
X-9618027Y-6619922D01*
X-9794922Y-6443027D01*
X-10002929Y-6304041D01*
X-10234055Y-6208305D01*
X-10479416Y-6159500D01*
X-10604500Y-6159500D01*
X-10604500Y-6034416D01*
X-10653305Y-5789055D01*
X-10749041Y-5557929D01*
X-10888027Y-5349922D01*
X-11064922Y-5173027D01*
X-11272929Y-5034041D01*
X-11504055Y-4938305D01*
X-11749416Y-4889500D01*
X-11999584Y-4889500D01*
X-12244945Y-4938305D01*
X-12476071Y-5034041D01*
X-12684078Y-5173027D01*
X-12860973Y-5349922D01*
X-12999959Y-5557929D01*
X-13095695Y-5789055D01*
X-13144500Y-6034416D01*
X-13193305Y-5789055D01*
X-13289041Y-5557929D01*
X-13428027Y-5349922D01*
X-13604922Y-5173027D01*
X-13812929Y-5034041D01*
X-14044055Y-4938305D01*
X-14289416Y-4889500D01*
X-14539584Y-4889500D01*
X-14784945Y-4938305D01*
X-15016071Y-5034041D01*
X-15224078Y-5173027D01*
X-15400973Y-5349922D01*
X-15539959Y-5557929D01*
X-15635695Y-5789055D01*
X-15684500Y-6034416D01*
X-15684500Y-6158593D01*
X-15761549Y-6155682D01*
X-16008578Y-6195190D01*
X-16243153Y-6282131D01*
X-16328131Y-6327554D01*
X-16379695Y-6554700D01*
X-20206500Y-6554700D01*
X-20206500Y750967D01*
X-16387376Y750967D01*
X-16347129Y491393D01*
X-16257014Y244658D01*
X-16203312Y144186D01*
X-15969697Y84908D01*
X-15229105Y825500D01*
X-15969697Y1566092D01*
X-16203312Y1506814D01*
X-16314059Y1268625D01*
X-16376211Y1013407D01*
X-16387376Y750967D01*
X-20206500Y750967D01*
X-20206500Y4766838D01*
X-16383000Y4766838D01*
X-16383000Y4504162D01*
X-16331754Y4246532D01*
X-16231232Y4003851D01*
X-16085297Y3785443D01*
X-15982854Y3683000D01*
X-16085297Y3580557D01*
X-16231232Y3362149D01*
X-16331754Y3119468D01*
X-16383000Y2861838D01*
X-16383000Y2599162D01*
X-16331754Y2341532D01*
X-16231232Y2098851D01*
X-16085297Y1880443D01*
X-15899557Y1694703D01*
X-15681149Y1548768D01*
X-15530947Y1486552D01*
X-15049500Y1005105D01*
X-14568053Y1486552D01*
X-14417851Y1548768D01*
X-14199443Y1694703D01*
X-14097000Y1797146D01*
X-14077854Y1778000D01*
X-14180297Y1675557D01*
X-14326232Y1457149D01*
X-14388448Y1306947D01*
X-14869895Y825500D01*
X-14388448Y344053D01*
X-14326232Y193851D01*
X-14180297Y-24557D01*
X-13994557Y-210297D01*
X-13776149Y-356232D01*
X-13625947Y-418448D01*
X-13144500Y-899895D01*
X-12663053Y-418448D01*
X-12512851Y-356232D01*
X-12294443Y-210297D01*
X-12192000Y-107854D01*
X-12172854Y-127000D01*
X-12275297Y-229443D01*
X-12421232Y-447851D01*
X-12483448Y-598053D01*
X-12964895Y-1079500D01*
X-12483448Y-1560947D01*
X-12421232Y-1711149D01*
X-12275297Y-1929557D01*
X-12172854Y-2032000D01*
X-12192000Y-2051146D01*
X-12294443Y-1948703D01*
X-12512851Y-1802768D01*
X-12663053Y-1740552D01*
X-13144500Y-1259105D01*
X-13625947Y-1740552D01*
X-13776149Y-1802768D01*
X-13994557Y-1948703D01*
X-14097000Y-2051146D01*
X-14116146Y-2032000D01*
X-14013703Y-1929557D01*
X-13867768Y-1711149D01*
X-13805552Y-1560947D01*
X-13324105Y-1079500D01*
X-13805552Y-598053D01*
X-13867768Y-447851D01*
X-14013703Y-229443D01*
X-14199443Y-43703D01*
X-14417851Y102232D01*
X-14568053Y164448D01*
X-15049500Y645895D01*
X-15530947Y164448D01*
X-15681149Y102232D01*
X-15899557Y-43703D01*
X-16085297Y-229443D01*
X-16231232Y-447851D01*
X-16331754Y-690532D01*
X-16383000Y-948162D01*
X-16383000Y-1210838D01*
X-16331754Y-1468468D01*
X-16231232Y-1711149D01*
X-16085297Y-1929557D01*
X-15982854Y-2032000D01*
X-16085297Y-2134443D01*
X-16231232Y-2352851D01*
X-16331754Y-2595532D01*
X-16383000Y-2853162D01*
X-16383000Y-3115838D01*
X-16331754Y-3373468D01*
X-16231232Y-3616149D01*
X-16085297Y-3834557D01*
X-15899557Y-4020297D01*
X-15681149Y-4166232D01*
X-15438468Y-4266754D01*
X-15180838Y-4318000D01*
X-14918162Y-4318000D01*
X-14660532Y-4266754D01*
X-14417851Y-4166232D01*
X-14199443Y-4020297D01*
X-14097000Y-3917854D01*
X-13994557Y-4020297D01*
X-13776149Y-4166232D01*
X-13533468Y-4266754D01*
X-13275838Y-4318000D01*
X-13013162Y-4318000D01*
X-12755532Y-4266754D01*
X-12512851Y-4166232D01*
X-12294443Y-4020297D01*
X-12192000Y-3917854D01*
X-12089557Y-4020297D01*
X-11871149Y-4166232D01*
X-11628468Y-4266754D01*
X-11370838Y-4318000D01*
X-11108162Y-4318000D01*
X-10850532Y-4266754D01*
X-10607851Y-4166232D01*
X-10389443Y-4020297D01*
X-10203703Y-3834557D01*
X-10057768Y-3616149D01*
X-9957246Y-3373468D01*
X-9906000Y-3115838D01*
X-9906000Y-2853162D01*
X-9957246Y-2595532D01*
X-10057768Y-2352851D01*
X-10203703Y-2134443D01*
X-10306146Y-2032000D01*
X-10203703Y-1929557D01*
X-10057768Y-1711149D01*
X-9957246Y-1468468D01*
X-9906000Y-1210838D01*
X-9906000Y-948162D01*
X-9957246Y-690532D01*
X-10057768Y-447851D01*
X-10203703Y-229443D01*
X-10306146Y-127000D01*
X-10203703Y-24557D01*
X-10057768Y193851D01*
X-9957246Y436532D01*
X-9906000Y694162D01*
X-9906000Y956838D01*
X-9957246Y1214468D01*
X-10057768Y1457149D01*
X-10203703Y1675557D01*
X-10306146Y1778000D01*
X-10203703Y1880443D01*
X-10057768Y2098851D01*
X-9957246Y2341532D01*
X-9906000Y2599162D01*
X-9906000Y2861838D01*
X-9957246Y3119468D01*
X-10057768Y3362149D01*
X-10203703Y3580557D01*
X-10306146Y3683000D01*
X-10203703Y3785443D01*
X-10057768Y4003851D01*
X-9957246Y4246532D01*
X-9906000Y4504162D01*
X-9906000Y4766838D01*
X-9957246Y5024468D01*
X-10057768Y5267149D01*
X-10203703Y5485557D01*
X-10389443Y5671297D01*
X-10607851Y5817232D01*
X-10758053Y5879448D01*
X-11239500Y6360895D01*
X-11720947Y5879448D01*
X-11871149Y5817232D01*
X-12089557Y5671297D01*
X-12192000Y5568854D01*
X-12294443Y5671297D01*
X-12512851Y5817232D01*
X-12663053Y5879448D01*
X-13144500Y6360895D01*
X-13625947Y5879448D01*
X-13776149Y5817232D01*
X-13994557Y5671297D01*
X-14097000Y5568854D01*
X-14199443Y5671297D01*
X-14417851Y5817232D01*
X-14568053Y5879448D01*
X-15049500Y6360895D01*
X-15530947Y5879448D01*
X-15681149Y5817232D01*
X-15899557Y5671297D01*
X-16085297Y5485557D01*
X-16231232Y5267149D01*
X-16331754Y5024468D01*
X-16383000Y4766838D01*
X-20206500Y4766838D01*
X-20206500Y6465967D01*
X-16387376Y6465967D01*
X-16347129Y6206393D01*
X-16257014Y5959658D01*
X-16203312Y5859186D01*
X-15969697Y5799908D01*
X-15229105Y6540500D01*
X-14869895Y6540500D01*
X-14388240Y6058845D01*
X-14352014Y5959658D01*
X-14298312Y5859186D01*
X-14151270Y5821875D01*
X-14129303Y5799908D01*
X-14097000Y5808105D01*
X-14064697Y5799908D01*
X-14042730Y5821875D01*
X-13895688Y5859186D01*
X-13800332Y6064273D01*
X-13324105Y6540500D01*
X-12964895Y6540500D01*
X-12483240Y6058845D01*
X-12447014Y5959658D01*
X-12393312Y5859186D01*
X-12246270Y5821875D01*
X-12224303Y5799908D01*
X-12192000Y5808105D01*
X-12159697Y5799908D01*
X-12137730Y5821875D01*
X-11990688Y5859186D01*
X-11895332Y6064273D01*
X-11419105Y6540500D01*
X-11059895Y6540500D01*
X-10319303Y5799908D01*
X-10085688Y5859186D01*
X-9974941Y6097375D01*
X-9912789Y6352593D01*
X-9901624Y6615033D01*
X-9941871Y6874607D01*
X-10031986Y7121342D01*
X-10085688Y7221814D01*
X-10319303Y7281092D01*
X-11059895Y6540500D01*
X-11419105Y6540500D01*
X-11900760Y7022155D01*
X-11936986Y7121342D01*
X-11990688Y7221814D01*
X-12137730Y7259125D01*
X-12159697Y7281092D01*
X-12192000Y7272895D01*
X-12224303Y7281092D01*
X-12246270Y7259125D01*
X-12393312Y7221814D01*
X-12488668Y7016727D01*
X-12964895Y6540500D01*
X-13324105Y6540500D01*
X-13805760Y7022155D01*
X-13841986Y7121342D01*
X-13895688Y7221814D01*
X-14042730Y7259125D01*
X-14064697Y7281092D01*
X-14097000Y7272895D01*
X-14129303Y7281092D01*
X-14151270Y7259125D01*
X-14298312Y7221814D01*
X-14393668Y7016727D01*
X-14869895Y6540500D01*
X-15229105Y6540500D01*
X-15969697Y7281092D01*
X-16203312Y7221814D01*
X-16314059Y6983625D01*
X-16376211Y6728407D01*
X-16387376Y6465967D01*
X-20206500Y6465967D01*
X-20206500Y10513109D01*
X-20002500Y10513109D01*
X-20002500Y10187891D01*
X-19939053Y9868921D01*
X-19814597Y9568458D01*
X-19633915Y9298049D01*
X-19403951Y9068085D01*
X-19133542Y8887403D01*
X-18833079Y8762947D01*
X-18514109Y8699500D01*
X-18188891Y8699500D01*
X-17869921Y8762947D01*
X-17569458Y8887403D01*
X-17299049Y9068085D01*
X-17069085Y9298049D01*
X-16888403Y9568458D01*
X-16763947Y9868921D01*
X-16700500Y10187891D01*
X-16700500Y10481838D01*
X-16383000Y10481838D01*
X-16383000Y10219162D01*
X-16331754Y9961532D01*
X-16231232Y9718851D01*
X-16085297Y9500443D01*
X-15982854Y9398000D01*
X-16085297Y9295557D01*
X-16231232Y9077149D01*
X-16331754Y8834468D01*
X-16383000Y8576838D01*
X-16383000Y8314162D01*
X-16331754Y8056532D01*
X-16231232Y7813851D01*
X-16085297Y7595443D01*
X-15899557Y7409703D01*
X-15681149Y7263768D01*
X-15530947Y7201552D01*
X-15049500Y6720105D01*
X-14568053Y7201552D01*
X-14417851Y7263768D01*
X-14199443Y7409703D01*
X-14097000Y7512146D01*
X-13994557Y7409703D01*
X-13776149Y7263768D01*
X-13625947Y7201552D01*
X-13144500Y6720105D01*
X-12663053Y7201552D01*
X-12512851Y7263768D01*
X-12294443Y7409703D01*
X-12192000Y7512146D01*
X-12089557Y7409703D01*
X-11871149Y7263768D01*
X-11720947Y7201552D01*
X-11239500Y6720105D01*
X-10758053Y7201552D01*
X-10607851Y7263768D01*
X-10389443Y7409703D01*
X-10203703Y7595443D01*
X-10057768Y7813851D01*
X-9957246Y8056532D01*
X-9906000Y8314162D01*
X-9906000Y8576838D01*
X-9957246Y8834468D01*
X-10057768Y9077149D01*
X-10203703Y9295557D01*
X-10306146Y9398000D01*
X-10203703Y9500443D01*
X-10057768Y9718851D01*
X-9957246Y9961532D01*
X-9906000Y10219162D01*
X-9906000Y10481838D01*
X-9957246Y10739468D01*
X-10057768Y10982149D01*
X-10203703Y11200557D01*
X-10389443Y11386297D01*
X-10607851Y11532232D01*
X-10850532Y11632754D01*
X-11108162Y11684000D01*
X-11370838Y11684000D01*
X-11628468Y11632754D01*
X-11871149Y11532232D01*
X-12089557Y11386297D01*
X-12192000Y11283854D01*
X-12294443Y11386297D01*
X-12512851Y11532232D01*
X-12755532Y11632754D01*
X-13013162Y11684000D01*
X-13275838Y11684000D01*
X-13533468Y11632754D01*
X-13776149Y11532232D01*
X-13994557Y11386297D01*
X-14097000Y11283854D01*
X-14199443Y11386297D01*
X-14417851Y11532232D01*
X-14660532Y11632754D01*
X-14918162Y11684000D01*
X-15180838Y11684000D01*
X-15438468Y11632754D01*
X-15681149Y11532232D01*
X-15899557Y11386297D01*
X-16085297Y11200557D01*
X-16231232Y10982149D01*
X-16331754Y10739468D01*
X-16383000Y10481838D01*
X-16700500Y10481838D01*
X-16700500Y10513109D01*
X-16763947Y10832079D01*
X-16888403Y11132542D01*
X-17069085Y11402951D01*
X-17299049Y11632915D01*
X-17569458Y11813597D01*
X-17869921Y11938053D01*
X-18188891Y12001500D01*
X-18514109Y12001500D01*
X-18833079Y11938053D01*
X-19133542Y11813597D01*
X-19403951Y11632915D01*
X-19633915Y11402951D01*
X-19814597Y11132542D01*
X-19939053Y10832079D01*
X-20002500Y10513109D01*
X-20206500Y10513109D01*
X-20206500Y12448384D01*
X14653221Y12448384D01*
X16184500Y10917105D01*
X17715779Y12448384D01*
X17522730Y12795481D01*
X17095524Y13017014D01*
X16633308Y13150945D01*
X16153845Y13192130D01*
X15675559Y13138984D01*
X15216832Y12993550D01*
X14846270Y12795481D01*
X14653221Y12448384D01*
X-20206500Y12448384D01*
X-20206500Y14738014D01*
X-16324381Y14738014D01*
X-16174651Y14427798D01*
X-15808755Y14242200D01*
X-15413681Y14131551D01*
X-15004613Y14100103D01*
X-14597269Y14149065D01*
X-14207304Y14276555D01*
X-13924349Y14427798D01*
X-13774619Y14738014D01*
X-15049500Y16012895D01*
X-16324381Y14738014D01*
X-20206500Y14738014D01*
X-20206500Y16147613D01*
X-17141897Y16147613D01*
X-17092935Y15740269D01*
X-16965445Y15350304D01*
X-16814202Y15067349D01*
X-16503986Y14917619D01*
X-15229105Y16192500D01*
X-14869895Y16192500D01*
X-13595014Y14917619D01*
X-13284798Y15067349D01*
X-13099200Y15433245D01*
X-12988551Y15828319D01*
X-12974306Y16013619D01*
X14274500Y16013619D01*
X14274500Y15637381D01*
X14347900Y15268373D01*
X14491880Y14920776D01*
X14700906Y14607946D01*
X14966946Y14341906D01*
X15279776Y14132880D01*
X15627373Y13988900D01*
X15996381Y13915500D01*
X16372619Y13915500D01*
X16741627Y13988900D01*
X17089224Y14132880D01*
X17402054Y14341906D01*
X17668094Y14607946D01*
X17877120Y14920776D01*
X18021100Y15268373D01*
X18094500Y15637381D01*
X18094500Y15794845D01*
X18349870Y15794845D01*
X18403016Y15316559D01*
X18548450Y14857832D01*
X18746519Y14487270D01*
X19093616Y14294221D01*
X20624895Y15825500D01*
X19093616Y17356779D01*
X18746519Y17163730D01*
X18524986Y16736524D01*
X18391055Y16274308D01*
X18349870Y15794845D01*
X18094500Y15794845D01*
X18094500Y16013619D01*
X18021100Y16382627D01*
X17877120Y16730224D01*
X17668094Y17043054D01*
X17402054Y17309094D01*
X17089224Y17518120D01*
X16741627Y17662100D01*
X16372619Y17735500D01*
X15996381Y17735500D01*
X15627373Y17662100D01*
X15279776Y17518120D01*
X14966946Y17309094D01*
X14700906Y17043054D01*
X14491880Y16730224D01*
X14347900Y16382627D01*
X14274500Y16013619D01*
X-12974306Y16013619D01*
X-12957103Y16237387D01*
X-13006065Y16644731D01*
X-13133555Y17034696D01*
X-13284798Y17317651D01*
X-13595014Y17467381D01*
X-14869895Y16192500D01*
X-15229105Y16192500D01*
X-16503986Y17467381D01*
X-16814202Y17317651D01*
X-16999800Y16951755D01*
X-17110449Y16556681D01*
X-17141897Y16147613D01*
X-20206500Y16147613D01*
X-20206500Y17646986D01*
X-16324381Y17646986D01*
X-15049500Y16372105D01*
X-13774619Y17646986D01*
X-13924349Y17957202D01*
X-14290245Y18142800D01*
X-14685319Y18253449D01*
X-15094387Y18284897D01*
X-15501731Y18235935D01*
X-15891696Y18108445D01*
X-16174651Y17957202D01*
X-16324381Y17646986D01*
X-20206500Y17646986D01*
X-20206500Y19202616D01*
X14653221Y19202616D01*
X14846270Y18855519D01*
X15273476Y18633986D01*
X15735692Y18500055D01*
X16215155Y18458870D01*
X16693441Y18512016D01*
X17152168Y18657450D01*
X17522730Y18855519D01*
X17715779Y19202616D01*
X16184500Y20733895D01*
X14653221Y19202616D01*
X-20206500Y19202616D01*
X-20206500Y20882845D01*
X13729870Y20882845D01*
X13783016Y20404559D01*
X13928450Y19945832D01*
X14126519Y19575270D01*
X14473616Y19382221D01*
X16004895Y20913500D01*
X16364105Y20913500D01*
X17895384Y19382221D01*
X18242481Y19575270D01*
X18464014Y20002476D01*
X18597945Y20464692D01*
X18639130Y20944155D01*
X18585984Y21422441D01*
X18440550Y21881168D01*
X18242481Y22251730D01*
X17895384Y22444779D01*
X16364105Y20913500D01*
X16004895Y20913500D01*
X14473616Y22444779D01*
X14126519Y22251730D01*
X13904986Y21824524D01*
X13771055Y21362308D01*
X13729870Y20882845D01*
X-20206500Y20882845D01*
X-20206500Y22624384D01*
X14653221Y22624384D01*
X16184500Y21093105D01*
X17715779Y22624384D01*
X17522730Y22971481D01*
X17095524Y23193014D01*
X16633308Y23326945D01*
X16153845Y23368130D01*
X15675559Y23314984D01*
X15216832Y23169550D01*
X14846270Y22971481D01*
X14653221Y22624384D01*
X-20206500Y22624384D01*
X-20206500Y26932121D01*
X-20175678Y26597562D01*
X-19960952Y25873292D01*
X-19609055Y25204830D01*
X-19582048Y25164412D01*
X-19092381Y24804224D01*
X-18906689Y24989916D01*
X-18892493Y24968670D01*
X-18748330Y24824507D01*
X-18727084Y24810311D01*
X-18912776Y24624619D01*
X-18552588Y24134952D01*
X-17888618Y23774651D01*
X-17167115Y23550806D01*
X-16415805Y23472020D01*
X-15663562Y23541322D01*
X-14939292Y23756048D01*
X-14270830Y24107945D01*
X-14230412Y24134952D01*
X-13870224Y24624619D01*
X-14055916Y24810311D01*
X-14034670Y24824507D01*
X-13890507Y24968670D01*
X-13876311Y24989916D01*
X-13690619Y24804224D01*
X-13200952Y25164412D01*
X-12840651Y25828382D01*
X-12616806Y26549885D01*
X-12596360Y26744867D01*
X5185972Y26744867D01*
X5248465Y26508550D01*
X5491178Y26395150D01*
X5751349Y26331281D01*
X6018982Y26319396D01*
X6283791Y26359952D01*
X6535600Y26451391D01*
X6642535Y26508550D01*
X6705028Y26744867D01*
X10185972Y26744867D01*
X10248465Y26508550D01*
X10491178Y26395150D01*
X10751349Y26331281D01*
X11018982Y26319396D01*
X11283791Y26359952D01*
X11535600Y26451391D01*
X11642535Y26508550D01*
X11705028Y26744867D01*
X10945500Y27504395D01*
X10185972Y26744867D01*
X6705028Y26744867D01*
X5945500Y27504395D01*
X5185972Y26744867D01*
X-12596360Y26744867D01*
X-12538020Y27301195D01*
X-12566517Y27610518D01*
X4580896Y27610518D01*
X4621452Y27345709D01*
X4712891Y27093900D01*
X4770050Y26986965D01*
X5006367Y26924472D01*
X5765895Y27684000D01*
X6125105Y27684000D01*
X6884633Y26924472D01*
X7120950Y26986965D01*
X7234350Y27229678D01*
X7298219Y27489849D01*
X7303577Y27610518D01*
X9580896Y27610518D01*
X9621452Y27345709D01*
X9712891Y27093900D01*
X9770050Y26986965D01*
X10006367Y26924472D01*
X10765895Y27684000D01*
X11125105Y27684000D01*
X11884633Y26924472D01*
X12120950Y26986965D01*
X12234350Y27229678D01*
X12298219Y27489849D01*
X12310104Y27757482D01*
X12269548Y28022291D01*
X12178109Y28274100D01*
X12120950Y28381035D01*
X11884633Y28443528D01*
X11125105Y27684000D01*
X10765895Y27684000D01*
X10006367Y28443528D01*
X9770050Y28381035D01*
X9656650Y28138322D01*
X9592781Y27878151D01*
X9580896Y27610518D01*
X7303577Y27610518D01*
X7310104Y27757482D01*
X7269548Y28022291D01*
X7178109Y28274100D01*
X7120950Y28381035D01*
X6884633Y28443528D01*
X6125105Y27684000D01*
X5765895Y27684000D01*
X5006367Y28443528D01*
X4770050Y28381035D01*
X4656650Y28138322D01*
X4592781Y27878151D01*
X4580896Y27610518D01*
X-12566517Y27610518D01*
X-12607322Y28053438D01*
X-12822048Y28777708D01*
X-13173945Y29446170D01*
X-13200952Y29486588D01*
X-13690619Y29846776D01*
X-13876311Y29661084D01*
X-13890507Y29682330D01*
X-14034670Y29826493D01*
X-14055916Y29840689D01*
X-13870224Y30026381D01*
X-14039862Y30257000D01*
X3710500Y30257000D01*
X3710500Y29907000D01*
X3759007Y29668504D01*
X3853110Y29444054D01*
X3989193Y29242275D01*
X4162026Y29070922D01*
X4364967Y28936579D01*
X4590218Y28844409D01*
X4627891Y28840538D01*
X4818500Y28965269D01*
X4818500Y30257000D01*
X5072500Y30257000D01*
X5072500Y28965269D01*
X5246362Y28851497D01*
X5185972Y28623133D01*
X5945500Y27863605D01*
X6705028Y28623133D01*
X10185972Y28623133D01*
X10945500Y27863605D01*
X11705028Y28623133D01*
X11644638Y28851497D01*
X11818500Y28965269D01*
X11818500Y30257000D01*
X12072500Y30257000D01*
X12072500Y28965269D01*
X12263109Y28840538D01*
X12300782Y28844409D01*
X12526033Y28936579D01*
X12728974Y29070922D01*
X12901807Y29242275D01*
X13037890Y29444054D01*
X13131993Y29668504D01*
X13180500Y29907000D01*
X13180500Y30257000D01*
X12072500Y30257000D01*
X11818500Y30257000D01*
X10710500Y30257000D01*
X10710500Y29907000D01*
X10759007Y29668504D01*
X10853110Y29444054D01*
X10989193Y29242275D01*
X11162026Y29070922D01*
X11257336Y29007829D01*
X11139651Y29036719D01*
X10872018Y29048604D01*
X10607209Y29008048D01*
X10355400Y28916609D01*
X10248465Y28859450D01*
X10185972Y28623133D01*
X6705028Y28623133D01*
X6642535Y28859450D01*
X6399822Y28972850D01*
X6139651Y29036719D01*
X5872018Y29048604D01*
X5642058Y29013385D01*
X5728974Y29070922D01*
X5901807Y29242275D01*
X6037890Y29444054D01*
X6131993Y29668504D01*
X6180500Y29907000D01*
X6180500Y30257000D01*
X5072500Y30257000D01*
X4818500Y30257000D01*
X3710500Y30257000D01*
X-14039862Y30257000D01*
X-14230412Y30516048D01*
X-14894382Y30876349D01*
X-15615885Y31100194D01*
X-16000246Y31140500D01*
X3776198Y31140500D01*
X3759007Y31099496D01*
X3759007Y31099496D01*
G37*
X3759007Y31099496D02*
X3710500Y30861000D01*
X3710500Y30511000D01*
X4818500Y30511000D01*
X4818500Y30531000D01*
X5072500Y30531000D01*
X5072500Y30511000D01*
X6180500Y30511000D01*
X6180500Y30861000D01*
X6131993Y31099496D01*
X6114802Y31140500D01*
X10776198Y31140500D01*
X10759007Y31099496D01*
X10710500Y30861000D01*
X10710500Y30511000D01*
X11818500Y30511000D01*
X11818500Y30531000D01*
X12072500Y30531000D01*
X12072500Y30511000D01*
X13180500Y30511000D01*
X13180500Y30861000D01*
X13131993Y31099496D01*
X13114802Y31140500D01*
X18284121Y31140500D01*
X17949562Y31109678D01*
X17225292Y30894952D01*
X16556830Y30543055D01*
X16516412Y30516048D01*
X16156224Y30026381D01*
X16341916Y29840689D01*
X16320670Y29826493D01*
X16176507Y29682330D01*
X16162311Y29661084D01*
X15976619Y29846776D01*
X15486952Y29486588D01*
X15126651Y28822618D01*
X14902806Y28101115D01*
X14824020Y27349805D01*
X14893322Y26597562D01*
X15108048Y25873292D01*
X15459945Y25204830D01*
X15486952Y25164412D01*
X15976619Y24804224D01*
X16162311Y24989916D01*
X16176507Y24968670D01*
X16320670Y24824507D01*
X16341916Y24810311D01*
X16156224Y24624619D01*
X16516412Y24134952D01*
X17180382Y23774651D01*
X17901885Y23550806D01*
X18653195Y23472020D01*
X19405438Y23541322D01*
X20129708Y23756048D01*
X20798170Y24107945D01*
X20838588Y24134952D01*
X21198776Y24624619D01*
X21013084Y24810311D01*
X21034330Y24824507D01*
X21178493Y24968670D01*
X21192689Y24989916D01*
X21378381Y24804224D01*
X21868048Y25164412D01*
X22228349Y25828382D01*
X22452194Y26549885D01*
X22492500Y26934247D01*
X22492500Y17608272D01*
X22450082Y17650690D01*
X22335778Y17536386D01*
X22142730Y17883481D01*
X21715524Y18105014D01*
X21253308Y18238945D01*
X20773845Y18280130D01*
X20295559Y18226984D01*
X19836832Y18081550D01*
X19466270Y17883481D01*
X19273221Y17536384D01*
X20804500Y16005105D01*
X20818643Y16019247D01*
X20998248Y15839642D01*
X20984105Y15825500D01*
X20998248Y15811357D01*
X20818643Y15631752D01*
X20804500Y15645895D01*
X19273221Y14114616D01*
X19466270Y13767519D01*
X19893476Y13545986D01*
X20355692Y13412055D01*
X20835155Y13370870D01*
X21313441Y13424016D01*
X21772168Y13569450D01*
X22142730Y13767519D01*
X22335778Y14114614D01*
X22450082Y14000310D01*
X22492500Y14042728D01*
X22492500Y2608272D01*
X22450082Y2650690D01*
X22335778Y2536386D01*
X22142730Y2883481D01*
X21715524Y3105014D01*
X21253308Y3238945D01*
X20773845Y3280130D01*
X20295559Y3226984D01*
X19836832Y3081550D01*
X19466270Y2883481D01*
X19273221Y2536384D01*
X20804500Y1005105D01*
X20818643Y1019247D01*
X20998248Y839642D01*
X20984105Y825500D01*
X20998248Y811357D01*
X20818643Y631752D01*
X20804500Y645895D01*
X19273221Y-885384D01*
X19466270Y-1232481D01*
X19893476Y-1454014D01*
X20355692Y-1587945D01*
X20835155Y-1629130D01*
X21313441Y-1575984D01*
X21772168Y-1430550D01*
X22142730Y-1232481D01*
X22335778Y-885386D01*
X22450082Y-999690D01*
X22492501Y-957271D01*
X22492501Y-12391729D01*
X22450082Y-12349310D01*
X22335778Y-12463614D01*
X22142730Y-12116519D01*
X21715524Y-11894986D01*
X21253308Y-11761055D01*
X20773845Y-11719870D01*
X20295559Y-11773016D01*
X19836832Y-11918450D01*
X19466270Y-12116519D01*
X19273221Y-12463616D01*
X20804500Y-13994895D01*
X20818643Y-13980753D01*
X20998248Y-14160358D01*
X20984105Y-14174500D01*
X20998248Y-14188643D01*
X20818643Y-14368248D01*
X20804500Y-14354105D01*
X19273221Y-15885384D01*
X19466270Y-16232481D01*
X19893476Y-16454014D01*
X20355692Y-16587945D01*
X20835155Y-16629130D01*
X21313441Y-16575984D01*
X21772168Y-16430550D01*
X22142730Y-16232481D01*
X22335778Y-15885386D01*
X22450082Y-15999690D01*
X22492501Y-15957271D01*
X22492501Y-25281132D01*
X22461678Y-24946562D01*
X22246952Y-24222292D01*
X21895055Y-23553830D01*
X21868048Y-23513412D01*
X21378381Y-23153224D01*
X21192689Y-23338916D01*
X21178493Y-23317670D01*
X21034330Y-23173507D01*
X21013084Y-23159311D01*
X21198776Y-22973619D01*
X20838588Y-22483952D01*
X20174618Y-22123651D01*
X19453115Y-21899806D01*
X18701805Y-21821020D01*
X17949562Y-21890322D01*
X17225292Y-22105048D01*
X16556830Y-22456945D01*
X16516412Y-22483952D01*
X16156224Y-22973619D01*
X16341916Y-23159311D01*
X16320670Y-23173507D01*
X16176507Y-23317670D01*
X16162311Y-23338916D01*
X15976619Y-23153224D01*
X15486952Y-23513412D01*
X15126651Y-24177382D01*
X14902806Y-24898885D01*
X14824020Y-25650195D01*
X14893322Y-26402438D01*
X15108048Y-27126708D01*
X15459945Y-27795170D01*
X15486952Y-27835588D01*
X15976619Y-28195776D01*
X16162311Y-28010084D01*
X16176507Y-28031330D01*
X16320670Y-28175493D01*
X16341916Y-28189689D01*
X16156224Y-28375381D01*
X16516412Y-28865048D01*
X17180382Y-29225349D01*
X17901885Y-29449194D01*
X18286246Y-29489500D01*
X10906052Y-29489500D01*
X10938300Y-29327380D01*
X10938300Y-29063620D01*
X10886843Y-28804928D01*
X10785907Y-28561246D01*
X10639369Y-28341937D01*
X10452863Y-28155431D01*
X10359300Y-28092914D01*
X10359300Y-26998086D01*
X10452863Y-26935569D01*
X10639369Y-26749063D01*
X10785907Y-26529754D01*
X10886843Y-26286072D01*
X10938300Y-26027380D01*
X10938300Y-25763620D01*
X10886843Y-25504928D01*
X10785907Y-25261246D01*
X10639369Y-25041937D01*
X10452863Y-24855431D01*
X10233554Y-24708893D01*
X9989872Y-24607957D01*
X9731180Y-24556500D01*
X9467420Y-24556500D01*
X9357055Y-24578453D01*
X8664303Y-23885702D01*
X8640501Y-23856699D01*
X8524776Y-23761726D01*
X8392747Y-23691154D01*
X8249486Y-23647697D01*
X8137833Y-23636700D01*
X8137822Y-23636700D01*
X8100500Y-23633024D01*
X8063178Y-23636700D01*
X1814472Y-23636700D01*
X-848844Y-20973384D01*
X14653221Y-20973384D01*
X14846270Y-21320481D01*
X15273476Y-21542014D01*
X15735692Y-21675945D01*
X16215155Y-21717130D01*
X16693441Y-21663984D01*
X17152168Y-21518550D01*
X17522730Y-21320481D01*
X17715779Y-20973384D01*
X16184500Y-19442105D01*
X14653221Y-20973384D01*
X-848844Y-20973384D01*
X-1670326Y-20151903D01*
X-1694129Y-20122899D01*
X-1809854Y-20027926D01*
X-1941883Y-19957354D01*
X-2085144Y-19913897D01*
X-2141698Y-19908327D01*
X-2166568Y-19861799D01*
X-2345892Y-19643292D01*
X-2564399Y-19463968D01*
X-2813692Y-19330718D01*
X-2937522Y-19293155D01*
X13729870Y-19293155D01*
X13783016Y-19771441D01*
X13928450Y-20230168D01*
X14126519Y-20600730D01*
X14473616Y-20793779D01*
X16004895Y-19262500D01*
X16364105Y-19262500D01*
X17895384Y-20793779D01*
X18242481Y-20600730D01*
X18464014Y-20173524D01*
X18597945Y-19711308D01*
X18639130Y-19231845D01*
X18585984Y-18753559D01*
X18440550Y-18294832D01*
X18242481Y-17924270D01*
X17895384Y-17731221D01*
X16364105Y-19262500D01*
X16004895Y-19262500D01*
X14473616Y-17731221D01*
X14126519Y-17924270D01*
X13904986Y-18351476D01*
X13771055Y-18813692D01*
X13729870Y-19293155D01*
X-2937522Y-19293155D01*
X-3084191Y-19248664D01*
X-3295008Y-19227900D01*
X-3435992Y-19227900D01*
X-3646809Y-19248664D01*
X-3917308Y-19330718D01*
X-4166601Y-19463968D01*
X-4385108Y-19643292D01*
X-4564432Y-19861799D01*
X-4586401Y-19902900D01*
X-4684599Y-19902900D01*
X-4706568Y-19861799D01*
X-4885892Y-19643292D01*
X-5104399Y-19463968D01*
X-5353692Y-19330718D01*
X-5624191Y-19248664D01*
X-5835008Y-19227900D01*
X-5975992Y-19227900D01*
X-6186809Y-19248664D01*
X-6457308Y-19330718D01*
X-6706601Y-19463968D01*
X-6925108Y-19643292D01*
X-6999700Y-19734183D01*
X-6999700Y-17551616D01*
X14653221Y-17551616D01*
X16184500Y-19082895D01*
X17715779Y-17551616D01*
X17522730Y-17204519D01*
X17095524Y-16982986D01*
X16633308Y-16849055D01*
X16153845Y-16807870D01*
X15675559Y-16861016D01*
X15216832Y-17006450D01*
X14846270Y-17204519D01*
X14653221Y-17551616D01*
X-6999700Y-17551616D01*
X-6999700Y-16507301D01*
X-1983898Y-11491500D01*
X2661789Y-11491500D01*
X2705726Y-11535437D01*
X2833032Y-11620500D01*
X2705726Y-11705563D01*
X2561563Y-11849726D01*
X2448295Y-12019244D01*
X2370274Y-12207602D01*
X2330500Y-12407561D01*
X2330500Y-12611439D01*
X2370274Y-12811398D01*
X2448295Y-12999756D01*
X2561563Y-13169274D01*
X2705726Y-13313437D01*
X2875244Y-13426705D01*
X3063602Y-13504726D01*
X3263561Y-13544500D01*
X3467439Y-13544500D01*
X3667398Y-13504726D01*
X3855756Y-13426705D01*
X4025274Y-13313437D01*
X4069211Y-13269500D01*
X4598178Y-13269500D01*
X4635500Y-13273176D01*
X4672822Y-13269500D01*
X4672833Y-13269500D01*
X4784486Y-13258503D01*
X4927747Y-13215046D01*
X5059776Y-13144474D01*
X5175501Y-13049501D01*
X5199304Y-13020497D01*
X10480503Y-7739299D01*
X10509501Y-7715501D01*
X10535832Y-7683417D01*
X10604474Y-7599777D01*
X10675046Y-7467747D01*
X10718503Y-7324486D01*
X10729500Y-7212833D01*
X10729500Y-7212824D01*
X10733176Y-7175501D01*
X10729500Y-7138178D01*
X10729500Y121789D01*
X10773437Y165726D01*
X10886705Y335244D01*
X10961000Y514606D01*
X10960999Y-9673677D01*
X10957323Y-9710999D01*
X10960999Y-9748321D01*
X10960999Y-9748331D01*
X10971996Y-9859984D01*
X11008983Y-9981915D01*
X11015453Y-10003245D01*
X11086025Y-10135275D01*
X11108448Y-10162597D01*
X11180998Y-10251000D01*
X11210002Y-10274803D01*
X14407847Y-13472649D01*
X14347900Y-13617373D01*
X14274500Y-13986381D01*
X14274500Y-14362619D01*
X14347900Y-14731627D01*
X14491880Y-15079224D01*
X14700906Y-15392054D01*
X14966946Y-15658094D01*
X15279776Y-15867120D01*
X15627373Y-16011100D01*
X15996381Y-16084500D01*
X16372619Y-16084500D01*
X16741627Y-16011100D01*
X17089224Y-15867120D01*
X17402054Y-15658094D01*
X17668094Y-15392054D01*
X17877120Y-15079224D01*
X18021100Y-14731627D01*
X18094500Y-14362619D01*
X18094500Y-14205155D01*
X18349870Y-14205155D01*
X18403016Y-14683441D01*
X18548450Y-15142168D01*
X18746519Y-15512730D01*
X19093616Y-15705779D01*
X20624895Y-14174500D01*
X19093616Y-12643221D01*
X18746519Y-12836270D01*
X18524986Y-13263476D01*
X18391055Y-13725692D01*
X18349870Y-14205155D01*
X18094500Y-14205155D01*
X18094500Y-13986381D01*
X18021100Y-13617373D01*
X17877120Y-13269776D01*
X17668094Y-12956946D01*
X17402054Y-12690906D01*
X17089224Y-12481880D01*
X16741627Y-12337900D01*
X16372619Y-12264500D01*
X15996381Y-12264500D01*
X15627373Y-12337900D01*
X15482649Y-12397847D01*
X13882186Y-10797384D01*
X14653221Y-10797384D01*
X14846270Y-11144481D01*
X15273476Y-11366014D01*
X15735692Y-11499945D01*
X16215155Y-11541130D01*
X16693441Y-11487984D01*
X17152168Y-11342550D01*
X17522730Y-11144481D01*
X17715779Y-10797384D01*
X16184500Y-9266105D01*
X14653221Y-10797384D01*
X13882186Y-10797384D01*
X12480999Y-9396198D01*
X12480999Y-9117155D01*
X13729870Y-9117155D01*
X13783016Y-9595441D01*
X13928450Y-10054168D01*
X14126519Y-10424730D01*
X14473616Y-10617779D01*
X16004895Y-9086500D01*
X16364105Y-9086500D01*
X17895384Y-10617779D01*
X18242481Y-10424730D01*
X18464014Y-9997524D01*
X18597945Y-9535308D01*
X18639130Y-9055845D01*
X18585984Y-8577559D01*
X18440550Y-8118832D01*
X18242481Y-7748270D01*
X17895384Y-7555221D01*
X16364105Y-9086500D01*
X16004895Y-9086500D01*
X14473616Y-7555221D01*
X14126519Y-7748270D01*
X13904986Y-8175476D01*
X13771055Y-8637692D01*
X13729870Y-9117155D01*
X12480999Y-9117155D01*
X12480999Y-5973384D01*
X14653221Y-5973384D01*
X14846270Y-6320481D01*
X15273476Y-6542014D01*
X15735692Y-6675945D01*
X15747819Y-6676987D01*
X15675559Y-6685016D01*
X15216832Y-6830450D01*
X14846270Y-7028519D01*
X14653221Y-7375616D01*
X16184500Y-8906895D01*
X17715779Y-7375616D01*
X17522730Y-7028519D01*
X17095524Y-6806986D01*
X16633308Y-6673055D01*
X16621181Y-6672013D01*
X16693441Y-6663984D01*
X17152168Y-6518550D01*
X17522730Y-6320481D01*
X17715779Y-5973384D01*
X16184500Y-4442105D01*
X14653221Y-5973384D01*
X12480999Y-5973384D01*
X12480999Y-4293155D01*
X13729870Y-4293155D01*
X13783016Y-4771441D01*
X13928450Y-5230168D01*
X14126519Y-5600730D01*
X14473616Y-5793779D01*
X16004895Y-4262500D01*
X16364105Y-4262500D01*
X17895384Y-5793779D01*
X18242481Y-5600730D01*
X18464014Y-5173524D01*
X18597945Y-4711308D01*
X18639130Y-4231845D01*
X18585984Y-3753559D01*
X18440550Y-3294832D01*
X18242481Y-2924270D01*
X17895384Y-2731221D01*
X16364105Y-4262500D01*
X16004895Y-4262500D01*
X14473616Y-2731221D01*
X14126519Y-2924270D01*
X13904986Y-3351476D01*
X13771055Y-3813692D01*
X13729870Y-4293155D01*
X12480999Y-4293155D01*
X12480999Y-2551616D01*
X14653221Y-2551616D01*
X16184500Y-4082895D01*
X17715779Y-2551616D01*
X17522730Y-2204519D01*
X17095524Y-1982986D01*
X16633308Y-1849055D01*
X16153845Y-1807870D01*
X15675559Y-1861016D01*
X15216832Y-2006450D01*
X14846270Y-2204519D01*
X14653221Y-2551616D01*
X12480999Y-2551616D01*
X12480999Y1013619D01*
X14274500Y1013619D01*
X14274500Y637381D01*
X14347900Y268373D01*
X14491880Y-79224D01*
X14700906Y-392054D01*
X14966946Y-658094D01*
X15279776Y-867120D01*
X15627373Y-1011100D01*
X15996381Y-1084500D01*
X16372619Y-1084500D01*
X16741627Y-1011100D01*
X17089224Y-867120D01*
X17402054Y-658094D01*
X17668094Y-392054D01*
X17877120Y-79224D01*
X18021100Y268373D01*
X18094500Y637381D01*
X18094500Y794845D01*
X18349870Y794845D01*
X18403016Y316559D01*
X18548450Y-142168D01*
X18746519Y-512730D01*
X19093616Y-705779D01*
X20624895Y825500D01*
X19093616Y2356779D01*
X18746519Y2163730D01*
X18524986Y1736524D01*
X18391055Y1274308D01*
X18349870Y794845D01*
X18094500Y794845D01*
X18094500Y1013619D01*
X18021100Y1382627D01*
X17877120Y1730224D01*
X17668094Y2043054D01*
X17402054Y2309094D01*
X17089224Y2518120D01*
X16741627Y2662100D01*
X16372619Y2735500D01*
X15996381Y2735500D01*
X15627373Y2662100D01*
X15279776Y2518120D01*
X14966946Y2309094D01*
X14700906Y2043054D01*
X14491880Y1730224D01*
X14347900Y1382627D01*
X14274500Y1013619D01*
X12480999Y1013619D01*
X12480999Y2775000D01*
X12547939Y2775000D01*
X12747898Y2814774D01*
X12936256Y2892795D01*
X13105774Y3006063D01*
X13249937Y3150226D01*
X13363205Y3319744D01*
X13441226Y3508102D01*
X13481000Y3708061D01*
X13481000Y3911939D01*
X13441226Y4111898D01*
X13403650Y4202616D01*
X14653221Y4202616D01*
X14846270Y3855519D01*
X15273476Y3633986D01*
X15735692Y3500055D01*
X16215155Y3458870D01*
X16693441Y3512016D01*
X17152168Y3657450D01*
X17522730Y3855519D01*
X17715779Y4202616D01*
X16184500Y5733895D01*
X14653221Y4202616D01*
X13403650Y4202616D01*
X13363205Y4300256D01*
X13249937Y4469774D01*
X13206000Y4513711D01*
X13206000Y5882845D01*
X13729870Y5882845D01*
X13783016Y5404559D01*
X13928450Y4945832D01*
X14126519Y4575270D01*
X14473616Y4382221D01*
X16004895Y5913500D01*
X16364105Y5913500D01*
X17895384Y4382221D01*
X18242481Y4575270D01*
X18464014Y5002476D01*
X18597945Y5464692D01*
X18639130Y5944155D01*
X18585984Y6422441D01*
X18440550Y6881168D01*
X18242481Y7251730D01*
X17895384Y7444779D01*
X16364105Y5913500D01*
X16004895Y5913500D01*
X14473616Y7444779D01*
X14126519Y7251730D01*
X13904986Y6824524D01*
X13771055Y6362308D01*
X13729870Y5882845D01*
X13206000Y5882845D01*
X13206000Y6877677D01*
X13209676Y6915002D01*
X13206000Y6952327D01*
X13206000Y6952335D01*
X13195003Y7063988D01*
X13151546Y7207249D01*
X13080974Y7339278D01*
X12986001Y7455003D01*
X12957003Y7478801D01*
X11409188Y9026616D01*
X14653221Y9026616D01*
X14846270Y8679519D01*
X15273476Y8457986D01*
X15735692Y8324055D01*
X15747819Y8323013D01*
X15675559Y8314984D01*
X15216832Y8169550D01*
X14846270Y7971481D01*
X14653221Y7624384D01*
X16184500Y6093105D01*
X17715779Y7624384D01*
X17522730Y7971481D01*
X17095524Y8193014D01*
X16633308Y8326945D01*
X16621181Y8327987D01*
X16693441Y8336016D01*
X17152168Y8481450D01*
X17522730Y8679519D01*
X17715779Y9026616D01*
X16184500Y10557895D01*
X14653221Y9026616D01*
X11409188Y9026616D01*
X10717306Y9718497D01*
X10693503Y9747501D01*
X10577778Y9842474D01*
X10445749Y9913046D01*
X10302488Y9956503D01*
X10190835Y9967500D01*
X10190824Y9967500D01*
X10153502Y9971176D01*
X10116180Y9967500D01*
X8387211Y9967500D01*
X8343274Y10011437D01*
X8173756Y10124705D01*
X7985398Y10202726D01*
X7785439Y10242500D01*
X7581561Y10242500D01*
X7381602Y10202726D01*
X7193244Y10124705D01*
X7023726Y10011437D01*
X6879563Y9867274D01*
X6766295Y9697756D01*
X6688274Y9509398D01*
X6648500Y9309439D01*
X6648500Y9105561D01*
X6688274Y8905602D01*
X6766295Y8717244D01*
X6774481Y8704992D01*
X6684489Y8615000D01*
X6571221Y8445482D01*
X6493200Y8257124D01*
X6453426Y8057165D01*
X6453426Y7995027D01*
X6219998Y7761599D01*
X6191000Y7737801D01*
X6167202Y7708803D01*
X6167201Y7708802D01*
X6096026Y7622076D01*
X6025454Y7490046D01*
X6011723Y7444779D01*
X5981998Y7346786D01*
X5979682Y7323274D01*
X5967324Y7197800D01*
X5971001Y7160468D01*
X5971000Y1587299D01*
X5459000Y2099299D01*
X5459000Y3550789D01*
X5502937Y3594726D01*
X5616205Y3764244D01*
X5694226Y3952602D01*
X5734000Y4152561D01*
X5734000Y4356439D01*
X5694226Y4556398D01*
X5616205Y4744756D01*
X5502937Y4914274D01*
X5358774Y5058437D01*
X5189256Y5171705D01*
X5000898Y5249726D01*
X4800939Y5289500D01*
X4597061Y5289500D01*
X4397102Y5249726D01*
X4208744Y5171705D01*
X4039226Y5058437D01*
X3895063Y4914274D01*
X3871500Y4879009D01*
X3871500Y10281789D01*
X3915437Y10325726D01*
X4028705Y10495244D01*
X4106726Y10683602D01*
X4111349Y10706845D01*
X13729870Y10706845D01*
X13783016Y10228559D01*
X13928450Y9769832D01*
X14126519Y9399270D01*
X14473616Y9206221D01*
X16004895Y10737500D01*
X16364105Y10737500D01*
X17895384Y9206221D01*
X18242481Y9399270D01*
X18464014Y9826476D01*
X18597945Y10288692D01*
X18639130Y10768155D01*
X18585984Y11246441D01*
X18440550Y11705168D01*
X18242481Y12075730D01*
X17895384Y12268779D01*
X16364105Y10737500D01*
X16004895Y10737500D01*
X14473616Y12268779D01*
X14126519Y12075730D01*
X13904986Y11648524D01*
X13771055Y11186308D01*
X13729870Y10706845D01*
X4111349Y10706845D01*
X4146500Y10883561D01*
X4146500Y11087439D01*
X4106726Y11287398D01*
X4028705Y11475756D01*
X3915437Y11645274D01*
X3771274Y11789437D01*
X3601756Y11902705D01*
X3413398Y11980726D01*
X3213439Y12020500D01*
X3009561Y12020500D01*
X2809602Y11980726D01*
X2621244Y11902705D01*
X2451726Y11789437D01*
X2307563Y11645274D01*
X2194295Y11475756D01*
X2116274Y11287398D01*
X2076500Y11087439D01*
X2076500Y10883561D01*
X2116274Y10683602D01*
X2194295Y10495244D01*
X2307563Y10325726D01*
X2351501Y10281788D01*
X2351500Y-3645678D01*
X2347824Y-3683000D01*
X2351500Y-3720322D01*
X2351500Y-3720332D01*
X2362497Y-3831985D01*
X2405954Y-3975246D01*
X2476526Y-4107276D01*
X2516371Y-4155826D01*
X2571499Y-4223001D01*
X2600503Y-4246804D01*
X5061000Y-6707303D01*
X5061000Y-6769439D01*
X5100774Y-6969398D01*
X5178795Y-7157756D01*
X5292063Y-7327274D01*
X5436226Y-7471437D01*
X5504885Y-7517313D01*
X3325699Y-9696500D01*
X3263561Y-9696500D01*
X3063602Y-9736274D01*
X2875244Y-9814295D01*
X2705726Y-9927563D01*
X2661789Y-9971500D01*
X-2261378Y-9971500D01*
X-2298701Y-9967824D01*
X-2336024Y-9971500D01*
X-2336033Y-9971500D01*
X-2447686Y-9982497D01*
X-2590947Y-10025954D01*
X-2722976Y-10096526D01*
X-2838701Y-10191499D01*
X-2862499Y-10220497D01*
X-8270702Y-15628701D01*
X-8299700Y-15652499D01*
X-8323498Y-15681497D01*
X-8323499Y-15681498D01*
X-8394674Y-15768224D01*
X-8465246Y-15900254D01*
X-8508702Y-16043515D01*
X-8523376Y-16192500D01*
X-8519699Y-16229832D01*
X-8519700Y-25341378D01*
X-8523376Y-25378700D01*
X-8519700Y-25416022D01*
X-8519700Y-25416032D01*
X-8508703Y-25527685D01*
X-8469244Y-25657765D01*
X-8465246Y-25670946D01*
X-8394674Y-25802976D01*
X-8389908Y-25808783D01*
X-8299701Y-25918701D01*
X-8270697Y-25942504D01*
X-7167864Y-27045337D01*
X-7236037Y-27128406D01*
X-7295002Y-27238720D01*
X-7331312Y-27358418D01*
X-7343572Y-27482900D01*
X-7343572Y-29082900D01*
X-7331312Y-29207382D01*
X-7295002Y-29327080D01*
X-7236037Y-29437394D01*
X-7193275Y-29489500D01*
X-15998121Y-29489500D01*
X-15663562Y-29458678D01*
X-14939292Y-29243952D01*
X-14270830Y-28892055D01*
X-14230412Y-28865048D01*
X-13870224Y-28375381D01*
X-14055916Y-28189689D01*
X-14034670Y-28175493D01*
X-13890507Y-28031330D01*
X-13876311Y-28010084D01*
X-13690619Y-28195776D01*
X-13200952Y-27835588D01*
X-12840651Y-27171618D01*
X-12616806Y-26450115D01*
X-12538020Y-25698805D01*
X-12607322Y-24946562D01*
X-12822048Y-24222292D01*
X-13173945Y-23553830D01*
X-13200952Y-23513412D01*
X-13690619Y-23153224D01*
X-13876311Y-23338916D01*
X-13890507Y-23317670D01*
X-14034670Y-23173507D01*
X-14055916Y-23159311D01*
X-13870224Y-22973619D01*
X-14230412Y-22483952D01*
X-14894382Y-22123651D01*
X-15615885Y-21899806D01*
X-16367195Y-21821020D01*
X-17119438Y-21890322D01*
X-17843708Y-22105048D01*
X-18512170Y-22456945D01*
X-18552588Y-22483952D01*
X-18912776Y-22973619D01*
X-18727084Y-23159311D01*
X-18748330Y-23173507D01*
X-18892493Y-23317670D01*
X-18906689Y-23338916D01*
X-19092381Y-23153224D01*
X-19582048Y-23513412D01*
X-19942349Y-24177382D01*
X-20166194Y-24898885D01*
X-20206500Y-25283246D01*
X-20206500Y-15995986D01*
X-16324381Y-15995986D01*
X-16174651Y-16306202D01*
X-15808755Y-16491800D01*
X-15413681Y-16602449D01*
X-15004613Y-16633897D01*
X-14597269Y-16584935D01*
X-14207304Y-16457445D01*
X-13924349Y-16306202D01*
X-13774619Y-15995986D01*
X-15049500Y-14721105D01*
X-16324381Y-15995986D01*
X-20206500Y-15995986D01*
X-20206500Y-14586387D01*
X-17141897Y-14586387D01*
X-17092935Y-14993731D01*
X-16965445Y-15383696D01*
X-16814202Y-15666651D01*
X-16503986Y-15816381D01*
X-15229105Y-14541500D01*
X-14869895Y-14541500D01*
X-13595014Y-15816381D01*
X-13284798Y-15666651D01*
X-13099200Y-15300755D01*
X-12988551Y-14905681D01*
X-12957103Y-14496613D01*
X-13006065Y-14089269D01*
X-13133555Y-13699304D01*
X-13284798Y-13416349D01*
X-13595014Y-13266619D01*
X-14869895Y-14541500D01*
X-15229105Y-14541500D01*
X-16503986Y-13266619D01*
X-16814202Y-13416349D01*
X-16999800Y-13782245D01*
X-17110449Y-14177319D01*
X-17141897Y-14586387D01*
X-20206500Y-14586387D01*
X-20206500Y-13087014D01*
X-16324381Y-13087014D01*
X-15049500Y-14361895D01*
X-13774619Y-13087014D01*
X-13924349Y-12776798D01*
X-14290245Y-12591200D01*
X-14685319Y-12480551D01*
X-15094387Y-12449103D01*
X-15501731Y-12498065D01*
X-15891696Y-12625555D01*
X-16174651Y-12776798D01*
X-16324381Y-13087014D01*
X-20206500Y-13087014D01*
X-20206500Y-8536891D01*
X-20002500Y-8536891D01*
X-20002500Y-8862109D01*
X-19939053Y-9181079D01*
X-19814597Y-9481542D01*
X-19633915Y-9751951D01*
X-19403951Y-9981915D01*
X-19133542Y-10162597D01*
X-18833079Y-10287053D01*
X-18514109Y-10350500D01*
X-18188891Y-10350500D01*
X-17869921Y-10287053D01*
X-17569458Y-10162597D01*
X-17299049Y-9981915D01*
X-17069085Y-9751951D01*
X-16888403Y-9481542D01*
X-16763947Y-9181079D01*
X-16700500Y-8862109D01*
X-16700500Y-8536891D01*
X-16763947Y-8217921D01*
X-16888403Y-7917458D01*
X-17069085Y-7647049D01*
X-17209585Y-7506549D01*
X-16958318Y-7506549D01*
X-16918810Y-7753578D01*
X-16831869Y-7988153D01*
X-16786446Y-8073131D01*
X-16559300Y-8124695D01*
X-15864105Y-7429500D01*
X-16559300Y-6734305D01*
X-16786446Y-6785869D01*
X-16890839Y-7013216D01*
X-16948873Y-7256559D01*
X-16958318Y-7506549D01*
X-17209585Y-7506549D01*
X-17299049Y-7417085D01*
X-17569458Y-7236403D01*
X-17869921Y-7111947D01*
X-18188891Y-7048500D01*
X-18514109Y-7048500D01*
X-18833079Y-7111947D01*
X-19133542Y-7236403D01*
X-19403951Y-7417085D01*
X-19633915Y-7647049D01*
X-19814597Y-7917458D01*
X-19939053Y-8217921D01*
X-20002500Y-8536891D01*
X-20206500Y-8536891D01*
X-20206500Y-6554700D01*
X-16379695Y-6554700D01*
X-15684500Y-7249895D01*
X-15670357Y-7235753D01*
X-15490752Y-7415358D01*
X-15504895Y-7429500D01*
X-15490752Y-7443643D01*
X-15670357Y-7623248D01*
X-15684500Y-7609105D01*
X-16379695Y-8304300D01*
X-16328131Y-8531446D01*
X-16100784Y-8635839D01*
X-15857441Y-8693873D01*
X-15684500Y-8700407D01*
X-15684500Y-8824584D01*
X-15635695Y-9069945D01*
X-15539959Y-9301071D01*
X-15400973Y-9509078D01*
X-15224078Y-9685973D01*
X-15016071Y-9824959D01*
X-14784945Y-9920695D01*
X-14539584Y-9969500D01*
X-14289416Y-9969500D01*
X-14044055Y-9920695D01*
X-13812929Y-9824959D01*
X-13604922Y-9685973D01*
X-13428027Y-9509078D01*
X-13289041Y-9301071D01*
X-13193305Y-9069945D01*
X-13144500Y-8824584D01*
X-13095695Y-9069945D01*
X-12999959Y-9301071D01*
X-12860973Y-9509078D01*
X-12684078Y-9685973D01*
X-12476071Y-9824959D01*
X-12244945Y-9920695D01*
X-11999584Y-9969500D01*
X-11749416Y-9969500D01*
X-11504055Y-9920695D01*
X-11272929Y-9824959D01*
X-11064922Y-9685973D01*
X-10888027Y-9509078D01*
X-10749041Y-9301071D01*
X-10653305Y-9069945D01*
X-10604500Y-8824584D01*
X-10604500Y-8699500D01*
X-10479416Y-8699500D01*
X-10234055Y-8650695D01*
X-10002929Y-8554959D01*
X-9794922Y-8415973D01*
X-9618027Y-8239078D01*
X-9479041Y-8031071D01*
X-9383305Y-7799945D01*
X-9334500Y-7554584D01*
X-9334500Y-7304416D01*
X-9383305Y-7059055D01*
X-9479041Y-6827929D01*
X-9618027Y-6619922D01*
X-9794922Y-6443027D01*
X-10002929Y-6304041D01*
X-10234055Y-6208305D01*
X-10479416Y-6159500D01*
X-10604500Y-6159500D01*
X-10604500Y-6034416D01*
X-10653305Y-5789055D01*
X-10749041Y-5557929D01*
X-10888027Y-5349922D01*
X-11064922Y-5173027D01*
X-11272929Y-5034041D01*
X-11504055Y-4938305D01*
X-11749416Y-4889500D01*
X-11999584Y-4889500D01*
X-12244945Y-4938305D01*
X-12476071Y-5034041D01*
X-12684078Y-5173027D01*
X-12860973Y-5349922D01*
X-12999959Y-5557929D01*
X-13095695Y-5789055D01*
X-13144500Y-6034416D01*
X-13193305Y-5789055D01*
X-13289041Y-5557929D01*
X-13428027Y-5349922D01*
X-13604922Y-5173027D01*
X-13812929Y-5034041D01*
X-14044055Y-4938305D01*
X-14289416Y-4889500D01*
X-14539584Y-4889500D01*
X-14784945Y-4938305D01*
X-15016071Y-5034041D01*
X-15224078Y-5173027D01*
X-15400973Y-5349922D01*
X-15539959Y-5557929D01*
X-15635695Y-5789055D01*
X-15684500Y-6034416D01*
X-15684500Y-6158593D01*
X-15761549Y-6155682D01*
X-16008578Y-6195190D01*
X-16243153Y-6282131D01*
X-16328131Y-6327554D01*
X-16379695Y-6554700D01*
X-20206500Y-6554700D01*
X-20206500Y750967D01*
X-16387376Y750967D01*
X-16347129Y491393D01*
X-16257014Y244658D01*
X-16203312Y144186D01*
X-15969697Y84908D01*
X-15229105Y825500D01*
X-15969697Y1566092D01*
X-16203312Y1506814D01*
X-16314059Y1268625D01*
X-16376211Y1013407D01*
X-16387376Y750967D01*
X-20206500Y750967D01*
X-20206500Y4766838D01*
X-16383000Y4766838D01*
X-16383000Y4504162D01*
X-16331754Y4246532D01*
X-16231232Y4003851D01*
X-16085297Y3785443D01*
X-15982854Y3683000D01*
X-16085297Y3580557D01*
X-16231232Y3362149D01*
X-16331754Y3119468D01*
X-16383000Y2861838D01*
X-16383000Y2599162D01*
X-16331754Y2341532D01*
X-16231232Y2098851D01*
X-16085297Y1880443D01*
X-15899557Y1694703D01*
X-15681149Y1548768D01*
X-15530947Y1486552D01*
X-15049500Y1005105D01*
X-14568053Y1486552D01*
X-14417851Y1548768D01*
X-14199443Y1694703D01*
X-14097000Y1797146D01*
X-14077854Y1778000D01*
X-14180297Y1675557D01*
X-14326232Y1457149D01*
X-14388448Y1306947D01*
X-14869895Y825500D01*
X-14388448Y344053D01*
X-14326232Y193851D01*
X-14180297Y-24557D01*
X-13994557Y-210297D01*
X-13776149Y-356232D01*
X-13625947Y-418448D01*
X-13144500Y-899895D01*
X-12663053Y-418448D01*
X-12512851Y-356232D01*
X-12294443Y-210297D01*
X-12192000Y-107854D01*
X-12172854Y-127000D01*
X-12275297Y-229443D01*
X-12421232Y-447851D01*
X-12483448Y-598053D01*
X-12964895Y-1079500D01*
X-12483448Y-1560947D01*
X-12421232Y-1711149D01*
X-12275297Y-1929557D01*
X-12172854Y-2032000D01*
X-12192000Y-2051146D01*
X-12294443Y-1948703D01*
X-12512851Y-1802768D01*
X-12663053Y-1740552D01*
X-13144500Y-1259105D01*
X-13625947Y-1740552D01*
X-13776149Y-1802768D01*
X-13994557Y-1948703D01*
X-14097000Y-2051146D01*
X-14116146Y-2032000D01*
X-14013703Y-1929557D01*
X-13867768Y-1711149D01*
X-13805552Y-1560947D01*
X-13324105Y-1079500D01*
X-13805552Y-598053D01*
X-13867768Y-447851D01*
X-14013703Y-229443D01*
X-14199443Y-43703D01*
X-14417851Y102232D01*
X-14568053Y164448D01*
X-15049500Y645895D01*
X-15530947Y164448D01*
X-15681149Y102232D01*
X-15899557Y-43703D01*
X-16085297Y-229443D01*
X-16231232Y-447851D01*
X-16331754Y-690532D01*
X-16383000Y-948162D01*
X-16383000Y-1210838D01*
X-16331754Y-1468468D01*
X-16231232Y-1711149D01*
X-16085297Y-1929557D01*
X-15982854Y-2032000D01*
X-16085297Y-2134443D01*
X-16231232Y-2352851D01*
X-16331754Y-2595532D01*
X-16383000Y-2853162D01*
X-16383000Y-3115838D01*
X-16331754Y-3373468D01*
X-16231232Y-3616149D01*
X-16085297Y-3834557D01*
X-15899557Y-4020297D01*
X-15681149Y-4166232D01*
X-15438468Y-4266754D01*
X-15180838Y-4318000D01*
X-14918162Y-4318000D01*
X-14660532Y-4266754D01*
X-14417851Y-4166232D01*
X-14199443Y-4020297D01*
X-14097000Y-3917854D01*
X-13994557Y-4020297D01*
X-13776149Y-4166232D01*
X-13533468Y-4266754D01*
X-13275838Y-4318000D01*
X-13013162Y-4318000D01*
X-12755532Y-4266754D01*
X-12512851Y-4166232D01*
X-12294443Y-4020297D01*
X-12192000Y-3917854D01*
X-12089557Y-4020297D01*
X-11871149Y-4166232D01*
X-11628468Y-4266754D01*
X-11370838Y-4318000D01*
X-11108162Y-4318000D01*
X-10850532Y-4266754D01*
X-10607851Y-4166232D01*
X-10389443Y-4020297D01*
X-10203703Y-3834557D01*
X-10057768Y-3616149D01*
X-9957246Y-3373468D01*
X-9906000Y-3115838D01*
X-9906000Y-2853162D01*
X-9957246Y-2595532D01*
X-10057768Y-2352851D01*
X-10203703Y-2134443D01*
X-10306146Y-2032000D01*
X-10203703Y-1929557D01*
X-10057768Y-1711149D01*
X-9957246Y-1468468D01*
X-9906000Y-1210838D01*
X-9906000Y-948162D01*
X-9957246Y-690532D01*
X-10057768Y-447851D01*
X-10203703Y-229443D01*
X-10306146Y-127000D01*
X-10203703Y-24557D01*
X-10057768Y193851D01*
X-9957246Y436532D01*
X-9906000Y694162D01*
X-9906000Y956838D01*
X-9957246Y1214468D01*
X-10057768Y1457149D01*
X-10203703Y1675557D01*
X-10306146Y1778000D01*
X-10203703Y1880443D01*
X-10057768Y2098851D01*
X-9957246Y2341532D01*
X-9906000Y2599162D01*
X-9906000Y2861838D01*
X-9957246Y3119468D01*
X-10057768Y3362149D01*
X-10203703Y3580557D01*
X-10306146Y3683000D01*
X-10203703Y3785443D01*
X-10057768Y4003851D01*
X-9957246Y4246532D01*
X-9906000Y4504162D01*
X-9906000Y4766838D01*
X-9957246Y5024468D01*
X-10057768Y5267149D01*
X-10203703Y5485557D01*
X-10389443Y5671297D01*
X-10607851Y5817232D01*
X-10758053Y5879448D01*
X-11239500Y6360895D01*
X-11720947Y5879448D01*
X-11871149Y5817232D01*
X-12089557Y5671297D01*
X-12192000Y5568854D01*
X-12294443Y5671297D01*
X-12512851Y5817232D01*
X-12663053Y5879448D01*
X-13144500Y6360895D01*
X-13625947Y5879448D01*
X-13776149Y5817232D01*
X-13994557Y5671297D01*
X-14097000Y5568854D01*
X-14199443Y5671297D01*
X-14417851Y5817232D01*
X-14568053Y5879448D01*
X-15049500Y6360895D01*
X-15530947Y5879448D01*
X-15681149Y5817232D01*
X-15899557Y5671297D01*
X-16085297Y5485557D01*
X-16231232Y5267149D01*
X-16331754Y5024468D01*
X-16383000Y4766838D01*
X-20206500Y4766838D01*
X-20206500Y6465967D01*
X-16387376Y6465967D01*
X-16347129Y6206393D01*
X-16257014Y5959658D01*
X-16203312Y5859186D01*
X-15969697Y5799908D01*
X-15229105Y6540500D01*
X-14869895Y6540500D01*
X-14388240Y6058845D01*
X-14352014Y5959658D01*
X-14298312Y5859186D01*
X-14151270Y5821875D01*
X-14129303Y5799908D01*
X-14097000Y5808105D01*
X-14064697Y5799908D01*
X-14042730Y5821875D01*
X-13895688Y5859186D01*
X-13800332Y6064273D01*
X-13324105Y6540500D01*
X-12964895Y6540500D01*
X-12483240Y6058845D01*
X-12447014Y5959658D01*
X-12393312Y5859186D01*
X-12246270Y5821875D01*
X-12224303Y5799908D01*
X-12192000Y5808105D01*
X-12159697Y5799908D01*
X-12137730Y5821875D01*
X-11990688Y5859186D01*
X-11895332Y6064273D01*
X-11419105Y6540500D01*
X-11059895Y6540500D01*
X-10319303Y5799908D01*
X-10085688Y5859186D01*
X-9974941Y6097375D01*
X-9912789Y6352593D01*
X-9901624Y6615033D01*
X-9941871Y6874607D01*
X-10031986Y7121342D01*
X-10085688Y7221814D01*
X-10319303Y7281092D01*
X-11059895Y6540500D01*
X-11419105Y6540500D01*
X-11900760Y7022155D01*
X-11936986Y7121342D01*
X-11990688Y7221814D01*
X-12137730Y7259125D01*
X-12159697Y7281092D01*
X-12192000Y7272895D01*
X-12224303Y7281092D01*
X-12246270Y7259125D01*
X-12393312Y7221814D01*
X-12488668Y7016727D01*
X-12964895Y6540500D01*
X-13324105Y6540500D01*
X-13805760Y7022155D01*
X-13841986Y7121342D01*
X-13895688Y7221814D01*
X-14042730Y7259125D01*
X-14064697Y7281092D01*
X-14097000Y7272895D01*
X-14129303Y7281092D01*
X-14151270Y7259125D01*
X-14298312Y7221814D01*
X-14393668Y7016727D01*
X-14869895Y6540500D01*
X-15229105Y6540500D01*
X-15969697Y7281092D01*
X-16203312Y7221814D01*
X-16314059Y6983625D01*
X-16376211Y6728407D01*
X-16387376Y6465967D01*
X-20206500Y6465967D01*
X-20206500Y10513109D01*
X-20002500Y10513109D01*
X-20002500Y10187891D01*
X-19939053Y9868921D01*
X-19814597Y9568458D01*
X-19633915Y9298049D01*
X-19403951Y9068085D01*
X-19133542Y8887403D01*
X-18833079Y8762947D01*
X-18514109Y8699500D01*
X-18188891Y8699500D01*
X-17869921Y8762947D01*
X-17569458Y8887403D01*
X-17299049Y9068085D01*
X-17069085Y9298049D01*
X-16888403Y9568458D01*
X-16763947Y9868921D01*
X-16700500Y10187891D01*
X-16700500Y10481838D01*
X-16383000Y10481838D01*
X-16383000Y10219162D01*
X-16331754Y9961532D01*
X-16231232Y9718851D01*
X-16085297Y9500443D01*
X-15982854Y9398000D01*
X-16085297Y9295557D01*
X-16231232Y9077149D01*
X-16331754Y8834468D01*
X-16383000Y8576838D01*
X-16383000Y8314162D01*
X-16331754Y8056532D01*
X-16231232Y7813851D01*
X-16085297Y7595443D01*
X-15899557Y7409703D01*
X-15681149Y7263768D01*
X-15530947Y7201552D01*
X-15049500Y6720105D01*
X-14568053Y7201552D01*
X-14417851Y7263768D01*
X-14199443Y7409703D01*
X-14097000Y7512146D01*
X-13994557Y7409703D01*
X-13776149Y7263768D01*
X-13625947Y7201552D01*
X-13144500Y6720105D01*
X-12663053Y7201552D01*
X-12512851Y7263768D01*
X-12294443Y7409703D01*
X-12192000Y7512146D01*
X-12089557Y7409703D01*
X-11871149Y7263768D01*
X-11720947Y7201552D01*
X-11239500Y6720105D01*
X-10758053Y7201552D01*
X-10607851Y7263768D01*
X-10389443Y7409703D01*
X-10203703Y7595443D01*
X-10057768Y7813851D01*
X-9957246Y8056532D01*
X-9906000Y8314162D01*
X-9906000Y8576838D01*
X-9957246Y8834468D01*
X-10057768Y9077149D01*
X-10203703Y9295557D01*
X-10306146Y9398000D01*
X-10203703Y9500443D01*
X-10057768Y9718851D01*
X-9957246Y9961532D01*
X-9906000Y10219162D01*
X-9906000Y10481838D01*
X-9957246Y10739468D01*
X-10057768Y10982149D01*
X-10203703Y11200557D01*
X-10389443Y11386297D01*
X-10607851Y11532232D01*
X-10850532Y11632754D01*
X-11108162Y11684000D01*
X-11370838Y11684000D01*
X-11628468Y11632754D01*
X-11871149Y11532232D01*
X-12089557Y11386297D01*
X-12192000Y11283854D01*
X-12294443Y11386297D01*
X-12512851Y11532232D01*
X-12755532Y11632754D01*
X-13013162Y11684000D01*
X-13275838Y11684000D01*
X-13533468Y11632754D01*
X-13776149Y11532232D01*
X-13994557Y11386297D01*
X-14097000Y11283854D01*
X-14199443Y11386297D01*
X-14417851Y11532232D01*
X-14660532Y11632754D01*
X-14918162Y11684000D01*
X-15180838Y11684000D01*
X-15438468Y11632754D01*
X-15681149Y11532232D01*
X-15899557Y11386297D01*
X-16085297Y11200557D01*
X-16231232Y10982149D01*
X-16331754Y10739468D01*
X-16383000Y10481838D01*
X-16700500Y10481838D01*
X-16700500Y10513109D01*
X-16763947Y10832079D01*
X-16888403Y11132542D01*
X-17069085Y11402951D01*
X-17299049Y11632915D01*
X-17569458Y11813597D01*
X-17869921Y11938053D01*
X-18188891Y12001500D01*
X-18514109Y12001500D01*
X-18833079Y11938053D01*
X-19133542Y11813597D01*
X-19403951Y11632915D01*
X-19633915Y11402951D01*
X-19814597Y11132542D01*
X-19939053Y10832079D01*
X-20002500Y10513109D01*
X-20206500Y10513109D01*
X-20206500Y12448384D01*
X14653221Y12448384D01*
X16184500Y10917105D01*
X17715779Y12448384D01*
X17522730Y12795481D01*
X17095524Y13017014D01*
X16633308Y13150945D01*
X16153845Y13192130D01*
X15675559Y13138984D01*
X15216832Y12993550D01*
X14846270Y12795481D01*
X14653221Y12448384D01*
X-20206500Y12448384D01*
X-20206500Y14738014D01*
X-16324381Y14738014D01*
X-16174651Y14427798D01*
X-15808755Y14242200D01*
X-15413681Y14131551D01*
X-15004613Y14100103D01*
X-14597269Y14149065D01*
X-14207304Y14276555D01*
X-13924349Y14427798D01*
X-13774619Y14738014D01*
X-15049500Y16012895D01*
X-16324381Y14738014D01*
X-20206500Y14738014D01*
X-20206500Y16147613D01*
X-17141897Y16147613D01*
X-17092935Y15740269D01*
X-16965445Y15350304D01*
X-16814202Y15067349D01*
X-16503986Y14917619D01*
X-15229105Y16192500D01*
X-14869895Y16192500D01*
X-13595014Y14917619D01*
X-13284798Y15067349D01*
X-13099200Y15433245D01*
X-12988551Y15828319D01*
X-12974306Y16013619D01*
X14274500Y16013619D01*
X14274500Y15637381D01*
X14347900Y15268373D01*
X14491880Y14920776D01*
X14700906Y14607946D01*
X14966946Y14341906D01*
X15279776Y14132880D01*
X15627373Y13988900D01*
X15996381Y13915500D01*
X16372619Y13915500D01*
X16741627Y13988900D01*
X17089224Y14132880D01*
X17402054Y14341906D01*
X17668094Y14607946D01*
X17877120Y14920776D01*
X18021100Y15268373D01*
X18094500Y15637381D01*
X18094500Y15794845D01*
X18349870Y15794845D01*
X18403016Y15316559D01*
X18548450Y14857832D01*
X18746519Y14487270D01*
X19093616Y14294221D01*
X20624895Y15825500D01*
X19093616Y17356779D01*
X18746519Y17163730D01*
X18524986Y16736524D01*
X18391055Y16274308D01*
X18349870Y15794845D01*
X18094500Y15794845D01*
X18094500Y16013619D01*
X18021100Y16382627D01*
X17877120Y16730224D01*
X17668094Y17043054D01*
X17402054Y17309094D01*
X17089224Y17518120D01*
X16741627Y17662100D01*
X16372619Y17735500D01*
X15996381Y17735500D01*
X15627373Y17662100D01*
X15279776Y17518120D01*
X14966946Y17309094D01*
X14700906Y17043054D01*
X14491880Y16730224D01*
X14347900Y16382627D01*
X14274500Y16013619D01*
X-12974306Y16013619D01*
X-12957103Y16237387D01*
X-13006065Y16644731D01*
X-13133555Y17034696D01*
X-13284798Y17317651D01*
X-13595014Y17467381D01*
X-14869895Y16192500D01*
X-15229105Y16192500D01*
X-16503986Y17467381D01*
X-16814202Y17317651D01*
X-16999800Y16951755D01*
X-17110449Y16556681D01*
X-17141897Y16147613D01*
X-20206500Y16147613D01*
X-20206500Y17646986D01*
X-16324381Y17646986D01*
X-15049500Y16372105D01*
X-13774619Y17646986D01*
X-13924349Y17957202D01*
X-14290245Y18142800D01*
X-14685319Y18253449D01*
X-15094387Y18284897D01*
X-15501731Y18235935D01*
X-15891696Y18108445D01*
X-16174651Y17957202D01*
X-16324381Y17646986D01*
X-20206500Y17646986D01*
X-20206500Y19202616D01*
X14653221Y19202616D01*
X14846270Y18855519D01*
X15273476Y18633986D01*
X15735692Y18500055D01*
X16215155Y18458870D01*
X16693441Y18512016D01*
X17152168Y18657450D01*
X17522730Y18855519D01*
X17715779Y19202616D01*
X16184500Y20733895D01*
X14653221Y19202616D01*
X-20206500Y19202616D01*
X-20206500Y20882845D01*
X13729870Y20882845D01*
X13783016Y20404559D01*
X13928450Y19945832D01*
X14126519Y19575270D01*
X14473616Y19382221D01*
X16004895Y20913500D01*
X16364105Y20913500D01*
X17895384Y19382221D01*
X18242481Y19575270D01*
X18464014Y20002476D01*
X18597945Y20464692D01*
X18639130Y20944155D01*
X18585984Y21422441D01*
X18440550Y21881168D01*
X18242481Y22251730D01*
X17895384Y22444779D01*
X16364105Y20913500D01*
X16004895Y20913500D01*
X14473616Y22444779D01*
X14126519Y22251730D01*
X13904986Y21824524D01*
X13771055Y21362308D01*
X13729870Y20882845D01*
X-20206500Y20882845D01*
X-20206500Y22624384D01*
X14653221Y22624384D01*
X16184500Y21093105D01*
X17715779Y22624384D01*
X17522730Y22971481D01*
X17095524Y23193014D01*
X16633308Y23326945D01*
X16153845Y23368130D01*
X15675559Y23314984D01*
X15216832Y23169550D01*
X14846270Y22971481D01*
X14653221Y22624384D01*
X-20206500Y22624384D01*
X-20206500Y26932121D01*
X-20175678Y26597562D01*
X-19960952Y25873292D01*
X-19609055Y25204830D01*
X-19582048Y25164412D01*
X-19092381Y24804224D01*
X-18906689Y24989916D01*
X-18892493Y24968670D01*
X-18748330Y24824507D01*
X-18727084Y24810311D01*
X-18912776Y24624619D01*
X-18552588Y24134952D01*
X-17888618Y23774651D01*
X-17167115Y23550806D01*
X-16415805Y23472020D01*
X-15663562Y23541322D01*
X-14939292Y23756048D01*
X-14270830Y24107945D01*
X-14230412Y24134952D01*
X-13870224Y24624619D01*
X-14055916Y24810311D01*
X-14034670Y24824507D01*
X-13890507Y24968670D01*
X-13876311Y24989916D01*
X-13690619Y24804224D01*
X-13200952Y25164412D01*
X-12840651Y25828382D01*
X-12616806Y26549885D01*
X-12596360Y26744867D01*
X5185972Y26744867D01*
X5248465Y26508550D01*
X5491178Y26395150D01*
X5751349Y26331281D01*
X6018982Y26319396D01*
X6283791Y26359952D01*
X6535600Y26451391D01*
X6642535Y26508550D01*
X6705028Y26744867D01*
X10185972Y26744867D01*
X10248465Y26508550D01*
X10491178Y26395150D01*
X10751349Y26331281D01*
X11018982Y26319396D01*
X11283791Y26359952D01*
X11535600Y26451391D01*
X11642535Y26508550D01*
X11705028Y26744867D01*
X10945500Y27504395D01*
X10185972Y26744867D01*
X6705028Y26744867D01*
X5945500Y27504395D01*
X5185972Y26744867D01*
X-12596360Y26744867D01*
X-12538020Y27301195D01*
X-12566517Y27610518D01*
X4580896Y27610518D01*
X4621452Y27345709D01*
X4712891Y27093900D01*
X4770050Y26986965D01*
X5006367Y26924472D01*
X5765895Y27684000D01*
X6125105Y27684000D01*
X6884633Y26924472D01*
X7120950Y26986965D01*
X7234350Y27229678D01*
X7298219Y27489849D01*
X7303577Y27610518D01*
X9580896Y27610518D01*
X9621452Y27345709D01*
X9712891Y27093900D01*
X9770050Y26986965D01*
X10006367Y26924472D01*
X10765895Y27684000D01*
X11125105Y27684000D01*
X11884633Y26924472D01*
X12120950Y26986965D01*
X12234350Y27229678D01*
X12298219Y27489849D01*
X12310104Y27757482D01*
X12269548Y28022291D01*
X12178109Y28274100D01*
X12120950Y28381035D01*
X11884633Y28443528D01*
X11125105Y27684000D01*
X10765895Y27684000D01*
X10006367Y28443528D01*
X9770050Y28381035D01*
X9656650Y28138322D01*
X9592781Y27878151D01*
X9580896Y27610518D01*
X7303577Y27610518D01*
X7310104Y27757482D01*
X7269548Y28022291D01*
X7178109Y28274100D01*
X7120950Y28381035D01*
X6884633Y28443528D01*
X6125105Y27684000D01*
X5765895Y27684000D01*
X5006367Y28443528D01*
X4770050Y28381035D01*
X4656650Y28138322D01*
X4592781Y27878151D01*
X4580896Y27610518D01*
X-12566517Y27610518D01*
X-12607322Y28053438D01*
X-12822048Y28777708D01*
X-13173945Y29446170D01*
X-13200952Y29486588D01*
X-13690619Y29846776D01*
X-13876311Y29661084D01*
X-13890507Y29682330D01*
X-14034670Y29826493D01*
X-14055916Y29840689D01*
X-13870224Y30026381D01*
X-14039862Y30257000D01*
X3710500Y30257000D01*
X3710500Y29907000D01*
X3759007Y29668504D01*
X3853110Y29444054D01*
X3989193Y29242275D01*
X4162026Y29070922D01*
X4364967Y28936579D01*
X4590218Y28844409D01*
X4627891Y28840538D01*
X4818500Y28965269D01*
X4818500Y30257000D01*
X5072500Y30257000D01*
X5072500Y28965269D01*
X5246362Y28851497D01*
X5185972Y28623133D01*
X5945500Y27863605D01*
X6705028Y28623133D01*
X10185972Y28623133D01*
X10945500Y27863605D01*
X11705028Y28623133D01*
X11644638Y28851497D01*
X11818500Y28965269D01*
X11818500Y30257000D01*
X12072500Y30257000D01*
X12072500Y28965269D01*
X12263109Y28840538D01*
X12300782Y28844409D01*
X12526033Y28936579D01*
X12728974Y29070922D01*
X12901807Y29242275D01*
X13037890Y29444054D01*
X13131993Y29668504D01*
X13180500Y29907000D01*
X13180500Y30257000D01*
X12072500Y30257000D01*
X11818500Y30257000D01*
X10710500Y30257000D01*
X10710500Y29907000D01*
X10759007Y29668504D01*
X10853110Y29444054D01*
X10989193Y29242275D01*
X11162026Y29070922D01*
X11257336Y29007829D01*
X11139651Y29036719D01*
X10872018Y29048604D01*
X10607209Y29008048D01*
X10355400Y28916609D01*
X10248465Y28859450D01*
X10185972Y28623133D01*
X6705028Y28623133D01*
X6642535Y28859450D01*
X6399822Y28972850D01*
X6139651Y29036719D01*
X5872018Y29048604D01*
X5642058Y29013385D01*
X5728974Y29070922D01*
X5901807Y29242275D01*
X6037890Y29444054D01*
X6131993Y29668504D01*
X6180500Y29907000D01*
X6180500Y30257000D01*
X5072500Y30257000D01*
X4818500Y30257000D01*
X3710500Y30257000D01*
X-14039862Y30257000D01*
X-14230412Y30516048D01*
X-14894382Y30876349D01*
X-15615885Y31100194D01*
X-16000246Y31140500D01*
X3776198Y31140500D01*
X3759007Y31099496D01*
G36*
X-4564432Y-21464001D02*
G01*
X-4385108Y-21682508D01*
X-4166601Y-21861832D01*
X-3917308Y-21995082D01*
X-3646809Y-22077136D01*
X-3435992Y-22097900D01*
X-3295008Y-22097900D01*
X-3084191Y-22077136D01*
X-2813692Y-21995082D01*
X-2564399Y-21861832D01*
X-2345892Y-21682508D01*
X-2320393Y-21651438D01*
X935870Y-24907702D01*
X959669Y-24936701D01*
X988667Y-24960499D01*
X1075394Y-25031674D01*
X1207423Y-25102246D01*
X1350684Y-25145703D01*
X1499670Y-25160377D01*
X1537003Y-25156700D01*
X3482549Y-25156700D01*
X3412693Y-25261246D01*
X3311757Y-25504928D01*
X3260300Y-25763620D01*
X3260300Y-26027380D01*
X3311757Y-26286072D01*
X3412693Y-26529754D01*
X3559231Y-26749063D01*
X3745737Y-26935569D01*
X3839301Y-26998086D01*
X3839300Y-28092914D01*
X3745737Y-28155431D01*
X3559231Y-28341937D01*
X3412693Y-28561246D01*
X3311757Y-28804928D01*
X3260300Y-29063620D01*
X3260300Y-29327380D01*
X3292548Y-29489500D01*
X-2578745Y-29489500D01*
X-2564399Y-29481832D01*
X-2345892Y-29302508D01*
X-2166568Y-29084001D01*
X-2033318Y-28834708D01*
X-1951264Y-28564209D01*
X-1923557Y-28282900D01*
X-1951264Y-28001591D01*
X-2033318Y-27731092D01*
X-2166568Y-27481799D01*
X-2345892Y-27263292D01*
X-2564399Y-27083968D01*
X-2813692Y-26950718D01*
X-3084191Y-26868664D01*
X-3295008Y-26847900D01*
X-3435992Y-26847900D01*
X-3646809Y-26868664D01*
X-3917308Y-26950718D01*
X-4166601Y-27083968D01*
X-4385108Y-27263292D01*
X-4477919Y-27376382D01*
X-4479688Y-27358418D01*
X-4515998Y-27238720D01*
X-4574963Y-27128406D01*
X-4654315Y-27031715D01*
X-4751006Y-26952363D01*
X-4861320Y-26893398D01*
X-4981018Y-26857088D01*
X-5105500Y-26844828D01*
X-5251174Y-26844828D01*
X-5270526Y-26808624D01*
X-5365499Y-26692899D01*
X-5394497Y-26669101D01*
X-6999700Y-25063899D01*
X-6999700Y-21591617D01*
X-6925108Y-21682508D01*
X-6706601Y-21861832D01*
X-6457308Y-21995082D01*
X-6186809Y-22077136D01*
X-5975992Y-22097900D01*
X-5835008Y-22097900D01*
X-5624191Y-22077136D01*
X-5353692Y-21995082D01*
X-5104399Y-21861832D01*
X-4885892Y-21682508D01*
X-4706568Y-21464001D01*
X-4684599Y-21422900D01*
X-4586401Y-21422900D01*
X-4564432Y-21464001D01*
X-4564432Y-21464001D01*
G37*
X-4564432Y-21464001D02*
X-4385108Y-21682508D01*
X-4166601Y-21861832D01*
X-3917308Y-21995082D01*
X-3646809Y-22077136D01*
X-3435992Y-22097900D01*
X-3295008Y-22097900D01*
X-3084191Y-22077136D01*
X-2813692Y-21995082D01*
X-2564399Y-21861832D01*
X-2345892Y-21682508D01*
X-2320393Y-21651438D01*
X935870Y-24907702D01*
X959669Y-24936701D01*
X988667Y-24960499D01*
X1075394Y-25031674D01*
X1207423Y-25102246D01*
X1350684Y-25145703D01*
X1499670Y-25160377D01*
X1537003Y-25156700D01*
X3482549Y-25156700D01*
X3412693Y-25261246D01*
X3311757Y-25504928D01*
X3260300Y-25763620D01*
X3260300Y-26027380D01*
X3311757Y-26286072D01*
X3412693Y-26529754D01*
X3559231Y-26749063D01*
X3745737Y-26935569D01*
X3839301Y-26998086D01*
X3839300Y-28092914D01*
X3745737Y-28155431D01*
X3559231Y-28341937D01*
X3412693Y-28561246D01*
X3311757Y-28804928D01*
X3260300Y-29063620D01*
X3260300Y-29327380D01*
X3292548Y-29489500D01*
X-2578745Y-29489500D01*
X-2564399Y-29481832D01*
X-2345892Y-29302508D01*
X-2166568Y-29084001D01*
X-2033318Y-28834708D01*
X-1951264Y-28564209D01*
X-1923557Y-28282900D01*
X-1951264Y-28001591D01*
X-2033318Y-27731092D01*
X-2166568Y-27481799D01*
X-2345892Y-27263292D01*
X-2564399Y-27083968D01*
X-2813692Y-26950718D01*
X-3084191Y-26868664D01*
X-3295008Y-26847900D01*
X-3435992Y-26847900D01*
X-3646809Y-26868664D01*
X-3917308Y-26950718D01*
X-4166601Y-27083968D01*
X-4385108Y-27263292D01*
X-4477919Y-27376382D01*
X-4479688Y-27358418D01*
X-4515998Y-27238720D01*
X-4574963Y-27128406D01*
X-4654315Y-27031715D01*
X-4751006Y-26952363D01*
X-4861320Y-26893398D01*
X-4981018Y-26857088D01*
X-5105500Y-26844828D01*
X-5251174Y-26844828D01*
X-5270526Y-26808624D01*
X-5365499Y-26692899D01*
X-5394497Y-26669101D01*
X-6999700Y-25063899D01*
X-6999700Y-21591617D01*
X-6925108Y-21682508D01*
X-6706601Y-21861832D01*
X-6457308Y-21995082D01*
X-6186809Y-22077136D01*
X-5975992Y-22097900D01*
X-5835008Y-22097900D01*
X-5624191Y-22077136D01*
X-5353692Y-21995082D01*
X-5104399Y-21861832D01*
X-4885892Y-21682508D01*
X-4706568Y-21464001D01*
X-4684599Y-21422900D01*
X-4586401Y-21422900D01*
X-4564432Y-21464001D01*
G36*
X-15498381Y-24637218D02*
G01*
X-15354218Y-24781381D01*
X-15332972Y-24795577D01*
X-16211895Y-25674500D01*
X-15332972Y-26553423D01*
X-15354218Y-26567619D01*
X-15498381Y-26711782D01*
X-15512577Y-26733028D01*
X-16391500Y-25854105D01*
X-16405642Y-25868248D01*
X-16585247Y-25688643D01*
X-16571105Y-25674500D01*
X-17450028Y-24795577D01*
X-17428782Y-24781381D01*
X-17284619Y-24637218D01*
X-17270423Y-24615972D01*
X-16391500Y-25494895D01*
X-15512577Y-24615972D01*
X-15498381Y-24637218D01*
X-15498381Y-24637218D01*
G37*
X-15498381Y-24637218D02*
X-15354218Y-24781381D01*
X-15332972Y-24795577D01*
X-16211895Y-25674500D01*
X-15332972Y-26553423D01*
X-15354218Y-26567619D01*
X-15498381Y-26711782D01*
X-15512577Y-26733028D01*
X-16391500Y-25854105D01*
X-16405642Y-25868248D01*
X-16585247Y-25688643D01*
X-16571105Y-25674500D01*
X-17450028Y-24795577D01*
X-17428782Y-24781381D01*
X-17284619Y-24637218D01*
X-17270423Y-24615972D01*
X-16391500Y-25494895D01*
X-15512577Y-24615972D01*
X-15498381Y-24637218D01*
G36*
X19570619Y-24637218D02*
G01*
X19714782Y-24781381D01*
X19736028Y-24795577D01*
X18857105Y-25674500D01*
X18871248Y-25688643D01*
X18691643Y-25868248D01*
X18677500Y-25854105D01*
X17798577Y-26733028D01*
X17784381Y-26711782D01*
X17640218Y-26567619D01*
X17618972Y-26553423D01*
X18497895Y-25674500D01*
X17618972Y-24795577D01*
X17640218Y-24781381D01*
X17784381Y-24637218D01*
X17798577Y-24615972D01*
X18677500Y-25494895D01*
X19556423Y-24615972D01*
X19570619Y-24637218D01*
X19570619Y-24637218D01*
G37*
X19570619Y-24637218D02*
X19714782Y-24781381D01*
X19736028Y-24795577D01*
X18857105Y-25674500D01*
X18871248Y-25688643D01*
X18691643Y-25868248D01*
X18677500Y-25854105D01*
X17798577Y-26733028D01*
X17784381Y-26711782D01*
X17640218Y-26567619D01*
X17618972Y-26553423D01*
X18497895Y-25674500D01*
X17618972Y-24795577D01*
X17640218Y-24781381D01*
X17784381Y-24637218D01*
X17798577Y-24615972D01*
X18677500Y-25494895D01*
X19556423Y-24615972D01*
X19570619Y-24637218D01*
G36*
X9209501Y-6860697D02*
G01*
X4320699Y-11749500D01*
X4069211Y-11749500D01*
X4025274Y-11705563D01*
X3897968Y-11620500D01*
X4025274Y-11535437D01*
X4169437Y-11391274D01*
X4282705Y-11221756D01*
X4360726Y-11033398D01*
X4400500Y-10833439D01*
X4400500Y-10771301D01*
X8788574Y-6383228D01*
X8817571Y-6359431D01*
X8849536Y-6320481D01*
X8912544Y-6243707D01*
X8983116Y-6111677D01*
X9006552Y-6034416D01*
X9026573Y-5968416D01*
X9037570Y-5856763D01*
X9037570Y-5856753D01*
X9041246Y-5819431D01*
X9037570Y-5782108D01*
X9037570Y-2238093D01*
X9081507Y-2194156D01*
X9194775Y-2024638D01*
X9209500Y-1989088D01*
X9209501Y-6860697D01*
X9209501Y-6860697D01*
G37*
X9209501Y-6860697D02*
X4320699Y-11749500D01*
X4069211Y-11749500D01*
X4025274Y-11705563D01*
X3897968Y-11620500D01*
X4025274Y-11535437D01*
X4169437Y-11391274D01*
X4282705Y-11221756D01*
X4360726Y-11033398D01*
X4400500Y-10833439D01*
X4400500Y-10771301D01*
X8788574Y-6383228D01*
X8817571Y-6359431D01*
X8849536Y-6320481D01*
X8912544Y-6243707D01*
X8983116Y-6111677D01*
X9006552Y-6034416D01*
X9026573Y-5968416D01*
X9037570Y-5856763D01*
X9037570Y-5856753D01*
X9041246Y-5819431D01*
X9037570Y-5782108D01*
X9037570Y-2238093D01*
X9081507Y-2194156D01*
X9194775Y-2024638D01*
X9209500Y-1989088D01*
X9209501Y-6860697D01*
G36*
X3895063Y3594726D02*
G01*
X3939000Y3550789D01*
X3939001Y1821830D01*
X3935324Y1784498D01*
X3949998Y1635513D01*
X3993454Y1492252D01*
X4064026Y1360222D01*
X4100519Y1315756D01*
X4159000Y1244497D01*
X4187998Y1220699D01*
X6618203Y-1209508D01*
X6641997Y-1238501D01*
X6670990Y-1262295D01*
X6670994Y-1262299D01*
X6741683Y-1320311D01*
X6757722Y-1333474D01*
X6889751Y-1404046D01*
X7033012Y-1447503D01*
X7144665Y-1458500D01*
X7144674Y-1458500D01*
X7181997Y-1462176D01*
X7219320Y-1458500D01*
X7242570Y-1458500D01*
X7242570Y-1636321D01*
X7282344Y-1836280D01*
X7360365Y-2024638D01*
X7473633Y-2194156D01*
X7517571Y-2238094D01*
X7517570Y-5504628D01*
X6945813Y-6076385D01*
X6899937Y-6007726D01*
X6755774Y-5863563D01*
X6586256Y-5750295D01*
X6397898Y-5672274D01*
X6197939Y-5632500D01*
X6135803Y-5632500D01*
X3871500Y-3368199D01*
X3871500Y3629991D01*
X3895063Y3594726D01*
X3895063Y3594726D01*
G37*
X3895063Y3594726D02*
X3939000Y3550789D01*
X3939001Y1821830D01*
X3935324Y1784498D01*
X3949998Y1635513D01*
X3993454Y1492252D01*
X4064026Y1360222D01*
X4100519Y1315756D01*
X4159000Y1244497D01*
X4187998Y1220699D01*
X6618203Y-1209508D01*
X6641997Y-1238501D01*
X6670990Y-1262295D01*
X6670994Y-1262299D01*
X6741683Y-1320311D01*
X6757722Y-1333474D01*
X6889751Y-1404046D01*
X7033012Y-1447503D01*
X7144665Y-1458500D01*
X7144674Y-1458500D01*
X7181997Y-1462176D01*
X7219320Y-1458500D01*
X7242570Y-1458500D01*
X7242570Y-1636321D01*
X7282344Y-1836280D01*
X7360365Y-2024638D01*
X7473633Y-2194156D01*
X7517571Y-2238094D01*
X7517570Y-5504628D01*
X6945813Y-6076385D01*
X6899937Y-6007726D01*
X6755774Y-5863563D01*
X6586256Y-5750295D01*
X6397898Y-5672274D01*
X6197939Y-5632500D01*
X6135803Y-5632500D01*
X3871500Y-3368199D01*
X3871500Y3629991D01*
X3895063Y3594726D01*
G36*
X8934500Y8420439D02*
G01*
X8934500Y8216561D01*
X8974274Y8016602D01*
X9052295Y7828244D01*
X9165563Y7658726D01*
X9309726Y7514563D01*
X9479244Y7401295D01*
X9667602Y7323274D01*
X9867561Y7283500D01*
X9929699Y7283500D01*
X10961000Y6252198D01*
X10961000Y1136394D01*
X10886705Y1315756D01*
X10773437Y1485274D01*
X10629274Y1629437D01*
X10459756Y1742705D01*
X10271398Y1820726D01*
X10071439Y1860500D01*
X9867561Y1860500D01*
X9667602Y1820726D01*
X9479244Y1742705D01*
X9309726Y1629437D01*
X9165563Y1485274D01*
X9052295Y1315756D01*
X8974274Y1127398D01*
X8934500Y927439D01*
X8934500Y723561D01*
X8974274Y523602D01*
X9051775Y336500D01*
X8851561Y336500D01*
X8651602Y296726D01*
X8463244Y218705D01*
X8293726Y105437D01*
X8249789Y61500D01*
X7496801Y61500D01*
X7463756Y94545D01*
X7534937Y165726D01*
X7648205Y335244D01*
X7726226Y523602D01*
X7766000Y723561D01*
X7766000Y927439D01*
X7726226Y1127398D01*
X7648205Y1315756D01*
X7534937Y1485274D01*
X7491000Y1529211D01*
X7491000Y6882999D01*
X7528227Y6920226D01*
X7590365Y6920226D01*
X7790324Y6960000D01*
X7978682Y7038021D01*
X8148200Y7151289D01*
X8292363Y7295452D01*
X8405631Y7464970D01*
X8483652Y7653328D01*
X8523426Y7853287D01*
X8523426Y8057165D01*
X8483652Y8257124D01*
X8405631Y8445482D01*
X8404283Y8447500D01*
X8939883Y8447500D01*
X8934500Y8420439D01*
X8934500Y8420439D01*
G37*
X8934500Y8420439D02*
X8934500Y8216561D01*
X8974274Y8016602D01*
X9052295Y7828244D01*
X9165563Y7658726D01*
X9309726Y7514563D01*
X9479244Y7401295D01*
X9667602Y7323274D01*
X9867561Y7283500D01*
X9929699Y7283500D01*
X10961000Y6252198D01*
X10961000Y1136394D01*
X10886705Y1315756D01*
X10773437Y1485274D01*
X10629274Y1629437D01*
X10459756Y1742705D01*
X10271398Y1820726D01*
X10071439Y1860500D01*
X9867561Y1860500D01*
X9667602Y1820726D01*
X9479244Y1742705D01*
X9309726Y1629437D01*
X9165563Y1485274D01*
X9052295Y1315756D01*
X8974274Y1127398D01*
X8934500Y927439D01*
X8934500Y723561D01*
X8974274Y523602D01*
X9051775Y336500D01*
X8851561Y336500D01*
X8651602Y296726D01*
X8463244Y218705D01*
X8293726Y105437D01*
X8249789Y61500D01*
X7496801Y61500D01*
X7463756Y94545D01*
X7534937Y165726D01*
X7648205Y335244D01*
X7726226Y523602D01*
X7766000Y723561D01*
X7766000Y927439D01*
X7726226Y1127398D01*
X7648205Y1315756D01*
X7534937Y1485274D01*
X7491000Y1529211D01*
X7491000Y6882999D01*
X7528227Y6920226D01*
X7590365Y6920226D01*
X7790324Y6960000D01*
X7978682Y7038021D01*
X8148200Y7151289D01*
X8292363Y7295452D01*
X8405631Y7464970D01*
X8483652Y7653328D01*
X8523426Y7853287D01*
X8523426Y8057165D01*
X8483652Y8257124D01*
X8405631Y8445482D01*
X8404283Y8447500D01*
X8939883Y8447500D01*
X8934500Y8420439D01*
G36*
X-15498381Y28362782D02*
G01*
X-15354218Y28218619D01*
X-15332972Y28204423D01*
X-16211895Y27325500D01*
X-15332972Y26446577D01*
X-15354218Y26432381D01*
X-15498381Y26288218D01*
X-15512577Y26266972D01*
X-16391500Y27145895D01*
X-17270423Y26266972D01*
X-17284619Y26288218D01*
X-17428782Y26432381D01*
X-17450028Y26446577D01*
X-16571105Y27325500D01*
X-16585247Y27339642D01*
X-16405642Y27519247D01*
X-16391500Y27505105D01*
X-15512577Y28384028D01*
X-15498381Y28362782D01*
X-15498381Y28362782D01*
G37*
X-15498381Y28362782D02*
X-15354218Y28218619D01*
X-15332972Y28204423D01*
X-16211895Y27325500D01*
X-15332972Y26446577D01*
X-15354218Y26432381D01*
X-15498381Y26288218D01*
X-15512577Y26266972D01*
X-16391500Y27145895D01*
X-17270423Y26266972D01*
X-17284619Y26288218D01*
X-17428782Y26432381D01*
X-17450028Y26446577D01*
X-16571105Y27325500D01*
X-16585247Y27339642D01*
X-16405642Y27519247D01*
X-16391500Y27505105D01*
X-15512577Y28384028D01*
X-15498381Y28362782D01*
G36*
X18677500Y27505105D02*
G01*
X18691643Y27519247D01*
X18871248Y27339642D01*
X18857105Y27325500D01*
X19736028Y26446577D01*
X19714782Y26432381D01*
X19570619Y26288218D01*
X19556423Y26266972D01*
X18677500Y27145895D01*
X17798577Y26266972D01*
X17784381Y26288218D01*
X17640218Y26432381D01*
X17618972Y26446577D01*
X18497895Y27325500D01*
X17618972Y28204423D01*
X17640218Y28218619D01*
X17784381Y28362782D01*
X17798577Y28384028D01*
X18677500Y27505105D01*
X18677500Y27505105D01*
G37*
X18677500Y27505105D02*
X18691643Y27519247D01*
X18871248Y27339642D01*
X18857105Y27325500D01*
X19736028Y26446577D01*
X19714782Y26432381D01*
X19570619Y26288218D01*
X19556423Y26266972D01*
X18677500Y27145895D01*
X17798577Y26266972D01*
X17784381Y26288218D01*
X17640218Y26432381D01*
X17618972Y26446577D01*
X18497895Y27325500D01*
X17618972Y28204423D01*
X17640218Y28218619D01*
X17784381Y28362782D01*
X17798577Y28384028D01*
X18677500Y27505105D01*
M02*
